M48
; DRILL file {KiCad (5.1.2)-1} date 03/06/2019 22:16:23
; FORMAT={-:-/ absolute / inch / decimal}
; #@! TF.CreationDate,2019-06-03T22:16:23-03:00
; #@! TF.GenerationSoftware,Kicad,Pcbnew,(5.1.2)-1
; #@! TF.FileFunction,Plated,1,2,PTH
FMAT,2
INCH
T1C0.0300
T2C0.0315
T3C0.0354
T4C0.0394
%
G90
G05
T1
X4.1Y-3.475
X4.1Y-3.575
X4.1Y-3.675
X4.1Y-3.775
X4.1Y-3.875
X4.1Y-3.975
X4.1Y-4.075
X4.1Y-4.175
X4.1Y-4.275
X4.1Y-4.375
X4.1Y-4.475
X4.1Y-4.575
X4.1Y-4.675
X4.1Y-4.775
X4.1Y-4.875
X5.0Y-3.475
X5.0Y-3.575
X5.0Y-3.675
X5.0Y-3.775
X5.0Y-3.875
X5.0Y-3.975
X5.0Y-4.075
X5.0Y-4.175
X5.0Y-4.275
X5.0Y-4.375
X5.0Y-4.475
X5.0Y-4.575
X5.0Y-4.675
X5.0Y-4.775
X5.0Y-4.875
T2
X5.4525Y-4.95
X5.7525Y-4.95
X7.2Y-4.9
X7.5Y-4.9
X3.675Y-4.9
X3.975Y-4.9
T3
X3.55Y-4.65
X3.65Y-4.65
X5.4473Y-4.65
X5.5473Y-4.65
X7.22Y-4.65
X7.32Y-4.65
T4
X7.475Y-4.625
X7.475Y-4.725
X6.5575Y-4.6491
X6.5575Y-4.905
X6.7347Y-4.6491
X6.7347Y-4.905
X3.875Y-4.6
X3.875Y-4.7
X5.7375Y-4.65
X5.7375Y-4.75
T4
G00X6.1106Y-4.7138
M15
G01X6.1894Y-4.7138
M16
G05
G00X6.1106Y-4.95
M15
G01X6.1894Y-4.95
M16
G05
G00X6.335Y-4.8713
M15
G01X6.335Y-4.7925
M16
G05
T0
M30
