%FSLAX45Y45*%
G04 Gerber Fmt 4.5, Leading zero omitted, Abs format (unit mm)*
G04 Created by KiCad (PCBNEW (5.1.2)-1) date 2019-06-03 22:16:30*
%MOMM*%
%LPD*%
G04 APERTURE LIST*
%ADD10C,0.150000*%
%ADD11C,0.200000*%
%ADD12C,0.300000*%
G04 APERTURE END LIST*
D10*
X11771971Y-12128500D02*
G75*
G03X11771971Y-12128500I-151471J0D01*
G01*
X151471Y0D02*
G75*
G03X151471Y0I-151471J0D01*
G01*
X-547029Y63500D02*
G75*
G03X-547029Y63500I-151471J0D01*
G01*
X12890500Y-8636000D02*
X13081000Y-8826500D01*
X10287000Y-8636000D02*
X12890500Y-8636000D01*
X10096500Y-8820150D02*
X10287000Y-8636000D01*
X9207500Y-13017500D02*
X8699500Y-12509500D01*
X17906071Y-12128500D02*
G75*
G03X17906071Y-12128500I-151471J0D01*
G01*
X11771971Y-9550400D02*
G75*
G03X11771971Y-9550400I-151471J0D01*
G01*
X9207500Y-13017500D02*
X18859500Y-13017500D01*
X19240500Y-11620500D02*
X19240500Y-12636500D01*
X18923000Y-11303000D02*
X19240500Y-11620500D01*
X13462000Y-11303000D02*
X18923000Y-11303000D01*
X13081000Y-10922000D02*
X13462000Y-11303000D01*
X13081000Y-10668000D02*
X13081000Y-10922000D01*
X8699500Y-11620500D02*
X8699500Y-12509500D01*
X9017000Y-11303000D02*
X8699500Y-11620500D01*
X9906000Y-11303000D02*
X9017000Y-11303000D01*
X10096500Y-11112500D02*
X9906000Y-11303000D01*
X10096500Y-10541000D02*
X10096500Y-11112500D01*
X13081000Y-8826500D02*
X13081000Y-10668000D01*
X10096500Y-10541000D02*
X10096500Y-8820150D01*
X19240500Y-12636500D02*
X18859500Y-13017500D01*
D11*
X10375900Y-8788400D02*
X10452100Y-8864600D01*
X10452100Y-8788400D02*
X10375900Y-8864600D01*
X10375900Y-9042400D02*
X10452100Y-9118600D01*
X10452100Y-9042400D02*
X10375900Y-9118600D01*
X10375900Y-9296400D02*
X10452100Y-9372600D01*
X10452100Y-9296400D02*
X10375900Y-9372600D01*
X10375900Y-9550400D02*
X10452100Y-9626600D01*
X10452100Y-9550400D02*
X10375900Y-9626600D01*
X10375900Y-9804400D02*
X10452100Y-9880600D01*
X10452100Y-9804400D02*
X10375900Y-9880600D01*
X10375900Y-10058400D02*
X10452100Y-10134600D01*
X10452100Y-10058400D02*
X10375900Y-10134600D01*
X10375900Y-10312400D02*
X10452100Y-10388600D01*
X10452100Y-10312400D02*
X10375900Y-10388600D01*
X10375900Y-10566400D02*
X10452100Y-10642600D01*
X10452100Y-10566400D02*
X10375900Y-10642600D01*
X10375900Y-10820400D02*
X10452100Y-10896600D01*
X10452100Y-10820400D02*
X10375900Y-10896600D01*
X10375900Y-11074400D02*
X10452100Y-11150600D01*
X10452100Y-11074400D02*
X10375900Y-11150600D01*
X10375900Y-11328400D02*
X10452100Y-11404600D01*
X10452100Y-11328400D02*
X10375900Y-11404600D01*
X10375900Y-11582400D02*
X10452100Y-11658600D01*
X10452100Y-11582400D02*
X10375900Y-11658600D01*
X10375900Y-11836400D02*
X10452100Y-11912600D01*
X10452100Y-11836400D02*
X10375900Y-11912600D01*
X10375900Y-12090400D02*
X10452100Y-12166600D01*
X10452100Y-12090400D02*
X10375900Y-12166600D01*
X10375900Y-12344400D02*
X10452100Y-12420600D01*
X10452100Y-12344400D02*
X10375900Y-12420600D01*
X12661900Y-8788400D02*
X12738100Y-8864600D01*
X12738100Y-8788400D02*
X12661900Y-8864600D01*
X12661900Y-9042400D02*
X12738100Y-9118600D01*
X12738100Y-9042400D02*
X12661900Y-9118600D01*
X12661900Y-9296400D02*
X12738100Y-9372600D01*
X12738100Y-9296400D02*
X12661900Y-9372600D01*
X12661900Y-9550400D02*
X12738100Y-9626600D01*
X12738100Y-9550400D02*
X12661900Y-9626600D01*
X12661900Y-9804400D02*
X12738100Y-9880600D01*
X12738100Y-9804400D02*
X12661900Y-9880600D01*
X12661900Y-10058400D02*
X12738100Y-10134600D01*
X12738100Y-10058400D02*
X12661900Y-10134600D01*
X12661900Y-10312400D02*
X12738100Y-10388600D01*
X12738100Y-10312400D02*
X12661900Y-10388600D01*
X12661900Y-10566400D02*
X12738100Y-10642600D01*
X12738100Y-10566400D02*
X12661900Y-10642600D01*
X12661900Y-10820400D02*
X12738100Y-10896600D01*
X12738100Y-10820400D02*
X12661900Y-10896600D01*
X12661900Y-11074400D02*
X12738100Y-11150600D01*
X12738100Y-11074400D02*
X12661900Y-11150600D01*
X12661900Y-11328400D02*
X12738100Y-11404600D01*
X12738100Y-11328400D02*
X12661900Y-11404600D01*
X12661900Y-11582400D02*
X12738100Y-11658600D01*
X12738100Y-11582400D02*
X12661900Y-11658600D01*
X12661900Y-11836400D02*
X12738100Y-11912600D01*
X12738100Y-11836400D02*
X12661900Y-11912600D01*
X12661900Y-12090400D02*
X12738100Y-12166600D01*
X12738100Y-12090400D02*
X12661900Y-12166600D01*
X12661900Y-12344400D02*
X12738100Y-12420600D01*
X12738100Y-12344400D02*
X12661900Y-12420600D01*
X13889350Y-12573000D02*
G75*
G03X13889350Y-12573000I-40000J0D01*
G01*
X14651350Y-12573000D02*
G75*
G03X14651350Y-12573000I-40000J0D01*
G01*
X18328000Y-12446000D02*
G75*
G03X18328000Y-12446000I-40000J0D01*
G01*
X19090000Y-12446000D02*
G75*
G03X19090000Y-12446000I-40000J0D01*
G01*
X9374500Y-12446000D02*
G75*
G03X9374500Y-12446000I-40000J0D01*
G01*
X10136500Y-12446000D02*
G75*
G03X10136500Y-12446000I-40000J0D01*
G01*
X9017000Y-11766000D02*
X9017000Y-11856000D01*
X8972000Y-11811000D02*
X9062000Y-11811000D01*
X9271000Y-11766000D02*
X9271000Y-11856000D01*
X9226000Y-11811000D02*
X9316000Y-11811000D01*
X13836150Y-11766000D02*
X13836150Y-11856000D01*
X13791150Y-11811000D02*
X13881150Y-11811000D01*
X14090150Y-11766000D02*
X14090150Y-11856000D01*
X14045150Y-11811000D02*
X14135150Y-11811000D01*
X18338800Y-11766000D02*
X18338800Y-11856000D01*
X18293800Y-11811000D02*
X18383800Y-11811000D01*
X18592800Y-11766000D02*
X18592800Y-11856000D01*
X18547800Y-11811000D02*
X18637800Y-11811000D01*
X19021856Y-11782856D02*
X19021856Y-11712144D01*
X18951144Y-11712144D01*
X18951144Y-11782856D01*
X19021856Y-11782856D01*
X19021856Y-12036856D02*
X19021856Y-11966144D01*
X18951144Y-11966144D01*
X18951144Y-12036856D01*
X19021856Y-12036856D01*
X16691406Y-11844056D02*
X16691406Y-11773344D01*
X16620694Y-11773344D01*
X16620694Y-11844056D01*
X16691406Y-11844056D01*
X16691406Y-12494056D02*
X16691406Y-12423344D01*
X16620694Y-12423344D01*
X16620694Y-12494056D01*
X16691406Y-12494056D01*
X17141406Y-11844056D02*
X17141406Y-11773344D01*
X17070694Y-11773344D01*
X17070694Y-11844056D01*
X17141406Y-11844056D01*
X17141406Y-12494056D02*
X17141406Y-12423344D01*
X17070694Y-12423344D01*
X17070694Y-12494056D01*
X17141406Y-12494056D01*
X15656356Y-12008356D02*
X15656356Y-11937644D01*
X15585644Y-11937644D01*
X15585644Y-12008356D01*
X15656356Y-12008356D01*
X15521000Y-12013000D02*
X15721000Y-12013000D01*
X15521000Y-11933000D02*
X15721000Y-11933000D01*
X15721000Y-12013000D02*
G75*
G03X15721000Y-11933000I0J40000D01*
G01*
X15521000Y-11933000D02*
G75*
G03X15521000Y-12013000I0J-40000D01*
G01*
X15656356Y-12608356D02*
X15656356Y-12537644D01*
X15585644Y-12537644D01*
X15585644Y-12608356D01*
X15656356Y-12608356D01*
X15521000Y-12613000D02*
X15721000Y-12613000D01*
X15521000Y-12533000D02*
X15721000Y-12533000D01*
X15721000Y-12613000D02*
G75*
G03X15721000Y-12533000I0J40000D01*
G01*
X15521000Y-12533000D02*
G75*
G03X15521000Y-12613000I0J-40000D01*
G01*
X16126356Y-12308356D02*
X16126356Y-12237644D01*
X16055644Y-12237644D01*
X16055644Y-12308356D01*
X16126356Y-12308356D01*
X16131000Y-12373000D02*
X16131000Y-12173000D01*
X16051000Y-12373000D02*
X16051000Y-12173000D01*
X16131000Y-12173000D02*
G75*
G03X16051000Y-12173000I-40000J0D01*
G01*
X16051000Y-12373000D02*
G75*
G03X16131000Y-12373000I40000J0D01*
G01*
X9877856Y-11719356D02*
X9877856Y-11648644D01*
X9807144Y-11648644D01*
X9807144Y-11719356D01*
X9877856Y-11719356D01*
X9877856Y-11973356D02*
X9877856Y-11902644D01*
X9807144Y-11902644D01*
X9807144Y-11973356D01*
X9877856Y-11973356D01*
X14608606Y-11846356D02*
X14608606Y-11775644D01*
X14537894Y-11775644D01*
X14537894Y-11846356D01*
X14608606Y-11846356D01*
X14608606Y-12100356D02*
X14608606Y-12029644D01*
X14537894Y-12029644D01*
X14537894Y-12100356D01*
X14608606Y-12100356D01*
D12*
X-571043Y-13490714D02*
X-571043Y-13190714D01*
X-499614Y-13190714D01*
X-456757Y-13205000D01*
X-428185Y-13233571D01*
X-413900Y-13262143D01*
X-399614Y-13319286D01*
X-399614Y-13362143D01*
X-413900Y-13419286D01*
X-428185Y-13447857D01*
X-456757Y-13476429D01*
X-499614Y-13490714D01*
X-571043Y-13490714D01*
X-271043Y-13490714D02*
X-271043Y-13290714D01*
X-271043Y-13347857D02*
X-256757Y-13319286D01*
X-242471Y-13305000D01*
X-213900Y-13290714D01*
X-185328Y-13290714D01*
X-85328Y-13490714D02*
X-85328Y-13290714D01*
X-85328Y-13190714D02*
X-99614Y-13205000D01*
X-85328Y-13219286D01*
X-71043Y-13205000D01*
X-85328Y-13190714D01*
X-85328Y-13219286D01*
X100386Y-13490714D02*
X71815Y-13476429D01*
X57529Y-13447857D01*
X57529Y-13190714D01*
X257529Y-13490714D02*
X228957Y-13476429D01*
X214672Y-13447857D01*
X214672Y-13190714D01*
X600386Y-13490714D02*
X600386Y-13190714D01*
X700386Y-13405000D01*
X800386Y-13190714D01*
X800386Y-13490714D01*
X1071815Y-13490714D02*
X1071815Y-13333571D01*
X1057529Y-13305000D01*
X1028957Y-13290714D01*
X971814Y-13290714D01*
X943243Y-13305000D01*
X1071815Y-13476429D02*
X1043243Y-13490714D01*
X971814Y-13490714D01*
X943243Y-13476429D01*
X928957Y-13447857D01*
X928957Y-13419286D01*
X943243Y-13390714D01*
X971814Y-13376429D01*
X1043243Y-13376429D01*
X1071815Y-13362143D01*
X1214672Y-13290714D02*
X1214672Y-13590714D01*
X1214672Y-13305000D02*
X1243243Y-13290714D01*
X1300386Y-13290714D01*
X1328957Y-13305000D01*
X1343243Y-13319286D01*
X1357529Y-13347857D01*
X1357529Y-13433571D01*
X1343243Y-13462143D01*
X1328957Y-13476429D01*
X1300386Y-13490714D01*
X1243243Y-13490714D01*
X1214672Y-13476429D01*
X1486100Y-13462143D02*
X1500386Y-13476429D01*
X1486100Y-13490714D01*
X1471814Y-13476429D01*
X1486100Y-13462143D01*
X1486100Y-13490714D01*
X1486100Y-13305000D02*
X1500386Y-13319286D01*
X1486100Y-13333571D01*
X1471814Y-13319286D01*
X1486100Y-13305000D01*
X1486100Y-13333571D01*
X-933671Y-13946900D02*
X-857471Y-14023100D01*
X-857471Y-13946900D02*
X-933671Y-14023100D01*
X-513900Y-13820714D02*
X-485328Y-13820714D01*
X-456757Y-13835000D01*
X-442471Y-13849286D01*
X-428185Y-13877857D01*
X-413900Y-13935000D01*
X-413900Y-14006429D01*
X-428185Y-14063571D01*
X-442471Y-14092143D01*
X-456757Y-14106429D01*
X-485328Y-14120714D01*
X-513900Y-14120714D01*
X-542471Y-14106429D01*
X-556757Y-14092143D01*
X-571043Y-14063571D01*
X-585328Y-14006429D01*
X-585328Y-13935000D01*
X-571043Y-13877857D01*
X-556757Y-13849286D01*
X-542471Y-13835000D01*
X-513900Y-13820714D01*
X-285328Y-14092143D02*
X-271043Y-14106429D01*
X-285328Y-14120714D01*
X-299614Y-14106429D01*
X-285328Y-14092143D01*
X-285328Y-14120714D01*
X-171043Y-13820714D02*
X28957Y-13820714D01*
X-99614Y-14120714D01*
X271815Y-13820714D02*
X214672Y-13820714D01*
X186100Y-13835000D01*
X171815Y-13849286D01*
X143243Y-13892143D01*
X128957Y-13949286D01*
X128957Y-14063571D01*
X143243Y-14092143D01*
X157529Y-14106429D01*
X186100Y-14120714D01*
X243243Y-14120714D01*
X271815Y-14106429D01*
X286100Y-14092143D01*
X300386Y-14063571D01*
X300386Y-13992143D01*
X286100Y-13963571D01*
X271815Y-13949286D01*
X243243Y-13935000D01*
X186100Y-13935000D01*
X157529Y-13949286D01*
X143243Y-13963571D01*
X128957Y-13992143D01*
X428957Y-14120714D02*
X428957Y-13920714D01*
X428957Y-13949286D02*
X443243Y-13935000D01*
X471814Y-13920714D01*
X514672Y-13920714D01*
X543243Y-13935000D01*
X557529Y-13963571D01*
X557529Y-14120714D01*
X557529Y-13963571D02*
X571815Y-13935000D01*
X600386Y-13920714D01*
X643243Y-13920714D01*
X671815Y-13935000D01*
X686100Y-13963571D01*
X686100Y-14120714D01*
X828957Y-14120714D02*
X828957Y-13920714D01*
X828957Y-13949286D02*
X843243Y-13935000D01*
X871814Y-13920714D01*
X914672Y-13920714D01*
X943243Y-13935000D01*
X957529Y-13963571D01*
X957529Y-14120714D01*
X957529Y-13963571D02*
X971814Y-13935000D01*
X1000386Y-13920714D01*
X1043243Y-13920714D01*
X1071815Y-13935000D01*
X1086100Y-13963571D01*
X1086100Y-14120714D01*
X1671814Y-13806429D02*
X1414672Y-14192143D01*
X2057529Y-13820714D02*
X2086100Y-13820714D01*
X2114672Y-13835000D01*
X2128957Y-13849286D01*
X2143243Y-13877857D01*
X2157529Y-13935000D01*
X2157529Y-14006429D01*
X2143243Y-14063571D01*
X2128957Y-14092143D01*
X2114672Y-14106429D01*
X2086100Y-14120714D01*
X2057529Y-14120714D01*
X2028957Y-14106429D01*
X2014672Y-14092143D01*
X2000386Y-14063571D01*
X1986100Y-14006429D01*
X1986100Y-13935000D01*
X2000386Y-13877857D01*
X2014672Y-13849286D01*
X2028957Y-13835000D01*
X2057529Y-13820714D01*
X2286100Y-14092143D02*
X2300386Y-14106429D01*
X2286100Y-14120714D01*
X2271815Y-14106429D01*
X2286100Y-14092143D01*
X2286100Y-14120714D01*
X2486100Y-13820714D02*
X2514672Y-13820714D01*
X2543243Y-13835000D01*
X2557529Y-13849286D01*
X2571815Y-13877857D01*
X2586100Y-13935000D01*
X2586100Y-14006429D01*
X2571815Y-14063571D01*
X2557529Y-14092143D01*
X2543243Y-14106429D01*
X2514672Y-14120714D01*
X2486100Y-14120714D01*
X2457529Y-14106429D01*
X2443243Y-14092143D01*
X2428957Y-14063571D01*
X2414672Y-14006429D01*
X2414672Y-13935000D01*
X2428957Y-13877857D01*
X2443243Y-13849286D01*
X2457529Y-13835000D01*
X2486100Y-13820714D01*
X2686100Y-13820714D02*
X2871814Y-13820714D01*
X2771815Y-13935000D01*
X2814672Y-13935000D01*
X2843243Y-13949286D01*
X2857529Y-13963571D01*
X2871814Y-13992143D01*
X2871814Y-14063571D01*
X2857529Y-14092143D01*
X2843243Y-14106429D01*
X2814672Y-14120714D01*
X2728957Y-14120714D01*
X2700386Y-14106429D01*
X2686100Y-14092143D01*
X3057529Y-13820714D02*
X3086100Y-13820714D01*
X3114672Y-13835000D01*
X3128957Y-13849286D01*
X3143243Y-13877857D01*
X3157529Y-13935000D01*
X3157529Y-14006429D01*
X3143243Y-14063571D01*
X3128957Y-14092143D01*
X3114672Y-14106429D01*
X3086100Y-14120714D01*
X3057529Y-14120714D01*
X3028957Y-14106429D01*
X3014672Y-14092143D01*
X3000386Y-14063571D01*
X2986100Y-14006429D01*
X2986100Y-13935000D01*
X3000386Y-13877857D01*
X3014672Y-13849286D01*
X3028957Y-13835000D01*
X3057529Y-13820714D01*
X3271814Y-13820714D02*
X3271814Y-13877857D01*
X3386100Y-13820714D02*
X3386100Y-13877857D01*
X3828957Y-14235000D02*
X3814672Y-14220714D01*
X3786100Y-14177857D01*
X3771814Y-14149286D01*
X3757529Y-14106429D01*
X3743243Y-14035000D01*
X3743243Y-13977857D01*
X3757529Y-13906429D01*
X3771814Y-13863571D01*
X3786100Y-13835000D01*
X3814672Y-13792143D01*
X3828957Y-13777857D01*
X3914672Y-13820714D02*
X4100386Y-13820714D01*
X4000386Y-13935000D01*
X4043243Y-13935000D01*
X4071814Y-13949286D01*
X4086100Y-13963571D01*
X4100386Y-13992143D01*
X4100386Y-14063571D01*
X4086100Y-14092143D01*
X4071814Y-14106429D01*
X4043243Y-14120714D01*
X3957529Y-14120714D01*
X3928957Y-14106429D01*
X3914672Y-14092143D01*
X4286100Y-13820714D02*
X4314672Y-13820714D01*
X4343243Y-13835000D01*
X4357529Y-13849286D01*
X4371815Y-13877857D01*
X4386100Y-13935000D01*
X4386100Y-14006429D01*
X4371815Y-14063571D01*
X4357529Y-14092143D01*
X4343243Y-14106429D01*
X4314672Y-14120714D01*
X4286100Y-14120714D01*
X4257529Y-14106429D01*
X4243243Y-14092143D01*
X4228957Y-14063571D01*
X4214672Y-14006429D01*
X4214672Y-13935000D01*
X4228957Y-13877857D01*
X4243243Y-13849286D01*
X4257529Y-13835000D01*
X4286100Y-13820714D01*
X4743243Y-14120714D02*
X4743243Y-13820714D01*
X4871815Y-14120714D02*
X4871815Y-13963571D01*
X4857529Y-13935000D01*
X4828957Y-13920714D01*
X4786100Y-13920714D01*
X4757529Y-13935000D01*
X4743243Y-13949286D01*
X5057529Y-14120714D02*
X5028957Y-14106429D01*
X5014672Y-14092143D01*
X5000386Y-14063571D01*
X5000386Y-13977857D01*
X5014672Y-13949286D01*
X5028957Y-13935000D01*
X5057529Y-13920714D01*
X5100386Y-13920714D01*
X5128957Y-13935000D01*
X5143243Y-13949286D01*
X5157529Y-13977857D01*
X5157529Y-14063571D01*
X5143243Y-14092143D01*
X5128957Y-14106429D01*
X5100386Y-14120714D01*
X5057529Y-14120714D01*
X5328957Y-14120714D02*
X5300386Y-14106429D01*
X5286100Y-14077857D01*
X5286100Y-13820714D01*
X5557529Y-14106429D02*
X5528957Y-14120714D01*
X5471815Y-14120714D01*
X5443243Y-14106429D01*
X5428957Y-14077857D01*
X5428957Y-13963571D01*
X5443243Y-13935000D01*
X5471815Y-13920714D01*
X5528957Y-13920714D01*
X5557529Y-13935000D01*
X5571815Y-13963571D01*
X5571815Y-13992143D01*
X5428957Y-14020714D01*
X5686100Y-14106429D02*
X5714672Y-14120714D01*
X5771814Y-14120714D01*
X5800386Y-14106429D01*
X5814672Y-14077857D01*
X5814672Y-14063571D01*
X5800386Y-14035000D01*
X5771814Y-14020714D01*
X5728957Y-14020714D01*
X5700386Y-14006429D01*
X5686100Y-13977857D01*
X5686100Y-13963571D01*
X5700386Y-13935000D01*
X5728957Y-13920714D01*
X5771814Y-13920714D01*
X5800386Y-13935000D01*
X5914672Y-14235000D02*
X5928957Y-14220714D01*
X5957529Y-14177857D01*
X5971814Y-14149286D01*
X5986100Y-14106429D01*
X6000386Y-14035000D01*
X6000386Y-13977857D01*
X5986100Y-13906429D01*
X5971814Y-13863571D01*
X5957529Y-13835000D01*
X5928957Y-13792143D01*
X5914672Y-13777857D01*
X-857471Y-14381000D02*
G75*
G03X-857471Y-14381000I-40000J0D01*
G01*
X-513900Y-14216714D02*
X-485328Y-14216714D01*
X-456757Y-14231000D01*
X-442471Y-14245286D01*
X-428185Y-14273857D01*
X-413900Y-14331000D01*
X-413900Y-14402429D01*
X-428185Y-14459571D01*
X-442471Y-14488143D01*
X-456757Y-14502429D01*
X-485328Y-14516714D01*
X-513900Y-14516714D01*
X-542471Y-14502429D01*
X-556757Y-14488143D01*
X-571043Y-14459571D01*
X-585328Y-14402429D01*
X-585328Y-14331000D01*
X-571043Y-14273857D01*
X-556757Y-14245286D01*
X-542471Y-14231000D01*
X-513900Y-14216714D01*
X-285328Y-14488143D02*
X-271043Y-14502429D01*
X-285328Y-14516714D01*
X-299614Y-14502429D01*
X-285328Y-14488143D01*
X-285328Y-14516714D01*
X-99614Y-14345286D02*
X-128185Y-14331000D01*
X-142471Y-14316714D01*
X-156757Y-14288143D01*
X-156757Y-14273857D01*
X-142471Y-14245286D01*
X-128185Y-14231000D01*
X-99614Y-14216714D01*
X-42471Y-14216714D01*
X-13900Y-14231000D01*
X386Y-14245286D01*
X14672Y-14273857D01*
X14672Y-14288143D01*
X386Y-14316714D01*
X-13900Y-14331000D01*
X-42471Y-14345286D01*
X-99614Y-14345286D01*
X-128185Y-14359571D01*
X-142471Y-14373857D01*
X-156757Y-14402429D01*
X-156757Y-14459571D01*
X-142471Y-14488143D01*
X-128185Y-14502429D01*
X-99614Y-14516714D01*
X-42471Y-14516714D01*
X-13900Y-14502429D01*
X386Y-14488143D01*
X14672Y-14459571D01*
X14672Y-14402429D01*
X386Y-14373857D01*
X-13900Y-14359571D01*
X-42471Y-14345286D01*
X200386Y-14216714D02*
X228957Y-14216714D01*
X257529Y-14231000D01*
X271815Y-14245286D01*
X286100Y-14273857D01*
X300386Y-14331000D01*
X300386Y-14402429D01*
X286100Y-14459571D01*
X271815Y-14488143D01*
X257529Y-14502429D01*
X228957Y-14516714D01*
X200386Y-14516714D01*
X171815Y-14502429D01*
X157529Y-14488143D01*
X143243Y-14459571D01*
X128957Y-14402429D01*
X128957Y-14331000D01*
X143243Y-14273857D01*
X157529Y-14245286D01*
X171815Y-14231000D01*
X200386Y-14216714D01*
X428957Y-14516714D02*
X428957Y-14316714D01*
X428957Y-14345286D02*
X443243Y-14331000D01*
X471814Y-14316714D01*
X514672Y-14316714D01*
X543243Y-14331000D01*
X557529Y-14359571D01*
X557529Y-14516714D01*
X557529Y-14359571D02*
X571815Y-14331000D01*
X600386Y-14316714D01*
X643243Y-14316714D01*
X671815Y-14331000D01*
X686100Y-14359571D01*
X686100Y-14516714D01*
X828957Y-14516714D02*
X828957Y-14316714D01*
X828957Y-14345286D02*
X843243Y-14331000D01*
X871814Y-14316714D01*
X914672Y-14316714D01*
X943243Y-14331000D01*
X957529Y-14359571D01*
X957529Y-14516714D01*
X957529Y-14359571D02*
X971814Y-14331000D01*
X1000386Y-14316714D01*
X1043243Y-14316714D01*
X1071815Y-14331000D01*
X1086100Y-14359571D01*
X1086100Y-14516714D01*
X1671814Y-14202429D02*
X1414672Y-14588143D01*
X2057529Y-14216714D02*
X2086100Y-14216714D01*
X2114672Y-14231000D01*
X2128957Y-14245286D01*
X2143243Y-14273857D01*
X2157529Y-14331000D01*
X2157529Y-14402429D01*
X2143243Y-14459571D01*
X2128957Y-14488143D01*
X2114672Y-14502429D01*
X2086100Y-14516714D01*
X2057529Y-14516714D01*
X2028957Y-14502429D01*
X2014672Y-14488143D01*
X2000386Y-14459571D01*
X1986100Y-14402429D01*
X1986100Y-14331000D01*
X2000386Y-14273857D01*
X2014672Y-14245286D01*
X2028957Y-14231000D01*
X2057529Y-14216714D01*
X2286100Y-14488143D02*
X2300386Y-14502429D01*
X2286100Y-14516714D01*
X2271815Y-14502429D01*
X2286100Y-14488143D01*
X2286100Y-14516714D01*
X2486100Y-14216714D02*
X2514672Y-14216714D01*
X2543243Y-14231000D01*
X2557529Y-14245286D01*
X2571815Y-14273857D01*
X2586100Y-14331000D01*
X2586100Y-14402429D01*
X2571815Y-14459571D01*
X2557529Y-14488143D01*
X2543243Y-14502429D01*
X2514672Y-14516714D01*
X2486100Y-14516714D01*
X2457529Y-14502429D01*
X2443243Y-14488143D01*
X2428957Y-14459571D01*
X2414672Y-14402429D01*
X2414672Y-14331000D01*
X2428957Y-14273857D01*
X2443243Y-14245286D01*
X2457529Y-14231000D01*
X2486100Y-14216714D01*
X2686100Y-14216714D02*
X2871814Y-14216714D01*
X2771815Y-14331000D01*
X2814672Y-14331000D01*
X2843243Y-14345286D01*
X2857529Y-14359571D01*
X2871814Y-14388143D01*
X2871814Y-14459571D01*
X2857529Y-14488143D01*
X2843243Y-14502429D01*
X2814672Y-14516714D01*
X2728957Y-14516714D01*
X2700386Y-14502429D01*
X2686100Y-14488143D01*
X3157529Y-14516714D02*
X2986100Y-14516714D01*
X3071814Y-14516714D02*
X3071814Y-14216714D01*
X3043243Y-14259571D01*
X3014672Y-14288143D01*
X2986100Y-14302429D01*
X3271814Y-14216714D02*
X3271814Y-14273857D01*
X3386100Y-14216714D02*
X3386100Y-14273857D01*
X3828957Y-14631000D02*
X3814672Y-14616714D01*
X3786100Y-14573857D01*
X3771814Y-14545286D01*
X3757529Y-14502429D01*
X3743243Y-14431000D01*
X3743243Y-14373857D01*
X3757529Y-14302429D01*
X3771814Y-14259571D01*
X3786100Y-14231000D01*
X3814672Y-14188143D01*
X3828957Y-14173857D01*
X4071814Y-14216714D02*
X4014672Y-14216714D01*
X3986100Y-14231000D01*
X3971814Y-14245286D01*
X3943243Y-14288143D01*
X3928957Y-14345286D01*
X3928957Y-14459571D01*
X3943243Y-14488143D01*
X3957529Y-14502429D01*
X3986100Y-14516714D01*
X4043243Y-14516714D01*
X4071814Y-14502429D01*
X4086100Y-14488143D01*
X4100386Y-14459571D01*
X4100386Y-14388143D01*
X4086100Y-14359571D01*
X4071814Y-14345286D01*
X4043243Y-14331000D01*
X3986100Y-14331000D01*
X3957529Y-14345286D01*
X3943243Y-14359571D01*
X3928957Y-14388143D01*
X4457529Y-14516714D02*
X4457529Y-14216714D01*
X4586100Y-14516714D02*
X4586100Y-14359571D01*
X4571815Y-14331000D01*
X4543243Y-14316714D01*
X4500386Y-14316714D01*
X4471815Y-14331000D01*
X4457529Y-14345286D01*
X4771815Y-14516714D02*
X4743243Y-14502429D01*
X4728957Y-14488143D01*
X4714672Y-14459571D01*
X4714672Y-14373857D01*
X4728957Y-14345286D01*
X4743243Y-14331000D01*
X4771815Y-14316714D01*
X4814672Y-14316714D01*
X4843243Y-14331000D01*
X4857529Y-14345286D01*
X4871815Y-14373857D01*
X4871815Y-14459571D01*
X4857529Y-14488143D01*
X4843243Y-14502429D01*
X4814672Y-14516714D01*
X4771815Y-14516714D01*
X5043243Y-14516714D02*
X5014672Y-14502429D01*
X5000386Y-14473857D01*
X5000386Y-14216714D01*
X5271815Y-14502429D02*
X5243243Y-14516714D01*
X5186100Y-14516714D01*
X5157529Y-14502429D01*
X5143243Y-14473857D01*
X5143243Y-14359571D01*
X5157529Y-14331000D01*
X5186100Y-14316714D01*
X5243243Y-14316714D01*
X5271815Y-14331000D01*
X5286100Y-14359571D01*
X5286100Y-14388143D01*
X5143243Y-14416714D01*
X5400386Y-14502429D02*
X5428957Y-14516714D01*
X5486100Y-14516714D01*
X5514672Y-14502429D01*
X5528957Y-14473857D01*
X5528957Y-14459571D01*
X5514672Y-14431000D01*
X5486100Y-14416714D01*
X5443243Y-14416714D01*
X5414672Y-14402429D01*
X5400386Y-14373857D01*
X5400386Y-14359571D01*
X5414672Y-14331000D01*
X5443243Y-14316714D01*
X5486100Y-14316714D01*
X5514672Y-14331000D01*
X5628957Y-14631000D02*
X5643243Y-14616714D01*
X5671814Y-14573857D01*
X5686100Y-14545286D01*
X5700386Y-14502429D01*
X5714672Y-14431000D01*
X5714672Y-14373857D01*
X5700386Y-14302429D01*
X5686100Y-14259571D01*
X5671814Y-14231000D01*
X5643243Y-14188143D01*
X5628957Y-14173857D01*
X-902471Y-14732000D02*
X-902471Y-14822000D01*
X-947471Y-14777000D02*
X-857471Y-14777000D01*
X-513900Y-14612714D02*
X-485328Y-14612714D01*
X-456757Y-14627000D01*
X-442471Y-14641286D01*
X-428185Y-14669857D01*
X-413900Y-14727000D01*
X-413900Y-14798429D01*
X-428185Y-14855571D01*
X-442471Y-14884143D01*
X-456757Y-14898429D01*
X-485328Y-14912714D01*
X-513900Y-14912714D01*
X-542471Y-14898429D01*
X-556757Y-14884143D01*
X-571043Y-14855571D01*
X-585328Y-14798429D01*
X-585328Y-14727000D01*
X-571043Y-14669857D01*
X-556757Y-14641286D01*
X-542471Y-14627000D01*
X-513900Y-14612714D01*
X-285328Y-14884143D02*
X-271043Y-14898429D01*
X-285328Y-14912714D01*
X-299614Y-14898429D01*
X-285328Y-14884143D01*
X-285328Y-14912714D01*
X-128185Y-14912714D02*
X-71043Y-14912714D01*
X-42471Y-14898429D01*
X-28185Y-14884143D01*
X386Y-14841286D01*
X14672Y-14784143D01*
X14672Y-14669857D01*
X386Y-14641286D01*
X-13900Y-14627000D01*
X-42471Y-14612714D01*
X-99614Y-14612714D01*
X-128185Y-14627000D01*
X-142471Y-14641286D01*
X-156757Y-14669857D01*
X-156757Y-14741286D01*
X-142471Y-14769857D01*
X-128185Y-14784143D01*
X-99614Y-14798429D01*
X-42471Y-14798429D01*
X-13900Y-14784143D01*
X386Y-14769857D01*
X14672Y-14741286D01*
X200386Y-14612714D02*
X228957Y-14612714D01*
X257529Y-14627000D01*
X271815Y-14641286D01*
X286100Y-14669857D01*
X300386Y-14727000D01*
X300386Y-14798429D01*
X286100Y-14855571D01*
X271815Y-14884143D01*
X257529Y-14898429D01*
X228957Y-14912714D01*
X200386Y-14912714D01*
X171815Y-14898429D01*
X157529Y-14884143D01*
X143243Y-14855571D01*
X128957Y-14798429D01*
X128957Y-14727000D01*
X143243Y-14669857D01*
X157529Y-14641286D01*
X171815Y-14627000D01*
X200386Y-14612714D01*
X428957Y-14912714D02*
X428957Y-14712714D01*
X428957Y-14741286D02*
X443243Y-14727000D01*
X471814Y-14712714D01*
X514672Y-14712714D01*
X543243Y-14727000D01*
X557529Y-14755571D01*
X557529Y-14912714D01*
X557529Y-14755571D02*
X571815Y-14727000D01*
X600386Y-14712714D01*
X643243Y-14712714D01*
X671815Y-14727000D01*
X686100Y-14755571D01*
X686100Y-14912714D01*
X828957Y-14912714D02*
X828957Y-14712714D01*
X828957Y-14741286D02*
X843243Y-14727000D01*
X871814Y-14712714D01*
X914672Y-14712714D01*
X943243Y-14727000D01*
X957529Y-14755571D01*
X957529Y-14912714D01*
X957529Y-14755571D02*
X971814Y-14727000D01*
X1000386Y-14712714D01*
X1043243Y-14712714D01*
X1071815Y-14727000D01*
X1086100Y-14755571D01*
X1086100Y-14912714D01*
X1671814Y-14598429D02*
X1414672Y-14984143D01*
X2057529Y-14612714D02*
X2086100Y-14612714D01*
X2114672Y-14627000D01*
X2128957Y-14641286D01*
X2143243Y-14669857D01*
X2157529Y-14727000D01*
X2157529Y-14798429D01*
X2143243Y-14855571D01*
X2128957Y-14884143D01*
X2114672Y-14898429D01*
X2086100Y-14912714D01*
X2057529Y-14912714D01*
X2028957Y-14898429D01*
X2014672Y-14884143D01*
X2000386Y-14855571D01*
X1986100Y-14798429D01*
X1986100Y-14727000D01*
X2000386Y-14669857D01*
X2014672Y-14641286D01*
X2028957Y-14627000D01*
X2057529Y-14612714D01*
X2286100Y-14884143D02*
X2300386Y-14898429D01*
X2286100Y-14912714D01*
X2271815Y-14898429D01*
X2286100Y-14884143D01*
X2286100Y-14912714D01*
X2486100Y-14612714D02*
X2514672Y-14612714D01*
X2543243Y-14627000D01*
X2557529Y-14641286D01*
X2571815Y-14669857D01*
X2586100Y-14727000D01*
X2586100Y-14798429D01*
X2571815Y-14855571D01*
X2557529Y-14884143D01*
X2543243Y-14898429D01*
X2514672Y-14912714D01*
X2486100Y-14912714D01*
X2457529Y-14898429D01*
X2443243Y-14884143D01*
X2428957Y-14855571D01*
X2414672Y-14798429D01*
X2414672Y-14727000D01*
X2428957Y-14669857D01*
X2443243Y-14641286D01*
X2457529Y-14627000D01*
X2486100Y-14612714D01*
X2686100Y-14612714D02*
X2871814Y-14612714D01*
X2771815Y-14727000D01*
X2814672Y-14727000D01*
X2843243Y-14741286D01*
X2857529Y-14755571D01*
X2871814Y-14784143D01*
X2871814Y-14855571D01*
X2857529Y-14884143D01*
X2843243Y-14898429D01*
X2814672Y-14912714D01*
X2728957Y-14912714D01*
X2700386Y-14898429D01*
X2686100Y-14884143D01*
X3143243Y-14612714D02*
X3000386Y-14612714D01*
X2986100Y-14755571D01*
X3000386Y-14741286D01*
X3028957Y-14727000D01*
X3100386Y-14727000D01*
X3128957Y-14741286D01*
X3143243Y-14755571D01*
X3157529Y-14784143D01*
X3157529Y-14855571D01*
X3143243Y-14884143D01*
X3128957Y-14898429D01*
X3100386Y-14912714D01*
X3028957Y-14912714D01*
X3000386Y-14898429D01*
X2986100Y-14884143D01*
X3271814Y-14612714D02*
X3271814Y-14669857D01*
X3386100Y-14612714D02*
X3386100Y-14669857D01*
X3828957Y-15027000D02*
X3814672Y-15012714D01*
X3786100Y-14969857D01*
X3771814Y-14941286D01*
X3757529Y-14898429D01*
X3743243Y-14827000D01*
X3743243Y-14769857D01*
X3757529Y-14698429D01*
X3771814Y-14655571D01*
X3786100Y-14627000D01*
X3814672Y-14584143D01*
X3828957Y-14569857D01*
X4071814Y-14612714D02*
X4014672Y-14612714D01*
X3986100Y-14627000D01*
X3971814Y-14641286D01*
X3943243Y-14684143D01*
X3928957Y-14741286D01*
X3928957Y-14855571D01*
X3943243Y-14884143D01*
X3957529Y-14898429D01*
X3986100Y-14912714D01*
X4043243Y-14912714D01*
X4071814Y-14898429D01*
X4086100Y-14884143D01*
X4100386Y-14855571D01*
X4100386Y-14784143D01*
X4086100Y-14755571D01*
X4071814Y-14741286D01*
X4043243Y-14727000D01*
X3986100Y-14727000D01*
X3957529Y-14741286D01*
X3943243Y-14755571D01*
X3928957Y-14784143D01*
X4457529Y-14912714D02*
X4457529Y-14612714D01*
X4586100Y-14912714D02*
X4586100Y-14755571D01*
X4571815Y-14727000D01*
X4543243Y-14712714D01*
X4500386Y-14712714D01*
X4471815Y-14727000D01*
X4457529Y-14741286D01*
X4771815Y-14912714D02*
X4743243Y-14898429D01*
X4728957Y-14884143D01*
X4714672Y-14855571D01*
X4714672Y-14769857D01*
X4728957Y-14741286D01*
X4743243Y-14727000D01*
X4771815Y-14712714D01*
X4814672Y-14712714D01*
X4843243Y-14727000D01*
X4857529Y-14741286D01*
X4871815Y-14769857D01*
X4871815Y-14855571D01*
X4857529Y-14884143D01*
X4843243Y-14898429D01*
X4814672Y-14912714D01*
X4771815Y-14912714D01*
X5043243Y-14912714D02*
X5014672Y-14898429D01*
X5000386Y-14869857D01*
X5000386Y-14612714D01*
X5271815Y-14898429D02*
X5243243Y-14912714D01*
X5186100Y-14912714D01*
X5157529Y-14898429D01*
X5143243Y-14869857D01*
X5143243Y-14755571D01*
X5157529Y-14727000D01*
X5186100Y-14712714D01*
X5243243Y-14712714D01*
X5271815Y-14727000D01*
X5286100Y-14755571D01*
X5286100Y-14784143D01*
X5143243Y-14812714D01*
X5400386Y-14898429D02*
X5428957Y-14912714D01*
X5486100Y-14912714D01*
X5514672Y-14898429D01*
X5528957Y-14869857D01*
X5528957Y-14855571D01*
X5514672Y-14827000D01*
X5486100Y-14812714D01*
X5443243Y-14812714D01*
X5414672Y-14798429D01*
X5400386Y-14769857D01*
X5400386Y-14755571D01*
X5414672Y-14727000D01*
X5443243Y-14712714D01*
X5486100Y-14712714D01*
X5514672Y-14727000D01*
X5628957Y-15027000D02*
X5643243Y-15012714D01*
X5671814Y-14969857D01*
X5686100Y-14941286D01*
X5700386Y-14898429D01*
X5714672Y-14827000D01*
X5714672Y-14769857D01*
X5700386Y-14698429D01*
X5686100Y-14655571D01*
X5671814Y-14627000D01*
X5643243Y-14584143D01*
X5628957Y-14569857D01*
X-872115Y-15208356D02*
X-872115Y-15137644D01*
X-942827Y-15137644D01*
X-942827Y-15208356D01*
X-872115Y-15208356D01*
X-413900Y-15308714D02*
X-585328Y-15308714D01*
X-499614Y-15308714D02*
X-499614Y-15008714D01*
X-528185Y-15051571D01*
X-556757Y-15080143D01*
X-585328Y-15094429D01*
X-285328Y-15280143D02*
X-271043Y-15294429D01*
X-285328Y-15308714D01*
X-299614Y-15294429D01*
X-285328Y-15280143D01*
X-285328Y-15308714D01*
X-85328Y-15008714D02*
X-56757Y-15008714D01*
X-28185Y-15023000D01*
X-13900Y-15037286D01*
X386Y-15065857D01*
X14672Y-15123000D01*
X14672Y-15194429D01*
X386Y-15251571D01*
X-13900Y-15280143D01*
X-28185Y-15294429D01*
X-56757Y-15308714D01*
X-85328Y-15308714D01*
X-113900Y-15294429D01*
X-128185Y-15280143D01*
X-142471Y-15251571D01*
X-156757Y-15194429D01*
X-156757Y-15123000D01*
X-142471Y-15065857D01*
X-128185Y-15037286D01*
X-113900Y-15023000D01*
X-85328Y-15008714D01*
X200386Y-15008714D02*
X228957Y-15008714D01*
X257529Y-15023000D01*
X271815Y-15037286D01*
X286100Y-15065857D01*
X300386Y-15123000D01*
X300386Y-15194429D01*
X286100Y-15251571D01*
X271815Y-15280143D01*
X257529Y-15294429D01*
X228957Y-15308714D01*
X200386Y-15308714D01*
X171815Y-15294429D01*
X157529Y-15280143D01*
X143243Y-15251571D01*
X128957Y-15194429D01*
X128957Y-15123000D01*
X143243Y-15065857D01*
X157529Y-15037286D01*
X171815Y-15023000D01*
X200386Y-15008714D01*
X428957Y-15308714D02*
X428957Y-15108714D01*
X428957Y-15137286D02*
X443243Y-15123000D01*
X471814Y-15108714D01*
X514672Y-15108714D01*
X543243Y-15123000D01*
X557529Y-15151571D01*
X557529Y-15308714D01*
X557529Y-15151571D02*
X571815Y-15123000D01*
X600386Y-15108714D01*
X643243Y-15108714D01*
X671815Y-15123000D01*
X686100Y-15151571D01*
X686100Y-15308714D01*
X828957Y-15308714D02*
X828957Y-15108714D01*
X828957Y-15137286D02*
X843243Y-15123000D01*
X871814Y-15108714D01*
X914672Y-15108714D01*
X943243Y-15123000D01*
X957529Y-15151571D01*
X957529Y-15308714D01*
X957529Y-15151571D02*
X971814Y-15123000D01*
X1000386Y-15108714D01*
X1043243Y-15108714D01*
X1071815Y-15123000D01*
X1086100Y-15151571D01*
X1086100Y-15308714D01*
X1671814Y-14994429D02*
X1414672Y-15380143D01*
X2057529Y-15008714D02*
X2086100Y-15008714D01*
X2114672Y-15023000D01*
X2128957Y-15037286D01*
X2143243Y-15065857D01*
X2157529Y-15123000D01*
X2157529Y-15194429D01*
X2143243Y-15251571D01*
X2128957Y-15280143D01*
X2114672Y-15294429D01*
X2086100Y-15308714D01*
X2057529Y-15308714D01*
X2028957Y-15294429D01*
X2014672Y-15280143D01*
X2000386Y-15251571D01*
X1986100Y-15194429D01*
X1986100Y-15123000D01*
X2000386Y-15065857D01*
X2014672Y-15037286D01*
X2028957Y-15023000D01*
X2057529Y-15008714D01*
X2286100Y-15280143D02*
X2300386Y-15294429D01*
X2286100Y-15308714D01*
X2271815Y-15294429D01*
X2286100Y-15280143D01*
X2286100Y-15308714D01*
X2486100Y-15008714D02*
X2514672Y-15008714D01*
X2543243Y-15023000D01*
X2557529Y-15037286D01*
X2571815Y-15065857D01*
X2586100Y-15123000D01*
X2586100Y-15194429D01*
X2571815Y-15251571D01*
X2557529Y-15280143D01*
X2543243Y-15294429D01*
X2514672Y-15308714D01*
X2486100Y-15308714D01*
X2457529Y-15294429D01*
X2443243Y-15280143D01*
X2428957Y-15251571D01*
X2414672Y-15194429D01*
X2414672Y-15123000D01*
X2428957Y-15065857D01*
X2443243Y-15037286D01*
X2457529Y-15023000D01*
X2486100Y-15008714D01*
X2686100Y-15008714D02*
X2871814Y-15008714D01*
X2771815Y-15123000D01*
X2814672Y-15123000D01*
X2843243Y-15137286D01*
X2857529Y-15151571D01*
X2871814Y-15180143D01*
X2871814Y-15251571D01*
X2857529Y-15280143D01*
X2843243Y-15294429D01*
X2814672Y-15308714D01*
X2728957Y-15308714D01*
X2700386Y-15294429D01*
X2686100Y-15280143D01*
X3014672Y-15308714D02*
X3071814Y-15308714D01*
X3100386Y-15294429D01*
X3114672Y-15280143D01*
X3143243Y-15237286D01*
X3157529Y-15180143D01*
X3157529Y-15065857D01*
X3143243Y-15037286D01*
X3128957Y-15023000D01*
X3100386Y-15008714D01*
X3043243Y-15008714D01*
X3014672Y-15023000D01*
X3000386Y-15037286D01*
X2986100Y-15065857D01*
X2986100Y-15137286D01*
X3000386Y-15165857D01*
X3014672Y-15180143D01*
X3043243Y-15194429D01*
X3100386Y-15194429D01*
X3128957Y-15180143D01*
X3143243Y-15165857D01*
X3157529Y-15137286D01*
X3271814Y-15008714D02*
X3271814Y-15065857D01*
X3386100Y-15008714D02*
X3386100Y-15065857D01*
X3828957Y-15423000D02*
X3814672Y-15408714D01*
X3786100Y-15365857D01*
X3771814Y-15337286D01*
X3757529Y-15294429D01*
X3743243Y-15223000D01*
X3743243Y-15165857D01*
X3757529Y-15094429D01*
X3771814Y-15051571D01*
X3786100Y-15023000D01*
X3814672Y-14980143D01*
X3828957Y-14965857D01*
X4100386Y-15308714D02*
X3928957Y-15308714D01*
X4014672Y-15308714D02*
X4014672Y-15008714D01*
X3986100Y-15051571D01*
X3957529Y-15080143D01*
X3928957Y-15094429D01*
X4286100Y-15008714D02*
X4314672Y-15008714D01*
X4343243Y-15023000D01*
X4357529Y-15037286D01*
X4371815Y-15065857D01*
X4386100Y-15123000D01*
X4386100Y-15194429D01*
X4371815Y-15251571D01*
X4357529Y-15280143D01*
X4343243Y-15294429D01*
X4314672Y-15308714D01*
X4286100Y-15308714D01*
X4257529Y-15294429D01*
X4243243Y-15280143D01*
X4228957Y-15251571D01*
X4214672Y-15194429D01*
X4214672Y-15123000D01*
X4228957Y-15065857D01*
X4243243Y-15037286D01*
X4257529Y-15023000D01*
X4286100Y-15008714D01*
X4743243Y-15308714D02*
X4743243Y-15008714D01*
X4871815Y-15308714D02*
X4871815Y-15151571D01*
X4857529Y-15123000D01*
X4828957Y-15108714D01*
X4786100Y-15108714D01*
X4757529Y-15123000D01*
X4743243Y-15137286D01*
X5057529Y-15308714D02*
X5028957Y-15294429D01*
X5014672Y-15280143D01*
X5000386Y-15251571D01*
X5000386Y-15165857D01*
X5014672Y-15137286D01*
X5028957Y-15123000D01*
X5057529Y-15108714D01*
X5100386Y-15108714D01*
X5128957Y-15123000D01*
X5143243Y-15137286D01*
X5157529Y-15165857D01*
X5157529Y-15251571D01*
X5143243Y-15280143D01*
X5128957Y-15294429D01*
X5100386Y-15308714D01*
X5057529Y-15308714D01*
X5328957Y-15308714D02*
X5300386Y-15294429D01*
X5286100Y-15265857D01*
X5286100Y-15008714D01*
X5557529Y-15294429D02*
X5528957Y-15308714D01*
X5471815Y-15308714D01*
X5443243Y-15294429D01*
X5428957Y-15265857D01*
X5428957Y-15151571D01*
X5443243Y-15123000D01*
X5471815Y-15108714D01*
X5528957Y-15108714D01*
X5557529Y-15123000D01*
X5571815Y-15151571D01*
X5571815Y-15180143D01*
X5428957Y-15208714D01*
X5686100Y-15294429D02*
X5714672Y-15308714D01*
X5771814Y-15308714D01*
X5800386Y-15294429D01*
X5814672Y-15265857D01*
X5814672Y-15251571D01*
X5800386Y-15223000D01*
X5771814Y-15208714D01*
X5728957Y-15208714D01*
X5700386Y-15194429D01*
X5686100Y-15165857D01*
X5686100Y-15151571D01*
X5700386Y-15123000D01*
X5728957Y-15108714D01*
X5771814Y-15108714D01*
X5800386Y-15123000D01*
X6171814Y-15194429D02*
X6400386Y-15194429D01*
X6286100Y-15308714D02*
X6286100Y-15080143D01*
X6743243Y-15008714D02*
X6928957Y-15008714D01*
X6828957Y-15123000D01*
X6871814Y-15123000D01*
X6900386Y-15137286D01*
X6914672Y-15151571D01*
X6928957Y-15180143D01*
X6928957Y-15251571D01*
X6914672Y-15280143D01*
X6900386Y-15294429D01*
X6871814Y-15308714D01*
X6786100Y-15308714D01*
X6757529Y-15294429D01*
X6743243Y-15280143D01*
X7271814Y-15294429D02*
X7300386Y-15308714D01*
X7357529Y-15308714D01*
X7386100Y-15294429D01*
X7400386Y-15265857D01*
X7400386Y-15251571D01*
X7386100Y-15223000D01*
X7357529Y-15208714D01*
X7314672Y-15208714D01*
X7286100Y-15194429D01*
X7271814Y-15165857D01*
X7271814Y-15151571D01*
X7286100Y-15123000D01*
X7314672Y-15108714D01*
X7357529Y-15108714D01*
X7386100Y-15123000D01*
X7571814Y-15308714D02*
X7543243Y-15294429D01*
X7528957Y-15265857D01*
X7528957Y-15008714D01*
X7728957Y-15308714D02*
X7700386Y-15294429D01*
X7686100Y-15280143D01*
X7671814Y-15251571D01*
X7671814Y-15165857D01*
X7686100Y-15137286D01*
X7700386Y-15123000D01*
X7728957Y-15108714D01*
X7771814Y-15108714D01*
X7800386Y-15123000D01*
X7814672Y-15137286D01*
X7828957Y-15165857D01*
X7828957Y-15251571D01*
X7814672Y-15280143D01*
X7800386Y-15294429D01*
X7771814Y-15308714D01*
X7728957Y-15308714D01*
X7914672Y-15108714D02*
X8028957Y-15108714D01*
X7957529Y-15008714D02*
X7957529Y-15265857D01*
X7971814Y-15294429D01*
X8000386Y-15308714D01*
X8028957Y-15308714D01*
X8114672Y-15294429D02*
X8143243Y-15308714D01*
X8200386Y-15308714D01*
X8228957Y-15294429D01*
X8243243Y-15265857D01*
X8243243Y-15251571D01*
X8228957Y-15223000D01*
X8200386Y-15208714D01*
X8157529Y-15208714D01*
X8128957Y-15194429D01*
X8114672Y-15165857D01*
X8114672Y-15151571D01*
X8128957Y-15123000D01*
X8157529Y-15108714D01*
X8200386Y-15108714D01*
X8228957Y-15123000D01*
X8343243Y-15423000D02*
X8357529Y-15408714D01*
X8386100Y-15365857D01*
X8400386Y-15337286D01*
X8414672Y-15294429D01*
X8428957Y-15223000D01*
X8428957Y-15165857D01*
X8414672Y-15094429D01*
X8400386Y-15051571D01*
X8386100Y-15023000D01*
X8357529Y-14980143D01*
X8343243Y-14965857D01*
M02*
