M48
; DRILL file {KiCad (5.1.2)-1} date 30/04/2019 15:43:00
; FORMAT={-:-/ absolute / inch / decimal}
; #@! TF.CreationDate,2019-04-30T15:43:00-03:00
; #@! TF.GenerationSoftware,Kicad,Pcbnew,(5.1.2)-1
; #@! TF.FileFunction,Plated,1,2,PTH
FMAT,2
INCH
T1C0.0315
T2C0.0354
T3C0.0394
%
G90
G05
T1
X3.55Y-4.9
X3.85Y-4.9
X5.15Y-4.9
X5.45Y-4.9
X7.0Y-4.9
X7.3Y-4.9
T2
X5.375Y-4.65
X5.475Y-4.65
X7.2Y-4.65
X7.3Y-4.65
X3.55Y-4.65
X3.65Y-4.65
T3
X7.0Y-4.6
X7.0Y-4.7
X5.15Y-4.6
X5.15Y-4.7
X3.85Y-4.6
X3.85Y-4.7
X2.3Y-4.65
X2.3Y-4.8272
X2.5559Y-4.65
X2.5559Y-4.8272
X1.65Y-3.25
X1.65Y-4.25
X1.75Y-3.25
X1.75Y-4.25
X1.85Y-3.25
X1.85Y-4.25
X1.95Y-3.25
X1.95Y-4.25
X2.05Y-3.25
X2.05Y-4.25
X2.15Y-3.25
X2.15Y-4.25
X2.25Y-3.25
X2.25Y-4.25
X2.35Y-3.25
X2.35Y-4.25
X2.45Y-3.25
X2.45Y-4.25
X2.55Y-3.25
X2.55Y-4.25
X2.65Y-3.25
X2.65Y-4.25
X2.75Y-3.25
X2.75Y-4.25
X2.85Y-3.25
X2.85Y-4.25
X2.95Y-3.25
X2.95Y-4.25
X3.05Y-3.25
X3.05Y-4.25
T3
G00X1.6638Y-4.6606
M15
G01X1.6638Y-4.7394
M16
G05
G00X1.7425Y-4.885
M15
G01X1.8213Y-4.885
M16
G05
G00X1.9Y-4.6606
M15
G01X1.9Y-4.7394
M16
G05
T0
M30
