<?xml version="1.0" standalone="no"?>
 <!DOCTYPE svg PUBLIC "-//W3C//DTD SVG 1.1//EN" 
 "http://www.w3.org/Graphics/SVG/1.1/DTD/svg11.dtd"> 
<svg xmlns="http://www.w3.org/2000/svg" version="1.1" 
    width="29.7002cm" height="21.0007cm" viewBox="0 0 116930 82680 ">
<title>SVG Picture created as Eletrônica-Edge_Cuts.svg date 2019/05/03 22:32:42 </title>
  <desc>Picture generated by PCBNEW </desc>
<g style="fill:#000000; fill-opacity:1;stroke:#000000; stroke-opacity:1;
stroke-linecap:round; stroke-linejoin:round; "
 transform="translate(0 0) scale(1 1)">
</g>
<g style="fill:#000000; fill-opacity:0.0; 
stroke:#000000; stroke-width:-0.000393701; stroke-opacity:1; 
stroke-linecap:round; stroke-linejoin:round;">
</g>
<g style="fill:#000000; fill-opacity:0.0; 
stroke:#000000; stroke-width:59.0551; stroke-opacity:1; 
stroke-linecap:round; stroke-linejoin:round;">
<circle cx="65500" cy="48250" r="610.236" /> 
<circle cx="31250" cy="48250" r="610.236" /> 
<circle cx="22250" cy="37750" r="610.236" /> 
<path d="M14000 32750
L15892 31000
" />
<path d="M14036 50304
L14000 32750
" />
<path d="M16250 52595
L14036 50304
" />
<path d="M71568 52595
L16250 52595
" />
<path d="M73845 49750
L71568 52595
" />
<path d="M73845 45190
L73845 49750
" />
<path d="M71385 42704
L73845 45190
" />
<path d="M36042 42718
L71385 42704
" />
<path d="M33132 39851
L36042 42718
" />
<path d="M33140 33031
L33132 39851
" />
<path d="M31000 31000
L33140 33031
" />
<path d="M15892 31000
L31000 31000
" />
<g >
</g>
<g >
</g>
<g >
</g>
<g >
</g>
<g >
</g>
<g >
</g>
<g >
</g>
<g >
</g>
<g >
</g>
<g >
</g>
<g >
</g>
<g >
</g>
<g >
</g>
</g> 
</svg>
