  0
SECTION
  2
HEADER
  9
$ANGBASE
  50
0.0
  9
$ANGDIR
  70
  1
  9
$MEASUREMENT
  70
0
  0
ENDSEC
  0
SECTION
  2
TABLES
  0
TABLE
  2
LTYPE
  70
4
  0
LTYPE
  5
40F
  2
CONTINUOUS
  70
0
  3
Solid line
  72
65
  73
0
  40
0.0
  0
LTYPE
  5
410
  2
DASHDOT
 70
0
  3
Dash Dot ____ _ ____ _
 72
65
 73
4
 40
2.0
 49
1.25
 49
-0.25
 49
0.25
 49
-0.25
  0
LTYPE
  5
411
  2
DASHED
 70
0
  3
Dashed __ __ __ __ __
 72
65
 73
2
 40
0.75
 49
0.5
 49
-0.25
  0
LTYPE
  5
43B
  2
DOTTED
 70
0
  3
Dotted .  .  .  .
 72
65
 73
2
 40
0.2
 49
0.0
 49
-0.2
  0
ENDTAB
  0
TABLE
  2
STYLE
  70
4
  0
STYLE
  2
KICAD
  70
0
  40
0
  41
1
  42
1
  50
0
  71
0
  3
isocp.shx
  0
STYLE
  2
KICADB
  70
0
  40
0
  41
1
  42
1
  50
0
  71
0
  3
isocp.shx
  0
STYLE
  2
KICADI
  70
0
  40
0
  41
1
  42
1
  50
15
  71
0
  3
isocp.shx
  0
STYLE
  2
KICADBI
  70
0
  40
0
  41
1
  42
1
  50
15
  71
0
  3
isocp.shx
  0
ENDTAB
  0
TABLE
  2
LAYER
  70
30
  0
LAYER
  2
BLACK
  70
0
  62
7
  6
CONTINUOUS
  0
LAYER
  2
GRAY1
  70
0
  62
251
  6
CONTINUOUS
  0
LAYER
  2
GRAY2
  70
0
  62
8
  6
CONTINUOUS
  0
LAYER
  2
GRAY3
  70
0
  62
9
  6
CONTINUOUS
  0
LAYER
  2
WHITE
  70
0
  62
7
  6
CONTINUOUS
  0
LAYER
  2
LYELLOW
  70
0
  62
51
  6
CONTINUOUS
  0
LAYER
  2
BLUE1
  70
0
  62
178
  6
CONTINUOUS
  0
LAYER
  2
GREEN1
  70
0
  62
98
  6
CONTINUOUS
  0
LAYER
  2
CYAN1
  70
0
  62
138
  6
CONTINUOUS
  0
LAYER
  2
RED1
  70
0
  62
18
  6
CONTINUOUS
  0
LAYER
  2
MAGENTA1
  70
0
  62
228
  6
CONTINUOUS
  0
LAYER
  2
BROWN1
  70
0
  62
58
  6
CONTINUOUS
  0
LAYER
  2
BLUE2
  70
0
  62
5
  6
CONTINUOUS
  0
LAYER
  2
GREEN2
  70
0
  62
3
  6
CONTINUOUS
  0
LAYER
  2
CYAN2
  70
0
  62
4
  6
CONTINUOUS
  0
LAYER
  2
RED2
  70
0
  62
1
  6
CONTINUOUS
  0
LAYER
  2
MAGENTA2
  70
0
  62
6
  6
CONTINUOUS
  0
LAYER
  2
BROWN2
  70
0
  62
54
  6
CONTINUOUS
  0
LAYER
  2
BLUE3
  70
0
  62
171
  6
CONTINUOUS
  0
LAYER
  2
GREEN3
  70
0
  62
91
  6
CONTINUOUS
  0
LAYER
  2
CYAN3
  70
0
  62
131
  6
CONTINUOUS
  0
LAYER
  2
RED3
  70
0
  62
11
  6
CONTINUOUS
  0
LAYER
  2
MAGENTA3
  70
0
  62
221
  6
CONTINUOUS
  0
LAYER
  2
YELLOW3
  70
0
  62
2
  6
CONTINUOUS
  0
LAYER
  2
BLUE4
  70
0
  62
5
  6
CONTINUOUS
  0
LAYER
  2
GREEN4
  70
0
  62
3
  6
CONTINUOUS
  0
LAYER
  2
CYAN4
  70
0
  62
4
  6
CONTINUOUS
  0
LAYER
  2
RED4
  70
0
  62
1
  6
CONTINUOUS
  0
LAYER
  2
MAGENTA4
  70
0
  62
6
  6
CONTINUOUS
  0
LAYER
  2
YELLOW4
  70
0
  62
2
  6
CONTINUOUS
  0
ENDTAB
  0
ENDSEC
  0
SECTION
  2
ENTITIES
0
LINE
8
BLACK
6
CONTINUOUS
10
195.655
20
-131.445
11
195.654
21
-131.46
0
LINE
8
BLACK
6
CONTINUOUS
10
195.654
20
-131.46
11
195.65
21
-131.474
0
LINE
8
BLACK
6
CONTINUOUS
10
195.65
20
-131.474
11
195.643
21
-131.487
0
LINE
8
BLACK
6
CONTINUOUS
10
195.643
20
-131.487
11
195.633
21
-131.498
0
LINE
8
BLACK
6
CONTINUOUS
10
195.633
20
-131.498
11
195.622
21
-131.508
0
LINE
8
BLACK
6
CONTINUOUS
10
195.622
20
-131.508
11
195.609
21
-131.515
0
LINE
8
BLACK
6
CONTINUOUS
10
195.609
20
-131.515
11
195.595
21
-131.519
0
LINE
8
BLACK
6
CONTINUOUS
10
195.595
20
-131.519
11
195.584
21
-131.52
0
LINE
8
BLACK
6
CONTINUOUS
10
195.584
20
-131.52
11
195.58
21
-131.52
0
LINE
8
BLACK
6
CONTINUOUS
10
195.58
20
-131.52
11
195.576
21
-131.52
0
LINE
8
BLACK
6
CONTINUOUS
10
195.576
20
-131.52
11
161.111
21
-131.52
0
LINE
8
BLACK
6
CONTINUOUS
10
161.111
20
-131.52
11
161.111
21
-131.759
0
LINE
8
BLACK
6
CONTINUOUS
10
161.111
20
-131.759
11
161.111
21
-131.762
0
LINE
8
BLACK
6
CONTINUOUS
10
161.111
20
-131.762
11
161.11
21
-131.777
0
LINE
8
BLACK
6
CONTINUOUS
10
161.11
20
-131.777
11
161.106
21
-131.791
0
LINE
8
BLACK
6
CONTINUOUS
10
161.106
20
-131.791
11
161.099
21
-131.804
0
LINE
8
BLACK
6
CONTINUOUS
10
161.099
20
-131.804
11
161.089
21
-131.816
0
LINE
8
BLACK
6
CONTINUOUS
10
161.089
20
-131.816
11
161.078
21
-131.825
0
LINE
8
BLACK
6
CONTINUOUS
10
161.078
20
-131.825
11
161.065
21
-131.832
0
LINE
8
BLACK
6
CONTINUOUS
10
161.065
20
-131.832
11
161.051
21
-131.836
0
LINE
8
BLACK
6
CONTINUOUS
10
161.051
20
-131.836
11
161.04
21
-131.838
0
LINE
8
BLACK
6
CONTINUOUS
10
161.04
20
-131.838
11
161.036
21
-131.838
0
LINE
8
BLACK
6
CONTINUOUS
10
161.036
20
-131.838
11
161.032
21
-131.838
0
LINE
8
BLACK
6
CONTINUOUS
10
161.032
20
-131.838
11
151.388
21
-131.838
0
LINE
8
BLACK
6
CONTINUOUS
10
151.388
20
-131.838
11
151.384
21
-131.838
0
LINE
8
BLACK
6
CONTINUOUS
10
151.384
20
-131.838
11
151.38
21
-131.838
0
LINE
8
BLACK
6
CONTINUOUS
10
151.38
20
-131.838
11
151.369
21
-131.836
0
LINE
8
BLACK
6
CONTINUOUS
10
151.369
20
-131.836
11
151.355
21
-131.832
0
LINE
8
BLACK
6
CONTINUOUS
10
151.355
20
-131.832
11
151.342
21
-131.825
0
LINE
8
BLACK
6
CONTINUOUS
10
151.342
20
-131.825
11
151.331
21
-131.816
0
LINE
8
BLACK
6
CONTINUOUS
10
151.331
20
-131.816
11
151.321
21
-131.804
0
LINE
8
BLACK
6
CONTINUOUS
10
151.321
20
-131.804
11
151.314
21
-131.791
0
LINE
8
BLACK
6
CONTINUOUS
10
151.314
20
-131.791
11
151.31
21
-131.777
0
LINE
8
BLACK
6
CONTINUOUS
10
151.31
20
-131.777
11
151.309
21
-131.762
0
LINE
8
BLACK
6
CONTINUOUS
10
151.309
20
-131.762
11
151.309
21
-131.759
0
LINE
8
BLACK
6
CONTINUOUS
10
151.309
20
-131.759
11
151.309
21
-131.52
0
LINE
8
BLACK
6
CONTINUOUS
10
151.309
20
-131.52
11
80.3312
21
-131.52
0
LINE
8
BLACK
6
CONTINUOUS
10
80.3312
20
-131.52
11
80.3275
21
-131.52
0
LINE
8
BLACK
6
CONTINUOUS
10
80.3275
20
-131.52
11
80.3128
21
-131.519
0
LINE
8
BLACK
6
CONTINUOUS
10
80.3128
20
-131.519
11
80.2987
21
-131.515
0
LINE
8
BLACK
6
CONTINUOUS
10
80.2987
20
-131.515
11
80.2856
21
-131.508
0
LINE
8
BLACK
6
CONTINUOUS
10
80.2856
20
-131.508
11
80.2742
21
-131.498
0
LINE
8
BLACK
6
CONTINUOUS
10
80.2742
20
-131.498
11
80.2648
21
-131.487
0
LINE
8
BLACK
6
CONTINUOUS
10
80.2648
20
-131.487
11
80.2579
21
-131.474
0
LINE
8
BLACK
6
CONTINUOUS
10
80.2579
20
-131.474
11
80.2536
21
-131.46
0
LINE
8
BLACK
6
CONTINUOUS
10
80.2536
20
-131.46
11
80.2521
21
-131.445
0
LINE
8
BLACK
6
CONTINUOUS
10
80.2521
20
-131.445
11
80.2525
21
-131.441
0
LINE
8
BLACK
6
CONTINUOUS
10
80.2525
20
-131.441
11
80.2525
21
-130.115
0
LINE
8
BLACK
6
CONTINUOUS
10
80.2525
20
-130.115
11
80.2525
21
-130.115
0
LINE
8
BLACK
6
CONTINUOUS
10
80.2525
20
-130.115
11
80.2525
21
-81.8552
0
LINE
8
BLACK
6
CONTINUOUS
10
80.2525
20
-81.8552
11
80.2525
21
-81.8552
0
LINE
8
BLACK
6
CONTINUOUS
10
80.2525
20
-81.8552
11
80.2525
21
-80.6487
0
LINE
8
BLACK
6
CONTINUOUS
10
80.2525
20
-80.6487
11
80.2521
21
-80.645
0
LINE
8
BLACK
6
CONTINUOUS
10
80.2521
20
-80.645
11
80.2536
21
-80.6303
0
LINE
8
BLACK
6
CONTINUOUS
10
80.2536
20
-80.6303
11
80.2579
21
-80.6162
0
LINE
8
BLACK
6
CONTINUOUS
10
80.2579
20
-80.6162
11
80.2648
21
-80.6031
0
LINE
8
BLACK
6
CONTINUOUS
10
80.2648
20
-80.6031
11
80.2742
21
-80.5917
0
LINE
8
BLACK
6
CONTINUOUS
10
80.2742
20
-80.5917
11
80.2856
21
-80.5823
0
LINE
8
BLACK
6
CONTINUOUS
10
80.2856
20
-80.5823
11
80.2987
21
-80.5754
0
LINE
8
BLACK
6
CONTINUOUS
10
80.2987
20
-80.5754
11
80.3128
21
-80.5711
0
LINE
8
BLACK
6
CONTINUOUS
10
80.3128
20
-80.5711
11
80.3238
21
-80.57
0
LINE
8
BLACK
6
CONTINUOUS
10
80.3238
20
-80.57
11
80.3275
21
-80.5696
0
LINE
8
BLACK
6
CONTINUOUS
10
80.3275
20
-80.5696
11
80.3312
21
-80.57
0
LINE
8
BLACK
6
CONTINUOUS
10
80.3312
20
-80.57
11
195.576
21
-80.57
0
LINE
8
BLACK
6
CONTINUOUS
10
195.576
20
-80.57
11
195.58
21
-80.5696
0
LINE
8
BLACK
6
CONTINUOUS
10
195.58
20
-80.5696
11
195.584
21
-80.57
0
LINE
8
BLACK
6
CONTINUOUS
10
195.584
20
-80.57
11
195.595
21
-80.5711
0
LINE
8
BLACK
6
CONTINUOUS
10
195.595
20
-80.5711
11
195.609
21
-80.5754
0
LINE
8
BLACK
6
CONTINUOUS
10
195.609
20
-80.5754
11
195.622
21
-80.5823
0
LINE
8
BLACK
6
CONTINUOUS
10
195.622
20
-80.5823
11
195.633
21
-80.5917
0
LINE
8
BLACK
6
CONTINUOUS
10
195.633
20
-80.5917
11
195.643
21
-80.6031
0
LINE
8
BLACK
6
CONTINUOUS
10
195.643
20
-80.6031
11
195.65
21
-80.6162
0
LINE
8
BLACK
6
CONTINUOUS
10
195.65
20
-80.6162
11
195.654
21
-80.6303
0
LINE
8
BLACK
6
CONTINUOUS
10
195.654
20
-80.6303
11
195.655
21
-80.645
0
LINE
8
BLACK
6
CONTINUOUS
10
195.655
20
-80.645
11
195.655
21
-80.6487
0
LINE
8
BLACK
6
CONTINUOUS
10
195.655
20
-80.6487
11
195.655
21
-131.441
0
LINE
8
BLACK
6
CONTINUOUS
10
195.655
20
-131.441
11
195.655
21
-131.445
0
LINE
8
BLACK
6
CONTINUOUS
10
151.459
20
-131.52
11
151.459
21
-131.688
0
LINE
8
BLACK
6
CONTINUOUS
10
151.459
20
-131.688
11
160.961
21
-131.688
0
LINE
8
BLACK
6
CONTINUOUS
10
160.961
20
-131.688
11
160.961
21
-131.52
0
LINE
8
BLACK
6
CONTINUOUS
10
160.961
20
-131.52
11
151.459
21
-131.52
0
LINE
8
BLACK
6
CONTINUOUS
10
151.38
20
-131.37
11
151.384
21
-131.37
0
LINE
8
BLACK
6
CONTINUOUS
10
151.384
20
-131.37
11
151.388
21
-131.37
0
LINE
8
BLACK
6
CONTINUOUS
10
151.388
20
-131.37
11
161.032
21
-131.37
0
LINE
8
BLACK
6
CONTINUOUS
10
161.032
20
-131.37
11
161.036
21
-131.37
0
LINE
8
BLACK
6
CONTINUOUS
10
161.036
20
-131.37
11
161.04
21
-131.37
0
LINE
8
BLACK
6
CONTINUOUS
10
161.04
20
-131.37
11
195.505
21
-131.37
0
LINE
8
BLACK
6
CONTINUOUS
10
195.505
20
-131.37
11
195.505
21
-130.179
0
LINE
8
BLACK
6
CONTINUOUS
10
195.505
20
-130.179
11
195.505
21
-130.179
0
LINE
8
BLACK
6
CONTINUOUS
10
195.505
20
-130.179
11
195.505
21
-81.9113
0
LINE
8
BLACK
6
CONTINUOUS
10
195.505
20
-81.9113
11
195.505
21
-80.72
0
LINE
8
BLACK
6
CONTINUOUS
10
195.505
20
-80.72
11
80.4025
21
-80.72
0
LINE
8
BLACK
6
CONTINUOUS
10
80.4025
20
-80.72
11
80.4025
21
-131.37
0
LINE
8
BLACK
6
CONTINUOUS
10
80.4025
20
-131.37
11
151.38
21
-131.37
0
LINE
8
BLACK
6
CONTINUOUS
10
169.458
20
-121.563
11
169.391
21
-121.689
0
LINE
8
BLACK
6
CONTINUOUS
10
169.391
20
-121.689
11
169.301
21
-121.799
0
LINE
8
BLACK
6
CONTINUOUS
10
169.301
20
-121.799
11
169.191
21
-121.89
0
LINE
8
BLACK
6
CONTINUOUS
10
169.191
20
-121.89
11
169.066
21
-121.958
0
LINE
8
BLACK
6
CONTINUOUS
10
169.066
20
-121.958
11
168.93
21
-122
0
LINE
8
BLACK
6
CONTINUOUS
10
168.93
20
-122
11
168.788
21
-122.015
0
LINE
8
BLACK
6
CONTINUOUS
10
168.788
20
-122.015
11
168.646
21
-122.002
0
LINE
8
BLACK
6
CONTINUOUS
10
168.646
20
-122.002
11
168.51
21
-121.962
0
LINE
8
BLACK
6
CONTINUOUS
10
168.51
20
-121.962
11
168.383
21
-121.896
0
LINE
8
BLACK
6
CONTINUOUS
10
168.383
20
-121.896
11
168.272
21
-121.807
0
LINE
8
BLACK
6
CONTINUOUS
10
168.272
20
-121.807
11
168.181
21
-121.697
0
LINE
8
BLACK
6
CONTINUOUS
10
168.181
20
-121.697
11
168.112
21
-121.573
0
LINE
8
BLACK
6
CONTINUOUS
10
168.112
20
-121.573
11
168.069
21
-121.437
0
LINE
8
BLACK
6
CONTINUOUS
10
168.069
20
-121.437
11
168.053
21
-121.295
0
LINE
8
BLACK
6
CONTINUOUS
10
168.053
20
-121.295
11
168.065
21
-121.153
0
LINE
8
BLACK
6
CONTINUOUS
10
168.065
20
-121.153
11
168.104
21
-121.016
0
LINE
8
BLACK
6
CONTINUOUS
10
168.104
20
-121.016
11
168.169
21
-120.89
0
LINE
8
BLACK
6
CONTINUOUS
10
168.169
20
-120.89
11
168.258
21
-120.778
0
LINE
8
BLACK
6
CONTINUOUS
10
168.258
20
-120.778
11
168.366
21
-120.686
0
LINE
8
BLACK
6
CONTINUOUS
10
168.366
20
-120.686
11
168.491
21
-120.616
0
LINE
8
BLACK
6
CONTINUOUS
10
168.491
20
-120.616
11
168.626
21
-120.572
0
LINE
8
BLACK
6
CONTINUOUS
10
168.626
20
-120.572
11
168.768
21
-120.555
0
LINE
8
BLACK
6
CONTINUOUS
10
168.768
20
-120.555
11
168.91
21
-120.566
0
LINE
8
BLACK
6
CONTINUOUS
10
168.91
20
-120.566
11
169.047
21
-120.604
0
LINE
8
BLACK
6
CONTINUOUS
10
169.047
20
-120.604
11
169.174
21
-120.669
0
LINE
8
BLACK
6
CONTINUOUS
10
169.174
20
-120.669
11
169.286
21
-120.756
0
LINE
8
BLACK
6
CONTINUOUS
10
169.286
20
-120.756
11
169.38
21
-120.864
0
LINE
8
BLACK
6
CONTINUOUS
10
169.38
20
-120.864
11
169.45
21
-120.988
0
LINE
8
BLACK
6
CONTINUOUS
10
169.45
20
-120.988
11
169.495
21
-121.123
0
LINE
8
BLACK
6
CONTINUOUS
10
169.495
20
-121.123
11
169.513
21
-121.265
0
LINE
8
BLACK
6
CONTINUOUS
10
169.513
20
-121.265
11
169.513
21
-121.285
0
LINE
8
BLACK
6
CONTINUOUS
10
169.513
20
-121.285
11
169.499
21
-121.427
0
LINE
8
BLACK
6
CONTINUOUS
10
169.499
20
-121.427
11
169.458
21
-121.563
0
LINE
8
BLACK
6
CONTINUOUS
10
169.301
20
-121.072
11
169.249
21
-120.975
0
LINE
8
BLACK
6
CONTINUOUS
10
169.249
20
-120.975
11
169.18
21
-120.89
0
LINE
8
BLACK
6
CONTINUOUS
10
169.18
20
-120.89
11
169.096
21
-120.821
0
LINE
8
BLACK
6
CONTINUOUS
10
169.096
20
-120.821
11
169
21
-120.769
0
LINE
8
BLACK
6
CONTINUOUS
10
169
20
-120.769
11
168.896
21
-120.736
0
LINE
8
BLACK
6
CONTINUOUS
10
168.896
20
-120.736
11
168.787
21
-120.725
0
LINE
8
BLACK
6
CONTINUOUS
10
168.787
20
-120.725
11
168.678
21
-120.735
0
LINE
8
BLACK
6
CONTINUOUS
10
168.678
20
-120.735
11
168.573
21
-120.766
0
LINE
8
BLACK
6
CONTINUOUS
10
168.573
20
-120.766
11
168.476
21
-120.816
0
LINE
8
BLACK
6
CONTINUOUS
10
168.476
20
-120.816
11
168.391
21
-120.885
0
LINE
8
BLACK
6
CONTINUOUS
10
168.391
20
-120.885
11
168.321
21
-120.969
0
LINE
8
BLACK
6
CONTINUOUS
10
168.321
20
-120.969
11
168.268
21
-121.064
0
LINE
8
BLACK
6
CONTINUOUS
10
168.268
20
-121.064
11
168.235
21
-121.169
0
LINE
8
BLACK
6
CONTINUOUS
10
168.235
20
-121.169
11
168.223
21
-121.277
0
LINE
8
BLACK
6
CONTINUOUS
10
168.223
20
-121.277
11
168.232
21
-121.386
0
LINE
8
BLACK
6
CONTINUOUS
10
168.232
20
-121.386
11
168.262
21
-121.491
0
LINE
8
BLACK
6
CONTINUOUS
10
168.262
20
-121.491
11
168.312
21
-121.588
0
LINE
8
BLACK
6
CONTINUOUS
10
168.312
20
-121.588
11
168.38
21
-121.674
0
LINE
8
BLACK
6
CONTINUOUS
10
168.38
20
-121.674
11
168.463
21
-121.745
0
LINE
8
BLACK
6
CONTINUOUS
10
168.463
20
-121.745
11
168.559
21
-121.798
0
LINE
8
BLACK
6
CONTINUOUS
10
168.559
20
-121.798
11
168.663
21
-121.832
0
LINE
8
BLACK
6
CONTINUOUS
10
168.663
20
-121.832
11
168.771
21
-121.845
0
LINE
8
BLACK
6
CONTINUOUS
10
168.771
20
-121.845
11
168.88
21
-121.836
0
LINE
8
BLACK
6
CONTINUOUS
10
168.88
20
-121.836
11
168.986
21
-121.807
0
LINE
8
BLACK
6
CONTINUOUS
10
168.986
20
-121.807
11
169.083
21
-121.758
0
LINE
8
BLACK
6
CONTINUOUS
10
169.083
20
-121.758
11
169.169
21
-121.691
0
LINE
8
BLACK
6
CONTINUOUS
10
169.169
20
-121.691
11
169.241
21
-121.608
0
LINE
8
BLACK
6
CONTINUOUS
10
169.241
20
-121.608
11
169.295
21
-121.513
0
LINE
8
BLACK
6
CONTINUOUS
10
169.295
20
-121.513
11
169.329
21
-121.409
0
LINE
8
BLACK
6
CONTINUOUS
10
169.329
20
-121.409
11
169.343
21
-121.301
0
LINE
8
BLACK
6
CONTINUOUS
10
169.343
20
-121.301
11
169.343
21
-121.285
0
LINE
8
BLACK
6
CONTINUOUS
10
169.343
20
-121.285
11
169.332
21
-121.176
0
LINE
8
BLACK
6
CONTINUOUS
10
169.332
20
-121.176
11
169.301
21
-121.072
0
LINE
8
BLACK
6
CONTINUOUS
10
116.22
20
-121.021
11
116.234
21
-121.025
0
LINE
8
BLACK
6
CONTINUOUS
10
116.234
20
-121.025
11
116.247
21
-121.032
0
LINE
8
BLACK
6
CONTINUOUS
10
116.247
20
-121.032
11
116.258
21
-121.041
0
LINE
8
BLACK
6
CONTINUOUS
10
116.258
20
-121.041
11
116.268
21
-121.053
0
LINE
8
BLACK
6
CONTINUOUS
10
116.268
20
-121.053
11
116.275
21
-121.066
0
LINE
8
BLACK
6
CONTINUOUS
10
116.275
20
-121.066
11
116.279
21
-121.08
0
LINE
8
BLACK
6
CONTINUOUS
10
116.279
20
-121.08
11
116.28
21
-121.091
0
LINE
8
BLACK
6
CONTINUOUS
10
116.28
20
-121.091
11
116.28
21
-121.21
0
LINE
8
BLACK
6
CONTINUOUS
10
116.28
20
-121.21
11
116.399
21
-121.21
0
LINE
8
BLACK
6
CONTINUOUS
10
116.399
20
-121.21
11
116.41
21
-121.211
0
LINE
8
BLACK
6
CONTINUOUS
10
116.41
20
-121.211
11
116.424
21
-121.215
0
LINE
8
BLACK
6
CONTINUOUS
10
116.424
20
-121.215
11
116.437
21
-121.222
0
LINE
8
BLACK
6
CONTINUOUS
10
116.437
20
-121.222
11
116.449
21
-121.232
0
LINE
8
BLACK
6
CONTINUOUS
10
116.449
20
-121.232
11
116.458
21
-121.243
0
LINE
8
BLACK
6
CONTINUOUS
10
116.458
20
-121.243
11
116.465
21
-121.256
0
LINE
8
BLACK
6
CONTINUOUS
10
116.465
20
-121.256
11
116.469
21
-121.27
0
LINE
8
BLACK
6
CONTINUOUS
10
116.469
20
-121.27
11
116.471
21
-121.285
0
LINE
8
BLACK
6
CONTINUOUS
10
116.471
20
-121.285
11
116.469
21
-121.3
0
LINE
8
BLACK
6
CONTINUOUS
10
116.469
20
-121.3
11
116.465
21
-121.314
0
LINE
8
BLACK
6
CONTINUOUS
10
116.465
20
-121.314
11
116.458
21
-121.327
0
LINE
8
BLACK
6
CONTINUOUS
10
116.458
20
-121.327
11
116.449
21
-121.338
0
LINE
8
BLACK
6
CONTINUOUS
10
116.449
20
-121.338
11
116.437
21
-121.348
0
LINE
8
BLACK
6
CONTINUOUS
10
116.437
20
-121.348
11
116.424
21
-121.355
0
LINE
8
BLACK
6
CONTINUOUS
10
116.424
20
-121.355
11
116.41
21
-121.359
0
LINE
8
BLACK
6
CONTINUOUS
10
116.41
20
-121.359
11
116.399
21
-121.36
0
LINE
8
BLACK
6
CONTINUOUS
10
116.399
20
-121.36
11
116.28
21
-121.36
0
LINE
8
BLACK
6
CONTINUOUS
10
116.28
20
-121.36
11
116.28
21
-121.479
0
LINE
8
BLACK
6
CONTINUOUS
10
116.28
20
-121.479
11
116.279
21
-121.49
0
LINE
8
BLACK
6
CONTINUOUS
10
116.279
20
-121.49
11
116.275
21
-121.504
0
LINE
8
BLACK
6
CONTINUOUS
10
116.275
20
-121.504
11
116.268
21
-121.517
0
LINE
8
BLACK
6
CONTINUOUS
10
116.268
20
-121.517
11
116.258
21
-121.529
0
LINE
8
BLACK
6
CONTINUOUS
10
116.258
20
-121.529
11
116.247
21
-121.538
0
LINE
8
BLACK
6
CONTINUOUS
10
116.247
20
-121.538
11
116.234
21
-121.545
0
LINE
8
BLACK
6
CONTINUOUS
10
116.234
20
-121.545
11
116.22
21
-121.549
0
LINE
8
BLACK
6
CONTINUOUS
10
116.22
20
-121.549
11
116.205
21
-121.551
0
LINE
8
BLACK
6
CONTINUOUS
10
116.205
20
-121.551
11
116.19
21
-121.549
0
LINE
8
BLACK
6
CONTINUOUS
10
116.19
20
-121.549
11
116.176
21
-121.545
0
LINE
8
BLACK
6
CONTINUOUS
10
116.176
20
-121.545
11
116.163
21
-121.538
0
LINE
8
BLACK
6
CONTINUOUS
10
116.163
20
-121.538
11
116.152
21
-121.529
0
LINE
8
BLACK
6
CONTINUOUS
10
116.152
20
-121.529
11
116.142
21
-121.517
0
LINE
8
BLACK
6
CONTINUOUS
10
116.142
20
-121.517
11
116.135
21
-121.504
0
LINE
8
BLACK
6
CONTINUOUS
10
116.135
20
-121.504
11
116.131
21
-121.49
0
LINE
8
BLACK
6
CONTINUOUS
10
116.131
20
-121.49
11
116.13
21
-121.479
0
LINE
8
BLACK
6
CONTINUOUS
10
116.13
20
-121.479
11
116.13
21
-121.36
0
LINE
8
BLACK
6
CONTINUOUS
10
116.13
20
-121.36
11
116.011
21
-121.36
0
LINE
8
BLACK
6
CONTINUOUS
10
116.011
20
-121.36
11
116
21
-121.359
0
LINE
8
BLACK
6
CONTINUOUS
10
116
20
-121.359
11
115.986
21
-121.355
0
LINE
8
BLACK
6
CONTINUOUS
10
115.986
20
-121.355
11
115.973
21
-121.348
0
LINE
8
BLACK
6
CONTINUOUS
10
115.973
20
-121.348
11
115.961
21
-121.338
0
LINE
8
BLACK
6
CONTINUOUS
10
115.961
20
-121.338
11
115.952
21
-121.327
0
LINE
8
BLACK
6
CONTINUOUS
10
115.952
20
-121.327
11
115.945
21
-121.314
0
LINE
8
BLACK
6
CONTINUOUS
10
115.945
20
-121.314
11
115.941
21
-121.3
0
LINE
8
BLACK
6
CONTINUOUS
10
115.941
20
-121.3
11
115.939
21
-121.285
0
LINE
8
BLACK
6
CONTINUOUS
10
115.939
20
-121.285
11
115.941
21
-121.27
0
LINE
8
BLACK
6
CONTINUOUS
10
115.941
20
-121.27
11
115.945
21
-121.256
0
LINE
8
BLACK
6
CONTINUOUS
10
115.945
20
-121.256
11
115.952
21
-121.243
0
LINE
8
BLACK
6
CONTINUOUS
10
115.952
20
-121.243
11
115.961
21
-121.232
0
LINE
8
BLACK
6
CONTINUOUS
10
115.961
20
-121.232
11
115.973
21
-121.222
0
LINE
8
BLACK
6
CONTINUOUS
10
115.973
20
-121.222
11
115.986
21
-121.215
0
LINE
8
BLACK
6
CONTINUOUS
10
115.986
20
-121.215
11
116
21
-121.211
0
LINE
8
BLACK
6
CONTINUOUS
10
116
20
-121.211
11
116.011
21
-121.21
0
LINE
8
BLACK
6
CONTINUOUS
10
116.011
20
-121.21
11
116.13
21
-121.21
0
LINE
8
BLACK
6
CONTINUOUS
10
116.13
20
-121.21
11
116.13
21
-121.091
0
LINE
8
BLACK
6
CONTINUOUS
10
116.13
20
-121.091
11
116.131
21
-121.08
0
LINE
8
BLACK
6
CONTINUOUS
10
116.131
20
-121.08
11
116.135
21
-121.066
0
LINE
8
BLACK
6
CONTINUOUS
10
116.135
20
-121.066
11
116.142
21
-121.053
0
LINE
8
BLACK
6
CONTINUOUS
10
116.142
20
-121.053
11
116.152
21
-121.041
0
LINE
8
BLACK
6
CONTINUOUS
10
116.152
20
-121.041
11
116.163
21
-121.032
0
LINE
8
BLACK
6
CONTINUOUS
10
116.163
20
-121.032
11
116.176
21
-121.025
0
LINE
8
BLACK
6
CONTINUOUS
10
116.176
20
-121.025
11
116.19
21
-121.021
0
LINE
8
BLACK
6
CONTINUOUS
10
116.19
20
-121.021
11
116.205
21
-121.019
0
LINE
8
BLACK
6
CONTINUOUS
10
116.205
20
-121.019
11
116.22
21
-121.021
0
LINE
8
BLACK
6
CONTINUOUS
10
177.561
20
-121.021
11
177.575
21
-121.025
0
LINE
8
BLACK
6
CONTINUOUS
10
177.575
20
-121.025
11
177.588
21
-121.032
0
LINE
8
BLACK
6
CONTINUOUS
10
177.588
20
-121.032
11
177.599
21
-121.041
0
LINE
8
BLACK
6
CONTINUOUS
10
177.599
20
-121.041
11
177.609
21
-121.053
0
LINE
8
BLACK
6
CONTINUOUS
10
177.609
20
-121.053
11
177.616
21
-121.066
0
LINE
8
BLACK
6
CONTINUOUS
10
177.616
20
-121.066
11
177.62
21
-121.08
0
LINE
8
BLACK
6
CONTINUOUS
10
177.62
20
-121.08
11
177.621
21
-121.091
0
LINE
8
BLACK
6
CONTINUOUS
10
177.621
20
-121.091
11
177.621
21
-121.21
0
LINE
8
BLACK
6
CONTINUOUS
10
177.621
20
-121.21
11
177.74
21
-121.21
0
LINE
8
BLACK
6
CONTINUOUS
10
177.74
20
-121.21
11
177.751
21
-121.211
0
LINE
8
BLACK
6
CONTINUOUS
10
177.751
20
-121.211
11
177.765
21
-121.215
0
LINE
8
BLACK
6
CONTINUOUS
10
177.765
20
-121.215
11
177.778
21
-121.222
0
LINE
8
BLACK
6
CONTINUOUS
10
177.778
20
-121.222
11
177.79
21
-121.232
0
LINE
8
BLACK
6
CONTINUOUS
10
177.79
20
-121.232
11
177.799
21
-121.243
0
LINE
8
BLACK
6
CONTINUOUS
10
177.799
20
-121.243
11
177.806
21
-121.256
0
LINE
8
BLACK
6
CONTINUOUS
10
177.806
20
-121.256
11
177.81
21
-121.27
0
LINE
8
BLACK
6
CONTINUOUS
10
177.81
20
-121.27
11
177.812
21
-121.285
0
LINE
8
BLACK
6
CONTINUOUS
10
177.812
20
-121.285
11
177.81
21
-121.3
0
LINE
8
BLACK
6
CONTINUOUS
10
177.81
20
-121.3
11
177.806
21
-121.314
0
LINE
8
BLACK
6
CONTINUOUS
10
177.806
20
-121.314
11
177.799
21
-121.327
0
LINE
8
BLACK
6
CONTINUOUS
10
177.799
20
-121.327
11
177.79
21
-121.338
0
LINE
8
BLACK
6
CONTINUOUS
10
177.79
20
-121.338
11
177.778
21
-121.348
0
LINE
8
BLACK
6
CONTINUOUS
10
177.778
20
-121.348
11
177.765
21
-121.355
0
LINE
8
BLACK
6
CONTINUOUS
10
177.765
20
-121.355
11
177.751
21
-121.359
0
LINE
8
BLACK
6
CONTINUOUS
10
177.751
20
-121.359
11
177.74
21
-121.36
0
LINE
8
BLACK
6
CONTINUOUS
10
177.74
20
-121.36
11
177.621
21
-121.36
0
LINE
8
BLACK
6
CONTINUOUS
10
177.621
20
-121.36
11
177.621
21
-121.479
0
LINE
8
BLACK
6
CONTINUOUS
10
177.621
20
-121.479
11
177.62
21
-121.49
0
LINE
8
BLACK
6
CONTINUOUS
10
177.62
20
-121.49
11
177.616
21
-121.504
0
LINE
8
BLACK
6
CONTINUOUS
10
177.616
20
-121.504
11
177.609
21
-121.517
0
LINE
8
BLACK
6
CONTINUOUS
10
177.609
20
-121.517
11
177.599
21
-121.529
0
LINE
8
BLACK
6
CONTINUOUS
10
177.599
20
-121.529
11
177.588
21
-121.538
0
LINE
8
BLACK
6
CONTINUOUS
10
177.588
20
-121.538
11
177.575
21
-121.545
0
LINE
8
BLACK
6
CONTINUOUS
10
177.575
20
-121.545
11
177.561
21
-121.549
0
LINE
8
BLACK
6
CONTINUOUS
10
177.561
20
-121.549
11
177.546
21
-121.551
0
LINE
8
BLACK
6
CONTINUOUS
10
177.546
20
-121.551
11
177.531
21
-121.549
0
LINE
8
BLACK
6
CONTINUOUS
10
177.531
20
-121.549
11
177.517
21
-121.545
0
LINE
8
BLACK
6
CONTINUOUS
10
177.517
20
-121.545
11
177.504
21
-121.538
0
LINE
8
BLACK
6
CONTINUOUS
10
177.504
20
-121.538
11
177.493
21
-121.529
0
LINE
8
BLACK
6
CONTINUOUS
10
177.493
20
-121.529
11
177.483
21
-121.517
0
LINE
8
BLACK
6
CONTINUOUS
10
177.483
20
-121.517
11
177.476
21
-121.504
0
LINE
8
BLACK
6
CONTINUOUS
10
177.476
20
-121.504
11
177.472
21
-121.49
0
LINE
8
BLACK
6
CONTINUOUS
10
177.472
20
-121.49
11
177.471
21
-121.479
0
LINE
8
BLACK
6
CONTINUOUS
10
177.471
20
-121.479
11
177.471
21
-121.36
0
LINE
8
BLACK
6
CONTINUOUS
10
177.471
20
-121.36
11
177.352
21
-121.36
0
LINE
8
BLACK
6
CONTINUOUS
10
177.352
20
-121.36
11
177.341
21
-121.359
0
LINE
8
BLACK
6
CONTINUOUS
10
177.341
20
-121.359
11
177.327
21
-121.355
0
LINE
8
BLACK
6
CONTINUOUS
10
177.327
20
-121.355
11
177.314
21
-121.348
0
LINE
8
BLACK
6
CONTINUOUS
10
177.314
20
-121.348
11
177.302
21
-121.338
0
LINE
8
BLACK
6
CONTINUOUS
10
177.302
20
-121.338
11
177.293
21
-121.327
0
LINE
8
BLACK
6
CONTINUOUS
10
177.293
20
-121.327
11
177.286
21
-121.314
0
LINE
8
BLACK
6
CONTINUOUS
10
177.286
20
-121.314
11
177.282
21
-121.3
0
LINE
8
BLACK
6
CONTINUOUS
10
177.282
20
-121.3
11
177.28
21
-121.285
0
LINE
8
BLACK
6
CONTINUOUS
10
177.28
20
-121.285
11
177.282
21
-121.27
0
LINE
8
BLACK
6
CONTINUOUS
10
177.282
20
-121.27
11
177.286
21
-121.256
0
LINE
8
BLACK
6
CONTINUOUS
10
177.286
20
-121.256
11
177.293
21
-121.243
0
LINE
8
BLACK
6
CONTINUOUS
10
177.293
20
-121.243
11
177.302
21
-121.232
0
LINE
8
BLACK
6
CONTINUOUS
10
177.302
20
-121.232
11
177.314
21
-121.222
0
LINE
8
BLACK
6
CONTINUOUS
10
177.314
20
-121.222
11
177.327
21
-121.215
0
LINE
8
BLACK
6
CONTINUOUS
10
177.327
20
-121.215
11
177.341
21
-121.211
0
LINE
8
BLACK
6
CONTINUOUS
10
177.341
20
-121.211
11
177.352
21
-121.21
0
LINE
8
BLACK
6
CONTINUOUS
10
177.352
20
-121.21
11
177.471
21
-121.21
0
LINE
8
BLACK
6
CONTINUOUS
10
177.471
20
-121.21
11
177.471
21
-121.091
0
LINE
8
BLACK
6
CONTINUOUS
10
177.471
20
-121.091
11
177.472
21
-121.08
0
LINE
8
BLACK
6
CONTINUOUS
10
177.472
20
-121.08
11
177.476
21
-121.066
0
LINE
8
BLACK
6
CONTINUOUS
10
177.476
20
-121.066
11
177.483
21
-121.053
0
LINE
8
BLACK
6
CONTINUOUS
10
177.483
20
-121.053
11
177.493
21
-121.041
0
LINE
8
BLACK
6
CONTINUOUS
10
177.493
20
-121.041
11
177.504
21
-121.032
0
LINE
8
BLACK
6
CONTINUOUS
10
177.504
20
-121.032
11
177.517
21
-121.025
0
LINE
8
BLACK
6
CONTINUOUS
10
177.517
20
-121.025
11
177.531
21
-121.021
0
LINE
8
BLACK
6
CONTINUOUS
10
177.531
20
-121.021
11
177.546
21
-121.019
0
LINE
8
BLACK
6
CONTINUOUS
10
177.546
20
-121.019
11
177.561
21
-121.021
0
LINE
8
BLACK
6
CONTINUOUS
10
141.138
20
-118.729
11
140.989
21
-119.009
0
LINE
8
BLACK
6
CONTINUOUS
10
140.989
20
-119.009
11
140.789
21
-119.255
0
LINE
8
BLACK
6
CONTINUOUS
10
140.789
20
-119.255
11
140.545
21
-119.457
0
LINE
8
BLACK
6
CONTINUOUS
10
140.545
20
-119.457
11
140.266
21
-119.607
0
LINE
8
BLACK
6
CONTINUOUS
10
140.266
20
-119.607
11
139.963
21
-119.701
0
LINE
8
BLACK
6
CONTINUOUS
10
139.963
20
-119.701
11
139.648
21
-119.734
0
LINE
8
BLACK
6
CONTINUOUS
10
139.648
20
-119.734
11
139.332
21
-119.706
0
LINE
8
BLACK
6
CONTINUOUS
10
139.332
20
-119.706
11
139.028
21
-119.616
0
LINE
8
BLACK
6
CONTINUOUS
10
139.028
20
-119.616
11
138.747
21
-119.469
0
LINE
8
BLACK
6
CONTINUOUS
10
138.747
20
-119.469
11
138.5
21
-119.271
0
LINE
8
BLACK
6
CONTINUOUS
10
138.5
20
-119.271
11
138.296
21
-119.028
0
LINE
8
BLACK
6
CONTINUOUS
10
138.296
20
-119.028
11
138.144
21
-118.75
0
LINE
8
BLACK
6
CONTINUOUS
10
138.144
20
-118.75
11
138.048
21
-118.448
0
LINE
8
BLACK
6
CONTINUOUS
10
138.048
20
-118.448
11
138.012
21
-118.133
0
LINE
8
BLACK
6
CONTINUOUS
10
138.012
20
-118.133
11
138.039
21
-117.817
0
LINE
8
BLACK
6
CONTINUOUS
10
138.039
20
-117.817
11
138.126
21
-117.512
0
LINE
8
BLACK
6
CONTINUOUS
10
138.126
20
-117.512
11
138.271
21
-117.23
0
LINE
8
BLACK
6
CONTINUOUS
10
138.271
20
-117.23
11
138.468
21
-116.982
0
LINE
8
BLACK
6
CONTINUOUS
10
138.468
20
-116.982
11
138.709
21
-116.776
0
LINE
8
BLACK
6
CONTINUOUS
10
138.709
20
-116.776
11
138.986
21
-116.622
0
LINE
8
BLACK
6
CONTINUOUS
10
138.986
20
-116.622
11
139.288
21
-116.524
0
LINE
8
BLACK
6
CONTINUOUS
10
139.288
20
-116.524
11
139.602
21
-116.486
0
LINE
8
BLACK
6
CONTINUOUS
10
139.602
20
-116.486
11
139.919
21
-116.51
0
LINE
8
BLACK
6
CONTINUOUS
10
139.919
20
-116.51
11
140.224
21
-116.596
0
LINE
8
BLACK
6
CONTINUOUS
10
140.224
20
-116.596
11
140.507
21
-116.739
0
LINE
8
BLACK
6
CONTINUOUS
10
140.507
20
-116.739
11
140.757
21
-116.934
0
LINE
8
BLACK
6
CONTINUOUS
10
140.757
20
-116.934
11
140.964
21
-117.174
0
LINE
8
BLACK
6
CONTINUOUS
10
140.964
20
-117.174
11
141.12
21
-117.449
0
LINE
8
BLACK
6
CONTINUOUS
10
141.12
20
-117.449
11
141.22
21
-117.75
0
LINE
8
BLACK
6
CONTINUOUS
10
141.22
20
-117.75
11
141.26
21
-118.065
0
LINE
8
BLACK
6
CONTINUOUS
10
141.26
20
-118.065
11
141.261
21
-118.11
0
LINE
8
BLACK
6
CONTINUOUS
10
141.261
20
-118.11
11
141.23
21
-118.425
0
LINE
8
BLACK
6
CONTINUOUS
10
141.23
20
-118.425
11
141.138
21
-118.729
0
LINE
8
BLACK
6
CONTINUOUS
10
140.981
20
-117.556
11
140.848
21
-117.305
0
LINE
8
BLACK
6
CONTINUOUS
10
140.848
20
-117.305
11
140.668
21
-117.085
0
LINE
8
BLACK
6
CONTINUOUS
10
140.668
20
-117.085
11
140.45
21
-116.904
0
LINE
8
BLACK
6
CONTINUOUS
10
140.45
20
-116.904
11
140.2
21
-116.769
0
LINE
8
BLACK
6
CONTINUOUS
10
140.2
20
-116.769
11
139.929
21
-116.685
0
LINE
8
BLACK
6
CONTINUOUS
10
139.929
20
-116.685
11
139.647
21
-116.656
0
LINE
8
BLACK
6
CONTINUOUS
10
139.647
20
-116.656
11
139.364
21
-116.681
0
LINE
8
BLACK
6
CONTINUOUS
10
139.364
20
-116.681
11
139.092
21
-116.762
0
LINE
8
BLACK
6
CONTINUOUS
10
139.092
20
-116.762
11
138.84
21
-116.893
0
LINE
8
BLACK
6
CONTINUOUS
10
138.84
20
-116.893
11
138.619
21
-117.071
0
LINE
8
BLACK
6
CONTINUOUS
10
138.619
20
-117.071
11
138.437
21
-117.288
0
LINE
8
BLACK
6
CONTINUOUS
10
138.437
20
-117.288
11
138.3
21
-117.537
0
LINE
8
BLACK
6
CONTINUOUS
10
138.3
20
-117.537
11
138.214
21
-117.808
0
LINE
8
BLACK
6
CONTINUOUS
10
138.214
20
-117.808
11
138.182
21
-118.09
0
LINE
8
BLACK
6
CONTINUOUS
10
138.182
20
-118.09
11
138.206
21
-118.373
0
LINE
8
BLACK
6
CONTINUOUS
10
138.206
20
-118.373
11
138.284
21
-118.645
0
LINE
8
BLACK
6
CONTINUOUS
10
138.284
20
-118.645
11
138.414
21
-118.898
0
LINE
8
BLACK
6
CONTINUOUS
10
138.414
20
-118.898
11
138.59
21
-119.12
0
LINE
8
BLACK
6
CONTINUOUS
10
138.59
20
-119.12
11
138.807
21
-119.304
0
LINE
8
BLACK
6
CONTINUOUS
10
138.807
20
-119.304
11
139.054
21
-119.443
0
LINE
8
BLACK
6
CONTINUOUS
10
139.054
20
-119.443
11
139.324
21
-119.53
0
LINE
8
BLACK
6
CONTINUOUS
10
139.324
20
-119.53
11
139.606
21
-119.564
0
LINE
8
BLACK
6
CONTINUOUS
10
139.606
20
-119.564
11
139.889
21
-119.542
0
LINE
8
BLACK
6
CONTINUOUS
10
139.889
20
-119.542
11
140.162
21
-119.466
0
LINE
8
BLACK
6
CONTINUOUS
10
140.162
20
-119.466
11
140.416
21
-119.338
0
LINE
8
BLACK
6
CONTINUOUS
10
140.416
20
-119.338
11
140.639
21
-119.163
0
LINE
8
BLACK
6
CONTINUOUS
10
140.639
20
-119.163
11
140.825
21
-118.948
0
LINE
8
BLACK
6
CONTINUOUS
10
140.825
20
-118.948
11
140.965
21
-118.702
0
LINE
8
BLACK
6
CONTINUOUS
10
140.965
20
-118.702
11
141.055
21
-118.432
0
LINE
8
BLACK
6
CONTINUOUS
10
141.055
20
-118.432
11
141.09
21
-118.151
0
LINE
8
BLACK
6
CONTINUOUS
10
141.09
20
-118.151
11
141.091
21
-118.11
0
LINE
8
BLACK
6
CONTINUOUS
10
141.091
20
-118.11
11
141.063
21
-117.828
0
LINE
8
BLACK
6
CONTINUOUS
10
141.063
20
-117.828
11
140.981
21
-117.556
0
LINE
8
BLACK
6
CONTINUOUS
10
186.16
20
-118.729
11
186.011
21
-119.009
0
LINE
8
BLACK
6
CONTINUOUS
10
186.011
20
-119.009
11
185.811
21
-119.255
0
LINE
8
BLACK
6
CONTINUOUS
10
185.811
20
-119.255
11
185.566
21
-119.457
0
LINE
8
BLACK
6
CONTINUOUS
10
185.566
20
-119.457
11
185.287
21
-119.607
0
LINE
8
BLACK
6
CONTINUOUS
10
185.287
20
-119.607
11
184.985
21
-119.701
0
LINE
8
BLACK
6
CONTINUOUS
10
184.985
20
-119.701
11
184.669
21
-119.734
0
LINE
8
BLACK
6
CONTINUOUS
10
184.669
20
-119.734
11
184.354
21
-119.706
0
LINE
8
BLACK
6
CONTINUOUS
10
184.354
20
-119.706
11
184.05
21
-119.616
0
LINE
8
BLACK
6
CONTINUOUS
10
184.05
20
-119.616
11
183.769
21
-119.469
0
LINE
8
BLACK
6
CONTINUOUS
10
183.769
20
-119.469
11
183.522
21
-119.271
0
LINE
8
BLACK
6
CONTINUOUS
10
183.522
20
-119.271
11
183.318
21
-119.028
0
LINE
8
BLACK
6
CONTINUOUS
10
183.318
20
-119.028
11
183.165
21
-118.75
0
LINE
8
BLACK
6
CONTINUOUS
10
183.165
20
-118.75
11
183.069
21
-118.448
0
LINE
8
BLACK
6
CONTINUOUS
10
183.069
20
-118.448
11
183.034
21
-118.133
0
LINE
8
BLACK
6
CONTINUOUS
10
183.034
20
-118.133
11
183.06
21
-117.817
0
LINE
8
BLACK
6
CONTINUOUS
10
183.06
20
-117.817
11
183.148
21
-117.512
0
LINE
8
BLACK
6
CONTINUOUS
10
183.148
20
-117.512
11
183.293
21
-117.23
0
LINE
8
BLACK
6
CONTINUOUS
10
183.293
20
-117.23
11
183.49
21
-116.982
0
LINE
8
BLACK
6
CONTINUOUS
10
183.49
20
-116.982
11
183.731
21
-116.776
0
LINE
8
BLACK
6
CONTINUOUS
10
183.731
20
-116.776
11
184.008
21
-116.622
0
LINE
8
BLACK
6
CONTINUOUS
10
184.008
20
-116.622
11
184.309
21
-116.524
0
LINE
8
BLACK
6
CONTINUOUS
10
184.309
20
-116.524
11
184.624
21
-116.486
0
LINE
8
BLACK
6
CONTINUOUS
10
184.624
20
-116.486
11
184.94
21
-116.51
0
LINE
8
BLACK
6
CONTINUOUS
10
184.94
20
-116.51
11
185.245
21
-116.596
0
LINE
8
BLACK
6
CONTINUOUS
10
185.245
20
-116.596
11
185.528
21
-116.739
0
LINE
8
BLACK
6
CONTINUOUS
10
185.528
20
-116.739
11
185.778
21
-116.934
0
LINE
8
BLACK
6
CONTINUOUS
10
185.778
20
-116.934
11
185.985
21
-117.174
0
LINE
8
BLACK
6
CONTINUOUS
10
185.985
20
-117.174
11
186.142
21
-117.449
0
LINE
8
BLACK
6
CONTINUOUS
10
186.142
20
-117.449
11
186.242
21
-117.75
0
LINE
8
BLACK
6
CONTINUOUS
10
186.242
20
-117.75
11
186.282
21
-118.065
0
LINE
8
BLACK
6
CONTINUOUS
10
186.282
20
-118.065
11
186.282
21
-118.11
0
LINE
8
BLACK
6
CONTINUOUS
10
186.282
20
-118.11
11
186.251
21
-118.425
0
LINE
8
BLACK
6
CONTINUOUS
10
186.251
20
-118.425
11
186.16
21
-118.729
0
LINE
8
BLACK
6
CONTINUOUS
10
186.003
20
-117.556
11
185.869
21
-117.305
0
LINE
8
BLACK
6
CONTINUOUS
10
185.869
20
-117.305
11
185.69
21
-117.085
0
LINE
8
BLACK
6
CONTINUOUS
10
185.69
20
-117.085
11
185.471
21
-116.904
0
LINE
8
BLACK
6
CONTINUOUS
10
185.471
20
-116.904
11
185.222
21
-116.769
0
LINE
8
BLACK
6
CONTINUOUS
10
185.222
20
-116.769
11
184.95
21
-116.685
0
LINE
8
BLACK
6
CONTINUOUS
10
184.95
20
-116.685
11
184.668
21
-116.656
0
LINE
8
BLACK
6
CONTINUOUS
10
184.668
20
-116.656
11
184.385
21
-116.681
0
LINE
8
BLACK
6
CONTINUOUS
10
184.385
20
-116.681
11
184.113
21
-116.762
0
LINE
8
BLACK
6
CONTINUOUS
10
184.113
20
-116.762
11
183.862
21
-116.893
0
LINE
8
BLACK
6
CONTINUOUS
10
183.862
20
-116.893
11
183.64
21
-117.071
0
LINE
8
BLACK
6
CONTINUOUS
10
183.64
20
-117.071
11
183.458
21
-117.288
0
LINE
8
BLACK
6
CONTINUOUS
10
183.458
20
-117.288
11
183.321
21
-117.537
0
LINE
8
BLACK
6
CONTINUOUS
10
183.321
20
-117.537
11
183.235
21
-117.808
0
LINE
8
BLACK
6
CONTINUOUS
10
183.235
20
-117.808
11
183.204
21
-118.09
0
LINE
8
BLACK
6
CONTINUOUS
10
183.204
20
-118.09
11
183.228
21
-118.373
0
LINE
8
BLACK
6
CONTINUOUS
10
183.228
20
-118.373
11
183.306
21
-118.645
0
LINE
8
BLACK
6
CONTINUOUS
10
183.306
20
-118.645
11
183.436
21
-118.898
0
LINE
8
BLACK
6
CONTINUOUS
10
183.436
20
-118.898
11
183.612
21
-119.12
0
LINE
8
BLACK
6
CONTINUOUS
10
183.612
20
-119.12
11
183.828
21
-119.304
0
LINE
8
BLACK
6
CONTINUOUS
10
183.828
20
-119.304
11
184.076
21
-119.443
0
LINE
8
BLACK
6
CONTINUOUS
10
184.076
20
-119.443
11
184.346
21
-119.53
0
LINE
8
BLACK
6
CONTINUOUS
10
184.346
20
-119.53
11
184.628
21
-119.564
0
LINE
8
BLACK
6
CONTINUOUS
10
184.628
20
-119.564
11
184.911
21
-119.542
0
LINE
8
BLACK
6
CONTINUOUS
10
184.911
20
-119.542
11
185.184
21
-119.466
0
LINE
8
BLACK
6
CONTINUOUS
10
185.184
20
-119.466
11
185.437
21
-119.338
0
LINE
8
BLACK
6
CONTINUOUS
10
185.437
20
-119.338
11
185.661
21
-119.163
0
LINE
8
BLACK
6
CONTINUOUS
10
185.661
20
-119.163
11
185.846
21
-118.948
0
LINE
8
BLACK
6
CONTINUOUS
10
185.846
20
-118.948
11
185.987
21
-118.702
0
LINE
8
BLACK
6
CONTINUOUS
10
185.987
20
-118.702
11
186.076
21
-118.432
0
LINE
8
BLACK
6
CONTINUOUS
10
186.076
20
-118.432
11
186.112
21
-118.151
0
LINE
8
BLACK
6
CONTINUOUS
10
186.112
20
-118.151
11
186.112
21
-118.11
0
LINE
8
BLACK
6
CONTINUOUS
10
186.112
20
-118.11
11
186.085
21
-117.828
0
LINE
8
BLACK
6
CONTINUOUS
10
186.085
20
-117.828
11
186.003
21
-117.556
0
LINE
8
BLACK
6
CONTINUOUS
10
92.9417
20
-118.729
11
92.7929
21
-119.009
0
LINE
8
BLACK
6
CONTINUOUS
10
92.7929
20
-119.009
11
92.5925
21
-119.255
0
LINE
8
BLACK
6
CONTINUOUS
10
92.5925
20
-119.255
11
92.3483
21
-119.457
0
LINE
8
BLACK
6
CONTINUOUS
10
92.3483
20
-119.457
11
92.0694
21
-119.607
0
LINE
8
BLACK
6
CONTINUOUS
10
92.0694
20
-119.607
11
91.7666
21
-119.701
0
LINE
8
BLACK
6
CONTINUOUS
10
91.7666
20
-119.701
11
91.4513
21
-119.734
0
LINE
8
BLACK
6
CONTINUOUS
10
91.4513
20
-119.734
11
91.1356
21
-119.706
0
LINE
8
BLACK
6
CONTINUOUS
10
91.1356
20
-119.706
11
90.8315
21
-119.616
0
LINE
8
BLACK
6
CONTINUOUS
10
90.8315
20
-119.616
11
90.5506
21
-119.469
0
LINE
8
BLACK
6
CONTINUOUS
10
90.5506
20
-119.469
11
90.3035
21
-119.271
0
LINE
8
BLACK
6
CONTINUOUS
10
90.3035
20
-119.271
11
90.0998
21
-119.028
0
LINE
8
BLACK
6
CONTINUOUS
10
90.0998
20
-119.028
11
89.9471
21
-118.75
0
LINE
8
BLACK
6
CONTINUOUS
10
89.9471
20
-118.75
11
89.8512
21
-118.448
0
LINE
8
BLACK
6
CONTINUOUS
10
89.8512
20
-118.448
11
89.8159
21
-118.133
0
LINE
8
BLACK
6
CONTINUOUS
10
89.8159
20
-118.133
11
89.8424
21
-117.817
0
LINE
8
BLACK
6
CONTINUOUS
10
89.8424
20
-117.817
11
89.9298
21
-117.512
0
LINE
8
BLACK
6
CONTINUOUS
10
89.9298
20
-117.512
11
90.0747
21
-117.23
0
LINE
8
BLACK
6
CONTINUOUS
10
90.0747
20
-117.23
11
90.2716
21
-116.982
0
LINE
8
BLACK
6
CONTINUOUS
10
90.2716
20
-116.982
11
90.513
21
-116.776
0
LINE
8
BLACK
6
CONTINUOUS
10
90.513
20
-116.776
11
90.7897
21
-116.622
0
LINE
8
BLACK
6
CONTINUOUS
10
90.7897
20
-116.622
11
91.0912
21
-116.524
0
LINE
8
BLACK
6
CONTINUOUS
10
91.0912
20
-116.524
11
91.406
21
-116.486
0
LINE
8
BLACK
6
CONTINUOUS
10
91.406
20
-116.486
11
91.7221
21
-116.51
0
LINE
8
BLACK
6
CONTINUOUS
10
91.7221
20
-116.51
11
92.0274
21
-116.596
0
LINE
8
BLACK
6
CONTINUOUS
10
92.0274
20
-116.596
11
92.3103
21
-116.739
0
LINE
8
BLACK
6
CONTINUOUS
10
92.3103
20
-116.739
11
92.5601
21
-116.934
0
LINE
8
BLACK
6
CONTINUOUS
10
92.5601
20
-116.934
11
92.7673
21
-117.174
0
LINE
8
BLACK
6
CONTINUOUS
10
92.7673
20
-117.174
11
92.9239
21
-117.449
0
LINE
8
BLACK
6
CONTINUOUS
10
92.9239
20
-117.449
11
93.0239
21
-117.75
0
LINE
8
BLACK
6
CONTINUOUS
10
93.0239
20
-117.75
11
93.0636
21
-118.065
0
LINE
8
BLACK
6
CONTINUOUS
10
93.0636
20
-118.065
11
93.0643
21
-118.11
0
LINE
8
BLACK
6
CONTINUOUS
10
93.0643
20
-118.11
11
93.0333
21
-118.425
0
LINE
8
BLACK
6
CONTINUOUS
10
93.0333
20
-118.425
11
92.9417
21
-118.729
0
LINE
8
BLACK
6
CONTINUOUS
10
92.7846
20
-117.556
11
92.6513
21
-117.305
0
LINE
8
BLACK
6
CONTINUOUS
10
92.6513
20
-117.305
11
92.4719
21
-117.085
0
LINE
8
BLACK
6
CONTINUOUS
10
92.4719
20
-117.085
11
92.2532
21
-116.904
0
LINE
8
BLACK
6
CONTINUOUS
10
92.2532
20
-116.904
11
92.0036
21
-116.769
0
LINE
8
BLACK
6
CONTINUOUS
10
92.0036
20
-116.769
11
91.7324
21
-116.685
0
LINE
8
BLACK
6
CONTINUOUS
10
91.7324
20
-116.685
11
91.4502
21
-116.656
0
LINE
8
BLACK
6
CONTINUOUS
10
91.4502
20
-116.656
11
91.1675
21
-116.681
0
LINE
8
BLACK
6
CONTINUOUS
10
91.1675
20
-116.681
11
90.8952
21
-116.762
0
LINE
8
BLACK
6
CONTINUOUS
10
90.8952
20
-116.762
11
90.6437
21
-116.893
0
LINE
8
BLACK
6
CONTINUOUS
10
90.6437
20
-116.893
11
90.4225
21
-117.071
0
LINE
8
BLACK
6
CONTINUOUS
10
90.4225
20
-117.071
11
90.2401
21
-117.288
0
LINE
8
BLACK
6
CONTINUOUS
10
90.2401
20
-117.288
11
90.1033
21
-117.537
0
LINE
8
BLACK
6
CONTINUOUS
10
90.1033
20
-117.537
11
90.0175
21
-117.808
0
LINE
8
BLACK
6
CONTINUOUS
10
90.0175
20
-117.808
11
89.9859
21
-118.09
0
LINE
8
BLACK
6
CONTINUOUS
10
89.9859
20
-118.09
11
90.0096
21
-118.373
0
LINE
8
BLACK
6
CONTINUOUS
10
90.0096
20
-118.373
11
90.0878
21
-118.645
0
LINE
8
BLACK
6
CONTINUOUS
10
90.0878
20
-118.645
11
90.2176
21
-118.898
0
LINE
8
BLACK
6
CONTINUOUS
10
90.2176
20
-118.898
11
90.3939
21
-119.12
0
LINE
8
BLACK
6
CONTINUOUS
10
90.3939
20
-119.12
11
90.61
21
-119.304
0
LINE
8
BLACK
6
CONTINUOUS
10
90.61
20
-119.304
11
90.8578
21
-119.443
0
LINE
8
BLACK
6
CONTINUOUS
10
90.8578
20
-119.443
11
91.1277
21
-119.53
0
LINE
8
BLACK
6
CONTINUOUS
10
91.1277
20
-119.53
11
91.4095
21
-119.564
0
LINE
8
BLACK
6
CONTINUOUS
10
91.4095
20
-119.564
11
91.6925
21
-119.542
0
LINE
8
BLACK
6
CONTINUOUS
10
91.6925
20
-119.542
11
91.9659
21
-119.466
0
LINE
8
BLACK
6
CONTINUOUS
10
91.9659
20
-119.466
11
92.2192
21
-119.338
0
LINE
8
BLACK
6
CONTINUOUS
10
92.2192
20
-119.338
11
92.4429
21
-119.163
0
LINE
8
BLACK
6
CONTINUOUS
10
92.4429
20
-119.163
11
92.6284
21
-118.948
0
LINE
8
BLACK
6
CONTINUOUS
10
92.6284
20
-118.948
11
92.7686
21
-118.702
0
LINE
8
BLACK
6
CONTINUOUS
10
92.7686
20
-118.702
11
92.8581
21
-118.432
0
LINE
8
BLACK
6
CONTINUOUS
10
92.8581
20
-118.432
11
92.8937
21
-118.151
0
LINE
8
BLACK
6
CONTINUOUS
10
92.8937
20
-118.151
11
92.8943
21
-118.11
0
LINE
8
BLACK
6
CONTINUOUS
10
92.8943
20
-118.11
11
92.8666
21
-117.828
0
LINE
8
BLACK
6
CONTINUOUS
10
92.8666
20
-117.828
11
92.7846
21
-117.556
0
LINE
8
BLACK
6
CONTINUOUS
10
99.2851
20
-102.072
11
98.8957
21
-103.141
0
LINE
8
BLACK
6
CONTINUOUS
10
98.8957
20
-103.141
11
98.3611
21
-104.147
0
LINE
8
BLACK
6
CONTINUOUS
10
98.3611
20
-104.147
11
97.6919
21
-105.068
0
LINE
8
BLACK
6
CONTINUOUS
10
97.6919
20
-105.068
11
96.9009
21
-105.887
0
LINE
8
BLACK
6
CONTINUOUS
10
96.9009
20
-105.887
11
96.0037
21
-106.588
0
LINE
8
BLACK
6
CONTINUOUS
10
96.0037
20
-106.588
11
95.0177
21
-107.157
0
LINE
8
BLACK
6
CONTINUOUS
10
95.0177
20
-107.157
11
93.962
21
-107.584
0
LINE
8
BLACK
6
CONTINUOUS
10
93.962
20
-107.584
11
92.8572
21
-107.859
0
LINE
8
BLACK
6
CONTINUOUS
10
92.8572
20
-107.859
11
91.7248
21
-107.978
0
LINE
8
BLACK
6
CONTINUOUS
10
91.7248
20
-107.978
11
90.5869
21
-107.939
0
LINE
8
BLACK
6
CONTINUOUS
10
90.5869
20
-107.939
11
89.4656
21
-107.741
0
LINE
8
BLACK
6
CONTINUOUS
10
89.4656
20
-107.741
11
88.3827
21
-107.389
0
LINE
8
BLACK
6
CONTINUOUS
10
88.3827
20
-107.389
11
87.3594
21
-106.89
0
LINE
8
BLACK
6
CONTINUOUS
10
87.3594
20
-106.89
11
86.4154
21
-106.253
0
LINE
8
BLACK
6
CONTINUOUS
10
86.4154
20
-106.253
11
85.5693
21
-105.491
0
LINE
8
BLACK
6
CONTINUOUS
10
85.5693
20
-105.491
11
84.8374
21
-104.619
0
LINE
8
BLACK
6
CONTINUOUS
10
84.8374
20
-104.619
11
84.234
21
-103.653
0
LINE
8
BLACK
6
CONTINUOUS
10
84.234
20
-103.653
11
83.7709
21
-102.613
0
LINE
8
BLACK
6
CONTINUOUS
10
83.7709
20
-102.613
11
83.4571
21
-101.519
0
LINE
8
BLACK
6
CONTINUOUS
10
83.4571
20
-101.519
11
83.2986
21
-100.391
0
LINE
8
BLACK
6
CONTINUOUS
10
83.2986
20
-100.391
11
83.2986
21
-99.2527
0
LINE
8
BLACK
6
CONTINUOUS
10
83.2986
20
-99.2527
11
83.4571
21
-98.1252
0
LINE
8
BLACK
6
CONTINUOUS
10
83.4571
20
-98.1252
11
83.7709
21
-97.0307
0
LINE
8
BLACK
6
CONTINUOUS
10
83.7709
20
-97.0307
11
84.234
21
-95.9905
0
LINE
8
BLACK
6
CONTINUOUS
10
84.234
20
-95.9905
11
84.8374
21
-95.0249
0
LINE
8
BLACK
6
CONTINUOUS
10
84.8374
20
-95.0249
11
85.5693
21
-94.1527
0
LINE
8
BLACK
6
CONTINUOUS
10
85.5693
20
-94.1527
11
86.4154
21
-93.3908
0
LINE
8
BLACK
6
CONTINUOUS
10
86.4154
20
-93.3908
11
87.3594
21
-92.7541
0
LINE
8
BLACK
6
CONTINUOUS
10
87.3594
20
-92.7541
11
88.3827
21
-92.255
0
LINE
8
BLACK
6
CONTINUOUS
10
88.3827
20
-92.255
11
89.4656
21
-91.9032
0
LINE
8
BLACK
6
CONTINUOUS
10
89.4656
20
-91.9032
11
90.5869
21
-91.7055
0
LINE
8
BLACK
6
CONTINUOUS
10
90.5869
20
-91.7055
11
91.7248
21
-91.6657
0
LINE
8
BLACK
6
CONTINUOUS
10
91.7248
20
-91.6657
11
92.8572
21
-91.7847
0
LINE
8
BLACK
6
CONTINUOUS
10
92.8572
20
-91.7847
11
93.962
21
-92.0602
0
LINE
8
BLACK
6
CONTINUOUS
10
93.962
20
-92.0602
11
95.0177
21
-92.4867
0
LINE
8
BLACK
6
CONTINUOUS
10
95.0177
20
-92.4867
11
96.0037
21
-93.056
0
LINE
8
BLACK
6
CONTINUOUS
10
96.0037
20
-93.056
11
96.9009
21
-93.757
0
LINE
8
BLACK
6
CONTINUOUS
10
96.9009
20
-93.757
11
97.6919
21
-94.576
0
LINE
8
BLACK
6
CONTINUOUS
10
97.6919
20
-94.576
11
98.3611
21
-95.4972
0
LINE
8
BLACK
6
CONTINUOUS
10
98.3611
20
-95.4972
11
98.8957
21
-96.5025
0
LINE
8
BLACK
6
CONTINUOUS
10
98.8957
20
-96.5025
11
99.2851
21
-97.5725
0
LINE
8
BLACK
6
CONTINUOUS
10
99.2851
20
-97.5725
11
99.5218
21
-98.6862
0
LINE
8
BLACK
6
CONTINUOUS
10
99.5218
20
-98.6862
11
99.6012
21
-99.822
0
LINE
8
BLACK
6
CONTINUOUS
10
99.6012
20
-99.822
11
99.5218
21
-100.958
0
LINE
8
BLACK
6
CONTINUOUS
10
99.5218
20
-100.958
11
99.2851
21
-102.072
0
LINE
8
BLACK
6
CONTINUOUS
10
99.1217
20
-97.6193
11
98.7404
21
-96.5717
0
LINE
8
BLACK
6
CONTINUOUS
10
98.7404
20
-96.5717
11
98.217
21
-95.5873
0
LINE
8
BLACK
6
CONTINUOUS
10
98.217
20
-95.5873
11
97.5617
21
-94.6853
0
LINE
8
BLACK
6
CONTINUOUS
10
97.5617
20
-94.6853
11
96.7872
21
-93.8833
0
LINE
8
BLACK
6
CONTINUOUS
10
96.7872
20
-93.8833
11
95.9086
21
-93.197
0
LINE
8
BLACK
6
CONTINUOUS
10
95.9086
20
-93.197
11
94.9431
21
-92.6395
0
LINE
8
BLACK
6
CONTINUOUS
10
94.9431
20
-92.6395
11
93.9094
21
-92.2219
0
LINE
8
BLACK
6
CONTINUOUS
10
93.9094
20
-92.2219
11
92.8277
21
-91.9522
0
LINE
8
BLACK
6
CONTINUOUS
10
92.8277
20
-91.9522
11
91.7189
21
-91.8356
0
LINE
8
BLACK
6
CONTINUOUS
10
91.7189
20
-91.8356
11
90.6047
21
-91.8745
0
LINE
8
BLACK
6
CONTINUOUS
10
90.6047
20
-91.8745
11
89.5067
21
-92.0681
0
LINE
8
BLACK
6
CONTINUOUS
10
89.5067
20
-92.0681
11
88.4464
21
-92.4126
0
LINE
8
BLACK
6
CONTINUOUS
10
88.4464
20
-92.4126
11
87.4444
21
-92.9014
0
LINE
8
BLACK
6
CONTINUOUS
10
87.4444
20
-92.9014
11
86.5201
21
-93.5248
0
LINE
8
BLACK
6
CONTINUOUS
10
86.5201
20
-93.5248
11
85.6916
21
-94.2708
0
LINE
8
BLACK
6
CONTINUOUS
10
85.6916
20
-94.2708
11
84.9749
21
-95.1249
0
LINE
8
BLACK
6
CONTINUOUS
10
84.9749
20
-95.1249
11
84.3841
21
-96.0703
0
LINE
8
BLACK
6
CONTINUOUS
10
84.3841
20
-96.0703
11
83.9307
21
-97.0888
0
LINE
8
BLACK
6
CONTINUOUS
10
83.9307
20
-97.0888
11
83.6234
21
-98.1605
0
LINE
8
BLACK
6
CONTINUOUS
10
83.6234
20
-98.1605
11
83.4682
21
-99.2646
0
LINE
8
BLACK
6
CONTINUOUS
10
83.4682
20
-99.2646
11
83.4682
21
-100.379
0
LINE
8
BLACK
6
CONTINUOUS
10
83.4682
20
-100.379
11
83.6234
21
-101.483
0
LINE
8
BLACK
6
CONTINUOUS
10
83.6234
20
-101.483
11
83.9307
21
-102.555
0
LINE
8
BLACK
6
CONTINUOUS
10
83.9307
20
-102.555
11
84.3841
21
-103.574
0
LINE
8
BLACK
6
CONTINUOUS
10
84.3841
20
-103.574
11
84.9749
21
-104.519
0
LINE
8
BLACK
6
CONTINUOUS
10
84.9749
20
-104.519
11
85.6916
21
-105.373
0
LINE
8
BLACK
6
CONTINUOUS
10
85.6916
20
-105.373
11
86.5201
21
-106.119
0
LINE
8
BLACK
6
CONTINUOUS
10
86.5201
20
-106.119
11
87.4444
21
-106.743
0
LINE
8
BLACK
6
CONTINUOUS
10
87.4444
20
-106.743
11
88.4464
21
-107.231
0
LINE
8
BLACK
6
CONTINUOUS
10
88.4464
20
-107.231
11
89.5067
21
-107.576
0
LINE
8
BLACK
6
CONTINUOUS
10
89.5067
20
-107.576
11
90.6047
21
-107.769
0
LINE
8
BLACK
6
CONTINUOUS
10
90.6047
20
-107.769
11
91.7189
21
-107.808
0
LINE
8
BLACK
6
CONTINUOUS
10
91.7189
20
-107.808
11
92.8277
21
-107.692
0
LINE
8
BLACK
6
CONTINUOUS
10
92.8277
20
-107.692
11
93.9094
21
-107.422
0
LINE
8
BLACK
6
CONTINUOUS
10
93.9094
20
-107.422
11
94.9431
21
-107.004
0
LINE
8
BLACK
6
CONTINUOUS
10
94.9431
20
-107.004
11
95.9086
21
-106.447
0
LINE
8
BLACK
6
CONTINUOUS
10
95.9086
20
-106.447
11
96.7872
21
-105.761
0
LINE
8
BLACK
6
CONTINUOUS
10
96.7872
20
-105.761
11
97.5617
21
-104.959
0
LINE
8
BLACK
6
CONTINUOUS
10
97.5617
20
-104.959
11
98.217
21
-104.057
0
LINE
8
BLACK
6
CONTINUOUS
10
98.217
20
-104.057
11
98.7404
21
-103.072
0
LINE
8
BLACK
6
CONTINUOUS
10
98.7404
20
-103.072
11
99.1217
21
-102.025
0
LINE
8
BLACK
6
CONTINUOUS
10
99.1217
20
-102.025
11
99.3535
21
-100.934
0
LINE
8
BLACK
6
CONTINUOUS
10
99.3535
20
-100.934
11
99.4312
21
-99.822
0
LINE
8
BLACK
6
CONTINUOUS
10
99.4312
20
-99.822
11
99.3535
21
-98.7098
0
LINE
8
BLACK
6
CONTINUOUS
10
99.3535
20
-98.7098
11
99.1217
21
-97.6193
0
LINE
8
BLACK
6
CONTINUOUS
10
91.4547
20
-99.4941
11
91.4688
21
-99.4984
0
LINE
8
BLACK
6
CONTINUOUS
10
91.4688
20
-99.4984
11
91.4819
21
-99.5053
0
LINE
8
BLACK
6
CONTINUOUS
10
91.4819
20
-99.5053
11
91.4933
21
-99.5147
0
LINE
8
BLACK
6
CONTINUOUS
10
91.4933
20
-99.5147
11
91.5027
21
-99.5261
0
LINE
8
BLACK
6
CONTINUOUS
10
91.5027
20
-99.5261
11
91.5096
21
-99.5392
0
LINE
8
BLACK
6
CONTINUOUS
10
91.5096
20
-99.5392
11
91.5139
21
-99.5533
0
LINE
8
BLACK
6
CONTINUOUS
10
91.5139
20
-99.5533
11
91.515
21
-99.5643
0
LINE
8
BLACK
6
CONTINUOUS
10
91.515
20
-99.5643
11
91.515
21
-99.747
0
LINE
8
BLACK
6
CONTINUOUS
10
91.515
20
-99.747
11
91.6977
21
-99.747
0
LINE
8
BLACK
6
CONTINUOUS
10
91.6977
20
-99.747
11
91.7087
21
-99.7481
0
LINE
8
BLACK
6
CONTINUOUS
10
91.7087
20
-99.7481
11
91.7228
21
-99.7524
0
LINE
8
BLACK
6
CONTINUOUS
10
91.7228
20
-99.7524
11
91.7359
21
-99.7593
0
LINE
8
BLACK
6
CONTINUOUS
10
91.7359
20
-99.7593
11
91.7473
21
-99.7687
0
LINE
8
BLACK
6
CONTINUOUS
10
91.7473
20
-99.7687
11
91.7567
21
-99.7801
0
LINE
8
BLACK
6
CONTINUOUS
10
91.7567
20
-99.7801
11
91.7636
21
-99.7932
0
LINE
8
BLACK
6
CONTINUOUS
10
91.7636
20
-99.7932
11
91.7679
21
-99.8073
0
LINE
8
BLACK
6
CONTINUOUS
10
91.7679
20
-99.8073
11
91.7694
21
-99.822
0
LINE
8
BLACK
6
CONTINUOUS
10
91.7694
20
-99.822
11
91.7679
21
-99.8367
0
LINE
8
BLACK
6
CONTINUOUS
10
91.7679
20
-99.8367
11
91.7636
21
-99.8508
0
LINE
8
BLACK
6
CONTINUOUS
10
91.7636
20
-99.8508
11
91.7567
21
-99.8639
0
LINE
8
BLACK
6
CONTINUOUS
10
91.7567
20
-99.8639
11
91.7473
21
-99.8753
0
LINE
8
BLACK
6
CONTINUOUS
10
91.7473
20
-99.8753
11
91.7359
21
-99.8847
0
LINE
8
BLACK
6
CONTINUOUS
10
91.7359
20
-99.8847
11
91.7228
21
-99.8916
0
LINE
8
BLACK
6
CONTINUOUS
10
91.7228
20
-99.8916
11
91.7087
21
-99.8959
0
LINE
8
BLACK
6
CONTINUOUS
10
91.7087
20
-99.8959
11
91.6977
21
-99.897
0
LINE
8
BLACK
6
CONTINUOUS
10
91.6977
20
-99.897
11
91.515
21
-99.897
0
LINE
8
BLACK
6
CONTINUOUS
10
91.515
20
-99.897
11
91.515
21
-100.08
0
LINE
8
BLACK
6
CONTINUOUS
10
91.515
20
-100.08
11
91.5139
21
-100.091
0
LINE
8
BLACK
6
CONTINUOUS
10
91.5139
20
-100.091
11
91.5096
21
-100.105
0
LINE
8
BLACK
6
CONTINUOUS
10
91.5096
20
-100.105
11
91.5027
21
-100.118
0
LINE
8
BLACK
6
CONTINUOUS
10
91.5027
20
-100.118
11
91.4933
21
-100.129
0
LINE
8
BLACK
6
CONTINUOUS
10
91.4933
20
-100.129
11
91.4819
21
-100.139
0
LINE
8
BLACK
6
CONTINUOUS
10
91.4819
20
-100.139
11
91.4688
21
-100.146
0
LINE
8
BLACK
6
CONTINUOUS
10
91.4688
20
-100.146
11
91.4547
21
-100.15
0
LINE
8
BLACK
6
CONTINUOUS
10
91.4547
20
-100.15
11
91.44
21
-100.151
0
LINE
8
BLACK
6
CONTINUOUS
10
91.44
20
-100.151
11
91.4253
21
-100.15
0
LINE
8
BLACK
6
CONTINUOUS
10
91.4253
20
-100.15
11
91.4112
21
-100.146
0
LINE
8
BLACK
6
CONTINUOUS
10
91.4112
20
-100.146
11
91.3981
21
-100.139
0
LINE
8
BLACK
6
CONTINUOUS
10
91.3981
20
-100.139
11
91.3867
21
-100.129
0
LINE
8
BLACK
6
CONTINUOUS
10
91.3867
20
-100.129
11
91.3773
21
-100.118
0
LINE
8
BLACK
6
CONTINUOUS
10
91.3773
20
-100.118
11
91.3704
21
-100.105
0
LINE
8
BLACK
6
CONTINUOUS
10
91.3704
20
-100.105
11
91.3661
21
-100.091
0
LINE
8
BLACK
6
CONTINUOUS
10
91.3661
20
-100.091
11
91.365
21
-100.08
0
LINE
8
BLACK
6
CONTINUOUS
10
91.365
20
-100.08
11
91.365
21
-99.897
0
LINE
8
BLACK
6
CONTINUOUS
10
91.365
20
-99.897
11
91.1823
21
-99.897
0
LINE
8
BLACK
6
CONTINUOUS
10
91.1823
20
-99.897
11
91.1713
21
-99.8959
0
LINE
8
BLACK
6
CONTINUOUS
10
91.1713
20
-99.8959
11
91.1572
21
-99.8916
0
LINE
8
BLACK
6
CONTINUOUS
10
91.1572
20
-99.8916
11
91.1441
21
-99.8847
0
LINE
8
BLACK
6
CONTINUOUS
10
91.1441
20
-99.8847
11
91.1327
21
-99.8753
0
LINE
8
BLACK
6
CONTINUOUS
10
91.1327
20
-99.8753
11
91.1233
21
-99.8639
0
LINE
8
BLACK
6
CONTINUOUS
10
91.1233
20
-99.8639
11
91.1164
21
-99.8508
0
LINE
8
BLACK
6
CONTINUOUS
10
91.1164
20
-99.8508
11
91.1121
21
-99.8367
0
LINE
8
BLACK
6
CONTINUOUS
10
91.1121
20
-99.8367
11
91.1106
21
-99.822
0
LINE
8
BLACK
6
CONTINUOUS
10
91.1106
20
-99.822
11
91.1121
21
-99.8073
0
LINE
8
BLACK
6
CONTINUOUS
10
91.1121
20
-99.8073
11
91.1164
21
-99.7932
0
LINE
8
BLACK
6
CONTINUOUS
10
91.1164
20
-99.7932
11
91.1233
21
-99.7801
0
LINE
8
BLACK
6
CONTINUOUS
10
91.1233
20
-99.7801
11
91.1327
21
-99.7687
0
LINE
8
BLACK
6
CONTINUOUS
10
91.1327
20
-99.7687
11
91.1441
21
-99.7593
0
LINE
8
BLACK
6
CONTINUOUS
10
91.1441
20
-99.7593
11
91.1572
21
-99.7524
0
LINE
8
BLACK
6
CONTINUOUS
10
91.1572
20
-99.7524
11
91.1713
21
-99.7481
0
LINE
8
BLACK
6
CONTINUOUS
10
91.1713
20
-99.7481
11
91.1823
21
-99.747
0
LINE
8
BLACK
6
CONTINUOUS
10
91.1823
20
-99.747
11
91.365
21
-99.747
0
LINE
8
BLACK
6
CONTINUOUS
10
91.365
20
-99.747
11
91.365
21
-99.5643
0
LINE
8
BLACK
6
CONTINUOUS
10
91.365
20
-99.5643
11
91.3661
21
-99.5533
0
LINE
8
BLACK
6
CONTINUOUS
10
91.3661
20
-99.5533
11
91.3704
21
-99.5392
0
LINE
8
BLACK
6
CONTINUOUS
10
91.3704
20
-99.5392
11
91.3773
21
-99.5261
0
LINE
8
BLACK
6
CONTINUOUS
10
91.3773
20
-99.5261
11
91.3867
21
-99.5147
0
LINE
8
BLACK
6
CONTINUOUS
10
91.3867
20
-99.5147
11
91.3981
21
-99.5053
0
LINE
8
BLACK
6
CONTINUOUS
10
91.3981
20
-99.5053
11
91.4112
21
-99.4984
0
LINE
8
BLACK
6
CONTINUOUS
10
91.4112
20
-99.4984
11
91.4253
21
-99.4941
0
LINE
8
BLACK
6
CONTINUOUS
10
91.4253
20
-99.4941
11
91.44
21
-99.4926
0
LINE
8
BLACK
6
CONTINUOUS
10
91.44
20
-99.4926
11
91.4547
21
-99.4941
0
LINE
8
BLACK
6
CONTINUOUS
10
192.376
20
-101.945
11
191.987
21
-103.014
0
LINE
8
BLACK
6
CONTINUOUS
10
191.987
20
-103.014
11
191.452
21
-104.02
0
LINE
8
BLACK
6
CONTINUOUS
10
191.452
20
-104.02
11
190.783
21
-104.941
0
LINE
8
BLACK
6
CONTINUOUS
10
190.783
20
-104.941
11
189.992
21
-105.76
0
LINE
8
BLACK
6
CONTINUOUS
10
189.992
20
-105.76
11
189.095
21
-106.461
0
LINE
8
BLACK
6
CONTINUOUS
10
189.095
20
-106.461
11
188.109
21
-107.03
0
LINE
8
BLACK
6
CONTINUOUS
10
188.109
20
-107.03
11
187.053
21
-107.457
0
LINE
8
BLACK
6
CONTINUOUS
10
187.053
20
-107.457
11
185.948
21
-107.732
0
LINE
8
BLACK
6
CONTINUOUS
10
185.948
20
-107.732
11
184.816
21
-107.851
0
LINE
8
BLACK
6
CONTINUOUS
10
184.816
20
-107.851
11
183.678
21
-107.812
0
LINE
8
BLACK
6
CONTINUOUS
10
183.678
20
-107.812
11
182.557
21
-107.614
0
LINE
8
BLACK
6
CONTINUOUS
10
182.557
20
-107.614
11
181.474
21
-107.262
0
LINE
8
BLACK
6
CONTINUOUS
10
181.474
20
-107.262
11
180.45
21
-106.763
0
LINE
8
BLACK
6
CONTINUOUS
10
180.45
20
-106.763
11
179.506
21
-106.126
0
LINE
8
BLACK
6
CONTINUOUS
10
179.506
20
-106.126
11
178.66
21
-105.364
0
LINE
8
BLACK
6
CONTINUOUS
10
178.66
20
-105.364
11
177.928
21
-104.492
0
LINE
8
BLACK
6
CONTINUOUS
10
177.928
20
-104.492
11
177.325
21
-103.526
0
LINE
8
BLACK
6
CONTINUOUS
10
177.325
20
-103.526
11
176.862
21
-102.486
0
LINE
8
BLACK
6
CONTINUOUS
10
176.862
20
-102.486
11
176.548
21
-101.392
0
LINE
8
BLACK
6
CONTINUOUS
10
176.548
20
-101.392
11
176.39
21
-100.264
0
LINE
8
BLACK
6
CONTINUOUS
10
176.39
20
-100.264
11
176.39
21
-99.1257
0
LINE
8
BLACK
6
CONTINUOUS
10
176.39
20
-99.1257
11
176.548
21
-97.9982
0
LINE
8
BLACK
6
CONTINUOUS
10
176.548
20
-97.9982
11
176.862
21
-96.9037
0
LINE
8
BLACK
6
CONTINUOUS
10
176.862
20
-96.9037
11
177.325
21
-95.8635
0
LINE
8
BLACK
6
CONTINUOUS
10
177.325
20
-95.8635
11
177.928
21
-94.8979
0
LINE
8
BLACK
6
CONTINUOUS
10
177.928
20
-94.8979
11
178.66
21
-94.0257
0
LINE
8
BLACK
6
CONTINUOUS
10
178.66
20
-94.0257
11
179.506
21
-93.2638
0
LINE
8
BLACK
6
CONTINUOUS
10
179.506
20
-93.2638
11
180.45
21
-92.6272
0
LINE
8
BLACK
6
CONTINUOUS
10
180.45
20
-92.6272
11
181.474
21
-92.128
0
LINE
8
BLACK
6
CONTINUOUS
10
181.474
20
-92.128
11
182.557
21
-91.7762
0
LINE
8
BLACK
6
CONTINUOUS
10
182.557
20
-91.7762
11
183.678
21
-91.5785
0
LINE
8
BLACK
6
CONTINUOUS
10
183.678
20
-91.5785
11
184.816
21
-91.5387
0
LINE
8
BLACK
6
CONTINUOUS
10
184.816
20
-91.5387
11
185.948
21
-91.6577
0
LINE
8
BLACK
6
CONTINUOUS
10
185.948
20
-91.6577
11
187.053
21
-91.9332
0
LINE
8
BLACK
6
CONTINUOUS
10
187.053
20
-91.9332
11
188.109
21
-92.3597
0
LINE
8
BLACK
6
CONTINUOUS
10
188.109
20
-92.3597
11
189.095
21
-92.929
0
LINE
8
BLACK
6
CONTINUOUS
10
189.095
20
-92.929
11
189.992
21
-93.63
0
LINE
8
BLACK
6
CONTINUOUS
10
189.992
20
-93.63
11
190.783
21
-94.449
0
LINE
8
BLACK
6
CONTINUOUS
10
190.783
20
-94.449
11
191.452
21
-95.3702
0
LINE
8
BLACK
6
CONTINUOUS
10
191.452
20
-95.3702
11
191.987
21
-96.3755
0
LINE
8
BLACK
6
CONTINUOUS
10
191.987
20
-96.3755
11
192.376
21
-97.4455
0
LINE
8
BLACK
6
CONTINUOUS
10
192.376
20
-97.4455
11
192.613
21
-98.5592
0
LINE
8
BLACK
6
CONTINUOUS
10
192.613
20
-98.5592
11
192.692
21
-99.695
0
LINE
8
BLACK
6
CONTINUOUS
10
192.692
20
-99.695
11
192.613
21
-100.831
0
LINE
8
BLACK
6
CONTINUOUS
10
192.613
20
-100.831
11
192.376
21
-101.945
0
LINE
8
BLACK
6
CONTINUOUS
10
192.213
20
-97.4923
11
191.831
21
-96.4447
0
LINE
8
BLACK
6
CONTINUOUS
10
191.831
20
-96.4447
11
191.308
21
-95.4603
0
LINE
8
BLACK
6
CONTINUOUS
10
191.308
20
-95.4603
11
190.653
21
-94.5583
0
LINE
8
BLACK
6
CONTINUOUS
10
190.653
20
-94.5583
11
189.878
21
-93.7563
0
LINE
8
BLACK
6
CONTINUOUS
10
189.878
20
-93.7563
11
189
21
-93.07
0
LINE
8
BLACK
6
CONTINUOUS
10
189
20
-93.07
11
188.034
21
-92.5125
0
LINE
8
BLACK
6
CONTINUOUS
10
188.034
20
-92.5125
11
187
21
-92.0949
0
LINE
8
BLACK
6
CONTINUOUS
10
187
20
-92.0949
11
185.919
21
-91.8252
0
LINE
8
BLACK
6
CONTINUOUS
10
185.919
20
-91.8252
11
184.81
21
-91.7086
0
LINE
8
BLACK
6
CONTINUOUS
10
184.81
20
-91.7086
11
183.696
21
-91.7475
0
LINE
8
BLACK
6
CONTINUOUS
10
183.696
20
-91.7475
11
182.598
21
-91.9411
0
LINE
8
BLACK
6
CONTINUOUS
10
182.598
20
-91.9411
11
181.537
21
-92.2856
0
LINE
8
BLACK
6
CONTINUOUS
10
181.537
20
-92.2856
11
180.535
21
-92.7744
0
LINE
8
BLACK
6
CONTINUOUS
10
180.535
20
-92.7744
11
179.611
21
-93.3978
0
LINE
8
BLACK
6
CONTINUOUS
10
179.611
20
-93.3978
11
178.783
21
-94.1438
0
LINE
8
BLACK
6
CONTINUOUS
10
178.783
20
-94.1438
11
178.066
21
-94.9979
0
LINE
8
BLACK
6
CONTINUOUS
10
178.066
20
-94.9979
11
177.475
21
-95.9433
0
LINE
8
BLACK
6
CONTINUOUS
10
177.475
20
-95.9433
11
177.022
21
-96.9618
0
LINE
8
BLACK
6
CONTINUOUS
10
177.022
20
-96.9618
11
176.714
21
-98.0335
0
LINE
8
BLACK
6
CONTINUOUS
10
176.714
20
-98.0335
11
176.559
21
-99.1376
0
LINE
8
BLACK
6
CONTINUOUS
10
176.559
20
-99.1376
11
176.559
21
-100.252
0
LINE
8
BLACK
6
CONTINUOUS
10
176.559
20
-100.252
11
176.714
21
-101.356
0
LINE
8
BLACK
6
CONTINUOUS
10
176.714
20
-101.356
11
177.022
21
-102.428
0
LINE
8
BLACK
6
CONTINUOUS
10
177.022
20
-102.428
11
177.475
21
-103.447
0
LINE
8
BLACK
6
CONTINUOUS
10
177.475
20
-103.447
11
178.066
21
-104.392
0
LINE
8
BLACK
6
CONTINUOUS
10
178.066
20
-104.392
11
178.783
21
-105.246
0
LINE
8
BLACK
6
CONTINUOUS
10
178.783
20
-105.246
11
179.611
21
-105.992
0
LINE
8
BLACK
6
CONTINUOUS
10
179.611
20
-105.992
11
180.535
21
-106.616
0
LINE
8
BLACK
6
CONTINUOUS
10
180.535
20
-106.616
11
181.537
21
-107.104
0
LINE
8
BLACK
6
CONTINUOUS
10
181.537
20
-107.104
11
182.598
21
-107.449
0
LINE
8
BLACK
6
CONTINUOUS
10
182.598
20
-107.449
11
183.696
21
-107.642
0
LINE
8
BLACK
6
CONTINUOUS
10
183.696
20
-107.642
11
184.81
21
-107.681
0
LINE
8
BLACK
6
CONTINUOUS
10
184.81
20
-107.681
11
185.919
21
-107.565
0
LINE
8
BLACK
6
CONTINUOUS
10
185.919
20
-107.565
11
187
21
-107.295
0
LINE
8
BLACK
6
CONTINUOUS
10
187
20
-107.295
11
188.034
21
-106.877
0
LINE
8
BLACK
6
CONTINUOUS
10
188.034
20
-106.877
11
189
21
-106.32
0
LINE
8
BLACK
6
CONTINUOUS
10
189
20
-106.32
11
189.878
21
-105.634
0
LINE
8
BLACK
6
CONTINUOUS
10
189.878
20
-105.634
11
190.653
21
-104.832
0
LINE
8
BLACK
6
CONTINUOUS
10
190.653
20
-104.832
11
191.308
21
-103.93
0
LINE
8
BLACK
6
CONTINUOUS
10
191.308
20
-103.93
11
191.831
21
-102.945
0
LINE
8
BLACK
6
CONTINUOUS
10
191.831
20
-102.945
11
192.213
21
-101.898
0
LINE
8
BLACK
6
CONTINUOUS
10
192.213
20
-101.898
11
192.444
21
-100.807
0
LINE
8
BLACK
6
CONTINUOUS
10
192.444
20
-100.807
11
192.522
21
-99.695
0
LINE
8
BLACK
6
CONTINUOUS
10
192.522
20
-99.695
11
192.444
21
-98.5828
0
LINE
8
BLACK
6
CONTINUOUS
10
192.444
20
-98.5828
11
192.213
21
-97.4923
0
LINE
8
BLACK
6
CONTINUOUS
10
184.546
20
-99.3671
11
184.56
21
-99.3714
0
LINE
8
BLACK
6
CONTINUOUS
10
184.56
20
-99.3714
11
184.573
21
-99.3783
0
LINE
8
BLACK
6
CONTINUOUS
10
184.573
20
-99.3783
11
184.584
21
-99.3877
0
LINE
8
BLACK
6
CONTINUOUS
10
184.584
20
-99.3877
11
184.594
21
-99.3991
0
LINE
8
BLACK
6
CONTINUOUS
10
184.594
20
-99.3991
11
184.601
21
-99.4122
0
LINE
8
BLACK
6
CONTINUOUS
10
184.601
20
-99.4122
11
184.605
21
-99.4263
0
LINE
8
BLACK
6
CONTINUOUS
10
184.605
20
-99.4263
11
184.606
21
-99.4373
0
LINE
8
BLACK
6
CONTINUOUS
10
184.606
20
-99.4373
11
184.606
21
-99.62
0
LINE
8
BLACK
6
CONTINUOUS
10
184.606
20
-99.62
11
184.789
21
-99.62
0
LINE
8
BLACK
6
CONTINUOUS
10
184.789
20
-99.62
11
184.8
21
-99.6211
0
LINE
8
BLACK
6
CONTINUOUS
10
184.8
20
-99.6211
11
184.814
21
-99.6254
0
LINE
8
BLACK
6
CONTINUOUS
10
184.814
20
-99.6254
11
184.827
21
-99.6323
0
LINE
8
BLACK
6
CONTINUOUS
10
184.827
20
-99.6323
11
184.838
21
-99.6417
0
LINE
8
BLACK
6
CONTINUOUS
10
184.838
20
-99.6417
11
184.848
21
-99.6531
0
LINE
8
BLACK
6
CONTINUOUS
10
184.848
20
-99.6531
11
184.855
21
-99.6662
0
LINE
8
BLACK
6
CONTINUOUS
10
184.855
20
-99.6662
11
184.859
21
-99.6803
0
LINE
8
BLACK
6
CONTINUOUS
10
184.859
20
-99.6803
11
184.86
21
-99.695
0
LINE
8
BLACK
6
CONTINUOUS
10
184.86
20
-99.695
11
184.859
21
-99.7097
0
LINE
8
BLACK
6
CONTINUOUS
10
184.859
20
-99.7097
11
184.855
21
-99.7238
0
LINE
8
BLACK
6
CONTINUOUS
10
184.855
20
-99.7238
11
184.848
21
-99.7369
0
LINE
8
BLACK
6
CONTINUOUS
10
184.848
20
-99.7369
11
184.838
21
-99.7483
0
LINE
8
BLACK
6
CONTINUOUS
10
184.838
20
-99.7483
11
184.827
21
-99.7577
0
LINE
8
BLACK
6
CONTINUOUS
10
184.827
20
-99.7577
11
184.814
21
-99.7646
0
LINE
8
BLACK
6
CONTINUOUS
10
184.814
20
-99.7646
11
184.8
21
-99.7689
0
LINE
8
BLACK
6
CONTINUOUS
10
184.8
20
-99.7689
11
184.789
21
-99.77
0
LINE
8
BLACK
6
CONTINUOUS
10
184.789
20
-99.77
11
184.606
21
-99.77
0
LINE
8
BLACK
6
CONTINUOUS
10
184.606
20
-99.77
11
184.606
21
-99.9527
0
LINE
8
BLACK
6
CONTINUOUS
10
184.606
20
-99.9527
11
184.605
21
-99.9637
0
LINE
8
BLACK
6
CONTINUOUS
10
184.605
20
-99.9637
11
184.601
21
-99.9778
0
LINE
8
BLACK
6
CONTINUOUS
10
184.601
20
-99.9778
11
184.594
21
-99.9909
0
LINE
8
BLACK
6
CONTINUOUS
10
184.594
20
-99.9909
11
184.584
21
-100.002
0
LINE
8
BLACK
6
CONTINUOUS
10
184.584
20
-100.002
11
184.573
21
-100.012
0
LINE
8
BLACK
6
CONTINUOUS
10
184.573
20
-100.012
11
184.56
21
-100.019
0
LINE
8
BLACK
6
CONTINUOUS
10
184.56
20
-100.019
11
184.546
21
-100.023
0
LINE
8
BLACK
6
CONTINUOUS
10
184.546
20
-100.023
11
184.531
21
-100.024
0
LINE
8
BLACK
6
CONTINUOUS
10
184.531
20
-100.024
11
184.516
21
-100.023
0
LINE
8
BLACK
6
CONTINUOUS
10
184.516
20
-100.023
11
184.502
21
-100.019
0
LINE
8
BLACK
6
CONTINUOUS
10
184.502
20
-100.019
11
184.489
21
-100.012
0
LINE
8
BLACK
6
CONTINUOUS
10
184.489
20
-100.012
11
184.478
21
-100.002
0
LINE
8
BLACK
6
CONTINUOUS
10
184.478
20
-100.002
11
184.468
21
-99.9909
0
LINE
8
BLACK
6
CONTINUOUS
10
184.468
20
-99.9909
11
184.461
21
-99.9778
0
LINE
8
BLACK
6
CONTINUOUS
10
184.461
20
-99.9778
11
184.457
21
-99.9637
0
LINE
8
BLACK
6
CONTINUOUS
10
184.457
20
-99.9637
11
184.456
21
-99.9527
0
LINE
8
BLACK
6
CONTINUOUS
10
184.456
20
-99.9527
11
184.456
21
-99.77
0
LINE
8
BLACK
6
CONTINUOUS
10
184.456
20
-99.77
11
184.273
21
-99.77
0
LINE
8
BLACK
6
CONTINUOUS
10
184.273
20
-99.77
11
184.262
21
-99.7689
0
LINE
8
BLACK
6
CONTINUOUS
10
184.262
20
-99.7689
11
184.248
21
-99.7646
0
LINE
8
BLACK
6
CONTINUOUS
10
184.248
20
-99.7646
11
184.235
21
-99.7577
0
LINE
8
BLACK
6
CONTINUOUS
10
184.235
20
-99.7577
11
184.224
21
-99.7483
0
LINE
8
BLACK
6
CONTINUOUS
10
184.224
20
-99.7483
11
184.214
21
-99.7369
0
LINE
8
BLACK
6
CONTINUOUS
10
184.214
20
-99.7369
11
184.207
21
-99.7238
0
LINE
8
BLACK
6
CONTINUOUS
10
184.207
20
-99.7238
11
184.203
21
-99.7097
0
LINE
8
BLACK
6
CONTINUOUS
10
184.203
20
-99.7097
11
184.202
21
-99.695
0
LINE
8
BLACK
6
CONTINUOUS
10
184.202
20
-99.695
11
184.203
21
-99.6803
0
LINE
8
BLACK
6
CONTINUOUS
10
184.203
20
-99.6803
11
184.207
21
-99.6662
0
LINE
8
BLACK
6
CONTINUOUS
10
184.207
20
-99.6662
11
184.214
21
-99.6531
0
LINE
8
BLACK
6
CONTINUOUS
10
184.214
20
-99.6531
11
184.224
21
-99.6417
0
LINE
8
BLACK
6
CONTINUOUS
10
184.224
20
-99.6417
11
184.235
21
-99.6323
0
LINE
8
BLACK
6
CONTINUOUS
10
184.235
20
-99.6323
11
184.248
21
-99.6254
0
LINE
8
BLACK
6
CONTINUOUS
10
184.248
20
-99.6254
11
184.262
21
-99.6211
0
LINE
8
BLACK
6
CONTINUOUS
10
184.262
20
-99.6211
11
184.273
21
-99.62
0
LINE
8
BLACK
6
CONTINUOUS
10
184.273
20
-99.62
11
184.456
21
-99.62
0
LINE
8
BLACK
6
CONTINUOUS
10
184.456
20
-99.62
11
184.456
21
-99.4373
0
LINE
8
BLACK
6
CONTINUOUS
10
184.456
20
-99.4373
11
184.457
21
-99.4263
0
LINE
8
BLACK
6
CONTINUOUS
10
184.457
20
-99.4263
11
184.461
21
-99.4122
0
LINE
8
BLACK
6
CONTINUOUS
10
184.461
20
-99.4122
11
184.468
21
-99.3991
0
LINE
8
BLACK
6
CONTINUOUS
10
184.468
20
-99.3991
11
184.478
21
-99.3877
0
LINE
8
BLACK
6
CONTINUOUS
10
184.478
20
-99.3877
11
184.489
21
-99.3783
0
LINE
8
BLACK
6
CONTINUOUS
10
184.489
20
-99.3783
11
184.502
21
-99.3714
0
LINE
8
BLACK
6
CONTINUOUS
10
184.502
20
-99.3714
11
184.516
21
-99.3671
0
LINE
8
BLACK
6
CONTINUOUS
10
184.516
20
-99.3671
11
184.531
21
-99.3656
0
LINE
8
BLACK
6
CONTINUOUS
10
184.531
20
-99.3656
11
184.546
21
-99.3671
0
LINE
8
BLACK
6
CONTINUOUS
10
147.545
20
-101.945
11
147.156
21
-103.014
0
LINE
8
BLACK
6
CONTINUOUS
10
147.156
20
-103.014
11
146.621
21
-104.02
0
LINE
8
BLACK
6
CONTINUOUS
10
146.621
20
-104.02
11
145.952
21
-104.941
0
LINE
8
BLACK
6
CONTINUOUS
10
145.952
20
-104.941
11
145.161
21
-105.76
0
LINE
8
BLACK
6
CONTINUOUS
10
145.161
20
-105.76
11
144.264
21
-106.461
0
LINE
8
BLACK
6
CONTINUOUS
10
144.264
20
-106.461
11
143.278
21
-107.03
0
LINE
8
BLACK
6
CONTINUOUS
10
143.278
20
-107.03
11
142.222
21
-107.457
0
LINE
8
BLACK
6
CONTINUOUS
10
142.222
20
-107.457
11
141.117
21
-107.732
0
LINE
8
BLACK
6
CONTINUOUS
10
141.117
20
-107.732
11
139.985
21
-107.851
0
LINE
8
BLACK
6
CONTINUOUS
10
139.985
20
-107.851
11
138.847
21
-107.812
0
LINE
8
BLACK
6
CONTINUOUS
10
138.847
20
-107.812
11
137.726
21
-107.614
0
LINE
8
BLACK
6
CONTINUOUS
10
137.726
20
-107.614
11
136.643
21
-107.262
0
LINE
8
BLACK
6
CONTINUOUS
10
136.643
20
-107.262
11
135.619
21
-106.763
0
LINE
8
BLACK
6
CONTINUOUS
10
135.619
20
-106.763
11
134.675
21
-106.126
0
LINE
8
BLACK
6
CONTINUOUS
10
134.675
20
-106.126
11
133.829
21
-105.364
0
LINE
8
BLACK
6
CONTINUOUS
10
133.829
20
-105.364
11
133.097
21
-104.492
0
LINE
8
BLACK
6
CONTINUOUS
10
133.097
20
-104.492
11
132.494
21
-103.526
0
LINE
8
BLACK
6
CONTINUOUS
10
132.494
20
-103.526
11
132.031
21
-102.486
0
LINE
8
BLACK
6
CONTINUOUS
10
132.031
20
-102.486
11
131.717
21
-101.392
0
LINE
8
BLACK
6
CONTINUOUS
10
131.717
20
-101.392
11
131.559
21
-100.264
0
LINE
8
BLACK
6
CONTINUOUS
10
131.559
20
-100.264
11
131.559
21
-99.1257
0
LINE
8
BLACK
6
CONTINUOUS
10
131.559
20
-99.1257
11
131.717
21
-97.9982
0
LINE
8
BLACK
6
CONTINUOUS
10
131.717
20
-97.9982
11
132.031
21
-96.9037
0
LINE
8
BLACK
6
CONTINUOUS
10
132.031
20
-96.9037
11
132.494
21
-95.8635
0
LINE
8
BLACK
6
CONTINUOUS
10
132.494
20
-95.8635
11
133.097
21
-94.8979
0
LINE
8
BLACK
6
CONTINUOUS
10
133.097
20
-94.8979
11
133.829
21
-94.0257
0
LINE
8
BLACK
6
CONTINUOUS
10
133.829
20
-94.0257
11
134.675
21
-93.2638
0
LINE
8
BLACK
6
CONTINUOUS
10
134.675
20
-93.2638
11
135.619
21
-92.6272
0
LINE
8
BLACK
6
CONTINUOUS
10
135.619
20
-92.6272
11
136.643
21
-92.128
0
LINE
8
BLACK
6
CONTINUOUS
10
136.643
20
-92.128
11
137.726
21
-91.7762
0
LINE
8
BLACK
6
CONTINUOUS
10
137.726
20
-91.7762
11
138.847
21
-91.5785
0
LINE
8
BLACK
6
CONTINUOUS
10
138.847
20
-91.5785
11
139.985
21
-91.5387
0
LINE
8
BLACK
6
CONTINUOUS
10
139.985
20
-91.5387
11
141.117
21
-91.6577
0
LINE
8
BLACK
6
CONTINUOUS
10
141.117
20
-91.6577
11
142.222
21
-91.9332
0
LINE
8
BLACK
6
CONTINUOUS
10
142.222
20
-91.9332
11
143.278
21
-92.3597
0
LINE
8
BLACK
6
CONTINUOUS
10
143.278
20
-92.3597
11
144.264
21
-92.929
0
LINE
8
BLACK
6
CONTINUOUS
10
144.264
20
-92.929
11
145.161
21
-93.63
0
LINE
8
BLACK
6
CONTINUOUS
10
145.161
20
-93.63
11
145.952
21
-94.449
0
LINE
8
BLACK
6
CONTINUOUS
10
145.952
20
-94.449
11
146.621
21
-95.3702
0
LINE
8
BLACK
6
CONTINUOUS
10
146.621
20
-95.3702
11
147.156
21
-96.3755
0
LINE
8
BLACK
6
CONTINUOUS
10
147.156
20
-96.3755
11
147.545
21
-97.4455
0
LINE
8
BLACK
6
CONTINUOUS
10
147.545
20
-97.4455
11
147.782
21
-98.5592
0
LINE
8
BLACK
6
CONTINUOUS
10
147.782
20
-98.5592
11
147.861
21
-99.695
0
LINE
8
BLACK
6
CONTINUOUS
10
147.861
20
-99.695
11
147.782
21
-100.831
0
LINE
8
BLACK
6
CONTINUOUS
10
147.782
20
-100.831
11
147.545
21
-101.945
0
LINE
8
BLACK
6
CONTINUOUS
10
147.382
20
-97.4923
11
147
21
-96.4447
0
LINE
8
BLACK
6
CONTINUOUS
10
147
20
-96.4447
11
146.477
21
-95.4603
0
LINE
8
BLACK
6
CONTINUOUS
10
146.477
20
-95.4603
11
145.822
21
-94.5583
0
LINE
8
BLACK
6
CONTINUOUS
10
145.822
20
-94.5583
11
145.047
21
-93.7563
0
LINE
8
BLACK
6
CONTINUOUS
10
145.047
20
-93.7563
11
144.169
21
-93.07
0
LINE
8
BLACK
6
CONTINUOUS
10
144.169
20
-93.07
11
143.203
21
-92.5125
0
LINE
8
BLACK
6
CONTINUOUS
10
143.203
20
-92.5125
11
142.169
21
-92.0949
0
LINE
8
BLACK
6
CONTINUOUS
10
142.169
20
-92.0949
11
141.088
21
-91.8252
0
LINE
8
BLACK
6
CONTINUOUS
10
141.088
20
-91.8252
11
139.979
21
-91.7086
0
LINE
8
BLACK
6
CONTINUOUS
10
139.979
20
-91.7086
11
138.865
21
-91.7475
0
LINE
8
BLACK
6
CONTINUOUS
10
138.865
20
-91.7475
11
137.767
21
-91.9411
0
LINE
8
BLACK
6
CONTINUOUS
10
137.767
20
-91.9411
11
136.706
21
-92.2856
0
LINE
8
BLACK
6
CONTINUOUS
10
136.706
20
-92.2856
11
135.704
21
-92.7744
0
LINE
8
BLACK
6
CONTINUOUS
10
135.704
20
-92.7744
11
134.78
21
-93.3978
0
LINE
8
BLACK
6
CONTINUOUS
10
134.78
20
-93.3978
11
133.952
21
-94.1438
0
LINE
8
BLACK
6
CONTINUOUS
10
133.952
20
-94.1438
11
133.235
21
-94.9979
0
LINE
8
BLACK
6
CONTINUOUS
10
133.235
20
-94.9979
11
132.644
21
-95.9433
0
LINE
8
BLACK
6
CONTINUOUS
10
132.644
20
-95.9433
11
132.191
21
-96.9618
0
LINE
8
BLACK
6
CONTINUOUS
10
132.191
20
-96.9618
11
131.883
21
-98.0335
0
LINE
8
BLACK
6
CONTINUOUS
10
131.883
20
-98.0335
11
131.728
21
-99.1376
0
LINE
8
BLACK
6
CONTINUOUS
10
131.728
20
-99.1376
11
131.728
21
-100.252
0
LINE
8
BLACK
6
CONTINUOUS
10
131.728
20
-100.252
11
131.883
21
-101.356
0
LINE
8
BLACK
6
CONTINUOUS
10
131.883
20
-101.356
11
132.191
21
-102.428
0
LINE
8
BLACK
6
CONTINUOUS
10
132.191
20
-102.428
11
132.644
21
-103.447
0
LINE
8
BLACK
6
CONTINUOUS
10
132.644
20
-103.447
11
133.235
21
-104.392
0
LINE
8
BLACK
6
CONTINUOUS
10
133.235
20
-104.392
11
133.952
21
-105.246
0
LINE
8
BLACK
6
CONTINUOUS
10
133.952
20
-105.246
11
134.78
21
-105.992
0
LINE
8
BLACK
6
CONTINUOUS
10
134.78
20
-105.992
11
135.704
21
-106.616
0
LINE
8
BLACK
6
CONTINUOUS
10
135.704
20
-106.616
11
136.706
21
-107.104
0
LINE
8
BLACK
6
CONTINUOUS
10
136.706
20
-107.104
11
137.767
21
-107.449
0
LINE
8
BLACK
6
CONTINUOUS
10
137.767
20
-107.449
11
138.865
21
-107.642
0
LINE
8
BLACK
6
CONTINUOUS
10
138.865
20
-107.642
11
139.979
21
-107.681
0
LINE
8
BLACK
6
CONTINUOUS
10
139.979
20
-107.681
11
141.088
21
-107.565
0
LINE
8
BLACK
6
CONTINUOUS
10
141.088
20
-107.565
11
142.169
21
-107.295
0
LINE
8
BLACK
6
CONTINUOUS
10
142.169
20
-107.295
11
143.203
21
-106.877
0
LINE
8
BLACK
6
CONTINUOUS
10
143.203
20
-106.877
11
144.169
21
-106.32
0
LINE
8
BLACK
6
CONTINUOUS
10
144.169
20
-106.32
11
145.047
21
-105.634
0
LINE
8
BLACK
6
CONTINUOUS
10
145.047
20
-105.634
11
145.822
21
-104.832
0
LINE
8
BLACK
6
CONTINUOUS
10
145.822
20
-104.832
11
146.477
21
-103.93
0
LINE
8
BLACK
6
CONTINUOUS
10
146.477
20
-103.93
11
147
21
-102.945
0
LINE
8
BLACK
6
CONTINUOUS
10
147
20
-102.945
11
147.382
21
-101.898
0
LINE
8
BLACK
6
CONTINUOUS
10
147.382
20
-101.898
11
147.613
21
-100.807
0
LINE
8
BLACK
6
CONTINUOUS
10
147.613
20
-100.807
11
147.691
21
-99.695
0
LINE
8
BLACK
6
CONTINUOUS
10
147.691
20
-99.695
11
147.613
21
-98.5828
0
LINE
8
BLACK
6
CONTINUOUS
10
147.613
20
-98.5828
11
147.382
21
-97.4923
0
LINE
8
BLACK
6
CONTINUOUS
10
139.715
20
-99.3671
11
139.729
21
-99.3714
0
LINE
8
BLACK
6
CONTINUOUS
10
139.729
20
-99.3714
11
139.742
21
-99.3783
0
LINE
8
BLACK
6
CONTINUOUS
10
139.742
20
-99.3783
11
139.753
21
-99.3877
0
LINE
8
BLACK
6
CONTINUOUS
10
139.753
20
-99.3877
11
139.763
21
-99.3991
0
LINE
8
BLACK
6
CONTINUOUS
10
139.763
20
-99.3991
11
139.77
21
-99.4122
0
LINE
8
BLACK
6
CONTINUOUS
10
139.77
20
-99.4122
11
139.774
21
-99.4263
0
LINE
8
BLACK
6
CONTINUOUS
10
139.774
20
-99.4263
11
139.775
21
-99.4373
0
LINE
8
BLACK
6
CONTINUOUS
10
139.775
20
-99.4373
11
139.775
21
-99.62
0
LINE
8
BLACK
6
CONTINUOUS
10
139.775
20
-99.62
11
139.958
21
-99.62
0
LINE
8
BLACK
6
CONTINUOUS
10
139.958
20
-99.62
11
139.969
21
-99.6211
0
LINE
8
BLACK
6
CONTINUOUS
10
139.969
20
-99.6211
11
139.983
21
-99.6254
0
LINE
8
BLACK
6
CONTINUOUS
10
139.983
20
-99.6254
11
139.996
21
-99.6323
0
LINE
8
BLACK
6
CONTINUOUS
10
139.996
20
-99.6323
11
140.007
21
-99.6417
0
LINE
8
BLACK
6
CONTINUOUS
10
140.007
20
-99.6417
11
140.017
21
-99.6531
0
LINE
8
BLACK
6
CONTINUOUS
10
140.017
20
-99.6531
11
140.024
21
-99.6662
0
LINE
8
BLACK
6
CONTINUOUS
10
140.024
20
-99.6662
11
140.028
21
-99.6803
0
LINE
8
BLACK
6
CONTINUOUS
10
140.028
20
-99.6803
11
140.029
21
-99.695
0
LINE
8
BLACK
6
CONTINUOUS
10
140.029
20
-99.695
11
140.028
21
-99.7097
0
LINE
8
BLACK
6
CONTINUOUS
10
140.028
20
-99.7097
11
140.024
21
-99.7238
0
LINE
8
BLACK
6
CONTINUOUS
10
140.024
20
-99.7238
11
140.017
21
-99.7369
0
LINE
8
BLACK
6
CONTINUOUS
10
140.017
20
-99.7369
11
140.007
21
-99.7483
0
LINE
8
BLACK
6
CONTINUOUS
10
140.007
20
-99.7483
11
139.996
21
-99.7577
0
LINE
8
BLACK
6
CONTINUOUS
10
139.996
20
-99.7577
11
139.983
21
-99.7646
0
LINE
8
BLACK
6
CONTINUOUS
10
139.983
20
-99.7646
11
139.969
21
-99.7689
0
LINE
8
BLACK
6
CONTINUOUS
10
139.969
20
-99.7689
11
139.958
21
-99.77
0
LINE
8
BLACK
6
CONTINUOUS
10
139.958
20
-99.77
11
139.775
21
-99.77
0
LINE
8
BLACK
6
CONTINUOUS
10
139.775
20
-99.77
11
139.775
21
-99.9527
0
LINE
8
BLACK
6
CONTINUOUS
10
139.775
20
-99.9527
11
139.774
21
-99.9637
0
LINE
8
BLACK
6
CONTINUOUS
10
139.774
20
-99.9637
11
139.77
21
-99.9778
0
LINE
8
BLACK
6
CONTINUOUS
10
139.77
20
-99.9778
11
139.763
21
-99.9909
0
LINE
8
BLACK
6
CONTINUOUS
10
139.763
20
-99.9909
11
139.753
21
-100.002
0
LINE
8
BLACK
6
CONTINUOUS
10
139.753
20
-100.002
11
139.742
21
-100.012
0
LINE
8
BLACK
6
CONTINUOUS
10
139.742
20
-100.012
11
139.729
21
-100.019
0
LINE
8
BLACK
6
CONTINUOUS
10
139.729
20
-100.019
11
139.715
21
-100.023
0
LINE
8
BLACK
6
CONTINUOUS
10
139.715
20
-100.023
11
139.7
21
-100.024
0
LINE
8
BLACK
6
CONTINUOUS
10
139.7
20
-100.024
11
139.685
21
-100.023
0
LINE
8
BLACK
6
CONTINUOUS
10
139.685
20
-100.023
11
139.671
21
-100.019
0
LINE
8
BLACK
6
CONTINUOUS
10
139.671
20
-100.019
11
139.658
21
-100.012
0
LINE
8
BLACK
6
CONTINUOUS
10
139.658
20
-100.012
11
139.647
21
-100.002
0
LINE
8
BLACK
6
CONTINUOUS
10
139.647
20
-100.002
11
139.637
21
-99.9909
0
LINE
8
BLACK
6
CONTINUOUS
10
139.637
20
-99.9909
11
139.63
21
-99.9778
0
LINE
8
BLACK
6
CONTINUOUS
10
139.63
20
-99.9778
11
139.626
21
-99.9637
0
LINE
8
BLACK
6
CONTINUOUS
10
139.626
20
-99.9637
11
139.625
21
-99.9527
0
LINE
8
BLACK
6
CONTINUOUS
10
139.625
20
-99.9527
11
139.625
21
-99.77
0
LINE
8
BLACK
6
CONTINUOUS
10
139.625
20
-99.77
11
139.442
21
-99.77
0
LINE
8
BLACK
6
CONTINUOUS
10
139.442
20
-99.77
11
139.431
21
-99.7689
0
LINE
8
BLACK
6
CONTINUOUS
10
139.431
20
-99.7689
11
139.417
21
-99.7646
0
LINE
8
BLACK
6
CONTINUOUS
10
139.417
20
-99.7646
11
139.404
21
-99.7577
0
LINE
8
BLACK
6
CONTINUOUS
10
139.404
20
-99.7577
11
139.393
21
-99.7483
0
LINE
8
BLACK
6
CONTINUOUS
10
139.393
20
-99.7483
11
139.383
21
-99.7369
0
LINE
8
BLACK
6
CONTINUOUS
10
139.383
20
-99.7369
11
139.376
21
-99.7238
0
LINE
8
BLACK
6
CONTINUOUS
10
139.376
20
-99.7238
11
139.372
21
-99.7097
0
LINE
8
BLACK
6
CONTINUOUS
10
139.372
20
-99.7097
11
139.371
21
-99.695
0
LINE
8
BLACK
6
CONTINUOUS
10
139.371
20
-99.695
11
139.372
21
-99.6803
0
LINE
8
BLACK
6
CONTINUOUS
10
139.372
20
-99.6803
11
139.376
21
-99.6662
0
LINE
8
BLACK
6
CONTINUOUS
10
139.376
20
-99.6662
11
139.383
21
-99.6531
0
LINE
8
BLACK
6
CONTINUOUS
10
139.383
20
-99.6531
11
139.393
21
-99.6417
0
LINE
8
BLACK
6
CONTINUOUS
10
139.393
20
-99.6417
11
139.404
21
-99.6323
0
LINE
8
BLACK
6
CONTINUOUS
10
139.404
20
-99.6323
11
139.417
21
-99.6254
0
LINE
8
BLACK
6
CONTINUOUS
10
139.417
20
-99.6254
11
139.431
21
-99.6211
0
LINE
8
BLACK
6
CONTINUOUS
10
139.431
20
-99.6211
11
139.442
21
-99.62
0
LINE
8
BLACK
6
CONTINUOUS
10
139.442
20
-99.62
11
139.625
21
-99.62
0
LINE
8
BLACK
6
CONTINUOUS
10
139.625
20
-99.62
11
139.625
21
-99.4373
0
LINE
8
BLACK
6
CONTINUOUS
10
139.625
20
-99.4373
11
139.626
21
-99.4263
0
LINE
8
BLACK
6
CONTINUOUS
10
139.626
20
-99.4263
11
139.63
21
-99.4122
0
LINE
8
BLACK
6
CONTINUOUS
10
139.63
20
-99.4122
11
139.637
21
-99.3991
0
LINE
8
BLACK
6
CONTINUOUS
10
139.637
20
-99.3991
11
139.647
21
-99.3877
0
LINE
8
BLACK
6
CONTINUOUS
10
139.647
20
-99.3877
11
139.658
21
-99.3783
0
LINE
8
BLACK
6
CONTINUOUS
10
139.658
20
-99.3783
11
139.671
21
-99.3714
0
LINE
8
BLACK
6
CONTINUOUS
10
139.671
20
-99.3714
11
139.685
21
-99.3671
0
LINE
8
BLACK
6
CONTINUOUS
10
139.685
20
-99.3671
11
139.7
21
-99.3656
0
LINE
8
BLACK
6
CONTINUOUS
10
139.7
20
-99.3656
11
139.715
21
-99.3671
0
LINE
8
BLACK
6
CONTINUOUS
10
116.22
20
-95.2396
11
116.234
21
-95.2439
0
LINE
8
BLACK
6
CONTINUOUS
10
116.234
20
-95.2439
11
116.247
21
-95.2508
0
LINE
8
BLACK
6
CONTINUOUS
10
116.247
20
-95.2508
11
116.258
21
-95.2602
0
LINE
8
BLACK
6
CONTINUOUS
10
116.258
20
-95.2602
11
116.268
21
-95.2716
0
LINE
8
BLACK
6
CONTINUOUS
10
116.268
20
-95.2716
11
116.275
21
-95.2847
0
LINE
8
BLACK
6
CONTINUOUS
10
116.275
20
-95.2847
11
116.279
21
-95.2988
0
LINE
8
BLACK
6
CONTINUOUS
10
116.279
20
-95.2988
11
116.28
21
-95.3098
0
LINE
8
BLACK
6
CONTINUOUS
10
116.28
20
-95.3098
11
116.28
21
-95.429
0
LINE
8
BLACK
6
CONTINUOUS
10
116.28
20
-95.429
11
116.399
21
-95.429
0
LINE
8
BLACK
6
CONTINUOUS
10
116.399
20
-95.429
11
116.41
21
-95.4301
0
LINE
8
BLACK
6
CONTINUOUS
10
116.41
20
-95.4301
11
116.424
21
-95.4344
0
LINE
8
BLACK
6
CONTINUOUS
10
116.424
20
-95.4344
11
116.437
21
-95.4413
0
LINE
8
BLACK
6
CONTINUOUS
10
116.437
20
-95.4413
11
116.449
21
-95.4507
0
LINE
8
BLACK
6
CONTINUOUS
10
116.449
20
-95.4507
11
116.458
21
-95.4621
0
LINE
8
BLACK
6
CONTINUOUS
10
116.458
20
-95.4621
11
116.465
21
-95.4752
0
LINE
8
BLACK
6
CONTINUOUS
10
116.465
20
-95.4752
11
116.469
21
-95.4893
0
LINE
8
BLACK
6
CONTINUOUS
10
116.469
20
-95.4893
11
116.471
21
-95.504
0
LINE
8
BLACK
6
CONTINUOUS
10
116.471
20
-95.504
11
116.469
21
-95.5187
0
LINE
8
BLACK
6
CONTINUOUS
10
116.469
20
-95.5187
11
116.465
21
-95.5328
0
LINE
8
BLACK
6
CONTINUOUS
10
116.465
20
-95.5328
11
116.458
21
-95.5459
0
LINE
8
BLACK
6
CONTINUOUS
10
116.458
20
-95.5459
11
116.449
21
-95.5573
0
LINE
8
BLACK
6
CONTINUOUS
10
116.449
20
-95.5573
11
116.437
21
-95.5667
0
LINE
8
BLACK
6
CONTINUOUS
10
116.437
20
-95.5667
11
116.424
21
-95.5736
0
LINE
8
BLACK
6
CONTINUOUS
10
116.424
20
-95.5736
11
116.41
21
-95.5779
0
LINE
8
BLACK
6
CONTINUOUS
10
116.41
20
-95.5779
11
116.399
21
-95.579
0
LINE
8
BLACK
6
CONTINUOUS
10
116.399
20
-95.579
11
116.28
21
-95.579
0
LINE
8
BLACK
6
CONTINUOUS
10
116.28
20
-95.579
11
116.28
21
-95.6982
0
LINE
8
BLACK
6
CONTINUOUS
10
116.28
20
-95.6982
11
116.279
21
-95.7092
0
LINE
8
BLACK
6
CONTINUOUS
10
116.279
20
-95.7092
11
116.275
21
-95.7233
0
LINE
8
BLACK
6
CONTINUOUS
10
116.275
20
-95.7233
11
116.268
21
-95.7364
0
LINE
8
BLACK
6
CONTINUOUS
10
116.268
20
-95.7364
11
116.258
21
-95.7478
0
LINE
8
BLACK
6
CONTINUOUS
10
116.258
20
-95.7478
11
116.247
21
-95.7572
0
LINE
8
BLACK
6
CONTINUOUS
10
116.247
20
-95.7572
11
116.234
21
-95.7641
0
LINE
8
BLACK
6
CONTINUOUS
10
116.234
20
-95.7641
11
116.22
21
-95.7684
0
LINE
8
BLACK
6
CONTINUOUS
10
116.22
20
-95.7684
11
116.205
21
-95.7699
0
LINE
8
BLACK
6
CONTINUOUS
10
116.205
20
-95.7699
11
116.19
21
-95.7684
0
LINE
8
BLACK
6
CONTINUOUS
10
116.19
20
-95.7684
11
116.176
21
-95.7641
0
LINE
8
BLACK
6
CONTINUOUS
10
116.176
20
-95.7641
11
116.163
21
-95.7572
0
LINE
8
BLACK
6
CONTINUOUS
10
116.163
20
-95.7572
11
116.152
21
-95.7478
0
LINE
8
BLACK
6
CONTINUOUS
10
116.152
20
-95.7478
11
116.142
21
-95.7364
0
LINE
8
BLACK
6
CONTINUOUS
10
116.142
20
-95.7364
11
116.135
21
-95.7233
0
LINE
8
BLACK
6
CONTINUOUS
10
116.135
20
-95.7233
11
116.131
21
-95.7092
0
LINE
8
BLACK
6
CONTINUOUS
10
116.131
20
-95.7092
11
116.13
21
-95.6982
0
LINE
8
BLACK
6
CONTINUOUS
10
116.13
20
-95.6982
11
116.13
21
-95.579
0
LINE
8
BLACK
6
CONTINUOUS
10
116.13
20
-95.579
11
116.011
21
-95.579
0
LINE
8
BLACK
6
CONTINUOUS
10
116.011
20
-95.579
11
116
21
-95.5779
0
LINE
8
BLACK
6
CONTINUOUS
10
116
20
-95.5779
11
115.986
21
-95.5736
0
LINE
8
BLACK
6
CONTINUOUS
10
115.986
20
-95.5736
11
115.973
21
-95.5667
0
LINE
8
BLACK
6
CONTINUOUS
10
115.973
20
-95.5667
11
115.961
21
-95.5573
0
LINE
8
BLACK
6
CONTINUOUS
10
115.961
20
-95.5573
11
115.952
21
-95.5459
0
LINE
8
BLACK
6
CONTINUOUS
10
115.952
20
-95.5459
11
115.945
21
-95.5328
0
LINE
8
BLACK
6
CONTINUOUS
10
115.945
20
-95.5328
11
115.941
21
-95.5187
0
LINE
8
BLACK
6
CONTINUOUS
10
115.941
20
-95.5187
11
115.939
21
-95.504
0
LINE
8
BLACK
6
CONTINUOUS
10
115.939
20
-95.504
11
115.941
21
-95.4893
0
LINE
8
BLACK
6
CONTINUOUS
10
115.941
20
-95.4893
11
115.945
21
-95.4752
0
LINE
8
BLACK
6
CONTINUOUS
10
115.945
20
-95.4752
11
115.952
21
-95.4621
0
LINE
8
BLACK
6
CONTINUOUS
10
115.952
20
-95.4621
11
115.961
21
-95.4507
0
LINE
8
BLACK
6
CONTINUOUS
10
115.961
20
-95.4507
11
115.973
21
-95.4413
0
LINE
8
BLACK
6
CONTINUOUS
10
115.973
20
-95.4413
11
115.986
21
-95.4344
0
LINE
8
BLACK
6
CONTINUOUS
10
115.986
20
-95.4344
11
116
21
-95.4301
0
LINE
8
BLACK
6
CONTINUOUS
10
116
20
-95.4301
11
116.011
21
-95.429
0
LINE
8
BLACK
6
CONTINUOUS
10
116.011
20
-95.429
11
116.13
21
-95.429
0
LINE
8
BLACK
6
CONTINUOUS
10
116.13
20
-95.429
11
116.13
21
-95.3098
0
LINE
8
BLACK
6
CONTINUOUS
10
116.13
20
-95.3098
11
116.131
21
-95.2988
0
LINE
8
BLACK
6
CONTINUOUS
10
116.131
20
-95.2988
11
116.135
21
-95.2847
0
LINE
8
BLACK
6
CONTINUOUS
10
116.135
20
-95.2847
11
116.142
21
-95.2716
0
LINE
8
BLACK
6
CONTINUOUS
10
116.142
20
-95.2716
11
116.152
21
-95.2602
0
LINE
8
BLACK
6
CONTINUOUS
10
116.152
20
-95.2602
11
116.163
21
-95.2508
0
LINE
8
BLACK
6
CONTINUOUS
10
116.163
20
-95.2508
11
116.176
21
-95.2439
0
LINE
8
BLACK
6
CONTINUOUS
10
116.176
20
-95.2439
11
116.19
21
-95.2396
0
LINE
8
BLACK
6
CONTINUOUS
10
116.19
20
-95.2396
11
116.205
21
-95.2381
0
LINE
8
BLACK
6
CONTINUOUS
10
116.205
20
-95.2381
11
116.22
21
-95.2396
0
LINE
8
BLACK
6
CONTINUOUS
10
0.014702
20
0.264414
11
0.02884
21
0.260125
0
LINE
8
BLACK
6
CONTINUOUS
10
0.02884
20
0.260125
11
0.041869
21
0.253161
0
LINE
8
BLACK
6
CONTINUOUS
10
0.041869
20
0.253161
11
0.053289
21
0.243789
0
LINE
8
BLACK
6
CONTINUOUS
10
0.053289
20
0.243789
11
0.062661
21
0.232369
0
LINE
8
BLACK
6
CONTINUOUS
10
0.062661
20
0.232369
11
0.069625
21
0.21934
0
LINE
8
BLACK
6
CONTINUOUS
10
0.069625
20
0.21934
11
0.073914
21
0.205202
0
LINE
8
BLACK
6
CONTINUOUS
10
0.073914
20
0.205202
11
0.075
21
0.194175
0
LINE
8
BLACK
6
CONTINUOUS
10
0.075
20
0.194175
11
0.075
21
0.075
0
LINE
8
BLACK
6
CONTINUOUS
10
0.075
20
0.075
11
0.194175
21
0.075
0
LINE
8
BLACK
6
CONTINUOUS
10
0.194175
20
0.075
11
0.205202
21
0.073914
0
LINE
8
BLACK
6
CONTINUOUS
10
0.205202
20
0.073914
11
0.21934
21
0.069625
0
LINE
8
BLACK
6
CONTINUOUS
10
0.21934
20
0.069625
11
0.232369
21
0.062661
0
LINE
8
BLACK
6
CONTINUOUS
10
0.232369
20
0.062661
11
0.243789
21
0.053289
0
LINE
8
BLACK
6
CONTINUOUS
10
0.243789
20
0.053289
11
0.253161
21
0.041869
0
LINE
8
BLACK
6
CONTINUOUS
10
0.253161
20
0.041869
11
0.260125
21
0.02884
0
LINE
8
BLACK
6
CONTINUOUS
10
0.260125
20
0.02884
11
0.264414
21
0.014702
0
LINE
8
BLACK
6
CONTINUOUS
10
0.264414
20
0.014702
11
0.265862
21
0
0
LINE
8
BLACK
6
CONTINUOUS
10
0.265862
20
0
11
0.264414
21
-0.014702
0
LINE
8
BLACK
6
CONTINUOUS
10
0.264414
20
-0.014702
11
0.260125
21
-0.02884
0
LINE
8
BLACK
6
CONTINUOUS
10
0.260125
20
-0.02884
11
0.253161
21
-0.041869
0
LINE
8
BLACK
6
CONTINUOUS
10
0.253161
20
-0.041869
11
0.243789
21
-0.053289
0
LINE
8
BLACK
6
CONTINUOUS
10
0.243789
20
-0.053289
11
0.232369
21
-0.062661
0
LINE
8
BLACK
6
CONTINUOUS
10
0.232369
20
-0.062661
11
0.21934
21
-0.069625
0
LINE
8
BLACK
6
CONTINUOUS
10
0.21934
20
-0.069625
11
0.205202
21
-0.073914
0
LINE
8
BLACK
6
CONTINUOUS
10
0.205202
20
-0.073914
11
0.194175
21
-0.075
0
LINE
8
BLACK
6
CONTINUOUS
10
0.194175
20
-0.075
11
0.075
21
-0.075
0
LINE
8
BLACK
6
CONTINUOUS
10
0.075
20
-0.075
11
0.075
21
-0.194175
0
LINE
8
BLACK
6
CONTINUOUS
10
0.075
20
-0.194175
11
0.073914
21
-0.205202
0
LINE
8
BLACK
6
CONTINUOUS
10
0.073914
20
-0.205202
11
0.069625
21
-0.21934
0
LINE
8
BLACK
6
CONTINUOUS
10
0.069625
20
-0.21934
11
0.062661
21
-0.232369
0
LINE
8
BLACK
6
CONTINUOUS
10
0.062661
20
-0.232369
11
0.053289
21
-0.243789
0
LINE
8
BLACK
6
CONTINUOUS
10
0.053289
20
-0.243789
11
0.041869
21
-0.253161
0
LINE
8
BLACK
6
CONTINUOUS
10
0.041869
20
-0.253161
11
0.02884
21
-0.260125
0
LINE
8
BLACK
6
CONTINUOUS
10
0.02884
20
-0.260125
11
0.014702
21
-0.264414
0
LINE
8
BLACK
6
CONTINUOUS
10
0.014702
20
-0.264414
11
0
21
-0.265862
0
LINE
8
BLACK
6
CONTINUOUS
10
0
20
-0.265862
11
-0.014701
21
-0.264414
0
LINE
8
BLACK
6
CONTINUOUS
10
-0.014701
20
-0.264414
11
-0.028839
21
-0.260125
0
LINE
8
BLACK
6
CONTINUOUS
10
-0.028839
20
-0.260125
11
-0.041868
21
-0.253161
0
LINE
8
BLACK
6
CONTINUOUS
10
-0.041868
20
-0.253161
11
-0.053288
21
-0.243789
0
LINE
8
BLACK
6
CONTINUOUS
10
-0.053288
20
-0.243789
11
-0.06266
21
-0.232369
0
LINE
8
BLACK
6
CONTINUOUS
10
-0.06266
20
-0.232369
11
-0.069624
21
-0.21934
0
LINE
8
BLACK
6
CONTINUOUS
10
-0.069624
20
-0.21934
11
-0.073913
21
-0.205202
0
LINE
8
BLACK
6
CONTINUOUS
10
-0.073913
20
-0.205202
11
-0.074999
21
-0.194175
0
LINE
8
BLACK
6
CONTINUOUS
10
-0.074999
20
-0.194175
11
-0.075
21
-0.075
0
LINE
8
BLACK
6
CONTINUOUS
10
-0.075
20
-0.075
11
-0.194175
21
-0.075
0
LINE
8
BLACK
6
CONTINUOUS
10
-0.194175
20
-0.075
11
-0.205202
21
-0.073914
0
LINE
8
BLACK
6
CONTINUOUS
10
-0.205202
20
-0.073914
11
-0.21934
21
-0.069625
0
LINE
8
BLACK
6
CONTINUOUS
10
-0.21934
20
-0.069625
11
-0.232369
21
-0.062661
0
LINE
8
BLACK
6
CONTINUOUS
10
-0.232369
20
-0.062661
11
-0.243789
21
-0.053289
0
LINE
8
BLACK
6
CONTINUOUS
10
-0.243789
20
-0.053289
11
-0.253161
21
-0.041869
0
LINE
8
BLACK
6
CONTINUOUS
10
-0.253161
20
-0.041869
11
-0.260125
21
-0.02884
0
LINE
8
BLACK
6
CONTINUOUS
10
-0.260125
20
-0.02884
11
-0.264414
21
-0.014702
0
LINE
8
BLACK
6
CONTINUOUS
10
-0.264414
20
-0.014702
11
-0.265862
21
0
0
LINE
8
BLACK
6
CONTINUOUS
10
-0.265862
20
0
11
-0.264414
21
0.014702
0
LINE
8
BLACK
6
CONTINUOUS
10
-0.264414
20
0.014702
11
-0.260125
21
0.02884
0
LINE
8
BLACK
6
CONTINUOUS
10
-0.260125
20
0.02884
11
-0.253161
21
0.041869
0
LINE
8
BLACK
6
CONTINUOUS
10
-0.253161
20
0.041869
11
-0.243789
21
0.053289
0
LINE
8
BLACK
6
CONTINUOUS
10
-0.243789
20
0.053289
11
-0.232369
21
0.062661
0
LINE
8
BLACK
6
CONTINUOUS
10
-0.232369
20
0.062661
11
-0.21934
21
0.069625
0
LINE
8
BLACK
6
CONTINUOUS
10
-0.21934
20
0.069625
11
-0.205202
21
0.073914
0
LINE
8
BLACK
6
CONTINUOUS
10
-0.205202
20
0.073914
11
-0.194175
21
0.075
0
LINE
8
BLACK
6
CONTINUOUS
10
-0.194175
20
0.075
11
-0.075
21
0.075
0
LINE
8
BLACK
6
CONTINUOUS
10
-0.075
20
0.075
11
-0.074999
21
0.194175
0
LINE
8
BLACK
6
CONTINUOUS
10
-0.074999
20
0.194175
11
-0.073913
21
0.205202
0
LINE
8
BLACK
6
CONTINUOUS
10
-0.073913
20
0.205202
11
-0.069624
21
0.21934
0
LINE
8
BLACK
6
CONTINUOUS
10
-0.069624
20
0.21934
11
-0.06266
21
0.232369
0
LINE
8
BLACK
6
CONTINUOUS
10
-0.06266
20
0.232369
11
-0.053288
21
0.243789
0
LINE
8
BLACK
6
CONTINUOUS
10
-0.053288
20
0.243789
11
-0.041868
21
0.253161
0
LINE
8
BLACK
6
CONTINUOUS
10
-0.041868
20
0.253161
11
-0.028839
21
0.260125
0
LINE
8
BLACK
6
CONTINUOUS
10
-0.028839
20
0.260125
11
-0.014701
21
0.264414
0
LINE
8
BLACK
6
CONTINUOUS
10
-0.014701
20
0.264414
11
0
21
0.265862
0
LINE
8
BLACK
6
CONTINUOUS
10
0
20
0.265862
11
0.014702
21
0.264414
0
LINE
8
BLACK
6
CONTINUOUS
10
-6.9703
20
0.899414
11
-6.95616
21
0.895125
0
LINE
8
BLACK
6
CONTINUOUS
10
-6.95616
20
0.895125
11
-6.94313
21
0.888161
0
LINE
8
BLACK
6
CONTINUOUS
10
-6.94313
20
0.888161
11
-6.93171
21
0.878789
0
LINE
8
BLACK
6
CONTINUOUS
10
-6.93171
20
0.878789
11
-6.92234
21
0.867369
0
LINE
8
BLACK
6
CONTINUOUS
10
-6.92234
20
0.867369
11
-6.91538
21
0.85434
0
LINE
8
BLACK
6
CONTINUOUS
10
-6.91538
20
0.85434
11
-6.91109
21
0.840202
0
LINE
8
BLACK
6
CONTINUOUS
10
-6.91109
20
0.840202
11
-6.91
21
0.829175
0
LINE
8
BLACK
6
CONTINUOUS
10
-6.91
20
0.829175
11
-6.91
21
0.71
0
LINE
8
BLACK
6
CONTINUOUS
10
-6.91
20
0.71
11
-6.79082
21
0.71
0
LINE
8
BLACK
6
CONTINUOUS
10
-6.79082
20
0.71
11
-6.7798
21
0.708914
0
LINE
8
BLACK
6
CONTINUOUS
10
-6.7798
20
0.708914
11
-6.76566
21
0.704625
0
LINE
8
BLACK
6
CONTINUOUS
10
-6.76566
20
0.704625
11
-6.75263
21
0.697661
0
LINE
8
BLACK
6
CONTINUOUS
10
-6.75263
20
0.697661
11
-6.74121
21
0.688289
0
LINE
8
BLACK
6
CONTINUOUS
10
-6.74121
20
0.688289
11
-6.73184
21
0.676869
0
LINE
8
BLACK
6
CONTINUOUS
10
-6.73184
20
0.676869
11
-6.72487
21
0.66384
0
LINE
8
BLACK
6
CONTINUOUS
10
-6.72487
20
0.66384
11
-6.72059
21
0.649702
0
LINE
8
BLACK
6
CONTINUOUS
10
-6.72059
20
0.649702
11
-6.71914
21
0.635
0
LINE
8
BLACK
6
CONTINUOUS
10
-6.71914
20
0.635
11
-6.72059
21
0.620298
0
LINE
8
BLACK
6
CONTINUOUS
10
-6.72059
20
0.620298
11
-6.72487
21
0.60616
0
LINE
8
BLACK
6
CONTINUOUS
10
-6.72487
20
0.60616
11
-6.73184
21
0.593131
0
LINE
8
BLACK
6
CONTINUOUS
10
-6.73184
20
0.593131
11
-6.74121
21
0.581711
0
LINE
8
BLACK
6
CONTINUOUS
10
-6.74121
20
0.581711
11
-6.75263
21
0.572339
0
LINE
8
BLACK
6
CONTINUOUS
10
-6.75263
20
0.572339
11
-6.76566
21
0.565375
0
LINE
8
BLACK
6
CONTINUOUS
10
-6.76566
20
0.565375
11
-6.7798
21
0.561086
0
LINE
8
BLACK
6
CONTINUOUS
10
-6.7798
20
0.561086
11
-6.79082
21
0.56
0
LINE
8
BLACK
6
CONTINUOUS
10
-6.79082
20
0.56
11
-6.91
21
0.56
0
LINE
8
BLACK
6
CONTINUOUS
10
-6.91
20
0.56
11
-6.91
21
0.440825
0
LINE
8
BLACK
6
CONTINUOUS
10
-6.91
20
0.440825
11
-6.91109
21
0.429798
0
LINE
8
BLACK
6
CONTINUOUS
10
-6.91109
20
0.429798
11
-6.91538
21
0.41566
0
LINE
8
BLACK
6
CONTINUOUS
10
-6.91538
20
0.41566
11
-6.92234
21
0.402631
0
LINE
8
BLACK
6
CONTINUOUS
10
-6.92234
20
0.402631
11
-6.93171
21
0.391211
0
LINE
8
BLACK
6
CONTINUOUS
10
-6.93171
20
0.391211
11
-6.94313
21
0.381839
0
LINE
8
BLACK
6
CONTINUOUS
10
-6.94313
20
0.381839
11
-6.95616
21
0.374875
0
LINE
8
BLACK
6
CONTINUOUS
10
-6.95616
20
0.374875
11
-6.9703
21
0.370586
0
LINE
8
BLACK
6
CONTINUOUS
10
-6.9703
20
0.370586
11
-6.985
21
0.369138
0
LINE
8
BLACK
6
CONTINUOUS
10
-6.985
20
0.369138
11
-6.9997
21
0.370586
0
LINE
8
BLACK
6
CONTINUOUS
10
-6.9997
20
0.370586
11
-7.01384
21
0.374875
0
LINE
8
BLACK
6
CONTINUOUS
10
-7.01384
20
0.374875
11
-7.02687
21
0.381839
0
LINE
8
BLACK
6
CONTINUOUS
10
-7.02687
20
0.381839
11
-7.03829
21
0.391211
0
LINE
8
BLACK
6
CONTINUOUS
10
-7.03829
20
0.391211
11
-7.04766
21
0.402631
0
LINE
8
BLACK
6
CONTINUOUS
10
-7.04766
20
0.402631
11
-7.05462
21
0.41566
0
LINE
8
BLACK
6
CONTINUOUS
10
-7.05462
20
0.41566
11
-7.05891
21
0.429798
0
LINE
8
BLACK
6
CONTINUOUS
10
-7.05891
20
0.429798
11
-7.06
21
0.440825
0
LINE
8
BLACK
6
CONTINUOUS
10
-7.06
20
0.440825
11
-7.06
21
0.56
0
LINE
8
BLACK
6
CONTINUOUS
10
-7.06
20
0.56
11
-7.17917
21
0.56
0
LINE
8
BLACK
6
CONTINUOUS
10
-7.17917
20
0.56
11
-7.1902
21
0.561086
0
LINE
8
BLACK
6
CONTINUOUS
10
-7.1902
20
0.561086
11
-7.20434
21
0.565375
0
LINE
8
BLACK
6
CONTINUOUS
10
-7.20434
20
0.565375
11
-7.21737
21
0.572339
0
LINE
8
BLACK
6
CONTINUOUS
10
-7.21737
20
0.572339
11
-7.22879
21
0.581711
0
LINE
8
BLACK
6
CONTINUOUS
10
-7.22879
20
0.581711
11
-7.23816
21
0.593131
0
LINE
8
BLACK
6
CONTINUOUS
10
-7.23816
20
0.593131
11
-7.24512
21
0.60616
0
LINE
8
BLACK
6
CONTINUOUS
10
-7.24512
20
0.60616
11
-7.24941
21
0.620298
0
LINE
8
BLACK
6
CONTINUOUS
10
-7.24941
20
0.620298
11
-7.25086
21
0.635
0
LINE
8
BLACK
6
CONTINUOUS
10
-7.25086
20
0.635
11
-7.24941
21
0.649702
0
LINE
8
BLACK
6
CONTINUOUS
10
-7.24941
20
0.649702
11
-7.24512
21
0.66384
0
LINE
8
BLACK
6
CONTINUOUS
10
-7.24512
20
0.66384
11
-7.23816
21
0.676869
0
LINE
8
BLACK
6
CONTINUOUS
10
-7.23816
20
0.676869
11
-7.22879
21
0.688289
0
LINE
8
BLACK
6
CONTINUOUS
10
-7.22879
20
0.688289
11
-7.21737
21
0.697661
0
LINE
8
BLACK
6
CONTINUOUS
10
-7.21737
20
0.697661
11
-7.20434
21
0.704625
0
LINE
8
BLACK
6
CONTINUOUS
10
-7.20434
20
0.704625
11
-7.1902
21
0.708914
0
LINE
8
BLACK
6
CONTINUOUS
10
-7.1902
20
0.708914
11
-7.17917
21
0.71
0
LINE
8
BLACK
6
CONTINUOUS
10
-7.17917
20
0.71
11
-7.06
21
0.71
0
LINE
8
BLACK
6
CONTINUOUS
10
-7.06
20
0.71
11
-7.06
21
0.829175
0
LINE
8
BLACK
6
CONTINUOUS
10
-7.06
20
0.829175
11
-7.05891
21
0.840202
0
LINE
8
BLACK
6
CONTINUOUS
10
-7.05891
20
0.840202
11
-7.05462
21
0.85434
0
LINE
8
BLACK
6
CONTINUOUS
10
-7.05462
20
0.85434
11
-7.04766
21
0.867369
0
LINE
8
BLACK
6
CONTINUOUS
10
-7.04766
20
0.867369
11
-7.03829
21
0.878789
0
LINE
8
BLACK
6
CONTINUOUS
10
-7.03829
20
0.878789
11
-7.02687
21
0.888161
0
LINE
8
BLACK
6
CONTINUOUS
10
-7.02687
20
0.888161
11
-7.01384
21
0.895125
0
LINE
8
BLACK
6
CONTINUOUS
10
-7.01384
20
0.895125
11
-6.9997
21
0.899414
0
LINE
8
BLACK
6
CONTINUOUS
10
-6.9997
20
0.899414
11
-6.985
21
0.900862
0
LINE
8
BLACK
6
CONTINUOUS
10
-6.985
20
0.900862
11
-6.9703
21
0.899414
  0
ENDSEC
  0
EOF
