G04 #@! TF.GenerationSoftware,KiCad,Pcbnew,(5.1.2)-1*
G04 #@! TF.CreationDate,2019-04-30T15:44:18-03:00*
G04 #@! TF.ProjectId,Eletr_nica,456c6574-72f4-46e6-9963-612e6b696361,rev?*
G04 #@! TF.SameCoordinates,Original*
G04 #@! TF.FileFunction,Copper,L2,Bot*
G04 #@! TF.FilePolarity,Positive*
%FSLAX46Y46*%
G04 Gerber Fmt 4.6, Leading zero omitted, Abs format (unit mm)*
G04 Created by KiCad (PCBNEW (5.1.2)-1) date 2019-04-30 15:44:18*
%MOMM*%
%LPD*%
G04 APERTURE LIST*
%ADD10C,1.800000*%
%ADD11R,1.800000X1.800000*%
%ADD12R,3.500000X3.500000*%
%ADD13C,0.100000*%
%ADD14C,3.000000*%
%ADD15C,3.500000*%
%ADD16R,1.700000X1.700000*%
%ADD17O,1.700000X1.700000*%
%ADD18C,1.600000*%
%ADD19O,1.600000X1.600000*%
%ADD20C,1.700000*%
%ADD21C,0.500000*%
%ADD22C,0.250000*%
%ADD23C,0.300000*%
G04 APERTURE END LIST*
D10*
X185420000Y-118110000D03*
D11*
X182880000Y-118110000D03*
X136525000Y-118110000D03*
D10*
X139065000Y-118110000D03*
X92710000Y-118110000D03*
D11*
X90170000Y-118110000D03*
D12*
X48260000Y-119380000D03*
D13*
G36*
X43083513Y-117633611D02*
G01*
X43156318Y-117644411D01*
X43227714Y-117662295D01*
X43297013Y-117687090D01*
X43363548Y-117718559D01*
X43426678Y-117756398D01*
X43485795Y-117800242D01*
X43540330Y-117849670D01*
X43589758Y-117904205D01*
X43633602Y-117963322D01*
X43671441Y-118026452D01*
X43702910Y-118092987D01*
X43727705Y-118162286D01*
X43745589Y-118233682D01*
X43756389Y-118306487D01*
X43760000Y-118380000D01*
X43760000Y-120380000D01*
X43756389Y-120453513D01*
X43745589Y-120526318D01*
X43727705Y-120597714D01*
X43702910Y-120667013D01*
X43671441Y-120733548D01*
X43633602Y-120796678D01*
X43589758Y-120855795D01*
X43540330Y-120910330D01*
X43485795Y-120959758D01*
X43426678Y-121003602D01*
X43363548Y-121041441D01*
X43297013Y-121072910D01*
X43227714Y-121097705D01*
X43156318Y-121115589D01*
X43083513Y-121126389D01*
X43010000Y-121130000D01*
X41510000Y-121130000D01*
X41436487Y-121126389D01*
X41363682Y-121115589D01*
X41292286Y-121097705D01*
X41222987Y-121072910D01*
X41156452Y-121041441D01*
X41093322Y-121003602D01*
X41034205Y-120959758D01*
X40979670Y-120910330D01*
X40930242Y-120855795D01*
X40886398Y-120796678D01*
X40848559Y-120733548D01*
X40817090Y-120667013D01*
X40792295Y-120597714D01*
X40774411Y-120526318D01*
X40763611Y-120453513D01*
X40760000Y-120380000D01*
X40760000Y-118380000D01*
X40763611Y-118306487D01*
X40774411Y-118233682D01*
X40792295Y-118162286D01*
X40817090Y-118092987D01*
X40848559Y-118026452D01*
X40886398Y-117963322D01*
X40930242Y-117904205D01*
X40979670Y-117849670D01*
X41034205Y-117800242D01*
X41093322Y-117756398D01*
X41156452Y-117718559D01*
X41222987Y-117687090D01*
X41292286Y-117662295D01*
X41363682Y-117644411D01*
X41436487Y-117633611D01*
X41510000Y-117630000D01*
X43010000Y-117630000D01*
X43083513Y-117633611D01*
X43083513Y-117633611D01*
G37*
D14*
X42260000Y-119380000D03*
D13*
G36*
X46220765Y-122334213D02*
G01*
X46305704Y-122346813D01*
X46388999Y-122367677D01*
X46469848Y-122396605D01*
X46547472Y-122433319D01*
X46621124Y-122477464D01*
X46690094Y-122528616D01*
X46753718Y-122586282D01*
X46811384Y-122649906D01*
X46862536Y-122718876D01*
X46906681Y-122792528D01*
X46943395Y-122870152D01*
X46972323Y-122951001D01*
X46993187Y-123034296D01*
X47005787Y-123119235D01*
X47010000Y-123205000D01*
X47010000Y-124955000D01*
X47005787Y-125040765D01*
X46993187Y-125125704D01*
X46972323Y-125208999D01*
X46943395Y-125289848D01*
X46906681Y-125367472D01*
X46862536Y-125441124D01*
X46811384Y-125510094D01*
X46753718Y-125573718D01*
X46690094Y-125631384D01*
X46621124Y-125682536D01*
X46547472Y-125726681D01*
X46469848Y-125763395D01*
X46388999Y-125792323D01*
X46305704Y-125813187D01*
X46220765Y-125825787D01*
X46135000Y-125830000D01*
X44385000Y-125830000D01*
X44299235Y-125825787D01*
X44214296Y-125813187D01*
X44131001Y-125792323D01*
X44050152Y-125763395D01*
X43972528Y-125726681D01*
X43898876Y-125682536D01*
X43829906Y-125631384D01*
X43766282Y-125573718D01*
X43708616Y-125510094D01*
X43657464Y-125441124D01*
X43613319Y-125367472D01*
X43576605Y-125289848D01*
X43547677Y-125208999D01*
X43526813Y-125125704D01*
X43514213Y-125040765D01*
X43510000Y-124955000D01*
X43510000Y-123205000D01*
X43514213Y-123119235D01*
X43526813Y-123034296D01*
X43547677Y-122951001D01*
X43576605Y-122870152D01*
X43613319Y-122792528D01*
X43657464Y-122718876D01*
X43708616Y-122649906D01*
X43766282Y-122586282D01*
X43829906Y-122528616D01*
X43898876Y-122477464D01*
X43972528Y-122433319D01*
X44050152Y-122396605D01*
X44131001Y-122367677D01*
X44214296Y-122346813D01*
X44299235Y-122334213D01*
X44385000Y-122330000D01*
X46135000Y-122330000D01*
X46220765Y-122334213D01*
X46220765Y-122334213D01*
G37*
D15*
X45260000Y-124080000D03*
D16*
X97790000Y-116840000D03*
D17*
X97790000Y-119380000D03*
X130810000Y-119380000D03*
D16*
X130810000Y-116840000D03*
X177800000Y-116840000D03*
D17*
X177800000Y-119380000D03*
D18*
X177800000Y-124460000D03*
D19*
X185420000Y-124460000D03*
D18*
X138430000Y-124460000D03*
D19*
X130810000Y-124460000D03*
X97790000Y-124460000D03*
D18*
X90170000Y-124460000D03*
D20*
X64920000Y-122610000D03*
X58420000Y-122610000D03*
X64920000Y-118110000D03*
X58420000Y-118110000D03*
D17*
X49530000Y-82550000D03*
X54610000Y-82550000D03*
D20*
X41910000Y-82550000D03*
D17*
X77470000Y-82550000D03*
X67310000Y-82550000D03*
X59690000Y-82550000D03*
X52070000Y-82550000D03*
X74930000Y-82550000D03*
X46990000Y-82550000D03*
X57150000Y-82550000D03*
X69850000Y-82550000D03*
X64770000Y-82550000D03*
X72390000Y-82550000D03*
X62230000Y-82550000D03*
X44450000Y-82550000D03*
X77470000Y-107950000D03*
X74930000Y-107950000D03*
X72390000Y-107950000D03*
X69850000Y-107950000D03*
X67310000Y-107950000D03*
X64770000Y-107950000D03*
X62230000Y-107950000D03*
X59690000Y-107950000D03*
X57150000Y-107950000D03*
X54610000Y-107950000D03*
X52070000Y-107950000D03*
X49530000Y-107950000D03*
X46990000Y-107950000D03*
X44450000Y-107950000D03*
D16*
X41910000Y-107950000D03*
D21*
X182880000Y-121920000D02*
X185420000Y-124460000D01*
X182880000Y-118110000D02*
X182880000Y-121920000D01*
X185420000Y-114300000D02*
X185420000Y-118110000D01*
X181610000Y-110490000D02*
X185420000Y-114300000D01*
X87630000Y-110490000D02*
X181610000Y-110490000D01*
X85090000Y-107950000D02*
X87630000Y-110490000D01*
X69850000Y-80010000D02*
X77470000Y-80010000D01*
X67310000Y-82550000D02*
X69850000Y-80010000D01*
X77470000Y-80010000D02*
X81280000Y-83820000D01*
X81280000Y-83820000D02*
X81280000Y-100330000D01*
X81280000Y-100330000D02*
X85090000Y-104140000D01*
X85090000Y-104140000D02*
X85090000Y-107950000D01*
X41910000Y-86360000D02*
X41910000Y-82550000D01*
X38100000Y-90170000D02*
X41910000Y-86360000D01*
X38100000Y-125603000D02*
X38100000Y-90170000D01*
X42737010Y-130240010D02*
X38100000Y-125603000D01*
X139065000Y-118110000D02*
X142875000Y-114300000D01*
X179705000Y-125730000D02*
X175194990Y-130240010D01*
X142875000Y-114300000D02*
X178435000Y-114300000D01*
X178435000Y-114300000D02*
X179705000Y-115570000D01*
X179705000Y-115570000D02*
X179705000Y-125730000D01*
X175194990Y-130240010D02*
X42737010Y-130240010D01*
X136525000Y-122555000D02*
X138430000Y-124460000D01*
X136525000Y-118110000D02*
X136525000Y-122555000D01*
X90170000Y-118110000D02*
X90170000Y-124460000D01*
X39878000Y-89662000D02*
X46990000Y-82550000D01*
X92710000Y-118110000D02*
X92710000Y-124460000D01*
X87630000Y-129540000D02*
X43460037Y-129540000D01*
X43460037Y-129540000D02*
X39177990Y-125257953D01*
X92710000Y-124460000D02*
X87630000Y-129540000D01*
X39177990Y-125257953D02*
X39177990Y-90362010D01*
X39177990Y-90362010D02*
X39878000Y-89662000D01*
D22*
X50260000Y-119380000D02*
X48260000Y-119380000D01*
D21*
X48260000Y-117130000D02*
X49820000Y-115570000D01*
X48260000Y-119380000D02*
X48260000Y-117130000D01*
X69850000Y-115570000D02*
X77470000Y-107950000D01*
X49820000Y-115570000D02*
X69850000Y-115570000D01*
X48610000Y-113030000D02*
X42260000Y-119380000D01*
X74930000Y-107950000D02*
X69850000Y-113030000D01*
X69850000Y-113030000D02*
X48610000Y-113030000D01*
X63530001Y-83850001D02*
X63530001Y-86390001D01*
X62230000Y-82550000D02*
X63530001Y-83850001D01*
X63530001Y-86390001D02*
X82550000Y-105410000D01*
X82550000Y-105410000D02*
X82550000Y-107950000D01*
X82550000Y-107950000D02*
X88900000Y-114300000D01*
X88900000Y-114300000D02*
X95250000Y-114300000D01*
X95250000Y-114300000D02*
X97790000Y-116840000D01*
X97790000Y-124460000D02*
X130810000Y-124460000D01*
X134620000Y-128270000D02*
X130810000Y-124460000D01*
X177800000Y-124460000D02*
X173990000Y-128270000D01*
X173990000Y-128270000D02*
X134620000Y-128270000D01*
X177800000Y-119380000D02*
X177800000Y-124460000D01*
X64920000Y-118110000D02*
X72390000Y-118110000D01*
X72390000Y-118110000D02*
X81280000Y-109220000D01*
X81280000Y-109220000D02*
X81280000Y-106680000D01*
X81280000Y-106680000D02*
X57150000Y-82550000D01*
X97790000Y-119380000D02*
X93980000Y-115570000D01*
X87630000Y-115570000D02*
X81280000Y-109220000D01*
X93980000Y-115570000D02*
X87630000Y-115570000D01*
X97790000Y-119380000D02*
X97790000Y-124460000D01*
X130810000Y-119380000D02*
X130810000Y-124460000D01*
X104140000Y-116840000D02*
X99060000Y-111760000D01*
X130810000Y-116840000D02*
X104140000Y-116840000D01*
X69850000Y-90170000D02*
X69850000Y-82550000D01*
X87630000Y-111760000D02*
X83820000Y-107950000D01*
X83820000Y-104140000D02*
X69850000Y-90170000D01*
X99060000Y-111760000D02*
X87630000Y-111760000D01*
X83820000Y-107950000D02*
X83820000Y-104140000D01*
X158750000Y-116840000D02*
X177800000Y-116840000D01*
X36830000Y-83820000D02*
X36830000Y-127000000D01*
X41910000Y-132080000D02*
X175260000Y-132080000D01*
X62230000Y-80010000D02*
X40640000Y-80010000D01*
X36830000Y-127000000D02*
X41910000Y-132080000D01*
X64770000Y-82550000D02*
X62230000Y-80010000D01*
X181040008Y-126365000D02*
X181040008Y-115280046D01*
X40640000Y-80010000D02*
X36830000Y-83820000D01*
X138994998Y-113030000D02*
X134620000Y-117404998D01*
X180975000Y-126365000D02*
X181040008Y-126365000D01*
X181040008Y-115280046D02*
X178789962Y-113030000D01*
X175260000Y-132080000D02*
X180975000Y-126365000D01*
X178789962Y-113030000D02*
X138994998Y-113030000D01*
X134620000Y-117404998D02*
X134620000Y-122500002D01*
X134620000Y-122500002D02*
X139119998Y-127000000D01*
X139119998Y-127000000D02*
X148590000Y-127000000D01*
X148590000Y-127000000D02*
X158750000Y-116840000D01*
X54610000Y-118110000D02*
X58420000Y-118110000D01*
X52070000Y-82550000D02*
X39878000Y-94742000D01*
X39878000Y-94742000D02*
X39878000Y-124968000D01*
X52070000Y-120650000D02*
X54610000Y-118110000D01*
X41910000Y-127000000D02*
X48260000Y-127000000D01*
X39878000Y-124968000D02*
X41910000Y-127000000D01*
X48260000Y-127000000D02*
X52070000Y-123190000D01*
X52070000Y-123190000D02*
X52070000Y-120650000D01*
D23*
G36*
X182044509Y-122478258D02*
G01*
X182169473Y-122630528D01*
X182207632Y-122661844D01*
X183875348Y-124329561D01*
X183862501Y-124460000D01*
X183892428Y-124763853D01*
X183981059Y-125056029D01*
X184124987Y-125325300D01*
X184318682Y-125561318D01*
X184554700Y-125755013D01*
X184823971Y-125898941D01*
X185116147Y-125987572D01*
X185343862Y-126010000D01*
X185496138Y-126010000D01*
X185723853Y-125987572D01*
X186016029Y-125898941D01*
X186285300Y-125755013D01*
X186521318Y-125561318D01*
X186715013Y-125325300D01*
X186742035Y-125274745D01*
X186742035Y-126075550D01*
X181386924Y-132767846D01*
X175989143Y-132767846D01*
X176001849Y-132752363D01*
X181502573Y-127251641D01*
X181598266Y-127200492D01*
X181750536Y-127075528D01*
X181875500Y-126923258D01*
X181968357Y-126749535D01*
X182025538Y-126561034D01*
X182044846Y-126365000D01*
X182040008Y-126315880D01*
X182040008Y-122469837D01*
X182044509Y-122478258D01*
X182044509Y-122478258D01*
G37*
X182044509Y-122478258D02*
X182169473Y-122630528D01*
X182207632Y-122661844D01*
X183875348Y-124329561D01*
X183862501Y-124460000D01*
X183892428Y-124763853D01*
X183981059Y-125056029D01*
X184124987Y-125325300D01*
X184318682Y-125561318D01*
X184554700Y-125755013D01*
X184823971Y-125898941D01*
X185116147Y-125987572D01*
X185343862Y-126010000D01*
X185496138Y-126010000D01*
X185723853Y-125987572D01*
X186016029Y-125898941D01*
X186285300Y-125755013D01*
X186521318Y-125561318D01*
X186715013Y-125325300D01*
X186742035Y-125274745D01*
X186742035Y-126075550D01*
X181386924Y-132767846D01*
X175989143Y-132767846D01*
X176001849Y-132752363D01*
X181502573Y-127251641D01*
X181598266Y-127200492D01*
X181750536Y-127075528D01*
X181875500Y-126923258D01*
X181968357Y-126749535D01*
X182025538Y-126561034D01*
X182044846Y-126365000D01*
X182040008Y-126315880D01*
X182040008Y-122469837D01*
X182044509Y-122478258D01*
G36*
X96199611Y-119203824D02*
G01*
X96182259Y-119380000D01*
X96213151Y-119693655D01*
X96304641Y-119995256D01*
X96453212Y-120273213D01*
X96653155Y-120516845D01*
X96790000Y-120629151D01*
X96790001Y-123275532D01*
X96688682Y-123358682D01*
X96494987Y-123594700D01*
X96351059Y-123863971D01*
X96262428Y-124156147D01*
X96232501Y-124460000D01*
X96262428Y-124763853D01*
X96351059Y-125056029D01*
X96494987Y-125325300D01*
X96688682Y-125561318D01*
X96924700Y-125755013D01*
X97193971Y-125898941D01*
X97486147Y-125987572D01*
X97713862Y-126010000D01*
X97866138Y-126010000D01*
X98093853Y-125987572D01*
X98386029Y-125898941D01*
X98655300Y-125755013D01*
X98891318Y-125561318D01*
X98974468Y-125460000D01*
X129625532Y-125460000D01*
X129708682Y-125561318D01*
X129944700Y-125755013D01*
X130213971Y-125898941D01*
X130506147Y-125987572D01*
X130733862Y-126010000D01*
X130886138Y-126010000D01*
X130940439Y-126004652D01*
X133878160Y-128942374D01*
X133909472Y-128980528D01*
X133947625Y-129011839D01*
X133947626Y-129011840D01*
X134061742Y-129105492D01*
X134235465Y-129198349D01*
X134372803Y-129240010D01*
X89344202Y-129240010D01*
X93382368Y-125201845D01*
X93420528Y-125170528D01*
X93545492Y-125018258D01*
X93638349Y-124844535D01*
X93695530Y-124656034D01*
X93710000Y-124509120D01*
X93714838Y-124460000D01*
X93710000Y-124410880D01*
X93710000Y-119426260D01*
X93761814Y-119391639D01*
X93991639Y-119161814D01*
X94172211Y-118891568D01*
X94296592Y-118591287D01*
X94360000Y-118272511D01*
X94360000Y-117947489D01*
X94296592Y-117628713D01*
X94172211Y-117328432D01*
X93991639Y-117058186D01*
X93761814Y-116828361D01*
X93491568Y-116647789D01*
X93303770Y-116570000D01*
X93565788Y-116570000D01*
X96199611Y-119203824D01*
X96199611Y-119203824D01*
G37*
X96199611Y-119203824D02*
X96182259Y-119380000D01*
X96213151Y-119693655D01*
X96304641Y-119995256D01*
X96453212Y-120273213D01*
X96653155Y-120516845D01*
X96790000Y-120629151D01*
X96790001Y-123275532D01*
X96688682Y-123358682D01*
X96494987Y-123594700D01*
X96351059Y-123863971D01*
X96262428Y-124156147D01*
X96232501Y-124460000D01*
X96262428Y-124763853D01*
X96351059Y-125056029D01*
X96494987Y-125325300D01*
X96688682Y-125561318D01*
X96924700Y-125755013D01*
X97193971Y-125898941D01*
X97486147Y-125987572D01*
X97713862Y-126010000D01*
X97866138Y-126010000D01*
X98093853Y-125987572D01*
X98386029Y-125898941D01*
X98655300Y-125755013D01*
X98891318Y-125561318D01*
X98974468Y-125460000D01*
X129625532Y-125460000D01*
X129708682Y-125561318D01*
X129944700Y-125755013D01*
X130213971Y-125898941D01*
X130506147Y-125987572D01*
X130733862Y-126010000D01*
X130886138Y-126010000D01*
X130940439Y-126004652D01*
X133878160Y-128942374D01*
X133909472Y-128980528D01*
X133947625Y-129011839D01*
X133947626Y-129011840D01*
X134061742Y-129105492D01*
X134235465Y-129198349D01*
X134372803Y-129240010D01*
X89344202Y-129240010D01*
X93382368Y-125201845D01*
X93420528Y-125170528D01*
X93545492Y-125018258D01*
X93638349Y-124844535D01*
X93695530Y-124656034D01*
X93710000Y-124509120D01*
X93714838Y-124460000D01*
X93710000Y-124410880D01*
X93710000Y-119426260D01*
X93761814Y-119391639D01*
X93991639Y-119161814D01*
X94172211Y-118891568D01*
X94296592Y-118591287D01*
X94360000Y-118272511D01*
X94360000Y-117947489D01*
X94296592Y-117628713D01*
X94172211Y-117328432D01*
X93991639Y-117058186D01*
X93761814Y-116828361D01*
X93491568Y-116647789D01*
X93303770Y-116570000D01*
X93565788Y-116570000D01*
X96199611Y-119203824D01*
G36*
X174780778Y-129240010D02*
G01*
X174237197Y-129240010D01*
X174374535Y-129198349D01*
X174548258Y-129105492D01*
X174700528Y-128980528D01*
X174731849Y-128942363D01*
X177664214Y-126010000D01*
X177952662Y-126010000D01*
X178025220Y-125995567D01*
X174780778Y-129240010D01*
X174780778Y-129240010D01*
G37*
X174780778Y-129240010D02*
X174237197Y-129240010D01*
X174374535Y-129198349D01*
X174548258Y-129105492D01*
X174700528Y-128980528D01*
X174731849Y-128942363D01*
X177664214Y-126010000D01*
X177952662Y-126010000D01*
X178025220Y-125995567D01*
X174780778Y-129240010D01*
G36*
X86888155Y-116242368D02*
G01*
X86919472Y-116280528D01*
X87071742Y-116405492D01*
X87245465Y-116498349D01*
X87433966Y-116555530D01*
X87580880Y-116570000D01*
X87580881Y-116570000D01*
X87629999Y-116574838D01*
X87679117Y-116570000D01*
X88876341Y-116570000D01*
X88851307Y-116583381D01*
X88737105Y-116677105D01*
X88643381Y-116791307D01*
X88573739Y-116921599D01*
X88530853Y-117062974D01*
X88516372Y-117210000D01*
X88516372Y-119010000D01*
X88530853Y-119157026D01*
X88573739Y-119298401D01*
X88643381Y-119428693D01*
X88737105Y-119542895D01*
X88851307Y-119636619D01*
X88981599Y-119706261D01*
X89122974Y-119749147D01*
X89170000Y-119753779D01*
X89170001Y-123267967D01*
X88966036Y-123471932D01*
X88796408Y-123725800D01*
X88679565Y-124007882D01*
X88620000Y-124307338D01*
X88620000Y-124612662D01*
X88679565Y-124912118D01*
X88796408Y-125194200D01*
X88966036Y-125448068D01*
X89181932Y-125663964D01*
X89435800Y-125833592D01*
X89717882Y-125950435D01*
X89790840Y-125964947D01*
X87215788Y-128540000D01*
X43874250Y-128540000D01*
X43334250Y-128000000D01*
X48210880Y-128000000D01*
X48260000Y-128004838D01*
X48309120Y-128000000D01*
X48456034Y-127985530D01*
X48644535Y-127928349D01*
X48818258Y-127835492D01*
X48970528Y-127710528D01*
X49001849Y-127672363D01*
X52742374Y-123931840D01*
X52780528Y-123900528D01*
X52905492Y-123748258D01*
X52998349Y-123574535D01*
X53055530Y-123386034D01*
X53070000Y-123239120D01*
X53070000Y-123239119D01*
X53074838Y-123190000D01*
X53070000Y-123140880D01*
X53070000Y-122452414D01*
X56820000Y-122452414D01*
X56820000Y-122767586D01*
X56881487Y-123076703D01*
X57002098Y-123367884D01*
X57177199Y-123629941D01*
X57400059Y-123852801D01*
X57662116Y-124027902D01*
X57953297Y-124148513D01*
X58262414Y-124210000D01*
X58577586Y-124210000D01*
X58886703Y-124148513D01*
X59177884Y-124027902D01*
X59439941Y-123852801D01*
X59662801Y-123629941D01*
X59837902Y-123367884D01*
X59958513Y-123076703D01*
X60020000Y-122767586D01*
X60020000Y-122452414D01*
X63320000Y-122452414D01*
X63320000Y-122767586D01*
X63381487Y-123076703D01*
X63502098Y-123367884D01*
X63677199Y-123629941D01*
X63900059Y-123852801D01*
X64162116Y-124027902D01*
X64453297Y-124148513D01*
X64762414Y-124210000D01*
X65077586Y-124210000D01*
X65386703Y-124148513D01*
X65677884Y-124027902D01*
X65939941Y-123852801D01*
X66162801Y-123629941D01*
X66337902Y-123367884D01*
X66458513Y-123076703D01*
X66520000Y-122767586D01*
X66520000Y-122452414D01*
X66458513Y-122143297D01*
X66337902Y-121852116D01*
X66162801Y-121590059D01*
X65939941Y-121367199D01*
X65677884Y-121192098D01*
X65386703Y-121071487D01*
X65077586Y-121010000D01*
X64762414Y-121010000D01*
X64453297Y-121071487D01*
X64162116Y-121192098D01*
X63900059Y-121367199D01*
X63677199Y-121590059D01*
X63502098Y-121852116D01*
X63381487Y-122143297D01*
X63320000Y-122452414D01*
X60020000Y-122452414D01*
X59958513Y-122143297D01*
X59837902Y-121852116D01*
X59662801Y-121590059D01*
X59439941Y-121367199D01*
X59177884Y-121192098D01*
X58886703Y-121071487D01*
X58577586Y-121010000D01*
X58262414Y-121010000D01*
X57953297Y-121071487D01*
X57662116Y-121192098D01*
X57400059Y-121367199D01*
X57177199Y-121590059D01*
X57002098Y-121852116D01*
X56881487Y-122143297D01*
X56820000Y-122452414D01*
X53070000Y-122452414D01*
X53070000Y-121064212D01*
X55024214Y-119110000D01*
X57163875Y-119110000D01*
X57177199Y-119129941D01*
X57400059Y-119352801D01*
X57662116Y-119527902D01*
X57953297Y-119648513D01*
X58262414Y-119710000D01*
X58577586Y-119710000D01*
X58886703Y-119648513D01*
X59177884Y-119527902D01*
X59439941Y-119352801D01*
X59662801Y-119129941D01*
X59837902Y-118867884D01*
X59958513Y-118576703D01*
X60020000Y-118267586D01*
X60020000Y-117952414D01*
X59958513Y-117643297D01*
X59837902Y-117352116D01*
X59662801Y-117090059D01*
X59439941Y-116867199D01*
X59177884Y-116692098D01*
X58886703Y-116571487D01*
X58879227Y-116570000D01*
X64460773Y-116570000D01*
X64453297Y-116571487D01*
X64162116Y-116692098D01*
X63900059Y-116867199D01*
X63677199Y-117090059D01*
X63502098Y-117352116D01*
X63381487Y-117643297D01*
X63320000Y-117952414D01*
X63320000Y-118267586D01*
X63381487Y-118576703D01*
X63502098Y-118867884D01*
X63677199Y-119129941D01*
X63900059Y-119352801D01*
X64162116Y-119527902D01*
X64453297Y-119648513D01*
X64762414Y-119710000D01*
X65077586Y-119710000D01*
X65386703Y-119648513D01*
X65677884Y-119527902D01*
X65939941Y-119352801D01*
X66162801Y-119129941D01*
X66176125Y-119110000D01*
X72340880Y-119110000D01*
X72390000Y-119114838D01*
X72439120Y-119110000D01*
X72586034Y-119095530D01*
X72774535Y-119038349D01*
X72948258Y-118945492D01*
X73100528Y-118820528D01*
X73131849Y-118782363D01*
X81280001Y-110634213D01*
X86888155Y-116242368D01*
X86888155Y-116242368D01*
G37*
X86888155Y-116242368D02*
X86919472Y-116280528D01*
X87071742Y-116405492D01*
X87245465Y-116498349D01*
X87433966Y-116555530D01*
X87580880Y-116570000D01*
X87580881Y-116570000D01*
X87629999Y-116574838D01*
X87679117Y-116570000D01*
X88876341Y-116570000D01*
X88851307Y-116583381D01*
X88737105Y-116677105D01*
X88643381Y-116791307D01*
X88573739Y-116921599D01*
X88530853Y-117062974D01*
X88516372Y-117210000D01*
X88516372Y-119010000D01*
X88530853Y-119157026D01*
X88573739Y-119298401D01*
X88643381Y-119428693D01*
X88737105Y-119542895D01*
X88851307Y-119636619D01*
X88981599Y-119706261D01*
X89122974Y-119749147D01*
X89170000Y-119753779D01*
X89170001Y-123267967D01*
X88966036Y-123471932D01*
X88796408Y-123725800D01*
X88679565Y-124007882D01*
X88620000Y-124307338D01*
X88620000Y-124612662D01*
X88679565Y-124912118D01*
X88796408Y-125194200D01*
X88966036Y-125448068D01*
X89181932Y-125663964D01*
X89435800Y-125833592D01*
X89717882Y-125950435D01*
X89790840Y-125964947D01*
X87215788Y-128540000D01*
X43874250Y-128540000D01*
X43334250Y-128000000D01*
X48210880Y-128000000D01*
X48260000Y-128004838D01*
X48309120Y-128000000D01*
X48456034Y-127985530D01*
X48644535Y-127928349D01*
X48818258Y-127835492D01*
X48970528Y-127710528D01*
X49001849Y-127672363D01*
X52742374Y-123931840D01*
X52780528Y-123900528D01*
X52905492Y-123748258D01*
X52998349Y-123574535D01*
X53055530Y-123386034D01*
X53070000Y-123239120D01*
X53070000Y-123239119D01*
X53074838Y-123190000D01*
X53070000Y-123140880D01*
X53070000Y-122452414D01*
X56820000Y-122452414D01*
X56820000Y-122767586D01*
X56881487Y-123076703D01*
X57002098Y-123367884D01*
X57177199Y-123629941D01*
X57400059Y-123852801D01*
X57662116Y-124027902D01*
X57953297Y-124148513D01*
X58262414Y-124210000D01*
X58577586Y-124210000D01*
X58886703Y-124148513D01*
X59177884Y-124027902D01*
X59439941Y-123852801D01*
X59662801Y-123629941D01*
X59837902Y-123367884D01*
X59958513Y-123076703D01*
X60020000Y-122767586D01*
X60020000Y-122452414D01*
X63320000Y-122452414D01*
X63320000Y-122767586D01*
X63381487Y-123076703D01*
X63502098Y-123367884D01*
X63677199Y-123629941D01*
X63900059Y-123852801D01*
X64162116Y-124027902D01*
X64453297Y-124148513D01*
X64762414Y-124210000D01*
X65077586Y-124210000D01*
X65386703Y-124148513D01*
X65677884Y-124027902D01*
X65939941Y-123852801D01*
X66162801Y-123629941D01*
X66337902Y-123367884D01*
X66458513Y-123076703D01*
X66520000Y-122767586D01*
X66520000Y-122452414D01*
X66458513Y-122143297D01*
X66337902Y-121852116D01*
X66162801Y-121590059D01*
X65939941Y-121367199D01*
X65677884Y-121192098D01*
X65386703Y-121071487D01*
X65077586Y-121010000D01*
X64762414Y-121010000D01*
X64453297Y-121071487D01*
X64162116Y-121192098D01*
X63900059Y-121367199D01*
X63677199Y-121590059D01*
X63502098Y-121852116D01*
X63381487Y-122143297D01*
X63320000Y-122452414D01*
X60020000Y-122452414D01*
X59958513Y-122143297D01*
X59837902Y-121852116D01*
X59662801Y-121590059D01*
X59439941Y-121367199D01*
X59177884Y-121192098D01*
X58886703Y-121071487D01*
X58577586Y-121010000D01*
X58262414Y-121010000D01*
X57953297Y-121071487D01*
X57662116Y-121192098D01*
X57400059Y-121367199D01*
X57177199Y-121590059D01*
X57002098Y-121852116D01*
X56881487Y-122143297D01*
X56820000Y-122452414D01*
X53070000Y-122452414D01*
X53070000Y-121064212D01*
X55024214Y-119110000D01*
X57163875Y-119110000D01*
X57177199Y-119129941D01*
X57400059Y-119352801D01*
X57662116Y-119527902D01*
X57953297Y-119648513D01*
X58262414Y-119710000D01*
X58577586Y-119710000D01*
X58886703Y-119648513D01*
X59177884Y-119527902D01*
X59439941Y-119352801D01*
X59662801Y-119129941D01*
X59837902Y-118867884D01*
X59958513Y-118576703D01*
X60020000Y-118267586D01*
X60020000Y-117952414D01*
X59958513Y-117643297D01*
X59837902Y-117352116D01*
X59662801Y-117090059D01*
X59439941Y-116867199D01*
X59177884Y-116692098D01*
X58886703Y-116571487D01*
X58879227Y-116570000D01*
X64460773Y-116570000D01*
X64453297Y-116571487D01*
X64162116Y-116692098D01*
X63900059Y-116867199D01*
X63677199Y-117090059D01*
X63502098Y-117352116D01*
X63381487Y-117643297D01*
X63320000Y-117952414D01*
X63320000Y-118267586D01*
X63381487Y-118576703D01*
X63502098Y-118867884D01*
X63677199Y-119129941D01*
X63900059Y-119352801D01*
X64162116Y-119527902D01*
X64453297Y-119648513D01*
X64762414Y-119710000D01*
X65077586Y-119710000D01*
X65386703Y-119648513D01*
X65677884Y-119527902D01*
X65939941Y-119352801D01*
X66162801Y-119129941D01*
X66176125Y-119110000D01*
X72340880Y-119110000D01*
X72390000Y-119114838D01*
X72439120Y-119110000D01*
X72586034Y-119095530D01*
X72774535Y-119038349D01*
X72948258Y-118945492D01*
X73100528Y-118820528D01*
X73131849Y-118782363D01*
X81280001Y-110634213D01*
X86888155Y-116242368D01*
G36*
X184420000Y-114714214D02*
G01*
X184420001Y-116793740D01*
X184411099Y-116799688D01*
X184406619Y-116791307D01*
X184312895Y-116677105D01*
X184198693Y-116583381D01*
X184068401Y-116513739D01*
X183927026Y-116470853D01*
X183780000Y-116456372D01*
X182040008Y-116456372D01*
X182040008Y-115329166D01*
X182044846Y-115280046D01*
X182025538Y-115084012D01*
X181968357Y-114895511D01*
X181875500Y-114721788D01*
X181781848Y-114607672D01*
X181750536Y-114569518D01*
X181712382Y-114538206D01*
X179531811Y-112357637D01*
X179500490Y-112319472D01*
X179348220Y-112194508D01*
X179174497Y-112101651D01*
X178985996Y-112044470D01*
X178839082Y-112030000D01*
X178789962Y-112025162D01*
X178740842Y-112030000D01*
X139044118Y-112030000D01*
X138994998Y-112025162D01*
X138945878Y-112030000D01*
X138798964Y-112044470D01*
X138610463Y-112101651D01*
X138436740Y-112194508D01*
X138284470Y-112319472D01*
X138253158Y-112357626D01*
X133947637Y-116663149D01*
X133909472Y-116694470D01*
X133784508Y-116846740D01*
X133707491Y-116990829D01*
X133691651Y-117020464D01*
X133634470Y-117208964D01*
X133615162Y-117404998D01*
X133620000Y-117454118D01*
X133620001Y-122450872D01*
X133615162Y-122500002D01*
X133634470Y-122696036D01*
X133691651Y-122884536D01*
X133721049Y-122939535D01*
X133784509Y-123058260D01*
X133909473Y-123210530D01*
X133947632Y-123241846D01*
X137975785Y-127270000D01*
X135034214Y-127270000D01*
X132354652Y-124590439D01*
X132367499Y-124460000D01*
X132337572Y-124156147D01*
X132248941Y-123863971D01*
X132105013Y-123594700D01*
X131911318Y-123358682D01*
X131810000Y-123275532D01*
X131810000Y-120629150D01*
X131946845Y-120516845D01*
X132146788Y-120273213D01*
X132295359Y-119995256D01*
X132386849Y-119693655D01*
X132417741Y-119380000D01*
X132386849Y-119066345D01*
X132295359Y-118764744D01*
X132146788Y-118486787D01*
X132028954Y-118343205D01*
X132078693Y-118316619D01*
X132192895Y-118222895D01*
X132286619Y-118108693D01*
X132356261Y-117978401D01*
X132399147Y-117837026D01*
X132413628Y-117690000D01*
X132413628Y-115990000D01*
X132399147Y-115842974D01*
X132356261Y-115701599D01*
X132286619Y-115571307D01*
X132192895Y-115457105D01*
X132078693Y-115363381D01*
X131948401Y-115293739D01*
X131807026Y-115250853D01*
X131660000Y-115236372D01*
X129960000Y-115236372D01*
X129812974Y-115250853D01*
X129671599Y-115293739D01*
X129541307Y-115363381D01*
X129427105Y-115457105D01*
X129333381Y-115571307D01*
X129263739Y-115701599D01*
X129221755Y-115840000D01*
X104554213Y-115840000D01*
X100204212Y-111490000D01*
X181195788Y-111490000D01*
X184420000Y-114714214D01*
X184420000Y-114714214D01*
G37*
X184420000Y-114714214D02*
X184420001Y-116793740D01*
X184411099Y-116799688D01*
X184406619Y-116791307D01*
X184312895Y-116677105D01*
X184198693Y-116583381D01*
X184068401Y-116513739D01*
X183927026Y-116470853D01*
X183780000Y-116456372D01*
X182040008Y-116456372D01*
X182040008Y-115329166D01*
X182044846Y-115280046D01*
X182025538Y-115084012D01*
X181968357Y-114895511D01*
X181875500Y-114721788D01*
X181781848Y-114607672D01*
X181750536Y-114569518D01*
X181712382Y-114538206D01*
X179531811Y-112357637D01*
X179500490Y-112319472D01*
X179348220Y-112194508D01*
X179174497Y-112101651D01*
X178985996Y-112044470D01*
X178839082Y-112030000D01*
X178789962Y-112025162D01*
X178740842Y-112030000D01*
X139044118Y-112030000D01*
X138994998Y-112025162D01*
X138945878Y-112030000D01*
X138798964Y-112044470D01*
X138610463Y-112101651D01*
X138436740Y-112194508D01*
X138284470Y-112319472D01*
X138253158Y-112357626D01*
X133947637Y-116663149D01*
X133909472Y-116694470D01*
X133784508Y-116846740D01*
X133707491Y-116990829D01*
X133691651Y-117020464D01*
X133634470Y-117208964D01*
X133615162Y-117404998D01*
X133620000Y-117454118D01*
X133620001Y-122450872D01*
X133615162Y-122500002D01*
X133634470Y-122696036D01*
X133691651Y-122884536D01*
X133721049Y-122939535D01*
X133784509Y-123058260D01*
X133909473Y-123210530D01*
X133947632Y-123241846D01*
X137975785Y-127270000D01*
X135034214Y-127270000D01*
X132354652Y-124590439D01*
X132367499Y-124460000D01*
X132337572Y-124156147D01*
X132248941Y-123863971D01*
X132105013Y-123594700D01*
X131911318Y-123358682D01*
X131810000Y-123275532D01*
X131810000Y-120629150D01*
X131946845Y-120516845D01*
X132146788Y-120273213D01*
X132295359Y-119995256D01*
X132386849Y-119693655D01*
X132417741Y-119380000D01*
X132386849Y-119066345D01*
X132295359Y-118764744D01*
X132146788Y-118486787D01*
X132028954Y-118343205D01*
X132078693Y-118316619D01*
X132192895Y-118222895D01*
X132286619Y-118108693D01*
X132356261Y-117978401D01*
X132399147Y-117837026D01*
X132413628Y-117690000D01*
X132413628Y-115990000D01*
X132399147Y-115842974D01*
X132356261Y-115701599D01*
X132286619Y-115571307D01*
X132192895Y-115457105D01*
X132078693Y-115363381D01*
X131948401Y-115293739D01*
X131807026Y-115250853D01*
X131660000Y-115236372D01*
X129960000Y-115236372D01*
X129812974Y-115250853D01*
X129671599Y-115293739D01*
X129541307Y-115363381D01*
X129427105Y-115457105D01*
X129333381Y-115571307D01*
X129263739Y-115701599D01*
X129221755Y-115840000D01*
X104554213Y-115840000D01*
X100204212Y-111490000D01*
X181195788Y-111490000D01*
X184420000Y-114714214D01*
G36*
X176253739Y-117978401D02*
G01*
X176323381Y-118108693D01*
X176417105Y-118222895D01*
X176531307Y-118316619D01*
X176581046Y-118343205D01*
X176463212Y-118486787D01*
X176314641Y-118764744D01*
X176223151Y-119066345D01*
X176192259Y-119380000D01*
X176223151Y-119693655D01*
X176314641Y-119995256D01*
X176463212Y-120273213D01*
X176663155Y-120516845D01*
X176800000Y-120629151D01*
X176800001Y-123267967D01*
X176596036Y-123471932D01*
X176426408Y-123725800D01*
X176309565Y-124007882D01*
X176250000Y-124307338D01*
X176250000Y-124595786D01*
X173575788Y-127270000D01*
X149734212Y-127270000D01*
X159164214Y-117840000D01*
X176211755Y-117840000D01*
X176253739Y-117978401D01*
X176253739Y-117978401D01*
G37*
X176253739Y-117978401D02*
X176323381Y-118108693D01*
X176417105Y-118222895D01*
X176531307Y-118316619D01*
X176581046Y-118343205D01*
X176463212Y-118486787D01*
X176314641Y-118764744D01*
X176223151Y-119066345D01*
X176192259Y-119380000D01*
X176223151Y-119693655D01*
X176314641Y-119995256D01*
X176463212Y-120273213D01*
X176663155Y-120516845D01*
X176800000Y-120629151D01*
X176800001Y-123267967D01*
X176596036Y-123471932D01*
X176426408Y-123725800D01*
X176309565Y-124007882D01*
X176250000Y-124307338D01*
X176250000Y-124595786D01*
X173575788Y-127270000D01*
X149734212Y-127270000D01*
X159164214Y-117840000D01*
X176211755Y-117840000D01*
X176253739Y-117978401D01*
G36*
X176531307Y-115363381D02*
G01*
X176417105Y-115457105D01*
X176323381Y-115571307D01*
X176253739Y-115701599D01*
X176211755Y-115840000D01*
X158799120Y-115840000D01*
X158750000Y-115835162D01*
X158700880Y-115840000D01*
X158553966Y-115854470D01*
X158365465Y-115911651D01*
X158191742Y-116004508D01*
X158039472Y-116129472D01*
X158008161Y-116167625D01*
X148175788Y-126000000D01*
X139534211Y-126000000D01*
X139286251Y-125752040D01*
X139418068Y-125663964D01*
X139633964Y-125448068D01*
X139803592Y-125194200D01*
X139920435Y-124912118D01*
X139980000Y-124612662D01*
X139980000Y-124307338D01*
X139920435Y-124007882D01*
X139803592Y-123725800D01*
X139633964Y-123471932D01*
X139418068Y-123256036D01*
X139164200Y-123086408D01*
X138882118Y-122969565D01*
X138582662Y-122910000D01*
X138294213Y-122910000D01*
X137525000Y-122140788D01*
X137525000Y-119753779D01*
X137572026Y-119749147D01*
X137713401Y-119706261D01*
X137843693Y-119636619D01*
X137957895Y-119542895D01*
X138051619Y-119428693D01*
X138056099Y-119420312D01*
X138283432Y-119572211D01*
X138583713Y-119696592D01*
X138902489Y-119760000D01*
X139227511Y-119760000D01*
X139546287Y-119696592D01*
X139846568Y-119572211D01*
X140116814Y-119391639D01*
X140346639Y-119161814D01*
X140527211Y-118891568D01*
X140651592Y-118591287D01*
X140715000Y-118272511D01*
X140715000Y-117947489D01*
X140702843Y-117886370D01*
X143289214Y-115300000D01*
X176649885Y-115300000D01*
X176531307Y-115363381D01*
X176531307Y-115363381D01*
G37*
X176531307Y-115363381D02*
X176417105Y-115457105D01*
X176323381Y-115571307D01*
X176253739Y-115701599D01*
X176211755Y-115840000D01*
X158799120Y-115840000D01*
X158750000Y-115835162D01*
X158700880Y-115840000D01*
X158553966Y-115854470D01*
X158365465Y-115911651D01*
X158191742Y-116004508D01*
X158039472Y-116129472D01*
X158008161Y-116167625D01*
X148175788Y-126000000D01*
X139534211Y-126000000D01*
X139286251Y-125752040D01*
X139418068Y-125663964D01*
X139633964Y-125448068D01*
X139803592Y-125194200D01*
X139920435Y-124912118D01*
X139980000Y-124612662D01*
X139980000Y-124307338D01*
X139920435Y-124007882D01*
X139803592Y-123725800D01*
X139633964Y-123471932D01*
X139418068Y-123256036D01*
X139164200Y-123086408D01*
X138882118Y-122969565D01*
X138582662Y-122910000D01*
X138294213Y-122910000D01*
X137525000Y-122140788D01*
X137525000Y-119753779D01*
X137572026Y-119749147D01*
X137713401Y-119706261D01*
X137843693Y-119636619D01*
X137957895Y-119542895D01*
X138051619Y-119428693D01*
X138056099Y-119420312D01*
X138283432Y-119572211D01*
X138583713Y-119696592D01*
X138902489Y-119760000D01*
X139227511Y-119760000D01*
X139546287Y-119696592D01*
X139846568Y-119572211D01*
X140116814Y-119391639D01*
X140346639Y-119161814D01*
X140527211Y-118891568D01*
X140651592Y-118591287D01*
X140715000Y-118272511D01*
X140715000Y-117947489D01*
X140702843Y-117886370D01*
X143289214Y-115300000D01*
X176649885Y-115300000D01*
X176531307Y-115363381D01*
G36*
X57953297Y-116571487D02*
G01*
X57662116Y-116692098D01*
X57400059Y-116867199D01*
X57177199Y-117090059D01*
X57163875Y-117110000D01*
X54659117Y-117110000D01*
X54609999Y-117105162D01*
X54560881Y-117110000D01*
X54560880Y-117110000D01*
X54413966Y-117124470D01*
X54225465Y-117181651D01*
X54051742Y-117274508D01*
X53899472Y-117399472D01*
X53868160Y-117437626D01*
X51397632Y-119908156D01*
X51359473Y-119939472D01*
X51234509Y-120091742D01*
X51184875Y-120184600D01*
X51141651Y-120265466D01*
X51084470Y-120453966D01*
X51065162Y-120650000D01*
X51070001Y-120699130D01*
X51070000Y-122775786D01*
X47845788Y-126000000D01*
X47374110Y-126000000D01*
X47489155Y-125859817D01*
X47639656Y-125578249D01*
X47732334Y-125272730D01*
X47763628Y-124955000D01*
X47763628Y-123205000D01*
X47732334Y-122887270D01*
X47639656Y-122581751D01*
X47489155Y-122300183D01*
X47286614Y-122053386D01*
X47079763Y-121883628D01*
X50010000Y-121883628D01*
X50157026Y-121869147D01*
X50298401Y-121826261D01*
X50428693Y-121756619D01*
X50542895Y-121662895D01*
X50636619Y-121548693D01*
X50706261Y-121418401D01*
X50749147Y-121277026D01*
X50763628Y-121130000D01*
X50763628Y-120098621D01*
X50881712Y-120001712D01*
X50991056Y-119868476D01*
X51072305Y-119716468D01*
X51122339Y-119551530D01*
X51139233Y-119380000D01*
X51122339Y-119208470D01*
X51072305Y-119043532D01*
X50991056Y-118891524D01*
X50881712Y-118758288D01*
X50763628Y-118661379D01*
X50763628Y-117630000D01*
X50749147Y-117482974D01*
X50706261Y-117341599D01*
X50636619Y-117211307D01*
X50542895Y-117097105D01*
X50428693Y-117003381D01*
X50298401Y-116933739D01*
X50157026Y-116890853D01*
X50010000Y-116876372D01*
X49927841Y-116876372D01*
X50234213Y-116570000D01*
X57960773Y-116570000D01*
X57953297Y-116571487D01*
X57953297Y-116571487D01*
G37*
X57953297Y-116571487D02*
X57662116Y-116692098D01*
X57400059Y-116867199D01*
X57177199Y-117090059D01*
X57163875Y-117110000D01*
X54659117Y-117110000D01*
X54609999Y-117105162D01*
X54560881Y-117110000D01*
X54560880Y-117110000D01*
X54413966Y-117124470D01*
X54225465Y-117181651D01*
X54051742Y-117274508D01*
X53899472Y-117399472D01*
X53868160Y-117437626D01*
X51397632Y-119908156D01*
X51359473Y-119939472D01*
X51234509Y-120091742D01*
X51184875Y-120184600D01*
X51141651Y-120265466D01*
X51084470Y-120453966D01*
X51065162Y-120650000D01*
X51070001Y-120699130D01*
X51070000Y-122775786D01*
X47845788Y-126000000D01*
X47374110Y-126000000D01*
X47489155Y-125859817D01*
X47639656Y-125578249D01*
X47732334Y-125272730D01*
X47763628Y-124955000D01*
X47763628Y-123205000D01*
X47732334Y-122887270D01*
X47639656Y-122581751D01*
X47489155Y-122300183D01*
X47286614Y-122053386D01*
X47079763Y-121883628D01*
X50010000Y-121883628D01*
X50157026Y-121869147D01*
X50298401Y-121826261D01*
X50428693Y-121756619D01*
X50542895Y-121662895D01*
X50636619Y-121548693D01*
X50706261Y-121418401D01*
X50749147Y-121277026D01*
X50763628Y-121130000D01*
X50763628Y-120098621D01*
X50881712Y-120001712D01*
X50991056Y-119868476D01*
X51072305Y-119716468D01*
X51122339Y-119551530D01*
X51139233Y-119380000D01*
X51122339Y-119208470D01*
X51072305Y-119043532D01*
X50991056Y-118891524D01*
X50881712Y-118758288D01*
X50763628Y-118661379D01*
X50763628Y-117630000D01*
X50749147Y-117482974D01*
X50706261Y-117341599D01*
X50636619Y-117211307D01*
X50542895Y-117097105D01*
X50428693Y-117003381D01*
X50298401Y-116933739D01*
X50157026Y-116890853D01*
X50010000Y-116876372D01*
X49927841Y-116876372D01*
X50234213Y-116570000D01*
X57960773Y-116570000D01*
X57953297Y-116571487D01*
G36*
X69435788Y-114570000D02*
G01*
X49869117Y-114570000D01*
X49819999Y-114565162D01*
X49770881Y-114570000D01*
X49770880Y-114570000D01*
X49623966Y-114584470D01*
X49435465Y-114641651D01*
X49261742Y-114734508D01*
X49109472Y-114859472D01*
X49078155Y-114897632D01*
X47587632Y-116388156D01*
X47549473Y-116419472D01*
X47424509Y-116571742D01*
X47383861Y-116647789D01*
X47331651Y-116745466D01*
X47291941Y-116876372D01*
X46510000Y-116876372D01*
X46362974Y-116890853D01*
X46221599Y-116933739D01*
X46091307Y-117003381D01*
X45977105Y-117097105D01*
X45883381Y-117211307D01*
X45813739Y-117341599D01*
X45770853Y-117482974D01*
X45756372Y-117630000D01*
X45756372Y-121130000D01*
X45770853Y-121277026D01*
X45813739Y-121418401D01*
X45883381Y-121548693D01*
X45906097Y-121576372D01*
X44385000Y-121576372D01*
X44067270Y-121607666D01*
X43761751Y-121700344D01*
X43480183Y-121850845D01*
X43233386Y-122053386D01*
X43030845Y-122300183D01*
X42880344Y-122581751D01*
X42787666Y-122887270D01*
X42756372Y-123205000D01*
X42756372Y-124955000D01*
X42787666Y-125272730D01*
X42880344Y-125578249D01*
X43030845Y-125859817D01*
X43145890Y-126000000D01*
X42324213Y-126000000D01*
X40878000Y-124553788D01*
X40878000Y-121738925D01*
X40934586Y-121769171D01*
X41216657Y-121854736D01*
X41510000Y-121883628D01*
X43010000Y-121883628D01*
X43303343Y-121854736D01*
X43585414Y-121769171D01*
X43845371Y-121630221D01*
X44073226Y-121443226D01*
X44260221Y-121215371D01*
X44399171Y-120955414D01*
X44484736Y-120673343D01*
X44513628Y-120380000D01*
X44513628Y-118540584D01*
X49024213Y-114030000D01*
X69800880Y-114030000D01*
X69850000Y-114034838D01*
X69899120Y-114030000D01*
X69984164Y-114021624D01*
X69435788Y-114570000D01*
X69435788Y-114570000D01*
G37*
X69435788Y-114570000D02*
X49869117Y-114570000D01*
X49819999Y-114565162D01*
X49770881Y-114570000D01*
X49770880Y-114570000D01*
X49623966Y-114584470D01*
X49435465Y-114641651D01*
X49261742Y-114734508D01*
X49109472Y-114859472D01*
X49078155Y-114897632D01*
X47587632Y-116388156D01*
X47549473Y-116419472D01*
X47424509Y-116571742D01*
X47383861Y-116647789D01*
X47331651Y-116745466D01*
X47291941Y-116876372D01*
X46510000Y-116876372D01*
X46362974Y-116890853D01*
X46221599Y-116933739D01*
X46091307Y-117003381D01*
X45977105Y-117097105D01*
X45883381Y-117211307D01*
X45813739Y-117341599D01*
X45770853Y-117482974D01*
X45756372Y-117630000D01*
X45756372Y-121130000D01*
X45770853Y-121277026D01*
X45813739Y-121418401D01*
X45883381Y-121548693D01*
X45906097Y-121576372D01*
X44385000Y-121576372D01*
X44067270Y-121607666D01*
X43761751Y-121700344D01*
X43480183Y-121850845D01*
X43233386Y-122053386D01*
X43030845Y-122300183D01*
X42880344Y-122581751D01*
X42787666Y-122887270D01*
X42756372Y-123205000D01*
X42756372Y-124955000D01*
X42787666Y-125272730D01*
X42880344Y-125578249D01*
X43030845Y-125859817D01*
X43145890Y-126000000D01*
X42324213Y-126000000D01*
X40878000Y-124553788D01*
X40878000Y-121738925D01*
X40934586Y-121769171D01*
X41216657Y-121854736D01*
X41510000Y-121883628D01*
X43010000Y-121883628D01*
X43303343Y-121854736D01*
X43585414Y-121769171D01*
X43845371Y-121630221D01*
X44073226Y-121443226D01*
X44260221Y-121215371D01*
X44399171Y-120955414D01*
X44484736Y-120673343D01*
X44513628Y-120380000D01*
X44513628Y-118540584D01*
X49024213Y-114030000D01*
X69800880Y-114030000D01*
X69850000Y-114034838D01*
X69899120Y-114030000D01*
X69984164Y-114021624D01*
X69435788Y-114570000D01*
G36*
X91710000Y-119426260D02*
G01*
X91710001Y-124045786D01*
X91674947Y-124080840D01*
X91660435Y-124007882D01*
X91543592Y-123725800D01*
X91373964Y-123471932D01*
X91170000Y-123267968D01*
X91170000Y-119753779D01*
X91217026Y-119749147D01*
X91358401Y-119706261D01*
X91488693Y-119636619D01*
X91602895Y-119542895D01*
X91696619Y-119428693D01*
X91701099Y-119420312D01*
X91710000Y-119426260D01*
X91710000Y-119426260D01*
G37*
X91710000Y-119426260D02*
X91710001Y-124045786D01*
X91674947Y-124080840D01*
X91660435Y-124007882D01*
X91543592Y-123725800D01*
X91373964Y-123471932D01*
X91170000Y-123267968D01*
X91170000Y-119753779D01*
X91217026Y-119749147D01*
X91358401Y-119706261D01*
X91488693Y-119636619D01*
X91602895Y-119542895D01*
X91696619Y-119428693D01*
X91701099Y-119420312D01*
X91710000Y-119426260D01*
G36*
X186742035Y-123645254D02*
G01*
X186715013Y-123594700D01*
X186521318Y-123358682D01*
X186285300Y-123164987D01*
X186016029Y-123021059D01*
X185723853Y-122932428D01*
X185496138Y-122910000D01*
X185343862Y-122910000D01*
X185289561Y-122915348D01*
X183880000Y-121505788D01*
X183880000Y-119753779D01*
X183927026Y-119749147D01*
X184068401Y-119706261D01*
X184198693Y-119636619D01*
X184312895Y-119542895D01*
X184406619Y-119428693D01*
X184411099Y-119420312D01*
X184638432Y-119572211D01*
X184938713Y-119696592D01*
X185257489Y-119760000D01*
X185582511Y-119760000D01*
X185901287Y-119696592D01*
X186201568Y-119572211D01*
X186471814Y-119391639D01*
X186701639Y-119161814D01*
X186742034Y-119101358D01*
X186742035Y-123645254D01*
X186742035Y-123645254D01*
G37*
X186742035Y-123645254D02*
X186715013Y-123594700D01*
X186521318Y-123358682D01*
X186285300Y-123164987D01*
X186016029Y-123021059D01*
X185723853Y-122932428D01*
X185496138Y-122910000D01*
X185343862Y-122910000D01*
X185289561Y-122915348D01*
X183880000Y-121505788D01*
X183880000Y-119753779D01*
X183927026Y-119749147D01*
X184068401Y-119706261D01*
X184198693Y-119636619D01*
X184312895Y-119542895D01*
X184406619Y-119428693D01*
X184411099Y-119420312D01*
X184638432Y-119572211D01*
X184938713Y-119696592D01*
X185257489Y-119760000D01*
X185582511Y-119760000D01*
X185901287Y-119696592D01*
X186201568Y-119572211D01*
X186471814Y-119391639D01*
X186701639Y-119161814D01*
X186742034Y-119101358D01*
X186742035Y-123645254D01*
G36*
X103398155Y-117512368D02*
G01*
X103429472Y-117550528D01*
X103581742Y-117675492D01*
X103755463Y-117768348D01*
X103755465Y-117768349D01*
X103943966Y-117825530D01*
X104140000Y-117844838D01*
X104189120Y-117840000D01*
X129221755Y-117840000D01*
X129263739Y-117978401D01*
X129333381Y-118108693D01*
X129427105Y-118222895D01*
X129541307Y-118316619D01*
X129591046Y-118343205D01*
X129473212Y-118486787D01*
X129324641Y-118764744D01*
X129233151Y-119066345D01*
X129202259Y-119380000D01*
X129233151Y-119693655D01*
X129324641Y-119995256D01*
X129473212Y-120273213D01*
X129673155Y-120516845D01*
X129810000Y-120629151D01*
X129810001Y-123275532D01*
X129708682Y-123358682D01*
X129625532Y-123460000D01*
X98974468Y-123460000D01*
X98891318Y-123358682D01*
X98790000Y-123275532D01*
X98790000Y-120629150D01*
X98926845Y-120516845D01*
X99126788Y-120273213D01*
X99275359Y-119995256D01*
X99366849Y-119693655D01*
X99397741Y-119380000D01*
X99366849Y-119066345D01*
X99275359Y-118764744D01*
X99126788Y-118486787D01*
X99008954Y-118343205D01*
X99058693Y-118316619D01*
X99172895Y-118222895D01*
X99266619Y-118108693D01*
X99336261Y-117978401D01*
X99379147Y-117837026D01*
X99393628Y-117690000D01*
X99393628Y-115990000D01*
X99379147Y-115842974D01*
X99336261Y-115701599D01*
X99266619Y-115571307D01*
X99172895Y-115457105D01*
X99058693Y-115363381D01*
X98928401Y-115293739D01*
X98787026Y-115250853D01*
X98640000Y-115236372D01*
X97600585Y-115236372D01*
X95991849Y-113627637D01*
X95960528Y-113589472D01*
X95808258Y-113464508D01*
X95634535Y-113371651D01*
X95446034Y-113314470D01*
X95299120Y-113300000D01*
X95250000Y-113295162D01*
X95200880Y-113300000D01*
X89314213Y-113300000D01*
X88774213Y-112760000D01*
X98645788Y-112760000D01*
X103398155Y-117512368D01*
X103398155Y-117512368D01*
G37*
X103398155Y-117512368D02*
X103429472Y-117550528D01*
X103581742Y-117675492D01*
X103755463Y-117768348D01*
X103755465Y-117768349D01*
X103943966Y-117825530D01*
X104140000Y-117844838D01*
X104189120Y-117840000D01*
X129221755Y-117840000D01*
X129263739Y-117978401D01*
X129333381Y-118108693D01*
X129427105Y-118222895D01*
X129541307Y-118316619D01*
X129591046Y-118343205D01*
X129473212Y-118486787D01*
X129324641Y-118764744D01*
X129233151Y-119066345D01*
X129202259Y-119380000D01*
X129233151Y-119693655D01*
X129324641Y-119995256D01*
X129473212Y-120273213D01*
X129673155Y-120516845D01*
X129810000Y-120629151D01*
X129810001Y-123275532D01*
X129708682Y-123358682D01*
X129625532Y-123460000D01*
X98974468Y-123460000D01*
X98891318Y-123358682D01*
X98790000Y-123275532D01*
X98790000Y-120629150D01*
X98926845Y-120516845D01*
X99126788Y-120273213D01*
X99275359Y-119995256D01*
X99366849Y-119693655D01*
X99397741Y-119380000D01*
X99366849Y-119066345D01*
X99275359Y-118764744D01*
X99126788Y-118486787D01*
X99008954Y-118343205D01*
X99058693Y-118316619D01*
X99172895Y-118222895D01*
X99266619Y-118108693D01*
X99336261Y-117978401D01*
X99379147Y-117837026D01*
X99393628Y-117690000D01*
X99393628Y-115990000D01*
X99379147Y-115842974D01*
X99336261Y-115701599D01*
X99266619Y-115571307D01*
X99172895Y-115457105D01*
X99058693Y-115363381D01*
X98928401Y-115293739D01*
X98787026Y-115250853D01*
X98640000Y-115236372D01*
X97600585Y-115236372D01*
X95991849Y-113627637D01*
X95960528Y-113589472D01*
X95808258Y-113464508D01*
X95634535Y-113371651D01*
X95446034Y-113314470D01*
X95299120Y-113300000D01*
X95250000Y-113295162D01*
X95200880Y-113300000D01*
X89314213Y-113300000D01*
X88774213Y-112760000D01*
X98645788Y-112760000D01*
X103398155Y-117512368D01*
G36*
X186742034Y-115122660D02*
G01*
X186742034Y-117118642D01*
X186701639Y-117058186D01*
X186471814Y-116828361D01*
X186420000Y-116793740D01*
X186420000Y-114797221D01*
X186742034Y-115122660D01*
X186742034Y-115122660D01*
G37*
X186742034Y-115122660D02*
X186742034Y-117118642D01*
X186701639Y-117058186D01*
X186471814Y-116828361D01*
X186420000Y-116793740D01*
X186420000Y-114797221D01*
X186742034Y-115122660D01*
G36*
X56013155Y-83686845D02*
G01*
X56256787Y-83886788D01*
X56534744Y-84035359D01*
X56836345Y-84126849D01*
X57071403Y-84150000D01*
X57228597Y-84150000D01*
X57326177Y-84140389D01*
X80280001Y-107094214D01*
X80280000Y-108805786D01*
X71975788Y-117110000D01*
X66176125Y-117110000D01*
X66162801Y-117090059D01*
X65939941Y-116867199D01*
X65677884Y-116692098D01*
X65386703Y-116571487D01*
X65379227Y-116570000D01*
X69800880Y-116570000D01*
X69850000Y-116574838D01*
X69899120Y-116570000D01*
X70046034Y-116555530D01*
X70234535Y-116498349D01*
X70408258Y-116405492D01*
X70560528Y-116280528D01*
X70591849Y-116242363D01*
X77293824Y-109540389D01*
X77391403Y-109550000D01*
X77548597Y-109550000D01*
X77783655Y-109526849D01*
X78085256Y-109435359D01*
X78363213Y-109286788D01*
X78606845Y-109086845D01*
X78806788Y-108843213D01*
X78955359Y-108565256D01*
X79046849Y-108263655D01*
X79077741Y-107950000D01*
X79046849Y-107636345D01*
X78955359Y-107334744D01*
X78806788Y-107056787D01*
X78606845Y-106813155D01*
X78363213Y-106613212D01*
X78085256Y-106464641D01*
X77783655Y-106373151D01*
X77548597Y-106350000D01*
X77391403Y-106350000D01*
X77156345Y-106373151D01*
X76854744Y-106464641D01*
X76576787Y-106613212D01*
X76333155Y-106813155D01*
X76200000Y-106975405D01*
X76066845Y-106813155D01*
X75823213Y-106613212D01*
X75545256Y-106464641D01*
X75243655Y-106373151D01*
X75008597Y-106350000D01*
X74851403Y-106350000D01*
X74616345Y-106373151D01*
X74314744Y-106464641D01*
X74036787Y-106613212D01*
X73793155Y-106813155D01*
X73660000Y-106975405D01*
X73526845Y-106813155D01*
X73283213Y-106613212D01*
X73005256Y-106464641D01*
X72703655Y-106373151D01*
X72468597Y-106350000D01*
X72311403Y-106350000D01*
X72076345Y-106373151D01*
X71774744Y-106464641D01*
X71496787Y-106613212D01*
X71253155Y-106813155D01*
X71120000Y-106975405D01*
X70986845Y-106813155D01*
X70743213Y-106613212D01*
X70465256Y-106464641D01*
X70163655Y-106373151D01*
X69928597Y-106350000D01*
X69771403Y-106350000D01*
X69536345Y-106373151D01*
X69234744Y-106464641D01*
X68956787Y-106613212D01*
X68713155Y-106813155D01*
X68580000Y-106975405D01*
X68446845Y-106813155D01*
X68203213Y-106613212D01*
X67925256Y-106464641D01*
X67623655Y-106373151D01*
X67388597Y-106350000D01*
X67231403Y-106350000D01*
X66996345Y-106373151D01*
X66694744Y-106464641D01*
X66416787Y-106613212D01*
X66173155Y-106813155D01*
X66040000Y-106975405D01*
X65906845Y-106813155D01*
X65663213Y-106613212D01*
X65385256Y-106464641D01*
X65083655Y-106373151D01*
X64848597Y-106350000D01*
X64691403Y-106350000D01*
X64456345Y-106373151D01*
X64154744Y-106464641D01*
X63876787Y-106613212D01*
X63633155Y-106813155D01*
X63500000Y-106975405D01*
X63366845Y-106813155D01*
X63123213Y-106613212D01*
X62845256Y-106464641D01*
X62543655Y-106373151D01*
X62308597Y-106350000D01*
X62151403Y-106350000D01*
X61916345Y-106373151D01*
X61614744Y-106464641D01*
X61336787Y-106613212D01*
X61093155Y-106813155D01*
X60960000Y-106975405D01*
X60826845Y-106813155D01*
X60583213Y-106613212D01*
X60305256Y-106464641D01*
X60003655Y-106373151D01*
X59768597Y-106350000D01*
X59611403Y-106350000D01*
X59376345Y-106373151D01*
X59074744Y-106464641D01*
X58796787Y-106613212D01*
X58553155Y-106813155D01*
X58420000Y-106975405D01*
X58286845Y-106813155D01*
X58043213Y-106613212D01*
X57765256Y-106464641D01*
X57463655Y-106373151D01*
X57228597Y-106350000D01*
X57071403Y-106350000D01*
X56836345Y-106373151D01*
X56534744Y-106464641D01*
X56256787Y-106613212D01*
X56013155Y-106813155D01*
X55880000Y-106975405D01*
X55746845Y-106813155D01*
X55503213Y-106613212D01*
X55225256Y-106464641D01*
X54923655Y-106373151D01*
X54688597Y-106350000D01*
X54531403Y-106350000D01*
X54296345Y-106373151D01*
X53994744Y-106464641D01*
X53716787Y-106613212D01*
X53473155Y-106813155D01*
X53340000Y-106975405D01*
X53206845Y-106813155D01*
X52963213Y-106613212D01*
X52685256Y-106464641D01*
X52383655Y-106373151D01*
X52148597Y-106350000D01*
X51991403Y-106350000D01*
X51756345Y-106373151D01*
X51454744Y-106464641D01*
X51176787Y-106613212D01*
X50933155Y-106813155D01*
X50800000Y-106975405D01*
X50666845Y-106813155D01*
X50423213Y-106613212D01*
X50145256Y-106464641D01*
X49843655Y-106373151D01*
X49608597Y-106350000D01*
X49451403Y-106350000D01*
X49216345Y-106373151D01*
X48914744Y-106464641D01*
X48636787Y-106613212D01*
X48393155Y-106813155D01*
X48260000Y-106975405D01*
X48126845Y-106813155D01*
X47883213Y-106613212D01*
X47605256Y-106464641D01*
X47303655Y-106373151D01*
X47068597Y-106350000D01*
X46911403Y-106350000D01*
X46676345Y-106373151D01*
X46374744Y-106464641D01*
X46096787Y-106613212D01*
X45853155Y-106813155D01*
X45720000Y-106975405D01*
X45586845Y-106813155D01*
X45343213Y-106613212D01*
X45065256Y-106464641D01*
X44763655Y-106373151D01*
X44528597Y-106350000D01*
X44371403Y-106350000D01*
X44136345Y-106373151D01*
X43834744Y-106464641D01*
X43556787Y-106613212D01*
X43413205Y-106731046D01*
X43386619Y-106681307D01*
X43292895Y-106567105D01*
X43178693Y-106473381D01*
X43048401Y-106403739D01*
X42907026Y-106360853D01*
X42760000Y-106346372D01*
X41060000Y-106346372D01*
X40912974Y-106360853D01*
X40878000Y-106371462D01*
X40878000Y-95156212D01*
X51893824Y-84140389D01*
X51991403Y-84150000D01*
X52148597Y-84150000D01*
X52383655Y-84126849D01*
X52685256Y-84035359D01*
X52963213Y-83886788D01*
X53206845Y-83686845D01*
X53340000Y-83524595D01*
X53473155Y-83686845D01*
X53716787Y-83886788D01*
X53994744Y-84035359D01*
X54296345Y-84126849D01*
X54531403Y-84150000D01*
X54688597Y-84150000D01*
X54923655Y-84126849D01*
X55225256Y-84035359D01*
X55503213Y-83886788D01*
X55746845Y-83686845D01*
X55880000Y-83524595D01*
X56013155Y-83686845D01*
X56013155Y-83686845D01*
G37*
X56013155Y-83686845D02*
X56256787Y-83886788D01*
X56534744Y-84035359D01*
X56836345Y-84126849D01*
X57071403Y-84150000D01*
X57228597Y-84150000D01*
X57326177Y-84140389D01*
X80280001Y-107094214D01*
X80280000Y-108805786D01*
X71975788Y-117110000D01*
X66176125Y-117110000D01*
X66162801Y-117090059D01*
X65939941Y-116867199D01*
X65677884Y-116692098D01*
X65386703Y-116571487D01*
X65379227Y-116570000D01*
X69800880Y-116570000D01*
X69850000Y-116574838D01*
X69899120Y-116570000D01*
X70046034Y-116555530D01*
X70234535Y-116498349D01*
X70408258Y-116405492D01*
X70560528Y-116280528D01*
X70591849Y-116242363D01*
X77293824Y-109540389D01*
X77391403Y-109550000D01*
X77548597Y-109550000D01*
X77783655Y-109526849D01*
X78085256Y-109435359D01*
X78363213Y-109286788D01*
X78606845Y-109086845D01*
X78806788Y-108843213D01*
X78955359Y-108565256D01*
X79046849Y-108263655D01*
X79077741Y-107950000D01*
X79046849Y-107636345D01*
X78955359Y-107334744D01*
X78806788Y-107056787D01*
X78606845Y-106813155D01*
X78363213Y-106613212D01*
X78085256Y-106464641D01*
X77783655Y-106373151D01*
X77548597Y-106350000D01*
X77391403Y-106350000D01*
X77156345Y-106373151D01*
X76854744Y-106464641D01*
X76576787Y-106613212D01*
X76333155Y-106813155D01*
X76200000Y-106975405D01*
X76066845Y-106813155D01*
X75823213Y-106613212D01*
X75545256Y-106464641D01*
X75243655Y-106373151D01*
X75008597Y-106350000D01*
X74851403Y-106350000D01*
X74616345Y-106373151D01*
X74314744Y-106464641D01*
X74036787Y-106613212D01*
X73793155Y-106813155D01*
X73660000Y-106975405D01*
X73526845Y-106813155D01*
X73283213Y-106613212D01*
X73005256Y-106464641D01*
X72703655Y-106373151D01*
X72468597Y-106350000D01*
X72311403Y-106350000D01*
X72076345Y-106373151D01*
X71774744Y-106464641D01*
X71496787Y-106613212D01*
X71253155Y-106813155D01*
X71120000Y-106975405D01*
X70986845Y-106813155D01*
X70743213Y-106613212D01*
X70465256Y-106464641D01*
X70163655Y-106373151D01*
X69928597Y-106350000D01*
X69771403Y-106350000D01*
X69536345Y-106373151D01*
X69234744Y-106464641D01*
X68956787Y-106613212D01*
X68713155Y-106813155D01*
X68580000Y-106975405D01*
X68446845Y-106813155D01*
X68203213Y-106613212D01*
X67925256Y-106464641D01*
X67623655Y-106373151D01*
X67388597Y-106350000D01*
X67231403Y-106350000D01*
X66996345Y-106373151D01*
X66694744Y-106464641D01*
X66416787Y-106613212D01*
X66173155Y-106813155D01*
X66040000Y-106975405D01*
X65906845Y-106813155D01*
X65663213Y-106613212D01*
X65385256Y-106464641D01*
X65083655Y-106373151D01*
X64848597Y-106350000D01*
X64691403Y-106350000D01*
X64456345Y-106373151D01*
X64154744Y-106464641D01*
X63876787Y-106613212D01*
X63633155Y-106813155D01*
X63500000Y-106975405D01*
X63366845Y-106813155D01*
X63123213Y-106613212D01*
X62845256Y-106464641D01*
X62543655Y-106373151D01*
X62308597Y-106350000D01*
X62151403Y-106350000D01*
X61916345Y-106373151D01*
X61614744Y-106464641D01*
X61336787Y-106613212D01*
X61093155Y-106813155D01*
X60960000Y-106975405D01*
X60826845Y-106813155D01*
X60583213Y-106613212D01*
X60305256Y-106464641D01*
X60003655Y-106373151D01*
X59768597Y-106350000D01*
X59611403Y-106350000D01*
X59376345Y-106373151D01*
X59074744Y-106464641D01*
X58796787Y-106613212D01*
X58553155Y-106813155D01*
X58420000Y-106975405D01*
X58286845Y-106813155D01*
X58043213Y-106613212D01*
X57765256Y-106464641D01*
X57463655Y-106373151D01*
X57228597Y-106350000D01*
X57071403Y-106350000D01*
X56836345Y-106373151D01*
X56534744Y-106464641D01*
X56256787Y-106613212D01*
X56013155Y-106813155D01*
X55880000Y-106975405D01*
X55746845Y-106813155D01*
X55503213Y-106613212D01*
X55225256Y-106464641D01*
X54923655Y-106373151D01*
X54688597Y-106350000D01*
X54531403Y-106350000D01*
X54296345Y-106373151D01*
X53994744Y-106464641D01*
X53716787Y-106613212D01*
X53473155Y-106813155D01*
X53340000Y-106975405D01*
X53206845Y-106813155D01*
X52963213Y-106613212D01*
X52685256Y-106464641D01*
X52383655Y-106373151D01*
X52148597Y-106350000D01*
X51991403Y-106350000D01*
X51756345Y-106373151D01*
X51454744Y-106464641D01*
X51176787Y-106613212D01*
X50933155Y-106813155D01*
X50800000Y-106975405D01*
X50666845Y-106813155D01*
X50423213Y-106613212D01*
X50145256Y-106464641D01*
X49843655Y-106373151D01*
X49608597Y-106350000D01*
X49451403Y-106350000D01*
X49216345Y-106373151D01*
X48914744Y-106464641D01*
X48636787Y-106613212D01*
X48393155Y-106813155D01*
X48260000Y-106975405D01*
X48126845Y-106813155D01*
X47883213Y-106613212D01*
X47605256Y-106464641D01*
X47303655Y-106373151D01*
X47068597Y-106350000D01*
X46911403Y-106350000D01*
X46676345Y-106373151D01*
X46374744Y-106464641D01*
X46096787Y-106613212D01*
X45853155Y-106813155D01*
X45720000Y-106975405D01*
X45586845Y-106813155D01*
X45343213Y-106613212D01*
X45065256Y-106464641D01*
X44763655Y-106373151D01*
X44528597Y-106350000D01*
X44371403Y-106350000D01*
X44136345Y-106373151D01*
X43834744Y-106464641D01*
X43556787Y-106613212D01*
X43413205Y-106731046D01*
X43386619Y-106681307D01*
X43292895Y-106567105D01*
X43178693Y-106473381D01*
X43048401Y-106403739D01*
X42907026Y-106360853D01*
X42760000Y-106346372D01*
X41060000Y-106346372D01*
X40912974Y-106360853D01*
X40878000Y-106371462D01*
X40878000Y-95156212D01*
X51893824Y-84140389D01*
X51991403Y-84150000D01*
X52148597Y-84150000D01*
X52383655Y-84126849D01*
X52685256Y-84035359D01*
X52963213Y-83886788D01*
X53206845Y-83686845D01*
X53340000Y-83524595D01*
X53473155Y-83686845D01*
X53716787Y-83886788D01*
X53994744Y-84035359D01*
X54296345Y-84126849D01*
X54531403Y-84150000D01*
X54688597Y-84150000D01*
X54923655Y-84126849D01*
X55225256Y-84035359D01*
X55503213Y-83886788D01*
X55746845Y-83686845D01*
X55880000Y-83524595D01*
X56013155Y-83686845D01*
G36*
X71253155Y-109086845D02*
G01*
X71496787Y-109286788D01*
X71774744Y-109435359D01*
X71970919Y-109494868D01*
X69435788Y-112030000D01*
X48659117Y-112030000D01*
X48609999Y-112025162D01*
X48560881Y-112030000D01*
X48560880Y-112030000D01*
X48413966Y-112044470D01*
X48225465Y-112101651D01*
X48051742Y-112194508D01*
X47899472Y-112319472D01*
X47868155Y-112357632D01*
X43316525Y-116909263D01*
X43303343Y-116905264D01*
X43010000Y-116876372D01*
X41510000Y-116876372D01*
X41216657Y-116905264D01*
X40934586Y-116990829D01*
X40878000Y-117021075D01*
X40878000Y-109528538D01*
X40912974Y-109539147D01*
X41060000Y-109553628D01*
X42760000Y-109553628D01*
X42907026Y-109539147D01*
X43048401Y-109496261D01*
X43178693Y-109426619D01*
X43292895Y-109332895D01*
X43386619Y-109218693D01*
X43413205Y-109168954D01*
X43556787Y-109286788D01*
X43834744Y-109435359D01*
X44136345Y-109526849D01*
X44371403Y-109550000D01*
X44528597Y-109550000D01*
X44763655Y-109526849D01*
X45065256Y-109435359D01*
X45343213Y-109286788D01*
X45586845Y-109086845D01*
X45720000Y-108924595D01*
X45853155Y-109086845D01*
X46096787Y-109286788D01*
X46374744Y-109435359D01*
X46676345Y-109526849D01*
X46911403Y-109550000D01*
X47068597Y-109550000D01*
X47303655Y-109526849D01*
X47605256Y-109435359D01*
X47883213Y-109286788D01*
X48126845Y-109086845D01*
X48260000Y-108924595D01*
X48393155Y-109086845D01*
X48636787Y-109286788D01*
X48914744Y-109435359D01*
X49216345Y-109526849D01*
X49451403Y-109550000D01*
X49608597Y-109550000D01*
X49843655Y-109526849D01*
X50145256Y-109435359D01*
X50423213Y-109286788D01*
X50666845Y-109086845D01*
X50800000Y-108924595D01*
X50933155Y-109086845D01*
X51176787Y-109286788D01*
X51454744Y-109435359D01*
X51756345Y-109526849D01*
X51991403Y-109550000D01*
X52148597Y-109550000D01*
X52383655Y-109526849D01*
X52685256Y-109435359D01*
X52963213Y-109286788D01*
X53206845Y-109086845D01*
X53340000Y-108924595D01*
X53473155Y-109086845D01*
X53716787Y-109286788D01*
X53994744Y-109435359D01*
X54296345Y-109526849D01*
X54531403Y-109550000D01*
X54688597Y-109550000D01*
X54923655Y-109526849D01*
X55225256Y-109435359D01*
X55503213Y-109286788D01*
X55746845Y-109086845D01*
X55880000Y-108924595D01*
X56013155Y-109086845D01*
X56256787Y-109286788D01*
X56534744Y-109435359D01*
X56836345Y-109526849D01*
X57071403Y-109550000D01*
X57228597Y-109550000D01*
X57463655Y-109526849D01*
X57765256Y-109435359D01*
X58043213Y-109286788D01*
X58286845Y-109086845D01*
X58420000Y-108924595D01*
X58553155Y-109086845D01*
X58796787Y-109286788D01*
X59074744Y-109435359D01*
X59376345Y-109526849D01*
X59611403Y-109550000D01*
X59768597Y-109550000D01*
X60003655Y-109526849D01*
X60305256Y-109435359D01*
X60583213Y-109286788D01*
X60826845Y-109086845D01*
X60960000Y-108924595D01*
X61093155Y-109086845D01*
X61336787Y-109286788D01*
X61614744Y-109435359D01*
X61916345Y-109526849D01*
X62151403Y-109550000D01*
X62308597Y-109550000D01*
X62543655Y-109526849D01*
X62845256Y-109435359D01*
X63123213Y-109286788D01*
X63366845Y-109086845D01*
X63500000Y-108924595D01*
X63633155Y-109086845D01*
X63876787Y-109286788D01*
X64154744Y-109435359D01*
X64456345Y-109526849D01*
X64691403Y-109550000D01*
X64848597Y-109550000D01*
X65083655Y-109526849D01*
X65385256Y-109435359D01*
X65663213Y-109286788D01*
X65906845Y-109086845D01*
X66040000Y-108924595D01*
X66173155Y-109086845D01*
X66416787Y-109286788D01*
X66694744Y-109435359D01*
X66996345Y-109526849D01*
X67231403Y-109550000D01*
X67388597Y-109550000D01*
X67623655Y-109526849D01*
X67925256Y-109435359D01*
X68203213Y-109286788D01*
X68446845Y-109086845D01*
X68580000Y-108924595D01*
X68713155Y-109086845D01*
X68956787Y-109286788D01*
X69234744Y-109435359D01*
X69536345Y-109526849D01*
X69771403Y-109550000D01*
X69928597Y-109550000D01*
X70163655Y-109526849D01*
X70465256Y-109435359D01*
X70743213Y-109286788D01*
X70986845Y-109086845D01*
X71120000Y-108924595D01*
X71253155Y-109086845D01*
X71253155Y-109086845D01*
G37*
X71253155Y-109086845D02*
X71496787Y-109286788D01*
X71774744Y-109435359D01*
X71970919Y-109494868D01*
X69435788Y-112030000D01*
X48659117Y-112030000D01*
X48609999Y-112025162D01*
X48560881Y-112030000D01*
X48560880Y-112030000D01*
X48413966Y-112044470D01*
X48225465Y-112101651D01*
X48051742Y-112194508D01*
X47899472Y-112319472D01*
X47868155Y-112357632D01*
X43316525Y-116909263D01*
X43303343Y-116905264D01*
X43010000Y-116876372D01*
X41510000Y-116876372D01*
X41216657Y-116905264D01*
X40934586Y-116990829D01*
X40878000Y-117021075D01*
X40878000Y-109528538D01*
X40912974Y-109539147D01*
X41060000Y-109553628D01*
X42760000Y-109553628D01*
X42907026Y-109539147D01*
X43048401Y-109496261D01*
X43178693Y-109426619D01*
X43292895Y-109332895D01*
X43386619Y-109218693D01*
X43413205Y-109168954D01*
X43556787Y-109286788D01*
X43834744Y-109435359D01*
X44136345Y-109526849D01*
X44371403Y-109550000D01*
X44528597Y-109550000D01*
X44763655Y-109526849D01*
X45065256Y-109435359D01*
X45343213Y-109286788D01*
X45586845Y-109086845D01*
X45720000Y-108924595D01*
X45853155Y-109086845D01*
X46096787Y-109286788D01*
X46374744Y-109435359D01*
X46676345Y-109526849D01*
X46911403Y-109550000D01*
X47068597Y-109550000D01*
X47303655Y-109526849D01*
X47605256Y-109435359D01*
X47883213Y-109286788D01*
X48126845Y-109086845D01*
X48260000Y-108924595D01*
X48393155Y-109086845D01*
X48636787Y-109286788D01*
X48914744Y-109435359D01*
X49216345Y-109526849D01*
X49451403Y-109550000D01*
X49608597Y-109550000D01*
X49843655Y-109526849D01*
X50145256Y-109435359D01*
X50423213Y-109286788D01*
X50666845Y-109086845D01*
X50800000Y-108924595D01*
X50933155Y-109086845D01*
X51176787Y-109286788D01*
X51454744Y-109435359D01*
X51756345Y-109526849D01*
X51991403Y-109550000D01*
X52148597Y-109550000D01*
X52383655Y-109526849D01*
X52685256Y-109435359D01*
X52963213Y-109286788D01*
X53206845Y-109086845D01*
X53340000Y-108924595D01*
X53473155Y-109086845D01*
X53716787Y-109286788D01*
X53994744Y-109435359D01*
X54296345Y-109526849D01*
X54531403Y-109550000D01*
X54688597Y-109550000D01*
X54923655Y-109526849D01*
X55225256Y-109435359D01*
X55503213Y-109286788D01*
X55746845Y-109086845D01*
X55880000Y-108924595D01*
X56013155Y-109086845D01*
X56256787Y-109286788D01*
X56534744Y-109435359D01*
X56836345Y-109526849D01*
X57071403Y-109550000D01*
X57228597Y-109550000D01*
X57463655Y-109526849D01*
X57765256Y-109435359D01*
X58043213Y-109286788D01*
X58286845Y-109086845D01*
X58420000Y-108924595D01*
X58553155Y-109086845D01*
X58796787Y-109286788D01*
X59074744Y-109435359D01*
X59376345Y-109526849D01*
X59611403Y-109550000D01*
X59768597Y-109550000D01*
X60003655Y-109526849D01*
X60305256Y-109435359D01*
X60583213Y-109286788D01*
X60826845Y-109086845D01*
X60960000Y-108924595D01*
X61093155Y-109086845D01*
X61336787Y-109286788D01*
X61614744Y-109435359D01*
X61916345Y-109526849D01*
X62151403Y-109550000D01*
X62308597Y-109550000D01*
X62543655Y-109526849D01*
X62845256Y-109435359D01*
X63123213Y-109286788D01*
X63366845Y-109086845D01*
X63500000Y-108924595D01*
X63633155Y-109086845D01*
X63876787Y-109286788D01*
X64154744Y-109435359D01*
X64456345Y-109526849D01*
X64691403Y-109550000D01*
X64848597Y-109550000D01*
X65083655Y-109526849D01*
X65385256Y-109435359D01*
X65663213Y-109286788D01*
X65906845Y-109086845D01*
X66040000Y-108924595D01*
X66173155Y-109086845D01*
X66416787Y-109286788D01*
X66694744Y-109435359D01*
X66996345Y-109526849D01*
X67231403Y-109550000D01*
X67388597Y-109550000D01*
X67623655Y-109526849D01*
X67925256Y-109435359D01*
X68203213Y-109286788D01*
X68446845Y-109086845D01*
X68580000Y-108924595D01*
X68713155Y-109086845D01*
X68956787Y-109286788D01*
X69234744Y-109435359D01*
X69536345Y-109526849D01*
X69771403Y-109550000D01*
X69928597Y-109550000D01*
X70163655Y-109526849D01*
X70465256Y-109435359D01*
X70743213Y-109286788D01*
X70986845Y-109086845D01*
X71120000Y-108924595D01*
X71253155Y-109086845D01*
G36*
X91928432Y-116647789D02*
G01*
X91701099Y-116799688D01*
X91696619Y-116791307D01*
X91602895Y-116677105D01*
X91488693Y-116583381D01*
X91463659Y-116570000D01*
X92116230Y-116570000D01*
X91928432Y-116647789D01*
X91928432Y-116647789D01*
G37*
X91928432Y-116647789D02*
X91701099Y-116799688D01*
X91696619Y-116791307D01*
X91602895Y-116677105D01*
X91488693Y-116583381D01*
X91463659Y-116570000D01*
X92116230Y-116570000D01*
X91928432Y-116647789D01*
G36*
X139288630Y-116472157D02*
G01*
X139227511Y-116460000D01*
X138902489Y-116460000D01*
X138583713Y-116523408D01*
X138283432Y-116647789D01*
X138056099Y-116799688D01*
X138051619Y-116791307D01*
X137957895Y-116677105D01*
X137843693Y-116583381D01*
X137713401Y-116513739D01*
X137572026Y-116470853D01*
X137425000Y-116456372D01*
X136982839Y-116456372D01*
X139409212Y-114030000D01*
X141730786Y-114030000D01*
X139288630Y-116472157D01*
X139288630Y-116472157D01*
G37*
X139288630Y-116472157D02*
X139227511Y-116460000D01*
X138902489Y-116460000D01*
X138583713Y-116523408D01*
X138283432Y-116647789D01*
X138056099Y-116799688D01*
X138051619Y-116791307D01*
X137957895Y-116677105D01*
X137843693Y-116583381D01*
X137713401Y-116513739D01*
X137572026Y-116470853D01*
X137425000Y-116456372D01*
X136982839Y-116456372D01*
X139409212Y-114030000D01*
X141730786Y-114030000D01*
X139288630Y-116472157D01*
G36*
X90937677Y-109062516D02*
G01*
X90961704Y-109091769D01*
X90995388Y-109119390D01*
X90997426Y-109121399D01*
X91026788Y-109145139D01*
X91087367Y-109194815D01*
X91089902Y-109196169D01*
X91092136Y-109197975D01*
X91161577Y-109234443D01*
X91230719Y-109271365D01*
X91233467Y-109272197D01*
X91236012Y-109273534D01*
X91311270Y-109295765D01*
X91386251Y-109318477D01*
X91389108Y-109318757D01*
X91391866Y-109319572D01*
X91469925Y-109326685D01*
X91507463Y-109330367D01*
X91510323Y-109330366D01*
X91553706Y-109334319D01*
X91591353Y-109330334D01*
X180975125Y-109294785D01*
X181168298Y-109490000D01*
X88044214Y-109490000D01*
X86090000Y-107535788D01*
X86090000Y-104285094D01*
X90937677Y-109062516D01*
X90937677Y-109062516D01*
G37*
X90937677Y-109062516D02*
X90961704Y-109091769D01*
X90995388Y-109119390D01*
X90997426Y-109121399D01*
X91026788Y-109145139D01*
X91087367Y-109194815D01*
X91089902Y-109196169D01*
X91092136Y-109197975D01*
X91161577Y-109234443D01*
X91230719Y-109271365D01*
X91233467Y-109272197D01*
X91236012Y-109273534D01*
X91311270Y-109295765D01*
X91386251Y-109318477D01*
X91389108Y-109318757D01*
X91391866Y-109319572D01*
X91469925Y-109326685D01*
X91507463Y-109330367D01*
X91510323Y-109330366D01*
X91553706Y-109334319D01*
X91591353Y-109330334D01*
X180975125Y-109294785D01*
X181168298Y-109490000D01*
X88044214Y-109490000D01*
X86090000Y-107535788D01*
X86090000Y-104285094D01*
X90937677Y-109062516D01*
G36*
X83351664Y-84253883D02*
G01*
X83332716Y-100968504D01*
X82280000Y-99915788D01*
X82280000Y-83869120D01*
X82284838Y-83820000D01*
X82265530Y-83623966D01*
X82208349Y-83435465D01*
X82115492Y-83261742D01*
X82021840Y-83147626D01*
X81990528Y-83109472D01*
X81952374Y-83078160D01*
X78967124Y-80092912D01*
X83351664Y-84253883D01*
X83351664Y-84253883D01*
G37*
X83351664Y-84253883D02*
X83332716Y-100968504D01*
X82280000Y-99915788D01*
X82280000Y-83869120D01*
X82284838Y-83820000D01*
X82265530Y-83623966D01*
X82208349Y-83435465D01*
X82115492Y-83261742D01*
X82021840Y-83147626D01*
X81990528Y-83109472D01*
X81952374Y-83078160D01*
X78967124Y-80092912D01*
X83351664Y-84253883D01*
G36*
X80280000Y-84234214D02*
G01*
X80280001Y-99185788D01*
X70850000Y-89755788D01*
X70850000Y-83799150D01*
X70986845Y-83686845D01*
X71120000Y-83524595D01*
X71253155Y-83686845D01*
X71496787Y-83886788D01*
X71774744Y-84035359D01*
X72076345Y-84126849D01*
X72311403Y-84150000D01*
X72468597Y-84150000D01*
X72703655Y-84126849D01*
X73005256Y-84035359D01*
X73283213Y-83886788D01*
X73526845Y-83686845D01*
X73660000Y-83524595D01*
X73793155Y-83686845D01*
X74036787Y-83886788D01*
X74314744Y-84035359D01*
X74616345Y-84126849D01*
X74851403Y-84150000D01*
X75008597Y-84150000D01*
X75243655Y-84126849D01*
X75545256Y-84035359D01*
X75823213Y-83886788D01*
X76066845Y-83686845D01*
X76200000Y-83524595D01*
X76333155Y-83686845D01*
X76576787Y-83886788D01*
X76854744Y-84035359D01*
X77156345Y-84126849D01*
X77391403Y-84150000D01*
X77548597Y-84150000D01*
X77783655Y-84126849D01*
X78085256Y-84035359D01*
X78363213Y-83886788D01*
X78606845Y-83686845D01*
X78806788Y-83443213D01*
X78955359Y-83165256D01*
X79014868Y-82969081D01*
X80280000Y-84234214D01*
X80280000Y-84234214D01*
G37*
X80280000Y-84234214D02*
X80280001Y-99185788D01*
X70850000Y-89755788D01*
X70850000Y-83799150D01*
X70986845Y-83686845D01*
X71120000Y-83524595D01*
X71253155Y-83686845D01*
X71496787Y-83886788D01*
X71774744Y-84035359D01*
X72076345Y-84126849D01*
X72311403Y-84150000D01*
X72468597Y-84150000D01*
X72703655Y-84126849D01*
X73005256Y-84035359D01*
X73283213Y-83886788D01*
X73526845Y-83686845D01*
X73660000Y-83524595D01*
X73793155Y-83686845D01*
X74036787Y-83886788D01*
X74314744Y-84035359D01*
X74616345Y-84126849D01*
X74851403Y-84150000D01*
X75008597Y-84150000D01*
X75243655Y-84126849D01*
X75545256Y-84035359D01*
X75823213Y-83886788D01*
X76066845Y-83686845D01*
X76200000Y-83524595D01*
X76333155Y-83686845D01*
X76576787Y-83886788D01*
X76854744Y-84035359D01*
X77156345Y-84126849D01*
X77391403Y-84150000D01*
X77548597Y-84150000D01*
X77783655Y-84126849D01*
X78085256Y-84035359D01*
X78363213Y-83886788D01*
X78606845Y-83686845D01*
X78806788Y-83443213D01*
X78955359Y-83165256D01*
X79014868Y-82969081D01*
X80280000Y-84234214D01*
G36*
X48393155Y-83686845D02*
G01*
X48636787Y-83886788D01*
X48914744Y-84035359D01*
X49110918Y-84094868D01*
X40177990Y-93027798D01*
X40177990Y-90776223D01*
X40619840Y-90334374D01*
X40619849Y-90334363D01*
X46813824Y-84140389D01*
X46911403Y-84150000D01*
X47068597Y-84150000D01*
X47303655Y-84126849D01*
X47605256Y-84035359D01*
X47883213Y-83886788D01*
X48126845Y-83686845D01*
X48260000Y-83524595D01*
X48393155Y-83686845D01*
X48393155Y-83686845D01*
G37*
X48393155Y-83686845D02*
X48636787Y-83886788D01*
X48914744Y-84035359D01*
X49110918Y-84094868D01*
X40177990Y-93027798D01*
X40177990Y-90776223D01*
X40619840Y-90334374D01*
X40619849Y-90334363D01*
X46813824Y-84140389D01*
X46911403Y-84150000D01*
X47068597Y-84150000D01*
X47303655Y-84126849D01*
X47605256Y-84035359D01*
X47883213Y-83886788D01*
X48126845Y-83686845D01*
X48260000Y-83524595D01*
X48393155Y-83686845D01*
G36*
X68713155Y-83686845D02*
G01*
X68850001Y-83799151D01*
X68850000Y-90120880D01*
X68845162Y-90170000D01*
X68850000Y-90219119D01*
X68858376Y-90304164D01*
X64530001Y-85975789D01*
X64530001Y-84134103D01*
X64691403Y-84150000D01*
X64848597Y-84150000D01*
X65083655Y-84126849D01*
X65385256Y-84035359D01*
X65663213Y-83886788D01*
X65906845Y-83686845D01*
X66040000Y-83524595D01*
X66173155Y-83686845D01*
X66416787Y-83886788D01*
X66694744Y-84035359D01*
X66996345Y-84126849D01*
X67231403Y-84150000D01*
X67388597Y-84150000D01*
X67623655Y-84126849D01*
X67925256Y-84035359D01*
X68203213Y-83886788D01*
X68446845Y-83686845D01*
X68580000Y-83524595D01*
X68713155Y-83686845D01*
X68713155Y-83686845D01*
G37*
X68713155Y-83686845D02*
X68850001Y-83799151D01*
X68850000Y-90120880D01*
X68845162Y-90170000D01*
X68850000Y-90219119D01*
X68858376Y-90304164D01*
X64530001Y-85975789D01*
X64530001Y-84134103D01*
X64691403Y-84150000D01*
X64848597Y-84150000D01*
X65083655Y-84126849D01*
X65385256Y-84035359D01*
X65663213Y-83886788D01*
X65906845Y-83686845D01*
X66040000Y-83524595D01*
X66173155Y-83686845D01*
X66416787Y-83886788D01*
X66694744Y-84035359D01*
X66996345Y-84126849D01*
X67231403Y-84150000D01*
X67388597Y-84150000D01*
X67623655Y-84126849D01*
X67925256Y-84035359D01*
X68203213Y-83886788D01*
X68446845Y-83686845D01*
X68580000Y-83524595D01*
X68713155Y-83686845D01*
G36*
X41443297Y-81011487D02*
G01*
X41152116Y-81132098D01*
X40890059Y-81307199D01*
X40667199Y-81530059D01*
X40492098Y-81792116D01*
X40371487Y-82083297D01*
X40310000Y-82392414D01*
X40310000Y-82707586D01*
X40371487Y-83016703D01*
X40492098Y-83307884D01*
X40667199Y-83569941D01*
X40890059Y-83792801D01*
X40910001Y-83806126D01*
X40910000Y-85945786D01*
X37830000Y-89025788D01*
X37830000Y-84234212D01*
X41054214Y-81010000D01*
X41450773Y-81010000D01*
X41443297Y-81011487D01*
X41443297Y-81011487D01*
G37*
X41443297Y-81011487D02*
X41152116Y-81132098D01*
X40890059Y-81307199D01*
X40667199Y-81530059D01*
X40492098Y-81792116D01*
X40371487Y-82083297D01*
X40310000Y-82392414D01*
X40310000Y-82707586D01*
X40371487Y-83016703D01*
X40492098Y-83307884D01*
X40667199Y-83569941D01*
X40890059Y-83792801D01*
X40910001Y-83806126D01*
X40910000Y-85945786D01*
X37830000Y-89025788D01*
X37830000Y-84234212D01*
X41054214Y-81010000D01*
X41450773Y-81010000D01*
X41443297Y-81011487D01*
G36*
X61093155Y-83686845D02*
G01*
X61336787Y-83886788D01*
X61614744Y-84035359D01*
X61916345Y-84126849D01*
X62151403Y-84150000D01*
X62308597Y-84150000D01*
X62406177Y-84140389D01*
X62530001Y-84264214D01*
X62530002Y-86340871D01*
X62525163Y-86390001D01*
X62538377Y-86524165D01*
X60109081Y-84094868D01*
X60305256Y-84035359D01*
X60583213Y-83886788D01*
X60826845Y-83686845D01*
X60960000Y-83524595D01*
X61093155Y-83686845D01*
X61093155Y-83686845D01*
G37*
X61093155Y-83686845D02*
X61336787Y-83886788D01*
X61614744Y-84035359D01*
X61916345Y-84126849D01*
X62151403Y-84150000D01*
X62308597Y-84150000D01*
X62406177Y-84140389D01*
X62530001Y-84264214D01*
X62530002Y-86340871D01*
X62525163Y-86390001D01*
X62538377Y-86524165D01*
X60109081Y-84094868D01*
X60305256Y-84035359D01*
X60583213Y-83886788D01*
X60826845Y-83686845D01*
X60960000Y-83524595D01*
X61093155Y-83686845D01*
G36*
X43313155Y-83686845D02*
G01*
X43556787Y-83886788D01*
X43834744Y-84035359D01*
X44030919Y-84094868D01*
X42910000Y-85215787D01*
X42910000Y-83806125D01*
X42929941Y-83792801D01*
X43152801Y-83569941D01*
X43181709Y-83526677D01*
X43313155Y-83686845D01*
X43313155Y-83686845D01*
G37*
X43313155Y-83686845D02*
X43556787Y-83886788D01*
X43834744Y-84035359D01*
X44030919Y-84094868D01*
X42910000Y-85215787D01*
X42910000Y-83806125D01*
X42929941Y-83792801D01*
X43152801Y-83569941D01*
X43181709Y-83526677D01*
X43313155Y-83686845D01*
G36*
X51454744Y-81064641D02*
G01*
X51176787Y-81213212D01*
X50933155Y-81413155D01*
X50800000Y-81575405D01*
X50666845Y-81413155D01*
X50423213Y-81213212D01*
X50145256Y-81064641D01*
X49965129Y-81010000D01*
X51634871Y-81010000D01*
X51454744Y-81064641D01*
X51454744Y-81064641D01*
G37*
X51454744Y-81064641D02*
X51176787Y-81213212D01*
X50933155Y-81413155D01*
X50800000Y-81575405D01*
X50666845Y-81413155D01*
X50423213Y-81213212D01*
X50145256Y-81064641D01*
X49965129Y-81010000D01*
X51634871Y-81010000D01*
X51454744Y-81064641D01*
G36*
X61614744Y-81064641D02*
G01*
X61336787Y-81213212D01*
X61093155Y-81413155D01*
X60960000Y-81575405D01*
X60826845Y-81413155D01*
X60583213Y-81213212D01*
X60305256Y-81064641D01*
X60125129Y-81010000D01*
X61794871Y-81010000D01*
X61614744Y-81064641D01*
X61614744Y-81064641D01*
G37*
X61614744Y-81064641D02*
X61336787Y-81213212D01*
X61093155Y-81413155D01*
X60960000Y-81575405D01*
X60826845Y-81413155D01*
X60583213Y-81213212D01*
X60305256Y-81064641D01*
X60125129Y-81010000D01*
X61794871Y-81010000D01*
X61614744Y-81064641D01*
G36*
X46374744Y-81064641D02*
G01*
X46096787Y-81213212D01*
X45853155Y-81413155D01*
X45720000Y-81575405D01*
X45586845Y-81413155D01*
X45343213Y-81213212D01*
X45065256Y-81064641D01*
X44885129Y-81010000D01*
X46554871Y-81010000D01*
X46374744Y-81064641D01*
X46374744Y-81064641D01*
G37*
X46374744Y-81064641D02*
X46096787Y-81213212D01*
X45853155Y-81413155D01*
X45720000Y-81575405D01*
X45586845Y-81413155D01*
X45343213Y-81213212D01*
X45065256Y-81064641D01*
X44885129Y-81010000D01*
X46554871Y-81010000D01*
X46374744Y-81064641D01*
G36*
X48914744Y-81064641D02*
G01*
X48636787Y-81213212D01*
X48393155Y-81413155D01*
X48260000Y-81575405D01*
X48126845Y-81413155D01*
X47883213Y-81213212D01*
X47605256Y-81064641D01*
X47425129Y-81010000D01*
X49094871Y-81010000D01*
X48914744Y-81064641D01*
X48914744Y-81064641D01*
G37*
X48914744Y-81064641D02*
X48636787Y-81213212D01*
X48393155Y-81413155D01*
X48260000Y-81575405D01*
X48126845Y-81413155D01*
X47883213Y-81213212D01*
X47605256Y-81064641D01*
X47425129Y-81010000D01*
X49094871Y-81010000D01*
X48914744Y-81064641D01*
G36*
X53994744Y-81064641D02*
G01*
X53716787Y-81213212D01*
X53473155Y-81413155D01*
X53340000Y-81575405D01*
X53206845Y-81413155D01*
X52963213Y-81213212D01*
X52685256Y-81064641D01*
X52505129Y-81010000D01*
X54174871Y-81010000D01*
X53994744Y-81064641D01*
X53994744Y-81064641D01*
G37*
X53994744Y-81064641D02*
X53716787Y-81213212D01*
X53473155Y-81413155D01*
X53340000Y-81575405D01*
X53206845Y-81413155D01*
X52963213Y-81213212D01*
X52685256Y-81064641D01*
X52505129Y-81010000D01*
X54174871Y-81010000D01*
X53994744Y-81064641D01*
G36*
X59074744Y-81064641D02*
G01*
X58796787Y-81213212D01*
X58553155Y-81413155D01*
X58420000Y-81575405D01*
X58286845Y-81413155D01*
X58043213Y-81213212D01*
X57765256Y-81064641D01*
X57585129Y-81010000D01*
X59254871Y-81010000D01*
X59074744Y-81064641D01*
X59074744Y-81064641D01*
G37*
X59074744Y-81064641D02*
X58796787Y-81213212D01*
X58553155Y-81413155D01*
X58420000Y-81575405D01*
X58286845Y-81413155D01*
X58043213Y-81213212D01*
X57765256Y-81064641D01*
X57585129Y-81010000D01*
X59254871Y-81010000D01*
X59074744Y-81064641D01*
G36*
X67486177Y-80959611D02*
G01*
X67388597Y-80950000D01*
X67231403Y-80950000D01*
X66996345Y-80973151D01*
X66694744Y-81064641D01*
X66416787Y-81213212D01*
X66173155Y-81413155D01*
X66040000Y-81575405D01*
X65906845Y-81413155D01*
X65663213Y-81213212D01*
X65385256Y-81064641D01*
X65083655Y-80973151D01*
X64848597Y-80950000D01*
X64691403Y-80950000D01*
X64593824Y-80959611D01*
X63199212Y-79565000D01*
X68880786Y-79565000D01*
X67486177Y-80959611D01*
X67486177Y-80959611D01*
G37*
X67486177Y-80959611D02*
X67388597Y-80950000D01*
X67231403Y-80950000D01*
X66996345Y-80973151D01*
X66694744Y-81064641D01*
X66416787Y-81213212D01*
X66173155Y-81413155D01*
X66040000Y-81575405D01*
X65906845Y-81413155D01*
X65663213Y-81213212D01*
X65385256Y-81064641D01*
X65083655Y-80973151D01*
X64848597Y-80950000D01*
X64691403Y-80950000D01*
X64593824Y-80959611D01*
X63199212Y-79565000D01*
X68880786Y-79565000D01*
X67486177Y-80959611D01*
G36*
X71774744Y-81064641D02*
G01*
X71496787Y-81213212D01*
X71253155Y-81413155D01*
X71120000Y-81575405D01*
X70986845Y-81413155D01*
X70743213Y-81213212D01*
X70465256Y-81064641D01*
X70285129Y-81010000D01*
X71954871Y-81010000D01*
X71774744Y-81064641D01*
X71774744Y-81064641D01*
G37*
X71774744Y-81064641D02*
X71496787Y-81213212D01*
X71253155Y-81413155D01*
X71120000Y-81575405D01*
X70986845Y-81413155D01*
X70743213Y-81213212D01*
X70465256Y-81064641D01*
X70285129Y-81010000D01*
X71954871Y-81010000D01*
X71774744Y-81064641D01*
G36*
X74314744Y-81064641D02*
G01*
X74036787Y-81213212D01*
X73793155Y-81413155D01*
X73660000Y-81575405D01*
X73526845Y-81413155D01*
X73283213Y-81213212D01*
X73005256Y-81064641D01*
X72825129Y-81010000D01*
X74494871Y-81010000D01*
X74314744Y-81064641D01*
X74314744Y-81064641D01*
G37*
X74314744Y-81064641D02*
X74036787Y-81213212D01*
X73793155Y-81413155D01*
X73660000Y-81575405D01*
X73526845Y-81413155D01*
X73283213Y-81213212D01*
X73005256Y-81064641D01*
X72825129Y-81010000D01*
X74494871Y-81010000D01*
X74314744Y-81064641D01*
G36*
X76854744Y-81064641D02*
G01*
X76576787Y-81213212D01*
X76333155Y-81413155D01*
X76200000Y-81575405D01*
X76066845Y-81413155D01*
X75823213Y-81213212D01*
X75545256Y-81064641D01*
X75365129Y-81010000D01*
X77034871Y-81010000D01*
X76854744Y-81064641D01*
X76854744Y-81064641D01*
G37*
X76854744Y-81064641D02*
X76576787Y-81213212D01*
X76333155Y-81413155D01*
X76200000Y-81575405D01*
X76066845Y-81413155D01*
X75823213Y-81213212D01*
X75545256Y-81064641D01*
X75365129Y-81010000D01*
X77034871Y-81010000D01*
X76854744Y-81064641D01*
G36*
X56534744Y-81064641D02*
G01*
X56256787Y-81213212D01*
X56013155Y-81413155D01*
X55880000Y-81575405D01*
X55746845Y-81413155D01*
X55503213Y-81213212D01*
X55225256Y-81064641D01*
X55045129Y-81010000D01*
X56714871Y-81010000D01*
X56534744Y-81064641D01*
X56534744Y-81064641D01*
G37*
X56534744Y-81064641D02*
X56256787Y-81213212D01*
X56013155Y-81413155D01*
X55880000Y-81575405D01*
X55746845Y-81413155D01*
X55503213Y-81213212D01*
X55225256Y-81064641D01*
X55045129Y-81010000D01*
X56714871Y-81010000D01*
X56534744Y-81064641D01*
G36*
X43834744Y-81064641D02*
G01*
X43556787Y-81213212D01*
X43313155Y-81413155D01*
X43181709Y-81573323D01*
X43152801Y-81530059D01*
X42929941Y-81307199D01*
X42667884Y-81132098D01*
X42376703Y-81011487D01*
X42369227Y-81010000D01*
X44014871Y-81010000D01*
X43834744Y-81064641D01*
X43834744Y-81064641D01*
G37*
X43834744Y-81064641D02*
X43556787Y-81213212D01*
X43313155Y-81413155D01*
X43181709Y-81573323D01*
X43152801Y-81530059D01*
X42929941Y-81307199D01*
X42667884Y-81132098D01*
X42376703Y-81011487D01*
X42369227Y-81010000D01*
X44014871Y-81010000D01*
X43834744Y-81064641D01*
M02*
