  0
SECTION
  2
HEADER
  9
$ANGBASE
  50
0.0
  9
$ANGDIR
  70
  1
  9
$MEASUREMENT
  70
0
  0
ENDSEC
  0
SECTION
  2
TABLES
  0
TABLE
  2
LTYPE
  70
4
  0
LTYPE
  5
40F
  2
CONTINUOUS
  70
0
  3
Solid line
  72
65
  73
0
  40
0.0
  0
LTYPE
  5
410
  2
DASHDOT
 70
0
  3
Dash Dot ____ _ ____ _
 72
65
 73
4
 40
2.0
 49
1.25
 49
-0.25
 49
0.25
 49
-0.25
  0
LTYPE
  5
411
  2
DASHED
 70
0
  3
Dashed __ __ __ __ __
 72
65
 73
2
 40
0.75
 49
0.5
 49
-0.25
  0
LTYPE
  5
43B
  2
DOTTED
 70
0
  3
Dotted .  .  .  .
 72
65
 73
2
 40
0.2
 49
0.0
 49
-0.2
  0
ENDTAB
  0
TABLE
  2
STYLE
  70
4
  0
STYLE
  2
KICAD
  70
0
  40
0
  41
1
  42
1
  50
0
  71
0
  3
isocp.shx
  0
STYLE
  2
KICADB
  70
0
  40
0
  41
1
  42
1
  50
0
  71
0
  3
isocp.shx
  0
STYLE
  2
KICADI
  70
0
  40
0
  41
1
  42
1
  50
15
  71
0
  3
isocp.shx
  0
STYLE
  2
KICADBI
  70
0
  40
0
  41
1
  42
1
  50
15
  71
0
  3
isocp.shx
  0
ENDTAB
  0
TABLE
  2
LAYER
  70
30
  0
LAYER
  2
BLACK
  70
0
  62
7
  6
CONTINUOUS
  0
LAYER
  2
GRAY1
  70
0
  62
251
  6
CONTINUOUS
  0
LAYER
  2
GRAY2
  70
0
  62
8
  6
CONTINUOUS
  0
LAYER
  2
GRAY3
  70
0
  62
9
  6
CONTINUOUS
  0
LAYER
  2
WHITE
  70
0
  62
7
  6
CONTINUOUS
  0
LAYER
  2
LYELLOW
  70
0
  62
51
  6
CONTINUOUS
  0
LAYER
  2
BLUE1
  70
0
  62
178
  6
CONTINUOUS
  0
LAYER
  2
GREEN1
  70
0
  62
98
  6
CONTINUOUS
  0
LAYER
  2
CYAN1
  70
0
  62
138
  6
CONTINUOUS
  0
LAYER
  2
RED1
  70
0
  62
18
  6
CONTINUOUS
  0
LAYER
  2
MAGENTA1
  70
0
  62
228
  6
CONTINUOUS
  0
LAYER
  2
BROWN1
  70
0
  62
58
  6
CONTINUOUS
  0
LAYER
  2
BLUE2
  70
0
  62
5
  6
CONTINUOUS
  0
LAYER
  2
GREEN2
  70
0
  62
3
  6
CONTINUOUS
  0
LAYER
  2
CYAN2
  70
0
  62
4
  6
CONTINUOUS
  0
LAYER
  2
RED2
  70
0
  62
1
  6
CONTINUOUS
  0
LAYER
  2
MAGENTA2
  70
0
  62
6
  6
CONTINUOUS
  0
LAYER
  2
BROWN2
  70
0
  62
54
  6
CONTINUOUS
  0
LAYER
  2
BLUE3
  70
0
  62
171
  6
CONTINUOUS
  0
LAYER
  2
GREEN3
  70
0
  62
91
  6
CONTINUOUS
  0
LAYER
  2
CYAN3
  70
0
  62
131
  6
CONTINUOUS
  0
LAYER
  2
RED3
  70
0
  62
11
  6
CONTINUOUS
  0
LAYER
  2
MAGENTA3
  70
0
  62
221
  6
CONTINUOUS
  0
LAYER
  2
YELLOW3
  70
0
  62
2
  6
CONTINUOUS
  0
LAYER
  2
BLUE4
  70
0
  62
5
  6
CONTINUOUS
  0
LAYER
  2
GREEN4
  70
0
  62
3
  6
CONTINUOUS
  0
LAYER
  2
CYAN4
  70
0
  62
4
  6
CONTINUOUS
  0
LAYER
  2
RED4
  70
0
  62
1
  6
CONTINUOUS
  0
LAYER
  2
MAGENTA4
  70
0
  62
6
  6
CONTINUOUS
  0
LAYER
  2
YELLOW4
  70
0
  62
2
  6
CONTINUOUS
  0
ENDTAB
  0
ENDSEC
  0
SECTION
  2
ENTITIES
0
LINE
8
BLACK
6
CONTINUOUS
10
50.2588
20
-117.355
11
50.26
21
-117.355
0
LINE
8
BLACK
6
CONTINUOUS
10
50.26
20
-117.355
11
50.2612
21
-117.355
0
LINE
8
BLACK
6
CONTINUOUS
10
50.2612
20
-117.355
11
50.2612
21
-117.355
0
LINE
8
BLACK
6
CONTINUOUS
10
50.2612
20
-117.355
11
50.2649
21
-117.355
0
LINE
8
BLACK
6
CONTINUOUS
10
50.2649
20
-117.355
11
50.2696
21
-117.357
0
LINE
8
BLACK
6
CONTINUOUS
10
50.2696
20
-117.357
11
50.274
21
-117.359
0
LINE
8
BLACK
6
CONTINUOUS
10
50.274
20
-117.359
11
50.2778
21
-117.362
0
LINE
8
BLACK
6
CONTINUOUS
10
50.2778
20
-117.362
11
50.2809
21
-117.366
0
LINE
8
BLACK
6
CONTINUOUS
10
50.2809
20
-117.366
11
50.2832
21
-117.37
0
LINE
8
BLACK
6
CONTINUOUS
10
50.2832
20
-117.37
11
50.2846
21
-117.375
0
LINE
8
BLACK
6
CONTINUOUS
10
50.2846
20
-117.375
11
50.2851
21
-117.38
0
LINE
8
BLACK
6
CONTINUOUS
10
50.2851
20
-117.38
11
50.285
21
-117.381
0
LINE
8
BLACK
6
CONTINUOUS
10
50.285
20
-117.381
11
50.285
21
-121.379
0
LINE
8
BLACK
6
CONTINUOUS
10
50.285
20
-121.379
11
50.2851
21
-121.38
0
LINE
8
BLACK
6
CONTINUOUS
10
50.2851
20
-121.38
11
50.285
21
-121.381
0
LINE
8
BLACK
6
CONTINUOUS
10
50.285
20
-121.381
11
50.2846
21
-121.385
0
LINE
8
BLACK
6
CONTINUOUS
10
50.2846
20
-121.385
11
50.2832
21
-121.39
0
LINE
8
BLACK
6
CONTINUOUS
10
50.2832
20
-121.39
11
50.2809
21
-121.394
0
LINE
8
BLACK
6
CONTINUOUS
10
50.2809
20
-121.394
11
50.2778
21
-121.398
0
LINE
8
BLACK
6
CONTINUOUS
10
50.2778
20
-121.398
11
50.274
21
-121.401
0
LINE
8
BLACK
6
CONTINUOUS
10
50.274
20
-121.401
11
50.2696
21
-121.403
0
LINE
8
BLACK
6
CONTINUOUS
10
50.2696
20
-121.403
11
50.2649
21
-121.405
0
LINE
8
BLACK
6
CONTINUOUS
10
50.2649
20
-121.405
11
50.26
21
-121.405
0
LINE
8
BLACK
6
CONTINUOUS
10
50.26
20
-121.405
11
50.2588
21
-121.405
0
LINE
8
BLACK
6
CONTINUOUS
10
50.2588
20
-121.405
11
49.285
21
-121.405
0
LINE
8
BLACK
6
CONTINUOUS
10
49.285
20
-121.405
11
49.285
21
-124.129
0
LINE
8
BLACK
6
CONTINUOUS
10
49.285
20
-124.129
11
49.2851
21
-124.13
0
LINE
8
BLACK
6
CONTINUOUS
10
49.2851
20
-124.13
11
49.285
21
-124.131
0
LINE
8
BLACK
6
CONTINUOUS
10
49.285
20
-124.131
11
49.285
21
-124.131
0
LINE
8
BLACK
6
CONTINUOUS
10
49.285
20
-124.131
11
49.2846
21
-124.135
0
LINE
8
BLACK
6
CONTINUOUS
10
49.2846
20
-124.135
11
49.2832
21
-124.14
0
LINE
8
BLACK
6
CONTINUOUS
10
49.2832
20
-124.14
11
49.2809
21
-124.144
0
LINE
8
BLACK
6
CONTINUOUS
10
49.2809
20
-124.144
11
49.2778
21
-124.148
0
LINE
8
BLACK
6
CONTINUOUS
10
49.2778
20
-124.148
11
49.274
21
-124.151
0
LINE
8
BLACK
6
CONTINUOUS
10
49.274
20
-124.151
11
49.2696
21
-124.153
0
LINE
8
BLACK
6
CONTINUOUS
10
49.2696
20
-124.153
11
49.2649
21
-124.155
0
LINE
8
BLACK
6
CONTINUOUS
10
49.2649
20
-124.155
11
49.26
21
-124.155
0
LINE
8
BLACK
6
CONTINUOUS
10
49.26
20
-124.155
11
49.2588
21
-124.155
0
LINE
8
BLACK
6
CONTINUOUS
10
49.2588
20
-124.155
11
47.285
21
-124.155
0
LINE
8
BLACK
6
CONTINUOUS
10
47.285
20
-124.155
11
47.285
21
-126.129
0
LINE
8
BLACK
6
CONTINUOUS
10
47.285
20
-126.129
11
47.2851
21
-126.13
0
LINE
8
BLACK
6
CONTINUOUS
10
47.2851
20
-126.13
11
47.285
21
-126.131
0
LINE
8
BLACK
6
CONTINUOUS
10
47.285
20
-126.131
11
47.285
21
-126.131
0
LINE
8
BLACK
6
CONTINUOUS
10
47.285
20
-126.131
11
47.2846
21
-126.135
0
LINE
8
BLACK
6
CONTINUOUS
10
47.2846
20
-126.135
11
47.2832
21
-126.14
0
LINE
8
BLACK
6
CONTINUOUS
10
47.2832
20
-126.14
11
47.2809
21
-126.144
0
LINE
8
BLACK
6
CONTINUOUS
10
47.2809
20
-126.144
11
47.2778
21
-126.148
0
LINE
8
BLACK
6
CONTINUOUS
10
47.2778
20
-126.148
11
47.274
21
-126.151
0
LINE
8
BLACK
6
CONTINUOUS
10
47.274
20
-126.151
11
47.2696
21
-126.153
0
LINE
8
BLACK
6
CONTINUOUS
10
47.2696
20
-126.153
11
47.2649
21
-126.155
0
LINE
8
BLACK
6
CONTINUOUS
10
47.2649
20
-126.155
11
47.26
21
-126.155
0
LINE
8
BLACK
6
CONTINUOUS
10
47.26
20
-126.155
11
47.2588
21
-126.155
0
LINE
8
BLACK
6
CONTINUOUS
10
47.2588
20
-126.155
11
43.2612
21
-126.155
0
LINE
8
BLACK
6
CONTINUOUS
10
43.2612
20
-126.155
11
43.26
21
-126.155
0
LINE
8
BLACK
6
CONTINUOUS
10
43.26
20
-126.155
11
43.2551
21
-126.155
0
LINE
8
BLACK
6
CONTINUOUS
10
43.2551
20
-126.155
11
43.2504
21
-126.153
0
LINE
8
BLACK
6
CONTINUOUS
10
43.2504
20
-126.153
11
43.246
21
-126.151
0
LINE
8
BLACK
6
CONTINUOUS
10
43.246
20
-126.151
11
43.2422
21
-126.148
0
LINE
8
BLACK
6
CONTINUOUS
10
43.2422
20
-126.148
11
43.2391
21
-126.144
0
LINE
8
BLACK
6
CONTINUOUS
10
43.2391
20
-126.144
11
43.2368
21
-126.14
0
LINE
8
BLACK
6
CONTINUOUS
10
43.2368
20
-126.14
11
43.2354
21
-126.135
0
LINE
8
BLACK
6
CONTINUOUS
10
43.2354
20
-126.135
11
43.2349
21
-126.13
0
LINE
8
BLACK
6
CONTINUOUS
10
43.2349
20
-126.13
11
43.235
21
-126.129
0
LINE
8
BLACK
6
CONTINUOUS
10
43.235
20
-126.129
11
43.235
21
-124.155
0
LINE
8
BLACK
6
CONTINUOUS
10
43.235
20
-124.155
11
34.2612
21
-124.155
0
LINE
8
BLACK
6
CONTINUOUS
10
34.2612
20
-124.155
11
34.26
21
-124.155
0
LINE
8
BLACK
6
CONTINUOUS
10
34.26
20
-124.155
11
34.2551
21
-124.155
0
LINE
8
BLACK
6
CONTINUOUS
10
34.2551
20
-124.155
11
34.2504
21
-124.153
0
LINE
8
BLACK
6
CONTINUOUS
10
34.2504
20
-124.153
11
34.246
21
-124.151
0
LINE
8
BLACK
6
CONTINUOUS
10
34.246
20
-124.151
11
34.2422
21
-124.148
0
LINE
8
BLACK
6
CONTINUOUS
10
34.2422
20
-124.148
11
34.2391
21
-124.144
0
LINE
8
BLACK
6
CONTINUOUS
10
34.2391
20
-124.144
11
34.2368
21
-124.14
0
LINE
8
BLACK
6
CONTINUOUS
10
34.2368
20
-124.14
11
34.2354
21
-124.135
0
LINE
8
BLACK
6
CONTINUOUS
10
34.2354
20
-124.135
11
34.2349
21
-124.13
0
LINE
8
BLACK
6
CONTINUOUS
10
34.2349
20
-124.13
11
34.235
21
-124.129
0
LINE
8
BLACK
6
CONTINUOUS
10
34.235
20
-124.129
11
34.235
21
-114.631
0
LINE
8
BLACK
6
CONTINUOUS
10
34.235
20
-114.631
11
34.2349
21
-114.63
0
LINE
8
BLACK
6
CONTINUOUS
10
34.2349
20
-114.63
11
34.2354
21
-114.625
0
LINE
8
BLACK
6
CONTINUOUS
10
34.2354
20
-114.625
11
34.2368
21
-114.62
0
LINE
8
BLACK
6
CONTINUOUS
10
34.2368
20
-114.62
11
34.2391
21
-114.616
0
LINE
8
BLACK
6
CONTINUOUS
10
34.2391
20
-114.616
11
34.2422
21
-114.612
0
LINE
8
BLACK
6
CONTINUOUS
10
34.2422
20
-114.612
11
34.246
21
-114.609
0
LINE
8
BLACK
6
CONTINUOUS
10
34.246
20
-114.609
11
34.2504
21
-114.607
0
LINE
8
BLACK
6
CONTINUOUS
10
34.2504
20
-114.607
11
34.2551
21
-114.605
0
LINE
8
BLACK
6
CONTINUOUS
10
34.2551
20
-114.605
11
34.2588
21
-114.605
0
LINE
8
BLACK
6
CONTINUOUS
10
34.2588
20
-114.605
11
34.2588
21
-114.605
0
LINE
8
BLACK
6
CONTINUOUS
10
34.2588
20
-114.605
11
34.26
21
-114.605
0
LINE
8
BLACK
6
CONTINUOUS
10
34.26
20
-114.605
11
34.2612
21
-114.605
0
LINE
8
BLACK
6
CONTINUOUS
10
34.2612
20
-114.605
11
49.2588
21
-114.605
0
LINE
8
BLACK
6
CONTINUOUS
10
49.2588
20
-114.605
11
49.26
21
-114.605
0
LINE
8
BLACK
6
CONTINUOUS
10
49.26
20
-114.605
11
49.2612
21
-114.605
0
LINE
8
BLACK
6
CONTINUOUS
10
49.2612
20
-114.605
11
49.2649
21
-114.605
0
LINE
8
BLACK
6
CONTINUOUS
10
49.2649
20
-114.605
11
49.2696
21
-114.607
0
LINE
8
BLACK
6
CONTINUOUS
10
49.2696
20
-114.607
11
49.274
21
-114.609
0
LINE
8
BLACK
6
CONTINUOUS
10
49.274
20
-114.609
11
49.2778
21
-114.612
0
LINE
8
BLACK
6
CONTINUOUS
10
49.2778
20
-114.612
11
49.2809
21
-114.616
0
LINE
8
BLACK
6
CONTINUOUS
10
49.2809
20
-114.616
11
49.2832
21
-114.62
0
LINE
8
BLACK
6
CONTINUOUS
10
49.2832
20
-114.62
11
49.2846
21
-114.625
0
LINE
8
BLACK
6
CONTINUOUS
10
49.2846
20
-114.625
11
49.2851
21
-114.63
0
LINE
8
BLACK
6
CONTINUOUS
10
49.2851
20
-114.63
11
49.285
21
-114.631
0
LINE
8
BLACK
6
CONTINUOUS
10
49.285
20
-114.631
11
49.285
21
-117.355
0
LINE
8
BLACK
6
CONTINUOUS
10
49.285
20
-117.355
11
50.2588
21
-117.355
0
LINE
8
BLACK
6
CONTINUOUS
10
34.285
20
-114.655
11
34.285
21
-124.105
0
LINE
8
BLACK
6
CONTINUOUS
10
34.285
20
-124.105
11
43.2588
21
-124.105
0
LINE
8
BLACK
6
CONTINUOUS
10
43.2588
20
-124.105
11
43.26
21
-124.105
0
LINE
8
BLACK
6
CONTINUOUS
10
43.26
20
-124.105
11
43.2612
21
-124.105
0
LINE
8
BLACK
6
CONTINUOUS
10
43.2612
20
-124.105
11
43.2649
21
-124.105
0
LINE
8
BLACK
6
CONTINUOUS
10
43.2649
20
-124.105
11
43.2696
21
-124.107
0
LINE
8
BLACK
6
CONTINUOUS
10
43.2696
20
-124.107
11
43.274
21
-124.109
0
LINE
8
BLACK
6
CONTINUOUS
10
43.274
20
-124.109
11
43.2778
21
-124.112
0
LINE
8
BLACK
6
CONTINUOUS
10
43.2778
20
-124.112
11
43.2809
21
-124.116
0
LINE
8
BLACK
6
CONTINUOUS
10
43.2809
20
-124.116
11
43.2832
21
-124.12
0
LINE
8
BLACK
6
CONTINUOUS
10
43.2832
20
-124.12
11
43.2846
21
-124.125
0
LINE
8
BLACK
6
CONTINUOUS
10
43.2846
20
-124.125
11
43.2851
21
-124.13
0
LINE
8
BLACK
6
CONTINUOUS
10
43.2851
20
-124.13
11
43.285
21
-124.131
0
LINE
8
BLACK
6
CONTINUOUS
10
43.285
20
-124.131
11
43.285
21
-126.105
0
LINE
8
BLACK
6
CONTINUOUS
10
43.285
20
-126.105
11
47.235
21
-126.105
0
LINE
8
BLACK
6
CONTINUOUS
10
47.235
20
-126.105
11
47.235
21
-124.131
0
LINE
8
BLACK
6
CONTINUOUS
10
47.235
20
-124.131
11
47.2349
21
-124.13
0
LINE
8
BLACK
6
CONTINUOUS
10
47.2349
20
-124.13
11
47.2354
21
-124.125
0
LINE
8
BLACK
6
CONTINUOUS
10
47.2354
20
-124.125
11
47.2368
21
-124.12
0
LINE
8
BLACK
6
CONTINUOUS
10
47.2368
20
-124.12
11
47.2391
21
-124.116
0
LINE
8
BLACK
6
CONTINUOUS
10
47.2391
20
-124.116
11
47.2422
21
-124.112
0
LINE
8
BLACK
6
CONTINUOUS
10
47.2422
20
-124.112
11
47.246
21
-124.109
0
LINE
8
BLACK
6
CONTINUOUS
10
47.246
20
-124.109
11
47.2504
21
-124.107
0
LINE
8
BLACK
6
CONTINUOUS
10
47.2504
20
-124.107
11
47.2551
21
-124.105
0
LINE
8
BLACK
6
CONTINUOUS
10
47.2551
20
-124.105
11
47.2588
21
-124.105
0
LINE
8
BLACK
6
CONTINUOUS
10
47.2588
20
-124.105
11
47.26
21
-124.105
0
LINE
8
BLACK
6
CONTINUOUS
10
47.26
20
-124.105
11
47.2612
21
-124.105
0
LINE
8
BLACK
6
CONTINUOUS
10
47.2612
20
-124.105
11
49.235
21
-124.105
0
LINE
8
BLACK
6
CONTINUOUS
10
49.235
20
-124.105
11
49.235
21
-121.381
0
LINE
8
BLACK
6
CONTINUOUS
10
49.235
20
-121.381
11
49.2349
21
-121.38
0
LINE
8
BLACK
6
CONTINUOUS
10
49.2349
20
-121.38
11
49.2354
21
-121.375
0
LINE
8
BLACK
6
CONTINUOUS
10
49.2354
20
-121.375
11
49.2368
21
-121.37
0
LINE
8
BLACK
6
CONTINUOUS
10
49.2368
20
-121.37
11
49.2391
21
-121.366
0
LINE
8
BLACK
6
CONTINUOUS
10
49.2391
20
-121.366
11
49.2422
21
-121.362
0
LINE
8
BLACK
6
CONTINUOUS
10
49.2422
20
-121.362
11
49.246
21
-121.359
0
LINE
8
BLACK
6
CONTINUOUS
10
49.246
20
-121.359
11
49.2504
21
-121.357
0
LINE
8
BLACK
6
CONTINUOUS
10
49.2504
20
-121.357
11
49.2551
21
-121.355
0
LINE
8
BLACK
6
CONTINUOUS
10
49.2551
20
-121.355
11
49.2588
21
-121.355
0
LINE
8
BLACK
6
CONTINUOUS
10
49.2588
20
-121.355
11
49.26
21
-121.355
0
LINE
8
BLACK
6
CONTINUOUS
10
49.26
20
-121.355
11
49.2612
21
-121.355
0
LINE
8
BLACK
6
CONTINUOUS
10
49.2612
20
-121.355
11
50.235
21
-121.355
0
LINE
8
BLACK
6
CONTINUOUS
10
50.235
20
-121.355
11
50.235
21
-117.405
0
LINE
8
BLACK
6
CONTINUOUS
10
50.235
20
-117.405
11
49.2612
21
-117.405
0
LINE
8
BLACK
6
CONTINUOUS
10
49.2612
20
-117.405
11
49.26
21
-117.405
0
LINE
8
BLACK
6
CONTINUOUS
10
49.26
20
-117.405
11
49.2588
21
-117.405
0
LINE
8
BLACK
6
CONTINUOUS
10
49.2588
20
-117.405
11
49.2588
21
-117.405
0
LINE
8
BLACK
6
CONTINUOUS
10
49.2588
20
-117.405
11
49.2551
21
-117.405
0
LINE
8
BLACK
6
CONTINUOUS
10
49.2551
20
-117.405
11
49.2504
21
-117.403
0
LINE
8
BLACK
6
CONTINUOUS
10
49.2504
20
-117.403
11
49.246
21
-117.401
0
LINE
8
BLACK
6
CONTINUOUS
10
49.246
20
-117.401
11
49.2422
21
-117.398
0
LINE
8
BLACK
6
CONTINUOUS
10
49.2422
20
-117.398
11
49.2391
21
-117.394
0
LINE
8
BLACK
6
CONTINUOUS
10
49.2391
20
-117.394
11
49.2368
21
-117.39
0
LINE
8
BLACK
6
CONTINUOUS
10
49.2368
20
-117.39
11
49.2354
21
-117.385
0
LINE
8
BLACK
6
CONTINUOUS
10
49.2354
20
-117.385
11
49.2349
21
-117.38
0
LINE
8
BLACK
6
CONTINUOUS
10
49.2349
20
-117.38
11
49.235
21
-117.379
0
LINE
8
BLACK
6
CONTINUOUS
10
49.235
20
-117.379
11
49.235
21
-114.879
0
LINE
8
BLACK
6
CONTINUOUS
10
49.235
20
-114.879
11
49.235
21
-114.879
0
LINE
8
BLACK
6
CONTINUOUS
10
49.235
20
-114.879
11
49.235
21
-114.655
0
LINE
8
BLACK
6
CONTINUOUS
10
49.235
20
-114.655
11
34.285
21
-114.655
0
LINE
8
BLACK
6
CONTINUOUS
10
186.471
20
-122.935
11
186.475
21
-122.935
0
LINE
8
BLACK
6
CONTINUOUS
10
186.475
20
-122.935
11
186.48
21
-122.937
0
LINE
8
BLACK
6
CONTINUOUS
10
186.48
20
-122.937
11
186.484
21
-122.939
0
LINE
8
BLACK
6
CONTINUOUS
10
186.484
20
-122.939
11
186.488
21
-122.942
0
LINE
8
BLACK
6
CONTINUOUS
10
186.488
20
-122.942
11
186.491
21
-122.946
0
LINE
8
BLACK
6
CONTINUOUS
10
186.491
20
-122.946
11
186.493
21
-122.95
0
LINE
8
BLACK
6
CONTINUOUS
10
186.493
20
-122.95
11
186.495
21
-122.955
0
LINE
8
BLACK
6
CONTINUOUS
10
186.495
20
-122.955
11
186.495
21
-122.96
0
LINE
8
BLACK
6
CONTINUOUS
10
186.495
20
-122.96
11
186.495
21
-122.961
0
LINE
8
BLACK
6
CONTINUOUS
10
186.495
20
-122.961
11
186.495
21
-125.959
0
LINE
8
BLACK
6
CONTINUOUS
10
186.495
20
-125.959
11
186.495
21
-125.96
0
LINE
8
BLACK
6
CONTINUOUS
10
186.495
20
-125.96
11
186.495
21
-125.965
0
LINE
8
BLACK
6
CONTINUOUS
10
186.495
20
-125.965
11
186.493
21
-125.97
0
LINE
8
BLACK
6
CONTINUOUS
10
186.493
20
-125.97
11
186.491
21
-125.974
0
LINE
8
BLACK
6
CONTINUOUS
10
186.491
20
-125.974
11
186.488
21
-125.978
0
LINE
8
BLACK
6
CONTINUOUS
10
186.488
20
-125.978
11
186.484
21
-125.981
0
LINE
8
BLACK
6
CONTINUOUS
10
186.484
20
-125.981
11
186.48
21
-125.983
0
LINE
8
BLACK
6
CONTINUOUS
10
186.48
20
-125.983
11
186.475
21
-125.985
0
LINE
8
BLACK
6
CONTINUOUS
10
186.475
20
-125.985
11
186.471
21
-125.985
0
LINE
8
BLACK
6
CONTINUOUS
10
186.471
20
-125.985
11
186.471
21
-125.985
0
LINE
8
BLACK
6
CONTINUOUS
10
186.471
20
-125.985
11
186.47
21
-125.985
0
LINE
8
BLACK
6
CONTINUOUS
10
186.47
20
-125.985
11
186.469
21
-125.985
0
LINE
8
BLACK
6
CONTINUOUS
10
186.469
20
-125.985
11
176.751
21
-125.985
0
LINE
8
BLACK
6
CONTINUOUS
10
176.751
20
-125.985
11
176.75
21
-125.985
0
LINE
8
BLACK
6
CONTINUOUS
10
176.75
20
-125.985
11
176.749
21
-125.985
0
LINE
8
BLACK
6
CONTINUOUS
10
176.749
20
-125.985
11
176.749
21
-125.985
0
LINE
8
BLACK
6
CONTINUOUS
10
176.749
20
-125.985
11
176.745
21
-125.985
0
LINE
8
BLACK
6
CONTINUOUS
10
176.745
20
-125.985
11
176.74
21
-125.983
0
LINE
8
BLACK
6
CONTINUOUS
10
176.74
20
-125.983
11
176.736
21
-125.981
0
LINE
8
BLACK
6
CONTINUOUS
10
176.736
20
-125.981
11
176.732
21
-125.978
0
LINE
8
BLACK
6
CONTINUOUS
10
176.732
20
-125.978
11
176.729
21
-125.974
0
LINE
8
BLACK
6
CONTINUOUS
10
176.729
20
-125.974
11
176.727
21
-125.97
0
LINE
8
BLACK
6
CONTINUOUS
10
176.727
20
-125.97
11
176.725
21
-125.965
0
LINE
8
BLACK
6
CONTINUOUS
10
176.725
20
-125.965
11
176.725
21
-125.96
0
LINE
8
BLACK
6
CONTINUOUS
10
176.725
20
-125.96
11
176.725
21
-125.959
0
LINE
8
BLACK
6
CONTINUOUS
10
176.725
20
-125.959
11
176.725
21
-122.961
0
LINE
8
BLACK
6
CONTINUOUS
10
176.725
20
-122.961
11
176.725
21
-122.96
0
LINE
8
BLACK
6
CONTINUOUS
10
176.725
20
-122.96
11
176.725
21
-122.955
0
LINE
8
BLACK
6
CONTINUOUS
10
176.725
20
-122.955
11
176.727
21
-122.95
0
LINE
8
BLACK
6
CONTINUOUS
10
176.727
20
-122.95
11
176.729
21
-122.946
0
LINE
8
BLACK
6
CONTINUOUS
10
176.729
20
-122.946
11
176.732
21
-122.942
0
LINE
8
BLACK
6
CONTINUOUS
10
176.732
20
-122.942
11
176.736
21
-122.939
0
LINE
8
BLACK
6
CONTINUOUS
10
176.736
20
-122.939
11
176.74
21
-122.937
0
LINE
8
BLACK
6
CONTINUOUS
10
176.74
20
-122.937
11
176.745
21
-122.935
0
LINE
8
BLACK
6
CONTINUOUS
10
176.745
20
-122.935
11
176.749
21
-122.935
0
LINE
8
BLACK
6
CONTINUOUS
10
176.749
20
-122.935
11
176.75
21
-122.935
0
LINE
8
BLACK
6
CONTINUOUS
10
176.75
20
-122.935
11
176.751
21
-122.935
0
LINE
8
BLACK
6
CONTINUOUS
10
176.751
20
-122.935
11
186.469
21
-122.935
0
LINE
8
BLACK
6
CONTINUOUS
10
186.469
20
-122.935
11
186.47
21
-122.935
0
LINE
8
BLACK
6
CONTINUOUS
10
186.47
20
-122.935
11
186.471
21
-122.935
0
LINE
8
BLACK
6
CONTINUOUS
10
176.775
20
-122.985
11
176.775
21
-125.935
0
LINE
8
BLACK
6
CONTINUOUS
10
176.775
20
-125.935
11
186.445
21
-125.935
0
LINE
8
BLACK
6
CONTINUOUS
10
186.445
20
-125.935
11
186.445
21
-122.985
0
LINE
8
BLACK
6
CONTINUOUS
10
186.445
20
-122.985
11
176.775
21
-122.985
0
LINE
8
BLACK
6
CONTINUOUS
10
98.8412
20
-122.935
11
98.8449
21
-122.935
0
LINE
8
BLACK
6
CONTINUOUS
10
98.8449
20
-122.935
11
98.8496
21
-122.937
0
LINE
8
BLACK
6
CONTINUOUS
10
98.8496
20
-122.937
11
98.854
21
-122.939
0
LINE
8
BLACK
6
CONTINUOUS
10
98.854
20
-122.939
11
98.8578
21
-122.942
0
LINE
8
BLACK
6
CONTINUOUS
10
98.8578
20
-122.942
11
98.8609
21
-122.946
0
LINE
8
BLACK
6
CONTINUOUS
10
98.8609
20
-122.946
11
98.8632
21
-122.95
0
LINE
8
BLACK
6
CONTINUOUS
10
98.8632
20
-122.95
11
98.8646
21
-122.955
0
LINE
8
BLACK
6
CONTINUOUS
10
98.8646
20
-122.955
11
98.8651
21
-122.96
0
LINE
8
BLACK
6
CONTINUOUS
10
98.8651
20
-122.96
11
98.865
21
-122.961
0
LINE
8
BLACK
6
CONTINUOUS
10
98.865
20
-122.961
11
98.865
21
-125.959
0
LINE
8
BLACK
6
CONTINUOUS
10
98.865
20
-125.959
11
98.8651
21
-125.96
0
LINE
8
BLACK
6
CONTINUOUS
10
98.8651
20
-125.96
11
98.8646
21
-125.965
0
LINE
8
BLACK
6
CONTINUOUS
10
98.8646
20
-125.965
11
98.8632
21
-125.97
0
LINE
8
BLACK
6
CONTINUOUS
10
98.8632
20
-125.97
11
98.8609
21
-125.974
0
LINE
8
BLACK
6
CONTINUOUS
10
98.8609
20
-125.974
11
98.8578
21
-125.978
0
LINE
8
BLACK
6
CONTINUOUS
10
98.8578
20
-125.978
11
98.854
21
-125.981
0
LINE
8
BLACK
6
CONTINUOUS
10
98.854
20
-125.981
11
98.8496
21
-125.983
0
LINE
8
BLACK
6
CONTINUOUS
10
98.8496
20
-125.983
11
98.8449
21
-125.985
0
LINE
8
BLACK
6
CONTINUOUS
10
98.8449
20
-125.985
11
98.8412
21
-125.985
0
LINE
8
BLACK
6
CONTINUOUS
10
98.8412
20
-125.985
11
98.8412
21
-125.985
0
LINE
8
BLACK
6
CONTINUOUS
10
98.8412
20
-125.985
11
98.84
21
-125.985
0
LINE
8
BLACK
6
CONTINUOUS
10
98.84
20
-125.985
11
98.8388
21
-125.985
0
LINE
8
BLACK
6
CONTINUOUS
10
98.8388
20
-125.985
11
89.1212
21
-125.985
0
LINE
8
BLACK
6
CONTINUOUS
10
89.1212
20
-125.985
11
89.12
21
-125.985
0
LINE
8
BLACK
6
CONTINUOUS
10
89.12
20
-125.985
11
89.1188
21
-125.985
0
LINE
8
BLACK
6
CONTINUOUS
10
89.1188
20
-125.985
11
89.1188
21
-125.985
0
LINE
8
BLACK
6
CONTINUOUS
10
89.1188
20
-125.985
11
89.1151
21
-125.985
0
LINE
8
BLACK
6
CONTINUOUS
10
89.1151
20
-125.985
11
89.1104
21
-125.983
0
LINE
8
BLACK
6
CONTINUOUS
10
89.1104
20
-125.983
11
89.106
21
-125.981
0
LINE
8
BLACK
6
CONTINUOUS
10
89.106
20
-125.981
11
89.1022
21
-125.978
0
LINE
8
BLACK
6
CONTINUOUS
10
89.1022
20
-125.978
11
89.0991
21
-125.974
0
LINE
8
BLACK
6
CONTINUOUS
10
89.0991
20
-125.974
11
89.0968
21
-125.97
0
LINE
8
BLACK
6
CONTINUOUS
10
89.0968
20
-125.97
11
89.0954
21
-125.965
0
LINE
8
BLACK
6
CONTINUOUS
10
89.0954
20
-125.965
11
89.0949
21
-125.96
0
LINE
8
BLACK
6
CONTINUOUS
10
89.0949
20
-125.96
11
89.095
21
-125.959
0
LINE
8
BLACK
6
CONTINUOUS
10
89.095
20
-125.959
11
89.095
21
-122.961
0
LINE
8
BLACK
6
CONTINUOUS
10
89.095
20
-122.961
11
89.0949
21
-122.96
0
LINE
8
BLACK
6
CONTINUOUS
10
89.0949
20
-122.96
11
89.0954
21
-122.955
0
LINE
8
BLACK
6
CONTINUOUS
10
89.0954
20
-122.955
11
89.0968
21
-122.95
0
LINE
8
BLACK
6
CONTINUOUS
10
89.0968
20
-122.95
11
89.0991
21
-122.946
0
LINE
8
BLACK
6
CONTINUOUS
10
89.0991
20
-122.946
11
89.1022
21
-122.942
0
LINE
8
BLACK
6
CONTINUOUS
10
89.1022
20
-122.942
11
89.106
21
-122.939
0
LINE
8
BLACK
6
CONTINUOUS
10
89.106
20
-122.939
11
89.1104
21
-122.937
0
LINE
8
BLACK
6
CONTINUOUS
10
89.1104
20
-122.937
11
89.1151
21
-122.935
0
LINE
8
BLACK
6
CONTINUOUS
10
89.1151
20
-122.935
11
89.1188
21
-122.935
0
LINE
8
BLACK
6
CONTINUOUS
10
89.1188
20
-122.935
11
89.12
21
-122.935
0
LINE
8
BLACK
6
CONTINUOUS
10
89.12
20
-122.935
11
89.1212
21
-122.935
0
LINE
8
BLACK
6
CONTINUOUS
10
89.1212
20
-122.935
11
98.8388
21
-122.935
0
LINE
8
BLACK
6
CONTINUOUS
10
98.8388
20
-122.935
11
98.84
21
-122.935
0
LINE
8
BLACK
6
CONTINUOUS
10
98.84
20
-122.935
11
98.8412
21
-122.935
0
LINE
8
BLACK
6
CONTINUOUS
10
89.145
20
-122.985
11
89.145
21
-125.935
0
LINE
8
BLACK
6
CONTINUOUS
10
89.145
20
-125.935
11
98.815
21
-125.935
0
LINE
8
BLACK
6
CONTINUOUS
10
98.815
20
-125.935
11
98.815
21
-122.985
0
LINE
8
BLACK
6
CONTINUOUS
10
98.815
20
-122.985
11
89.145
21
-122.985
0
LINE
8
BLACK
6
CONTINUOUS
10
139.481
20
-122.935
11
139.485
21
-122.935
0
LINE
8
BLACK
6
CONTINUOUS
10
139.485
20
-122.935
11
139.49
21
-122.937
0
LINE
8
BLACK
6
CONTINUOUS
10
139.49
20
-122.937
11
139.494
21
-122.939
0
LINE
8
BLACK
6
CONTINUOUS
10
139.494
20
-122.939
11
139.498
21
-122.942
0
LINE
8
BLACK
6
CONTINUOUS
10
139.498
20
-122.942
11
139.501
21
-122.946
0
LINE
8
BLACK
6
CONTINUOUS
10
139.501
20
-122.946
11
139.503
21
-122.95
0
LINE
8
BLACK
6
CONTINUOUS
10
139.503
20
-122.95
11
139.505
21
-122.955
0
LINE
8
BLACK
6
CONTINUOUS
10
139.505
20
-122.955
11
139.505
21
-122.96
0
LINE
8
BLACK
6
CONTINUOUS
10
139.505
20
-122.96
11
139.505
21
-122.961
0
LINE
8
BLACK
6
CONTINUOUS
10
139.505
20
-122.961
11
139.505
21
-125.959
0
LINE
8
BLACK
6
CONTINUOUS
10
139.505
20
-125.959
11
139.505
21
-125.96
0
LINE
8
BLACK
6
CONTINUOUS
10
139.505
20
-125.96
11
139.505
21
-125.965
0
LINE
8
BLACK
6
CONTINUOUS
10
139.505
20
-125.965
11
139.503
21
-125.97
0
LINE
8
BLACK
6
CONTINUOUS
10
139.503
20
-125.97
11
139.501
21
-125.974
0
LINE
8
BLACK
6
CONTINUOUS
10
139.501
20
-125.974
11
139.498
21
-125.978
0
LINE
8
BLACK
6
CONTINUOUS
10
139.498
20
-125.978
11
139.494
21
-125.981
0
LINE
8
BLACK
6
CONTINUOUS
10
139.494
20
-125.981
11
139.49
21
-125.983
0
LINE
8
BLACK
6
CONTINUOUS
10
139.49
20
-125.983
11
139.485
21
-125.985
0
LINE
8
BLACK
6
CONTINUOUS
10
139.485
20
-125.985
11
139.481
21
-125.985
0
LINE
8
BLACK
6
CONTINUOUS
10
139.481
20
-125.985
11
139.481
21
-125.985
0
LINE
8
BLACK
6
CONTINUOUS
10
139.481
20
-125.985
11
139.48
21
-125.985
0
LINE
8
BLACK
6
CONTINUOUS
10
139.48
20
-125.985
11
139.479
21
-125.985
0
LINE
8
BLACK
6
CONTINUOUS
10
139.479
20
-125.985
11
129.761
21
-125.985
0
LINE
8
BLACK
6
CONTINUOUS
10
129.761
20
-125.985
11
129.76
21
-125.985
0
LINE
8
BLACK
6
CONTINUOUS
10
129.76
20
-125.985
11
129.759
21
-125.985
0
LINE
8
BLACK
6
CONTINUOUS
10
129.759
20
-125.985
11
129.759
21
-125.985
0
LINE
8
BLACK
6
CONTINUOUS
10
129.759
20
-125.985
11
129.755
21
-125.985
0
LINE
8
BLACK
6
CONTINUOUS
10
129.755
20
-125.985
11
129.75
21
-125.983
0
LINE
8
BLACK
6
CONTINUOUS
10
129.75
20
-125.983
11
129.746
21
-125.981
0
LINE
8
BLACK
6
CONTINUOUS
10
129.746
20
-125.981
11
129.742
21
-125.978
0
LINE
8
BLACK
6
CONTINUOUS
10
129.742
20
-125.978
11
129.739
21
-125.974
0
LINE
8
BLACK
6
CONTINUOUS
10
129.739
20
-125.974
11
129.737
21
-125.97
0
LINE
8
BLACK
6
CONTINUOUS
10
129.737
20
-125.97
11
129.735
21
-125.965
0
LINE
8
BLACK
6
CONTINUOUS
10
129.735
20
-125.965
11
129.735
21
-125.96
0
LINE
8
BLACK
6
CONTINUOUS
10
129.735
20
-125.96
11
129.735
21
-125.959
0
LINE
8
BLACK
6
CONTINUOUS
10
129.735
20
-125.959
11
129.735
21
-122.961
0
LINE
8
BLACK
6
CONTINUOUS
10
129.735
20
-122.961
11
129.735
21
-122.96
0
LINE
8
BLACK
6
CONTINUOUS
10
129.735
20
-122.96
11
129.735
21
-122.955
0
LINE
8
BLACK
6
CONTINUOUS
10
129.735
20
-122.955
11
129.737
21
-122.95
0
LINE
8
BLACK
6
CONTINUOUS
10
129.737
20
-122.95
11
129.739
21
-122.946
0
LINE
8
BLACK
6
CONTINUOUS
10
129.739
20
-122.946
11
129.742
21
-122.942
0
LINE
8
BLACK
6
CONTINUOUS
10
129.742
20
-122.942
11
129.746
21
-122.939
0
LINE
8
BLACK
6
CONTINUOUS
10
129.746
20
-122.939
11
129.75
21
-122.937
0
LINE
8
BLACK
6
CONTINUOUS
10
129.75
20
-122.937
11
129.755
21
-122.935
0
LINE
8
BLACK
6
CONTINUOUS
10
129.755
20
-122.935
11
129.759
21
-122.935
0
LINE
8
BLACK
6
CONTINUOUS
10
129.759
20
-122.935
11
129.76
21
-122.935
0
LINE
8
BLACK
6
CONTINUOUS
10
129.76
20
-122.935
11
129.761
21
-122.935
0
LINE
8
BLACK
6
CONTINUOUS
10
129.761
20
-122.935
11
139.479
21
-122.935
0
LINE
8
BLACK
6
CONTINUOUS
10
139.479
20
-122.935
11
139.48
21
-122.935
0
LINE
8
BLACK
6
CONTINUOUS
10
139.48
20
-122.935
11
139.481
21
-122.935
0
LINE
8
BLACK
6
CONTINUOUS
10
129.785
20
-122.985
11
129.785
21
-125.935
0
LINE
8
BLACK
6
CONTINUOUS
10
129.785
20
-125.935
11
139.455
21
-125.935
0
LINE
8
BLACK
6
CONTINUOUS
10
139.455
20
-125.935
11
139.455
21
-122.985
0
LINE
8
BLACK
6
CONTINUOUS
10
139.455
20
-122.985
11
129.785
21
-122.985
0
LINE
8
BLACK
6
CONTINUOUS
10
57.3212
20
-116.935
11
66.0712
21
-116.935
0
LINE
8
BLACK
6
CONTINUOUS
10
66.0712
20
-116.935
11
66.0749
21
-116.935
0
LINE
8
BLACK
6
CONTINUOUS
10
66.0749
20
-116.935
11
66.0796
21
-116.937
0
LINE
8
BLACK
6
CONTINUOUS
10
66.0796
20
-116.937
11
66.084
21
-116.939
0
LINE
8
BLACK
6
CONTINUOUS
10
66.084
20
-116.939
11
66.0878
21
-116.942
0
LINE
8
BLACK
6
CONTINUOUS
10
66.0878
20
-116.942
11
66.0909
21
-116.946
0
LINE
8
BLACK
6
CONTINUOUS
10
66.0909
20
-116.946
11
66.0932
21
-116.95
0
LINE
8
BLACK
6
CONTINUOUS
10
66.0932
20
-116.95
11
66.0946
21
-116.955
0
LINE
8
BLACK
6
CONTINUOUS
10
66.0946
20
-116.955
11
66.0951
21
-116.96
0
LINE
8
BLACK
6
CONTINUOUS
10
66.0951
20
-116.96
11
66.0946
21
-116.965
0
LINE
8
BLACK
6
CONTINUOUS
10
66.0946
20
-116.965
11
66.0932
21
-116.97
0
LINE
8
BLACK
6
CONTINUOUS
10
66.0932
20
-116.97
11
66.0909
21
-116.974
0
LINE
8
BLACK
6
CONTINUOUS
10
66.0909
20
-116.974
11
66.0878
21
-116.978
0
LINE
8
BLACK
6
CONTINUOUS
10
66.0878
20
-116.978
11
66.084
21
-116.981
0
LINE
8
BLACK
6
CONTINUOUS
10
66.084
20
-116.981
11
66.0796
21
-116.983
0
LINE
8
BLACK
6
CONTINUOUS
10
66.0796
20
-116.983
11
66.0749
21
-116.985
0
LINE
8
BLACK
6
CONTINUOUS
10
66.0749
20
-116.985
11
66.0712
21
-116.985
0
LINE
8
BLACK
6
CONTINUOUS
10
66.0712
20
-116.985
11
66.0212
21
-116.985
0
LINE
8
BLACK
6
CONTINUOUS
10
66.0212
20
-116.985
11
66.0249
21
-116.985
0
LINE
8
BLACK
6
CONTINUOUS
10
66.0249
20
-116.985
11
66.0296
21
-116.987
0
LINE
8
BLACK
6
CONTINUOUS
10
66.0296
20
-116.987
11
66.034
21
-116.989
0
LINE
8
BLACK
6
CONTINUOUS
10
66.034
20
-116.989
11
66.0378
21
-116.992
0
LINE
8
BLACK
6
CONTINUOUS
10
66.0378
20
-116.992
11
66.0409
21
-116.996
0
LINE
8
BLACK
6
CONTINUOUS
10
66.0409
20
-116.996
11
66.0432
21
-117
0
LINE
8
BLACK
6
CONTINUOUS
10
66.0432
20
-117
11
66.0446
21
-117.005
0
LINE
8
BLACK
6
CONTINUOUS
10
66.0446
20
-117.005
11
66.045
21
-117.009
0
LINE
8
BLACK
6
CONTINUOUS
10
66.045
20
-117.009
11
66.045
21
-123.709
0
LINE
8
BLACK
6
CONTINUOUS
10
66.045
20
-123.709
11
66.0451
21
-123.71
0
LINE
8
BLACK
6
CONTINUOUS
10
66.0451
20
-123.71
11
66.0446
21
-123.715
0
LINE
8
BLACK
6
CONTINUOUS
10
66.0446
20
-123.715
11
66.0432
21
-123.72
0
LINE
8
BLACK
6
CONTINUOUS
10
66.0432
20
-123.72
11
66.0409
21
-123.724
0
LINE
8
BLACK
6
CONTINUOUS
10
66.0409
20
-123.724
11
66.0378
21
-123.728
0
LINE
8
BLACK
6
CONTINUOUS
10
66.0378
20
-123.728
11
66.034
21
-123.731
0
LINE
8
BLACK
6
CONTINUOUS
10
66.034
20
-123.731
11
66.0296
21
-123.733
0
LINE
8
BLACK
6
CONTINUOUS
10
66.0296
20
-123.733
11
66.0249
21
-123.735
0
LINE
8
BLACK
6
CONTINUOUS
10
66.0249
20
-123.735
11
66.0212
21
-123.735
0
LINE
8
BLACK
6
CONTINUOUS
10
66.0212
20
-123.735
11
66.0212
21
-123.735
0
LINE
8
BLACK
6
CONTINUOUS
10
66.0212
20
-123.735
11
66.02
21
-123.735
0
LINE
8
BLACK
6
CONTINUOUS
10
66.02
20
-123.735
11
66.0188
21
-123.735
0
LINE
8
BLACK
6
CONTINUOUS
10
66.0188
20
-123.735
11
57.3212
21
-123.735
0
LINE
8
BLACK
6
CONTINUOUS
10
57.3212
20
-123.735
11
57.32
21
-123.735
0
LINE
8
BLACK
6
CONTINUOUS
10
57.32
20
-123.735
11
57.3188
21
-123.735
0
LINE
8
BLACK
6
CONTINUOUS
10
57.3188
20
-123.735
11
57.3188
21
-123.735
0
LINE
8
BLACK
6
CONTINUOUS
10
57.3188
20
-123.735
11
57.3151
21
-123.735
0
LINE
8
BLACK
6
CONTINUOUS
10
57.3151
20
-123.735
11
57.3104
21
-123.733
0
LINE
8
BLACK
6
CONTINUOUS
10
57.3104
20
-123.733
11
57.306
21
-123.731
0
LINE
8
BLACK
6
CONTINUOUS
10
57.306
20
-123.731
11
57.3022
21
-123.728
0
LINE
8
BLACK
6
CONTINUOUS
10
57.3022
20
-123.728
11
57.2991
21
-123.724
0
LINE
8
BLACK
6
CONTINUOUS
10
57.2991
20
-123.724
11
57.2968
21
-123.72
0
LINE
8
BLACK
6
CONTINUOUS
10
57.2968
20
-123.72
11
57.2954
21
-123.715
0
LINE
8
BLACK
6
CONTINUOUS
10
57.2954
20
-123.715
11
57.2949
21
-123.71
0
LINE
8
BLACK
6
CONTINUOUS
10
57.2949
20
-123.71
11
57.295
21
-123.709
0
LINE
8
BLACK
6
CONTINUOUS
10
57.295
20
-123.709
11
57.295
21
-116.961
0
LINE
8
BLACK
6
CONTINUOUS
10
57.295
20
-116.961
11
57.2949
21
-116.96
0
LINE
8
BLACK
6
CONTINUOUS
10
57.2949
20
-116.96
11
57.2954
21
-116.955
0
LINE
8
BLACK
6
CONTINUOUS
10
57.2954
20
-116.955
11
57.2968
21
-116.95
0
LINE
8
BLACK
6
CONTINUOUS
10
57.2968
20
-116.95
11
57.2991
21
-116.946
0
LINE
8
BLACK
6
CONTINUOUS
10
57.2991
20
-116.946
11
57.3022
21
-116.942
0
LINE
8
BLACK
6
CONTINUOUS
10
57.3022
20
-116.942
11
57.306
21
-116.939
0
LINE
8
BLACK
6
CONTINUOUS
10
57.306
20
-116.939
11
57.3104
21
-116.937
0
LINE
8
BLACK
6
CONTINUOUS
10
57.3104
20
-116.937
11
57.3151
21
-116.935
0
LINE
8
BLACK
6
CONTINUOUS
10
57.3151
20
-116.935
11
57.3188
21
-116.935
0
LINE
8
BLACK
6
CONTINUOUS
10
57.3188
20
-116.935
11
57.32
21
-116.935
0
LINE
8
BLACK
6
CONTINUOUS
10
57.32
20
-116.935
11
57.3212
21
-116.935
0
LINE
8
BLACK
6
CONTINUOUS
10
57.345
20
-116.985
11
57.345
21
-123.685
0
LINE
8
BLACK
6
CONTINUOUS
10
57.345
20
-123.685
11
65.995
21
-123.685
0
LINE
8
BLACK
6
CONTINUOUS
10
65.995
20
-123.685
11
65.995
21
-117.009
0
LINE
8
BLACK
6
CONTINUOUS
10
65.995
20
-117.009
11
65.9954
21
-117.005
0
LINE
8
BLACK
6
CONTINUOUS
10
65.9954
20
-117.005
11
65.9968
21
-117
0
LINE
8
BLACK
6
CONTINUOUS
10
65.9968
20
-117
11
65.9991
21
-116.996
0
LINE
8
BLACK
6
CONTINUOUS
10
65.9991
20
-116.996
11
66.0022
21
-116.992
0
LINE
8
BLACK
6
CONTINUOUS
10
66.0022
20
-116.992
11
66.006
21
-116.989
0
LINE
8
BLACK
6
CONTINUOUS
10
66.006
20
-116.989
11
66.0104
21
-116.987
0
LINE
8
BLACK
6
CONTINUOUS
10
66.0104
20
-116.987
11
66.0151
21
-116.985
0
LINE
8
BLACK
6
CONTINUOUS
10
66.0151
20
-116.985
11
66.0188
21
-116.985
0
LINE
8
BLACK
6
CONTINUOUS
10
66.0188
20
-116.985
11
57.345
21
-116.985
0
LINE
8
BLACK
6
CONTINUOUS
10
99.5912
20
-115.015
11
99.5949
21
-115.015
0
LINE
8
BLACK
6
CONTINUOUS
10
99.5949
20
-115.015
11
99.5996
21
-115.017
0
LINE
8
BLACK
6
CONTINUOUS
10
99.5996
20
-115.017
11
99.604
21
-115.019
0
LINE
8
BLACK
6
CONTINUOUS
10
99.604
20
-115.019
11
99.6078
21
-115.022
0
LINE
8
BLACK
6
CONTINUOUS
10
99.6078
20
-115.022
11
99.6109
21
-115.026
0
LINE
8
BLACK
6
CONTINUOUS
10
99.6109
20
-115.026
11
99.6132
21
-115.03
0
LINE
8
BLACK
6
CONTINUOUS
10
99.6132
20
-115.03
11
99.6146
21
-115.035
0
LINE
8
BLACK
6
CONTINUOUS
10
99.6146
20
-115.035
11
99.6151
21
-115.04
0
LINE
8
BLACK
6
CONTINUOUS
10
99.6151
20
-115.04
11
99.615
21
-115.041
0
LINE
8
BLACK
6
CONTINUOUS
10
99.615
20
-115.041
11
99.615
21
-121.189
0
LINE
8
BLACK
6
CONTINUOUS
10
99.615
20
-121.189
11
99.6151
21
-121.19
0
LINE
8
BLACK
6
CONTINUOUS
10
99.6151
20
-121.19
11
99.6146
21
-121.195
0
LINE
8
BLACK
6
CONTINUOUS
10
99.6146
20
-121.195
11
99.6132
21
-121.2
0
LINE
8
BLACK
6
CONTINUOUS
10
99.6132
20
-121.2
11
99.6109
21
-121.204
0
LINE
8
BLACK
6
CONTINUOUS
10
99.6109
20
-121.204
11
99.6078
21
-121.208
0
LINE
8
BLACK
6
CONTINUOUS
10
99.6078
20
-121.208
11
99.604
21
-121.211
0
LINE
8
BLACK
6
CONTINUOUS
10
99.604
20
-121.211
11
99.5996
21
-121.213
0
LINE
8
BLACK
6
CONTINUOUS
10
99.5996
20
-121.213
11
99.5949
21
-121.215
0
LINE
8
BLACK
6
CONTINUOUS
10
99.5949
20
-121.215
11
99.5912
21
-121.215
0
LINE
8
BLACK
6
CONTINUOUS
10
99.5912
20
-121.215
11
99.5912
21
-121.215
0
LINE
8
BLACK
6
CONTINUOUS
10
99.5912
20
-121.215
11
99.59
21
-121.215
0
LINE
8
BLACK
6
CONTINUOUS
10
99.59
20
-121.215
11
99.5888
21
-121.215
0
LINE
8
BLACK
6
CONTINUOUS
10
99.5888
20
-121.215
11
95.9912
21
-121.215
0
LINE
8
BLACK
6
CONTINUOUS
10
95.9912
20
-121.215
11
95.99
21
-121.215
0
LINE
8
BLACK
6
CONTINUOUS
10
95.99
20
-121.215
11
95.9888
21
-121.215
0
LINE
8
BLACK
6
CONTINUOUS
10
95.9888
20
-121.215
11
95.9888
21
-121.215
0
LINE
8
BLACK
6
CONTINUOUS
10
95.9888
20
-121.215
11
95.9851
21
-121.215
0
LINE
8
BLACK
6
CONTINUOUS
10
95.9851
20
-121.215
11
95.9804
21
-121.213
0
LINE
8
BLACK
6
CONTINUOUS
10
95.9804
20
-121.213
11
95.976
21
-121.211
0
LINE
8
BLACK
6
CONTINUOUS
10
95.976
20
-121.211
11
95.9722
21
-121.208
0
LINE
8
BLACK
6
CONTINUOUS
10
95.9722
20
-121.208
11
95.9691
21
-121.204
0
LINE
8
BLACK
6
CONTINUOUS
10
95.9691
20
-121.204
11
95.9668
21
-121.2
0
LINE
8
BLACK
6
CONTINUOUS
10
95.9668
20
-121.2
11
95.9654
21
-121.195
0
LINE
8
BLACK
6
CONTINUOUS
10
95.9654
20
-121.195
11
95.9649
21
-121.19
0
LINE
8
BLACK
6
CONTINUOUS
10
95.9649
20
-121.19
11
95.965
21
-121.189
0
LINE
8
BLACK
6
CONTINUOUS
10
95.965
20
-121.189
11
95.965
21
-115.041
0
LINE
8
BLACK
6
CONTINUOUS
10
95.965
20
-115.041
11
95.9649
21
-115.04
0
LINE
8
BLACK
6
CONTINUOUS
10
95.9649
20
-115.04
11
95.9654
21
-115.035
0
LINE
8
BLACK
6
CONTINUOUS
10
95.9654
20
-115.035
11
95.9668
21
-115.03
0
LINE
8
BLACK
6
CONTINUOUS
10
95.9668
20
-115.03
11
95.9691
21
-115.026
0
LINE
8
BLACK
6
CONTINUOUS
10
95.9691
20
-115.026
11
95.9722
21
-115.022
0
LINE
8
BLACK
6
CONTINUOUS
10
95.9722
20
-115.022
11
95.976
21
-115.019
0
LINE
8
BLACK
6
CONTINUOUS
10
95.976
20
-115.019
11
95.9804
21
-115.017
0
LINE
8
BLACK
6
CONTINUOUS
10
95.9804
20
-115.017
11
95.9851
21
-115.015
0
LINE
8
BLACK
6
CONTINUOUS
10
95.9851
20
-115.015
11
95.9888
21
-115.015
0
LINE
8
BLACK
6
CONTINUOUS
10
95.9888
20
-115.015
11
95.99
21
-115.015
0
LINE
8
BLACK
6
CONTINUOUS
10
95.99
20
-115.015
11
95.9912
21
-115.015
0
LINE
8
BLACK
6
CONTINUOUS
10
95.9912
20
-115.015
11
99.5888
21
-115.015
0
LINE
8
BLACK
6
CONTINUOUS
10
99.5888
20
-115.015
11
99.59
21
-115.015
0
LINE
8
BLACK
6
CONTINUOUS
10
99.59
20
-115.015
11
99.5912
21
-115.015
0
LINE
8
BLACK
6
CONTINUOUS
10
96.015
20
-115.065
11
96.015
21
-121.165
0
LINE
8
BLACK
6
CONTINUOUS
10
96.015
20
-121.165
11
99.565
21
-121.165
0
LINE
8
BLACK
6
CONTINUOUS
10
99.565
20
-121.165
11
99.565
21
-115.065
0
LINE
8
BLACK
6
CONTINUOUS
10
99.565
20
-115.065
11
96.015
21
-115.065
0
LINE
8
BLACK
6
CONTINUOUS
10
179.601
20
-115.015
11
179.605
21
-115.015
0
LINE
8
BLACK
6
CONTINUOUS
10
179.605
20
-115.015
11
179.61
21
-115.017
0
LINE
8
BLACK
6
CONTINUOUS
10
179.61
20
-115.017
11
179.614
21
-115.019
0
LINE
8
BLACK
6
CONTINUOUS
10
179.614
20
-115.019
11
179.618
21
-115.022
0
LINE
8
BLACK
6
CONTINUOUS
10
179.618
20
-115.022
11
179.621
21
-115.026
0
LINE
8
BLACK
6
CONTINUOUS
10
179.621
20
-115.026
11
179.623
21
-115.03
0
LINE
8
BLACK
6
CONTINUOUS
10
179.623
20
-115.03
11
179.625
21
-115.035
0
LINE
8
BLACK
6
CONTINUOUS
10
179.625
20
-115.035
11
179.625
21
-115.04
0
LINE
8
BLACK
6
CONTINUOUS
10
179.625
20
-115.04
11
179.625
21
-115.041
0
LINE
8
BLACK
6
CONTINUOUS
10
179.625
20
-115.041
11
179.625
21
-121.189
0
LINE
8
BLACK
6
CONTINUOUS
10
179.625
20
-121.189
11
179.625
21
-121.19
0
LINE
8
BLACK
6
CONTINUOUS
10
179.625
20
-121.19
11
179.625
21
-121.195
0
LINE
8
BLACK
6
CONTINUOUS
10
179.625
20
-121.195
11
179.623
21
-121.2
0
LINE
8
BLACK
6
CONTINUOUS
10
179.623
20
-121.2
11
179.621
21
-121.204
0
LINE
8
BLACK
6
CONTINUOUS
10
179.621
20
-121.204
11
179.618
21
-121.208
0
LINE
8
BLACK
6
CONTINUOUS
10
179.618
20
-121.208
11
179.614
21
-121.211
0
LINE
8
BLACK
6
CONTINUOUS
10
179.614
20
-121.211
11
179.61
21
-121.213
0
LINE
8
BLACK
6
CONTINUOUS
10
179.61
20
-121.213
11
179.605
21
-121.215
0
LINE
8
BLACK
6
CONTINUOUS
10
179.605
20
-121.215
11
179.601
21
-121.215
0
LINE
8
BLACK
6
CONTINUOUS
10
179.601
20
-121.215
11
179.601
21
-121.215
0
LINE
8
BLACK
6
CONTINUOUS
10
179.601
20
-121.215
11
179.6
21
-121.215
0
LINE
8
BLACK
6
CONTINUOUS
10
179.6
20
-121.215
11
179.599
21
-121.215
0
LINE
8
BLACK
6
CONTINUOUS
10
179.599
20
-121.215
11
176.001
21
-121.215
0
LINE
8
BLACK
6
CONTINUOUS
10
176.001
20
-121.215
11
176
21
-121.215
0
LINE
8
BLACK
6
CONTINUOUS
10
176
20
-121.215
11
175.999
21
-121.215
0
LINE
8
BLACK
6
CONTINUOUS
10
175.999
20
-121.215
11
175.999
21
-121.215
0
LINE
8
BLACK
6
CONTINUOUS
10
175.999
20
-121.215
11
175.995
21
-121.215
0
LINE
8
BLACK
6
CONTINUOUS
10
175.995
20
-121.215
11
175.99
21
-121.213
0
LINE
8
BLACK
6
CONTINUOUS
10
175.99
20
-121.213
11
175.986
21
-121.211
0
LINE
8
BLACK
6
CONTINUOUS
10
175.986
20
-121.211
11
175.982
21
-121.208
0
LINE
8
BLACK
6
CONTINUOUS
10
175.982
20
-121.208
11
175.979
21
-121.204
0
LINE
8
BLACK
6
CONTINUOUS
10
175.979
20
-121.204
11
175.977
21
-121.2
0
LINE
8
BLACK
6
CONTINUOUS
10
175.977
20
-121.2
11
175.975
21
-121.195
0
LINE
8
BLACK
6
CONTINUOUS
10
175.975
20
-121.195
11
175.975
21
-121.19
0
LINE
8
BLACK
6
CONTINUOUS
10
175.975
20
-121.19
11
175.975
21
-121.189
0
LINE
8
BLACK
6
CONTINUOUS
10
175.975
20
-121.189
11
175.975
21
-115.041
0
LINE
8
BLACK
6
CONTINUOUS
10
175.975
20
-115.041
11
175.975
21
-115.04
0
LINE
8
BLACK
6
CONTINUOUS
10
175.975
20
-115.04
11
175.975
21
-115.035
0
LINE
8
BLACK
6
CONTINUOUS
10
175.975
20
-115.035
11
175.977
21
-115.03
0
LINE
8
BLACK
6
CONTINUOUS
10
175.977
20
-115.03
11
175.979
21
-115.026
0
LINE
8
BLACK
6
CONTINUOUS
10
175.979
20
-115.026
11
175.982
21
-115.022
0
LINE
8
BLACK
6
CONTINUOUS
10
175.982
20
-115.022
11
175.986
21
-115.019
0
LINE
8
BLACK
6
CONTINUOUS
10
175.986
20
-115.019
11
175.99
21
-115.017
0
LINE
8
BLACK
6
CONTINUOUS
10
175.99
20
-115.017
11
175.995
21
-115.015
0
LINE
8
BLACK
6
CONTINUOUS
10
175.995
20
-115.015
11
175.999
21
-115.015
0
LINE
8
BLACK
6
CONTINUOUS
10
175.999
20
-115.015
11
176
21
-115.015
0
LINE
8
BLACK
6
CONTINUOUS
10
176
20
-115.015
11
176.001
21
-115.015
0
LINE
8
BLACK
6
CONTINUOUS
10
176.001
20
-115.015
11
179.599
21
-115.015
0
LINE
8
BLACK
6
CONTINUOUS
10
179.599
20
-115.015
11
179.6
21
-115.015
0
LINE
8
BLACK
6
CONTINUOUS
10
179.6
20
-115.015
11
179.601
21
-115.015
0
LINE
8
BLACK
6
CONTINUOUS
10
176.025
20
-115.065
11
176.025
21
-121.165
0
LINE
8
BLACK
6
CONTINUOUS
10
176.025
20
-121.165
11
179.575
21
-121.165
0
LINE
8
BLACK
6
CONTINUOUS
10
179.575
20
-121.165
11
179.575
21
-115.065
0
LINE
8
BLACK
6
CONTINUOUS
10
179.575
20
-115.065
11
176.025
21
-115.065
0
LINE
8
BLACK
6
CONTINUOUS
10
132.611
20
-115.015
11
132.615
21
-115.015
0
LINE
8
BLACK
6
CONTINUOUS
10
132.615
20
-115.015
11
132.62
21
-115.017
0
LINE
8
BLACK
6
CONTINUOUS
10
132.62
20
-115.017
11
132.624
21
-115.019
0
LINE
8
BLACK
6
CONTINUOUS
10
132.624
20
-115.019
11
132.628
21
-115.022
0
LINE
8
BLACK
6
CONTINUOUS
10
132.628
20
-115.022
11
132.631
21
-115.026
0
LINE
8
BLACK
6
CONTINUOUS
10
132.631
20
-115.026
11
132.633
21
-115.03
0
LINE
8
BLACK
6
CONTINUOUS
10
132.633
20
-115.03
11
132.635
21
-115.035
0
LINE
8
BLACK
6
CONTINUOUS
10
132.635
20
-115.035
11
132.635
21
-115.04
0
LINE
8
BLACK
6
CONTINUOUS
10
132.635
20
-115.04
11
132.635
21
-115.041
0
LINE
8
BLACK
6
CONTINUOUS
10
132.635
20
-115.041
11
132.635
21
-121.189
0
LINE
8
BLACK
6
CONTINUOUS
10
132.635
20
-121.189
11
132.635
21
-121.19
0
LINE
8
BLACK
6
CONTINUOUS
10
132.635
20
-121.19
11
132.635
21
-121.195
0
LINE
8
BLACK
6
CONTINUOUS
10
132.635
20
-121.195
11
132.633
21
-121.2
0
LINE
8
BLACK
6
CONTINUOUS
10
132.633
20
-121.2
11
132.631
21
-121.204
0
LINE
8
BLACK
6
CONTINUOUS
10
132.631
20
-121.204
11
132.628
21
-121.208
0
LINE
8
BLACK
6
CONTINUOUS
10
132.628
20
-121.208
11
132.624
21
-121.211
0
LINE
8
BLACK
6
CONTINUOUS
10
132.624
20
-121.211
11
132.62
21
-121.213
0
LINE
8
BLACK
6
CONTINUOUS
10
132.62
20
-121.213
11
132.615
21
-121.215
0
LINE
8
BLACK
6
CONTINUOUS
10
132.615
20
-121.215
11
132.611
21
-121.215
0
LINE
8
BLACK
6
CONTINUOUS
10
132.611
20
-121.215
11
132.611
21
-121.215
0
LINE
8
BLACK
6
CONTINUOUS
10
132.611
20
-121.215
11
132.61
21
-121.215
0
LINE
8
BLACK
6
CONTINUOUS
10
132.61
20
-121.215
11
132.609
21
-121.215
0
LINE
8
BLACK
6
CONTINUOUS
10
132.609
20
-121.215
11
129.011
21
-121.215
0
LINE
8
BLACK
6
CONTINUOUS
10
129.011
20
-121.215
11
129.01
21
-121.215
0
LINE
8
BLACK
6
CONTINUOUS
10
129.01
20
-121.215
11
129.009
21
-121.215
0
LINE
8
BLACK
6
CONTINUOUS
10
129.009
20
-121.215
11
129.009
21
-121.215
0
LINE
8
BLACK
6
CONTINUOUS
10
129.009
20
-121.215
11
129.005
21
-121.215
0
LINE
8
BLACK
6
CONTINUOUS
10
129.005
20
-121.215
11
129
21
-121.213
0
LINE
8
BLACK
6
CONTINUOUS
10
129
20
-121.213
11
128.996
21
-121.211
0
LINE
8
BLACK
6
CONTINUOUS
10
128.996
20
-121.211
11
128.992
21
-121.208
0
LINE
8
BLACK
6
CONTINUOUS
10
128.992
20
-121.208
11
128.989
21
-121.204
0
LINE
8
BLACK
6
CONTINUOUS
10
128.989
20
-121.204
11
128.987
21
-121.2
0
LINE
8
BLACK
6
CONTINUOUS
10
128.987
20
-121.2
11
128.985
21
-121.195
0
LINE
8
BLACK
6
CONTINUOUS
10
128.985
20
-121.195
11
128.985
21
-121.19
0
LINE
8
BLACK
6
CONTINUOUS
10
128.985
20
-121.19
11
128.985
21
-121.189
0
LINE
8
BLACK
6
CONTINUOUS
10
128.985
20
-121.189
11
128.985
21
-115.041
0
LINE
8
BLACK
6
CONTINUOUS
10
128.985
20
-115.041
11
128.985
21
-115.04
0
LINE
8
BLACK
6
CONTINUOUS
10
128.985
20
-115.04
11
128.985
21
-115.035
0
LINE
8
BLACK
6
CONTINUOUS
10
128.985
20
-115.035
11
128.987
21
-115.03
0
LINE
8
BLACK
6
CONTINUOUS
10
128.987
20
-115.03
11
128.989
21
-115.026
0
LINE
8
BLACK
6
CONTINUOUS
10
128.989
20
-115.026
11
128.992
21
-115.022
0
LINE
8
BLACK
6
CONTINUOUS
10
128.992
20
-115.022
11
128.996
21
-115.019
0
LINE
8
BLACK
6
CONTINUOUS
10
128.996
20
-115.019
11
129
21
-115.017
0
LINE
8
BLACK
6
CONTINUOUS
10
129
20
-115.017
11
129.005
21
-115.015
0
LINE
8
BLACK
6
CONTINUOUS
10
129.005
20
-115.015
11
129.009
21
-115.015
0
LINE
8
BLACK
6
CONTINUOUS
10
129.009
20
-115.015
11
129.01
21
-115.015
0
LINE
8
BLACK
6
CONTINUOUS
10
129.01
20
-115.015
11
129.011
21
-115.015
0
LINE
8
BLACK
6
CONTINUOUS
10
129.011
20
-115.015
11
132.609
21
-115.015
0
LINE
8
BLACK
6
CONTINUOUS
10
132.609
20
-115.015
11
132.61
21
-115.015
0
LINE
8
BLACK
6
CONTINUOUS
10
132.61
20
-115.015
11
132.611
21
-115.015
0
LINE
8
BLACK
6
CONTINUOUS
10
129.035
20
-115.065
11
129.035
21
-121.165
0
LINE
8
BLACK
6
CONTINUOUS
10
129.035
20
-121.165
11
132.585
21
-121.165
0
LINE
8
BLACK
6
CONTINUOUS
10
132.585
20
-121.165
11
132.585
21
-115.065
0
LINE
8
BLACK
6
CONTINUOUS
10
132.585
20
-115.065
11
129.035
21
-115.065
0
LINE
8
BLACK
6
CONTINUOUS
10
186.581
20
-115.835
11
186.585
21
-115.835
0
LINE
8
BLACK
6
CONTINUOUS
10
186.585
20
-115.835
11
186.59
21
-115.837
0
LINE
8
BLACK
6
CONTINUOUS
10
186.59
20
-115.837
11
186.594
21
-115.839
0
LINE
8
BLACK
6
CONTINUOUS
10
186.594
20
-115.839
11
186.598
21
-115.842
0
LINE
8
BLACK
6
CONTINUOUS
10
186.598
20
-115.842
11
186.601
21
-115.846
0
LINE
8
BLACK
6
CONTINUOUS
10
186.601
20
-115.846
11
186.603
21
-115.85
0
LINE
8
BLACK
6
CONTINUOUS
10
186.603
20
-115.85
11
186.605
21
-115.855
0
LINE
8
BLACK
6
CONTINUOUS
10
186.605
20
-115.855
11
186.605
21
-115.86
0
LINE
8
BLACK
6
CONTINUOUS
10
186.605
20
-115.86
11
186.605
21
-115.861
0
LINE
8
BLACK
6
CONTINUOUS
10
186.605
20
-115.861
11
186.605
21
-120.359
0
LINE
8
BLACK
6
CONTINUOUS
10
186.605
20
-120.359
11
186.605
21
-120.36
0
LINE
8
BLACK
6
CONTINUOUS
10
186.605
20
-120.36
11
186.605
21
-120.365
0
LINE
8
BLACK
6
CONTINUOUS
10
186.605
20
-120.365
11
186.603
21
-120.37
0
LINE
8
BLACK
6
CONTINUOUS
10
186.603
20
-120.37
11
186.601
21
-120.374
0
LINE
8
BLACK
6
CONTINUOUS
10
186.601
20
-120.374
11
186.598
21
-120.378
0
LINE
8
BLACK
6
CONTINUOUS
10
186.598
20
-120.378
11
186.594
21
-120.381
0
LINE
8
BLACK
6
CONTINUOUS
10
186.594
20
-120.381
11
186.59
21
-120.383
0
LINE
8
BLACK
6
CONTINUOUS
10
186.59
20
-120.383
11
186.585
21
-120.385
0
LINE
8
BLACK
6
CONTINUOUS
10
186.585
20
-120.385
11
186.581
21
-120.385
0
LINE
8
BLACK
6
CONTINUOUS
10
186.581
20
-120.385
11
186.581
21
-120.385
0
LINE
8
BLACK
6
CONTINUOUS
10
186.581
20
-120.385
11
186.58
21
-120.385
0
LINE
8
BLACK
6
CONTINUOUS
10
186.58
20
-120.385
11
186.579
21
-120.385
0
LINE
8
BLACK
6
CONTINUOUS
10
186.579
20
-120.385
11
181.731
21
-120.385
0
LINE
8
BLACK
6
CONTINUOUS
10
181.731
20
-120.385
11
181.73
21
-120.385
0
LINE
8
BLACK
6
CONTINUOUS
10
181.73
20
-120.385
11
181.729
21
-120.385
0
LINE
8
BLACK
6
CONTINUOUS
10
181.729
20
-120.385
11
181.729
21
-120.385
0
LINE
8
BLACK
6
CONTINUOUS
10
181.729
20
-120.385
11
181.725
21
-120.385
0
LINE
8
BLACK
6
CONTINUOUS
10
181.725
20
-120.385
11
181.72
21
-120.383
0
LINE
8
BLACK
6
CONTINUOUS
10
181.72
20
-120.383
11
181.716
21
-120.381
0
LINE
8
BLACK
6
CONTINUOUS
10
181.716
20
-120.381
11
181.712
21
-120.378
0
LINE
8
BLACK
6
CONTINUOUS
10
181.712
20
-120.378
11
181.709
21
-120.374
0
LINE
8
BLACK
6
CONTINUOUS
10
181.709
20
-120.374
11
181.707
21
-120.37
0
LINE
8
BLACK
6
CONTINUOUS
10
181.707
20
-120.37
11
181.705
21
-120.365
0
LINE
8
BLACK
6
CONTINUOUS
10
181.705
20
-120.365
11
181.705
21
-120.36
0
LINE
8
BLACK
6
CONTINUOUS
10
181.705
20
-120.36
11
181.705
21
-120.359
0
LINE
8
BLACK
6
CONTINUOUS
10
181.705
20
-120.359
11
181.705
21
-115.861
0
LINE
8
BLACK
6
CONTINUOUS
10
181.705
20
-115.861
11
181.705
21
-115.86
0
LINE
8
BLACK
6
CONTINUOUS
10
181.705
20
-115.86
11
181.705
21
-115.855
0
LINE
8
BLACK
6
CONTINUOUS
10
181.705
20
-115.855
11
181.707
21
-115.85
0
LINE
8
BLACK
6
CONTINUOUS
10
181.707
20
-115.85
11
181.709
21
-115.846
0
LINE
8
BLACK
6
CONTINUOUS
10
181.709
20
-115.846
11
181.712
21
-115.842
0
LINE
8
BLACK
6
CONTINUOUS
10
181.712
20
-115.842
11
181.716
21
-115.839
0
LINE
8
BLACK
6
CONTINUOUS
10
181.716
20
-115.839
11
181.72
21
-115.837
0
LINE
8
BLACK
6
CONTINUOUS
10
181.72
20
-115.837
11
181.725
21
-115.835
0
LINE
8
BLACK
6
CONTINUOUS
10
181.725
20
-115.835
11
181.729
21
-115.835
0
LINE
8
BLACK
6
CONTINUOUS
10
181.729
20
-115.835
11
181.73
21
-115.835
0
LINE
8
BLACK
6
CONTINUOUS
10
181.73
20
-115.835
11
181.731
21
-115.835
0
LINE
8
BLACK
6
CONTINUOUS
10
181.731
20
-115.835
11
186.579
21
-115.835
0
LINE
8
BLACK
6
CONTINUOUS
10
186.579
20
-115.835
11
186.58
21
-115.835
0
LINE
8
BLACK
6
CONTINUOUS
10
186.58
20
-115.835
11
186.581
21
-115.835
0
LINE
8
BLACK
6
CONTINUOUS
10
181.755
20
-115.885
11
181.755
21
-120.335
0
LINE
8
BLACK
6
CONTINUOUS
10
181.755
20
-120.335
11
186.555
21
-120.335
0
LINE
8
BLACK
6
CONTINUOUS
10
186.555
20
-120.335
11
186.555
21
-115.885
0
LINE
8
BLACK
6
CONTINUOUS
10
186.555
20
-115.885
11
181.755
21
-115.885
0
LINE
8
BLACK
6
CONTINUOUS
10
93.8712
20
-115.835
11
93.8749
21
-115.835
0
LINE
8
BLACK
6
CONTINUOUS
10
93.8749
20
-115.835
11
93.8796
21
-115.837
0
LINE
8
BLACK
6
CONTINUOUS
10
93.8796
20
-115.837
11
93.884
21
-115.839
0
LINE
8
BLACK
6
CONTINUOUS
10
93.884
20
-115.839
11
93.8878
21
-115.842
0
LINE
8
BLACK
6
CONTINUOUS
10
93.8878
20
-115.842
11
93.8909
21
-115.846
0
LINE
8
BLACK
6
CONTINUOUS
10
93.8909
20
-115.846
11
93.8932
21
-115.85
0
LINE
8
BLACK
6
CONTINUOUS
10
93.8932
20
-115.85
11
93.8946
21
-115.855
0
LINE
8
BLACK
6
CONTINUOUS
10
93.8946
20
-115.855
11
93.8951
21
-115.86
0
LINE
8
BLACK
6
CONTINUOUS
10
93.8951
20
-115.86
11
93.895
21
-115.861
0
LINE
8
BLACK
6
CONTINUOUS
10
93.895
20
-115.861
11
93.895
21
-120.359
0
LINE
8
BLACK
6
CONTINUOUS
10
93.895
20
-120.359
11
93.8951
21
-120.36
0
LINE
8
BLACK
6
CONTINUOUS
10
93.8951
20
-120.36
11
93.8946
21
-120.365
0
LINE
8
BLACK
6
CONTINUOUS
10
93.8946
20
-120.365
11
93.8932
21
-120.37
0
LINE
8
BLACK
6
CONTINUOUS
10
93.8932
20
-120.37
11
93.8909
21
-120.374
0
LINE
8
BLACK
6
CONTINUOUS
10
93.8909
20
-120.374
11
93.8878
21
-120.378
0
LINE
8
BLACK
6
CONTINUOUS
10
93.8878
20
-120.378
11
93.884
21
-120.381
0
LINE
8
BLACK
6
CONTINUOUS
10
93.884
20
-120.381
11
93.8796
21
-120.383
0
LINE
8
BLACK
6
CONTINUOUS
10
93.8796
20
-120.383
11
93.8749
21
-120.385
0
LINE
8
BLACK
6
CONTINUOUS
10
93.8749
20
-120.385
11
93.8712
21
-120.385
0
LINE
8
BLACK
6
CONTINUOUS
10
93.8712
20
-120.385
11
93.8712
21
-120.385
0
LINE
8
BLACK
6
CONTINUOUS
10
93.8712
20
-120.385
11
93.87
21
-120.385
0
LINE
8
BLACK
6
CONTINUOUS
10
93.87
20
-120.385
11
93.8688
21
-120.385
0
LINE
8
BLACK
6
CONTINUOUS
10
93.8688
20
-120.385
11
89.0212
21
-120.385
0
LINE
8
BLACK
6
CONTINUOUS
10
89.0212
20
-120.385
11
89.02
21
-120.385
0
LINE
8
BLACK
6
CONTINUOUS
10
89.02
20
-120.385
11
89.0188
21
-120.385
0
LINE
8
BLACK
6
CONTINUOUS
10
89.0188
20
-120.385
11
89.0188
21
-120.385
0
LINE
8
BLACK
6
CONTINUOUS
10
89.0188
20
-120.385
11
89.0151
21
-120.385
0
LINE
8
BLACK
6
CONTINUOUS
10
89.0151
20
-120.385
11
89.0104
21
-120.383
0
LINE
8
BLACK
6
CONTINUOUS
10
89.0104
20
-120.383
11
89.006
21
-120.381
0
LINE
8
BLACK
6
CONTINUOUS
10
89.006
20
-120.381
11
89.0022
21
-120.378
0
LINE
8
BLACK
6
CONTINUOUS
10
89.0022
20
-120.378
11
88.9991
21
-120.374
0
LINE
8
BLACK
6
CONTINUOUS
10
88.9991
20
-120.374
11
88.9968
21
-120.37
0
LINE
8
BLACK
6
CONTINUOUS
10
88.9968
20
-120.37
11
88.9954
21
-120.365
0
LINE
8
BLACK
6
CONTINUOUS
10
88.9954
20
-120.365
11
88.9949
21
-120.36
0
LINE
8
BLACK
6
CONTINUOUS
10
88.9949
20
-120.36
11
88.995
21
-120.359
0
LINE
8
BLACK
6
CONTINUOUS
10
88.995
20
-120.359
11
88.995
21
-115.861
0
LINE
8
BLACK
6
CONTINUOUS
10
88.995
20
-115.861
11
88.9949
21
-115.86
0
LINE
8
BLACK
6
CONTINUOUS
10
88.9949
20
-115.86
11
88.9954
21
-115.855
0
LINE
8
BLACK
6
CONTINUOUS
10
88.9954
20
-115.855
11
88.9968
21
-115.85
0
LINE
8
BLACK
6
CONTINUOUS
10
88.9968
20
-115.85
11
88.9991
21
-115.846
0
LINE
8
BLACK
6
CONTINUOUS
10
88.9991
20
-115.846
11
89.0022
21
-115.842
0
LINE
8
BLACK
6
CONTINUOUS
10
89.0022
20
-115.842
11
89.006
21
-115.839
0
LINE
8
BLACK
6
CONTINUOUS
10
89.006
20
-115.839
11
89.0104
21
-115.837
0
LINE
8
BLACK
6
CONTINUOUS
10
89.0104
20
-115.837
11
89.0151
21
-115.835
0
LINE
8
BLACK
6
CONTINUOUS
10
89.0151
20
-115.835
11
89.0188
21
-115.835
0
LINE
8
BLACK
6
CONTINUOUS
10
89.0188
20
-115.835
11
89.02
21
-115.835
0
LINE
8
BLACK
6
CONTINUOUS
10
89.02
20
-115.835
11
89.0212
21
-115.835
0
LINE
8
BLACK
6
CONTINUOUS
10
89.0212
20
-115.835
11
93.8688
21
-115.835
0
LINE
8
BLACK
6
CONTINUOUS
10
93.8688
20
-115.835
11
93.87
21
-115.835
0
LINE
8
BLACK
6
CONTINUOUS
10
93.87
20
-115.835
11
93.8712
21
-115.835
0
LINE
8
BLACK
6
CONTINUOUS
10
89.045
20
-115.885
11
89.045
21
-120.335
0
LINE
8
BLACK
6
CONTINUOUS
10
89.045
20
-120.335
11
93.845
21
-120.335
0
LINE
8
BLACK
6
CONTINUOUS
10
93.845
20
-120.335
11
93.845
21
-115.885
0
LINE
8
BLACK
6
CONTINUOUS
10
93.845
20
-115.885
11
89.045
21
-115.885
0
LINE
8
BLACK
6
CONTINUOUS
10
140.226
20
-115.835
11
140.23
21
-115.835
0
LINE
8
BLACK
6
CONTINUOUS
10
140.23
20
-115.835
11
140.235
21
-115.837
0
LINE
8
BLACK
6
CONTINUOUS
10
140.235
20
-115.837
11
140.239
21
-115.839
0
LINE
8
BLACK
6
CONTINUOUS
10
140.239
20
-115.839
11
140.243
21
-115.842
0
LINE
8
BLACK
6
CONTINUOUS
10
140.243
20
-115.842
11
140.246
21
-115.846
0
LINE
8
BLACK
6
CONTINUOUS
10
140.246
20
-115.846
11
140.248
21
-115.85
0
LINE
8
BLACK
6
CONTINUOUS
10
140.248
20
-115.85
11
140.25
21
-115.855
0
LINE
8
BLACK
6
CONTINUOUS
10
140.25
20
-115.855
11
140.25
21
-115.86
0
LINE
8
BLACK
6
CONTINUOUS
10
140.25
20
-115.86
11
140.25
21
-115.861
0
LINE
8
BLACK
6
CONTINUOUS
10
140.25
20
-115.861
11
140.25
21
-120.359
0
LINE
8
BLACK
6
CONTINUOUS
10
140.25
20
-120.359
11
140.25
21
-120.36
0
LINE
8
BLACK
6
CONTINUOUS
10
140.25
20
-120.36
11
140.25
21
-120.365
0
LINE
8
BLACK
6
CONTINUOUS
10
140.25
20
-120.365
11
140.248
21
-120.37
0
LINE
8
BLACK
6
CONTINUOUS
10
140.248
20
-120.37
11
140.246
21
-120.374
0
LINE
8
BLACK
6
CONTINUOUS
10
140.246
20
-120.374
11
140.243
21
-120.378
0
LINE
8
BLACK
6
CONTINUOUS
10
140.243
20
-120.378
11
140.239
21
-120.381
0
LINE
8
BLACK
6
CONTINUOUS
10
140.239
20
-120.381
11
140.235
21
-120.383
0
LINE
8
BLACK
6
CONTINUOUS
10
140.235
20
-120.383
11
140.23
21
-120.385
0
LINE
8
BLACK
6
CONTINUOUS
10
140.23
20
-120.385
11
140.226
21
-120.385
0
LINE
8
BLACK
6
CONTINUOUS
10
140.226
20
-120.385
11
140.226
21
-120.385
0
LINE
8
BLACK
6
CONTINUOUS
10
140.226
20
-120.385
11
140.225
21
-120.385
0
LINE
8
BLACK
6
CONTINUOUS
10
140.225
20
-120.385
11
140.224
21
-120.385
0
LINE
8
BLACK
6
CONTINUOUS
10
140.224
20
-120.385
11
135.376
21
-120.385
0
LINE
8
BLACK
6
CONTINUOUS
10
135.376
20
-120.385
11
135.375
21
-120.385
0
LINE
8
BLACK
6
CONTINUOUS
10
135.375
20
-120.385
11
135.374
21
-120.385
0
LINE
8
BLACK
6
CONTINUOUS
10
135.374
20
-120.385
11
135.374
21
-120.385
0
LINE
8
BLACK
6
CONTINUOUS
10
135.374
20
-120.385
11
135.37
21
-120.385
0
LINE
8
BLACK
6
CONTINUOUS
10
135.37
20
-120.385
11
135.365
21
-120.383
0
LINE
8
BLACK
6
CONTINUOUS
10
135.365
20
-120.383
11
135.361
21
-120.381
0
LINE
8
BLACK
6
CONTINUOUS
10
135.361
20
-120.381
11
135.357
21
-120.378
0
LINE
8
BLACK
6
CONTINUOUS
10
135.357
20
-120.378
11
135.354
21
-120.374
0
LINE
8
BLACK
6
CONTINUOUS
10
135.354
20
-120.374
11
135.352
21
-120.37
0
LINE
8
BLACK
6
CONTINUOUS
10
135.352
20
-120.37
11
135.35
21
-120.365
0
LINE
8
BLACK
6
CONTINUOUS
10
135.35
20
-120.365
11
135.35
21
-120.36
0
LINE
8
BLACK
6
CONTINUOUS
10
135.35
20
-120.36
11
135.35
21
-120.359
0
LINE
8
BLACK
6
CONTINUOUS
10
135.35
20
-120.359
11
135.35
21
-115.861
0
LINE
8
BLACK
6
CONTINUOUS
10
135.35
20
-115.861
11
135.35
21
-115.86
0
LINE
8
BLACK
6
CONTINUOUS
10
135.35
20
-115.86
11
135.35
21
-115.855
0
LINE
8
BLACK
6
CONTINUOUS
10
135.35
20
-115.855
11
135.352
21
-115.85
0
LINE
8
BLACK
6
CONTINUOUS
10
135.352
20
-115.85
11
135.354
21
-115.846
0
LINE
8
BLACK
6
CONTINUOUS
10
135.354
20
-115.846
11
135.357
21
-115.842
0
LINE
8
BLACK
6
CONTINUOUS
10
135.357
20
-115.842
11
135.361
21
-115.839
0
LINE
8
BLACK
6
CONTINUOUS
10
135.361
20
-115.839
11
135.365
21
-115.837
0
LINE
8
BLACK
6
CONTINUOUS
10
135.365
20
-115.837
11
135.37
21
-115.835
0
LINE
8
BLACK
6
CONTINUOUS
10
135.37
20
-115.835
11
135.374
21
-115.835
0
LINE
8
BLACK
6
CONTINUOUS
10
135.374
20
-115.835
11
135.375
21
-115.835
0
LINE
8
BLACK
6
CONTINUOUS
10
135.375
20
-115.835
11
135.376
21
-115.835
0
LINE
8
BLACK
6
CONTINUOUS
10
135.376
20
-115.835
11
140.224
21
-115.835
0
LINE
8
BLACK
6
CONTINUOUS
10
140.224
20
-115.835
11
140.225
21
-115.835
0
LINE
8
BLACK
6
CONTINUOUS
10
140.225
20
-115.835
11
140.226
21
-115.835
0
LINE
8
BLACK
6
CONTINUOUS
10
135.4
20
-115.885
11
135.4
21
-120.335
0
LINE
8
BLACK
6
CONTINUOUS
10
135.4
20
-120.335
11
140.2
21
-120.335
0
LINE
8
BLACK
6
CONTINUOUS
10
140.2
20
-120.335
11
140.2
21
-115.885
0
LINE
8
BLACK
6
CONTINUOUS
10
140.2
20
-115.885
11
135.4
21
-115.885
0
LINE
8
BLACK
6
CONTINUOUS
10
79.2612
20
-106.125
11
79.2649
21
-106.125
0
LINE
8
BLACK
6
CONTINUOUS
10
79.2649
20
-106.125
11
79.2696
21
-106.127
0
LINE
8
BLACK
6
CONTINUOUS
10
79.2696
20
-106.127
11
79.274
21
-106.129
0
LINE
8
BLACK
6
CONTINUOUS
10
79.274
20
-106.129
11
79.2778
21
-106.132
0
LINE
8
BLACK
6
CONTINUOUS
10
79.2778
20
-106.132
11
79.2809
21
-106.136
0
LINE
8
BLACK
6
CONTINUOUS
10
79.2809
20
-106.136
11
79.2832
21
-106.14
0
LINE
8
BLACK
6
CONTINUOUS
10
79.2832
20
-106.14
11
79.2846
21
-106.145
0
LINE
8
BLACK
6
CONTINUOUS
10
79.2846
20
-106.145
11
79.2851
21
-106.15
0
LINE
8
BLACK
6
CONTINUOUS
10
79.2851
20
-106.15
11
79.285
21
-106.151
0
LINE
8
BLACK
6
CONTINUOUS
10
79.285
20
-106.151
11
79.285
21
-109.749
0
LINE
8
BLACK
6
CONTINUOUS
10
79.285
20
-109.749
11
79.2851
21
-109.75
0
LINE
8
BLACK
6
CONTINUOUS
10
79.2851
20
-109.75
11
79.2846
21
-109.755
0
LINE
8
BLACK
6
CONTINUOUS
10
79.2846
20
-109.755
11
79.2832
21
-109.76
0
LINE
8
BLACK
6
CONTINUOUS
10
79.2832
20
-109.76
11
79.2809
21
-109.764
0
LINE
8
BLACK
6
CONTINUOUS
10
79.2809
20
-109.764
11
79.2778
21
-109.768
0
LINE
8
BLACK
6
CONTINUOUS
10
79.2778
20
-109.768
11
79.274
21
-109.771
0
LINE
8
BLACK
6
CONTINUOUS
10
79.274
20
-109.771
11
79.2696
21
-109.773
0
LINE
8
BLACK
6
CONTINUOUS
10
79.2696
20
-109.773
11
79.2649
21
-109.775
0
LINE
8
BLACK
6
CONTINUOUS
10
79.2649
20
-109.775
11
79.2612
21
-109.775
0
LINE
8
BLACK
6
CONTINUOUS
10
79.2612
20
-109.775
11
79.2612
21
-109.775
0
LINE
8
BLACK
6
CONTINUOUS
10
79.2612
20
-109.775
11
79.26
21
-109.775
0
LINE
8
BLACK
6
CONTINUOUS
10
79.26
20
-109.775
11
79.2588
21
-109.775
0
LINE
8
BLACK
6
CONTINUOUS
10
79.2588
20
-109.775
11
40.1112
21
-109.775
0
LINE
8
BLACK
6
CONTINUOUS
10
40.1112
20
-109.775
11
40.11
21
-109.775
0
LINE
8
BLACK
6
CONTINUOUS
10
40.11
20
-109.775
11
40.1088
21
-109.775
0
LINE
8
BLACK
6
CONTINUOUS
10
40.1088
20
-109.775
11
40.1088
21
-109.775
0
LINE
8
BLACK
6
CONTINUOUS
10
40.1088
20
-109.775
11
40.1051
21
-109.775
0
LINE
8
BLACK
6
CONTINUOUS
10
40.1051
20
-109.775
11
40.1004
21
-109.773
0
LINE
8
BLACK
6
CONTINUOUS
10
40.1004
20
-109.773
11
40.096
21
-109.771
0
LINE
8
BLACK
6
CONTINUOUS
10
40.096
20
-109.771
11
40.0922
21
-109.768
0
LINE
8
BLACK
6
CONTINUOUS
10
40.0922
20
-109.768
11
40.0891
21
-109.764
0
LINE
8
BLACK
6
CONTINUOUS
10
40.0891
20
-109.764
11
40.0868
21
-109.76
0
LINE
8
BLACK
6
CONTINUOUS
10
40.0868
20
-109.76
11
40.0854
21
-109.755
0
LINE
8
BLACK
6
CONTINUOUS
10
40.0854
20
-109.755
11
40.0849
21
-109.75
0
LINE
8
BLACK
6
CONTINUOUS
10
40.0849
20
-109.75
11
40.085
21
-109.749
0
LINE
8
BLACK
6
CONTINUOUS
10
40.085
20
-109.749
11
40.085
21
-106.151
0
LINE
8
BLACK
6
CONTINUOUS
10
40.085
20
-106.151
11
40.0849
21
-106.15
0
LINE
8
BLACK
6
CONTINUOUS
10
40.0849
20
-106.15
11
40.0854
21
-106.145
0
LINE
8
BLACK
6
CONTINUOUS
10
40.0854
20
-106.145
11
40.0868
21
-106.14
0
LINE
8
BLACK
6
CONTINUOUS
10
40.0868
20
-106.14
11
40.0891
21
-106.136
0
LINE
8
BLACK
6
CONTINUOUS
10
40.0891
20
-106.136
11
40.0922
21
-106.132
0
LINE
8
BLACK
6
CONTINUOUS
10
40.0922
20
-106.132
11
40.096
21
-106.129
0
LINE
8
BLACK
6
CONTINUOUS
10
40.096
20
-106.129
11
40.1004
21
-106.127
0
LINE
8
BLACK
6
CONTINUOUS
10
40.1004
20
-106.127
11
40.1051
21
-106.125
0
LINE
8
BLACK
6
CONTINUOUS
10
40.1051
20
-106.125
11
40.1088
21
-106.125
0
LINE
8
BLACK
6
CONTINUOUS
10
40.1088
20
-106.125
11
40.11
21
-106.125
0
LINE
8
BLACK
6
CONTINUOUS
10
40.11
20
-106.125
11
40.1112
21
-106.125
0
LINE
8
BLACK
6
CONTINUOUS
10
40.1112
20
-106.125
11
79.2588
21
-106.125
0
LINE
8
BLACK
6
CONTINUOUS
10
79.2588
20
-106.125
11
79.26
21
-106.125
0
LINE
8
BLACK
6
CONTINUOUS
10
79.26
20
-106.125
11
79.2612
21
-106.125
0
LINE
8
BLACK
6
CONTINUOUS
10
40.135
20
-106.175
11
40.135
21
-109.725
0
LINE
8
BLACK
6
CONTINUOUS
10
40.135
20
-109.725
11
79.235
21
-109.725
0
LINE
8
BLACK
6
CONTINUOUS
10
79.235
20
-109.725
11
79.235
21
-106.175
0
LINE
8
BLACK
6
CONTINUOUS
10
79.235
20
-106.175
11
40.135
21
-106.175
0
LINE
8
BLACK
6
CONTINUOUS
10
79.2612
20
-80.725
11
79.2649
21
-80.7254
0
LINE
8
BLACK
6
CONTINUOUS
10
79.2649
20
-80.7254
11
79.2696
21
-80.7268
0
LINE
8
BLACK
6
CONTINUOUS
10
79.2696
20
-80.7268
11
79.274
21
-80.7291
0
LINE
8
BLACK
6
CONTINUOUS
10
79.274
20
-80.7291
11
79.2778
21
-80.7322
0
LINE
8
BLACK
6
CONTINUOUS
10
79.2778
20
-80.7322
11
79.2809
21
-80.736
0
LINE
8
BLACK
6
CONTINUOUS
10
79.2809
20
-80.736
11
79.2832
21
-80.7404
0
LINE
8
BLACK
6
CONTINUOUS
10
79.2832
20
-80.7404
11
79.2846
21
-80.7451
0
LINE
8
BLACK
6
CONTINUOUS
10
79.2846
20
-80.7451
11
79.2851
21
-80.75
0
LINE
8
BLACK
6
CONTINUOUS
10
79.2851
20
-80.75
11
79.285
21
-80.7512
0
LINE
8
BLACK
6
CONTINUOUS
10
79.285
20
-80.7512
11
79.285
21
-84.3488
0
LINE
8
BLACK
6
CONTINUOUS
10
79.285
20
-84.3488
11
79.2851
21
-84.35
0
LINE
8
BLACK
6
CONTINUOUS
10
79.2851
20
-84.35
11
79.2846
21
-84.3549
0
LINE
8
BLACK
6
CONTINUOUS
10
79.2846
20
-84.3549
11
79.2832
21
-84.3596
0
LINE
8
BLACK
6
CONTINUOUS
10
79.2832
20
-84.3596
11
79.2809
21
-84.364
0
LINE
8
BLACK
6
CONTINUOUS
10
79.2809
20
-84.364
11
79.2778
21
-84.3678
0
LINE
8
BLACK
6
CONTINUOUS
10
79.2778
20
-84.3678
11
79.274
21
-84.3709
0
LINE
8
BLACK
6
CONTINUOUS
10
79.274
20
-84.3709
11
79.2696
21
-84.3732
0
LINE
8
BLACK
6
CONTINUOUS
10
79.2696
20
-84.3732
11
79.2649
21
-84.3746
0
LINE
8
BLACK
6
CONTINUOUS
10
79.2649
20
-84.3746
11
79.2612
21
-84.375
0
LINE
8
BLACK
6
CONTINUOUS
10
79.2612
20
-84.375
11
79.2612
21
-84.375
0
LINE
8
BLACK
6
CONTINUOUS
10
79.2612
20
-84.375
11
79.26
21
-84.3751
0
LINE
8
BLACK
6
CONTINUOUS
10
79.26
20
-84.3751
11
79.2588
21
-84.375
0
LINE
8
BLACK
6
CONTINUOUS
10
79.2588
20
-84.375
11
40.1112
21
-84.375
0
LINE
8
BLACK
6
CONTINUOUS
10
40.1112
20
-84.375
11
40.11
21
-84.3751
0
LINE
8
BLACK
6
CONTINUOUS
10
40.11
20
-84.3751
11
40.1088
21
-84.375
0
LINE
8
BLACK
6
CONTINUOUS
10
40.1088
20
-84.375
11
40.1088
21
-84.375
0
LINE
8
BLACK
6
CONTINUOUS
10
40.1088
20
-84.375
11
40.1051
21
-84.3746
0
LINE
8
BLACK
6
CONTINUOUS
10
40.1051
20
-84.3746
11
40.1004
21
-84.3732
0
LINE
8
BLACK
6
CONTINUOUS
10
40.1004
20
-84.3732
11
40.096
21
-84.3709
0
LINE
8
BLACK
6
CONTINUOUS
10
40.096
20
-84.3709
11
40.0922
21
-84.3678
0
LINE
8
BLACK
6
CONTINUOUS
10
40.0922
20
-84.3678
11
40.0891
21
-84.364
0
LINE
8
BLACK
6
CONTINUOUS
10
40.0891
20
-84.364
11
40.0868
21
-84.3596
0
LINE
8
BLACK
6
CONTINUOUS
10
40.0868
20
-84.3596
11
40.0854
21
-84.3549
0
LINE
8
BLACK
6
CONTINUOUS
10
40.0854
20
-84.3549
11
40.0849
21
-84.35
0
LINE
8
BLACK
6
CONTINUOUS
10
40.0849
20
-84.35
11
40.085
21
-84.3488
0
LINE
8
BLACK
6
CONTINUOUS
10
40.085
20
-84.3488
11
40.085
21
-80.7512
0
LINE
8
BLACK
6
CONTINUOUS
10
40.085
20
-80.7512
11
40.0849
21
-80.75
0
LINE
8
BLACK
6
CONTINUOUS
10
40.0849
20
-80.75
11
40.0854
21
-80.7451
0
LINE
8
BLACK
6
CONTINUOUS
10
40.0854
20
-80.7451
11
40.0868
21
-80.7404
0
LINE
8
BLACK
6
CONTINUOUS
10
40.0868
20
-80.7404
11
40.0891
21
-80.736
0
LINE
8
BLACK
6
CONTINUOUS
10
40.0891
20
-80.736
11
40.0922
21
-80.7322
0
LINE
8
BLACK
6
CONTINUOUS
10
40.0922
20
-80.7322
11
40.096
21
-80.7291
0
LINE
8
BLACK
6
CONTINUOUS
10
40.096
20
-80.7291
11
40.1004
21
-80.7268
0
LINE
8
BLACK
6
CONTINUOUS
10
40.1004
20
-80.7268
11
40.1051
21
-80.7254
0
LINE
8
BLACK
6
CONTINUOUS
10
40.1051
20
-80.7254
11
40.1088
21
-80.725
0
LINE
8
BLACK
6
CONTINUOUS
10
40.1088
20
-80.725
11
40.11
21
-80.7249
0
LINE
8
BLACK
6
CONTINUOUS
10
40.11
20
-80.7249
11
40.1112
21
-80.725
0
LINE
8
BLACK
6
CONTINUOUS
10
40.1112
20
-80.725
11
79.2588
21
-80.725
0
LINE
8
BLACK
6
CONTINUOUS
10
79.2588
20
-80.725
11
79.26
21
-80.7249
0
LINE
8
BLACK
6
CONTINUOUS
10
79.26
20
-80.7249
11
79.2612
21
-80.725
0
LINE
8
BLACK
6
CONTINUOUS
10
40.135
20
-80.775
11
40.135
21
-84.325
0
LINE
8
BLACK
6
CONTINUOUS
10
40.135
20
-84.325
11
79.235
21
-84.325
0
LINE
8
BLACK
6
CONTINUOUS
10
79.235
20
-84.325
11
79.235
21
-80.775
0
LINE
8
BLACK
6
CONTINUOUS
10
79.235
20
-80.775
11
40.135
21
-80.775
  0
ENDSEC
  0
EOF
