G04 #@! TF.GenerationSoftware,KiCad,Pcbnew,(5.1.2)-1*
G04 #@! TF.CreationDate,2019-06-03T22:16:33-03:00*
G04 #@! TF.ProjectId,Eletr_nica,456c6574-72f4-46e6-9963-612e6b696361,rev?*
G04 #@! TF.SameCoordinates,Original*
G04 #@! TF.FileFunction,Profile,NP*
%FSLAX46Y46*%
G04 Gerber Fmt 4.6, Leading zero omitted, Abs format (unit mm)*
G04 Created by KiCad (PCBNEW (5.1.2)-1) date 2019-06-03 22:16:33*
%MOMM*%
%LPD*%
G04 APERTURE LIST*
%ADD10C,0.150000*%
G04 APERTURE END LIST*
D10*
X117719711Y-121285000D02*
G75*
G03X117719711Y-121285000I-1514711J0D01*
G01*
X1514711Y0D02*
G75*
G03X1514711Y0I-1514711J0D01*
G01*
X-5470289Y635000D02*
G75*
G03X-5470289Y635000I-1514711J0D01*
G01*
X128905000Y-86360000D02*
X130810000Y-88265000D01*
X102870000Y-86360000D02*
X128905000Y-86360000D01*
X100965000Y-88201500D02*
X102870000Y-86360000D01*
X92075000Y-130175000D02*
X86995000Y-125095000D01*
X179060711Y-121285000D02*
G75*
G03X179060711Y-121285000I-1514711J0D01*
G01*
X117719711Y-95504000D02*
G75*
G03X117719711Y-95504000I-1514711J0D01*
G01*
X92075000Y-130175000D02*
X188595000Y-130175000D01*
X192405000Y-116205000D02*
X192405000Y-126365000D01*
X189230000Y-113030000D02*
X192405000Y-116205000D01*
X134620000Y-113030000D02*
X189230000Y-113030000D01*
X130810000Y-109220000D02*
X134620000Y-113030000D01*
X130810000Y-106680000D02*
X130810000Y-109220000D01*
X86995000Y-116205000D02*
X86995000Y-125095000D01*
X90170000Y-113030000D02*
X86995000Y-116205000D01*
X99060000Y-113030000D02*
X90170000Y-113030000D01*
X100965000Y-111125000D02*
X99060000Y-113030000D01*
X100965000Y-105410000D02*
X100965000Y-111125000D01*
X130810000Y-88265000D02*
X130810000Y-106680000D01*
X100965000Y-105410000D02*
X100965000Y-88201500D01*
X192405000Y-126365000D02*
X188595000Y-130175000D01*
M02*
