  0
SECTION
  2
HEADER
  9
$ANGBASE
  50
0.0
  9
$ANGDIR
  70
  1
  9
$MEASUREMENT
  70
0
  0
ENDSEC
  0
SECTION
  2
TABLES
  0
TABLE
  2
LTYPE
  70
4
  0
LTYPE
  5
40F
  2
CONTINUOUS
  70
0
  3
Solid line
  72
65
  73
0
  40
0.0
  0
LTYPE
  5
410
  2
DASHDOT
 70
0
  3
Dash Dot ____ _ ____ _
 72
65
 73
4
 40
2.0
 49
1.25
 49
-0.25
 49
0.25
 49
-0.25
  0
LTYPE
  5
411
  2
DASHED
 70
0
  3
Dashed __ __ __ __ __
 72
65
 73
2
 40
0.75
 49
0.5
 49
-0.25
  0
LTYPE
  5
43B
  2
DOTTED
 70
0
  3
Dotted .  .  .  .
 72
65
 73
2
 40
0.2
 49
0.0
 49
-0.2
  0
ENDTAB
  0
TABLE
  2
STYLE
  70
4
  0
STYLE
  2
KICAD
  70
0
  40
0
  41
1
  42
1
  50
0
  71
0
  3
isocp.shx
  0
STYLE
  2
KICADB
  70
0
  40
0
  41
1
  42
1
  50
0
  71
0
  3
isocp.shx
  0
STYLE
  2
KICADI
  70
0
  40
0
  41
1
  42
1
  50
15
  71
0
  3
isocp.shx
  0
STYLE
  2
KICADBI
  70
0
  40
0
  41
1
  42
1
  50
15
  71
0
  3
isocp.shx
  0
ENDTAB
  0
TABLE
  2
LAYER
  70
30
  0
LAYER
  2
BLACK
  70
0
  62
7
  6
CONTINUOUS
  0
LAYER
  2
GRAY1
  70
0
  62
251
  6
CONTINUOUS
  0
LAYER
  2
GRAY2
  70
0
  62
8
  6
CONTINUOUS
  0
LAYER
  2
GRAY3
  70
0
  62
9
  6
CONTINUOUS
  0
LAYER
  2
WHITE
  70
0
  62
7
  6
CONTINUOUS
  0
LAYER
  2
LYELLOW
  70
0
  62
51
  6
CONTINUOUS
  0
LAYER
  2
BLUE1
  70
0
  62
178
  6
CONTINUOUS
  0
LAYER
  2
GREEN1
  70
0
  62
98
  6
CONTINUOUS
  0
LAYER
  2
CYAN1
  70
0
  62
138
  6
CONTINUOUS
  0
LAYER
  2
RED1
  70
0
  62
18
  6
CONTINUOUS
  0
LAYER
  2
MAGENTA1
  70
0
  62
228
  6
CONTINUOUS
  0
LAYER
  2
BROWN1
  70
0
  62
58
  6
CONTINUOUS
  0
LAYER
  2
BLUE2
  70
0
  62
5
  6
CONTINUOUS
  0
LAYER
  2
GREEN2
  70
0
  62
3
  6
CONTINUOUS
  0
LAYER
  2
CYAN2
  70
0
  62
4
  6
CONTINUOUS
  0
LAYER
  2
RED2
  70
0
  62
1
  6
CONTINUOUS
  0
LAYER
  2
MAGENTA2
  70
0
  62
6
  6
CONTINUOUS
  0
LAYER
  2
BROWN2
  70
0
  62
54
  6
CONTINUOUS
  0
LAYER
  2
BLUE3
  70
0
  62
171
  6
CONTINUOUS
  0
LAYER
  2
GREEN3
  70
0
  62
91
  6
CONTINUOUS
  0
LAYER
  2
CYAN3
  70
0
  62
131
  6
CONTINUOUS
  0
LAYER
  2
RED3
  70
0
  62
11
  6
CONTINUOUS
  0
LAYER
  2
MAGENTA3
  70
0
  62
221
  6
CONTINUOUS
  0
LAYER
  2
YELLOW3
  70
0
  62
2
  6
CONTINUOUS
  0
LAYER
  2
BLUE4
  70
0
  62
5
  6
CONTINUOUS
  0
LAYER
  2
GREEN4
  70
0
  62
3
  6
CONTINUOUS
  0
LAYER
  2
CYAN4
  70
0
  62
4
  6
CONTINUOUS
  0
LAYER
  2
RED4
  70
0
  62
1
  6
CONTINUOUS
  0
LAYER
  2
MAGENTA4
  70
0
  62
6
  6
CONTINUOUS
  0
LAYER
  2
YELLOW4
  70
0
  62
2
  6
CONTINUOUS
  0
ENDTAB
  0
ENDSEC
  0
SECTION
  2
ENTITIES
0
LINE
8
BLACK
6
CONTINUOUS
10
78.7427
20
-78.665
11
78.7437
21
-78.665
0
LINE
8
BLACK
6
CONTINUOUS
10
78.7437
20
-78.665
11
78.7464
21
-78.6653
0
LINE
8
BLACK
6
CONTINUOUS
10
78.7464
20
-78.6653
11
78.7528
21
-78.6657
0
LINE
8
BLACK
6
CONTINUOUS
10
78.7528
20
-78.6657
11
78.7537
21
-78.666
0
LINE
8
BLACK
6
CONTINUOUS
10
78.7537
20
-78.666
11
78.7547
21
-78.6661
0
LINE
8
BLACK
6
CONTINUOUS
10
78.7547
20
-78.6661
11
78.7609
21
-78.668
0
LINE
8
BLACK
6
CONTINUOUS
10
78.7609
20
-78.668
11
78.767
21
-78.6696
0
LINE
8
BLACK
6
CONTINUOUS
10
78.767
20
-78.6696
11
78.7679
21
-78.6701
0
LINE
8
BLACK
6
CONTINUOUS
10
78.7679
20
-78.6701
11
78.7688
21
-78.6704
0
LINE
8
BLACK
6
CONTINUOUS
10
78.7688
20
-78.6704
11
78.7745
21
-78.6734
0
LINE
8
BLACK
6
CONTINUOUS
10
78.7745
20
-78.6734
11
78.7802
21
-78.6763
0
LINE
8
BLACK
6
CONTINUOUS
10
78.7802
20
-78.6763
11
78.781
21
-78.6769
0
LINE
8
BLACK
6
CONTINUOUS
10
78.781
20
-78.6769
11
78.7819
21
-78.6773
0
LINE
8
BLACK
6
CONTINUOUS
10
78.7819
20
-78.6773
11
78.7868
21
-78.6814
0
LINE
8
BLACK
6
CONTINUOUS
10
78.7868
20
-78.6814
11
78.789
21
-78.6831
0
LINE
8
BLACK
6
CONTINUOUS
10
78.789
20
-78.6831
11
78.7897
21
-78.6837
0
LINE
8
BLACK
6
CONTINUOUS
10
78.7897
20
-78.6837
11
78.7933
21
-78.6867
0
LINE
8
BLACK
6
CONTINUOUS
10
78.7933
20
-78.6867
11
78.795
21
-78.6888
0
LINE
8
BLACK
6
CONTINUOUS
10
78.795
20
-78.6888
11
84.2268
21
-83.8436
0
LINE
8
BLACK
6
CONTINUOUS
10
84.2268
20
-83.8436
11
84.2304
21
-83.8466
0
LINE
8
BLACK
6
CONTINUOUS
10
84.2304
20
-83.8466
11
84.2344
21
-83.8515
0
LINE
8
BLACK
6
CONTINUOUS
10
84.2344
20
-83.8515
11
84.2386
21
-83.8563
0
LINE
8
BLACK
6
CONTINUOUS
10
84.2386
20
-83.8563
11
84.2391
21
-83.8572
0
LINE
8
BLACK
6
CONTINUOUS
10
84.2391
20
-83.8572
11
84.2398
21
-83.858
0
LINE
8
BLACK
6
CONTINUOUS
10
84.2398
20
-83.858
11
84.2428
21
-83.8636
0
LINE
8
BLACK
6
CONTINUOUS
10
84.2428
20
-83.8636
11
84.2459
21
-83.8692
0
LINE
8
BLACK
6
CONTINUOUS
10
84.2459
20
-83.8692
11
84.2462
21
-83.8702
0
LINE
8
BLACK
6
CONTINUOUS
10
84.2462
20
-83.8702
11
84.2467
21
-83.8711
0
LINE
8
BLACK
6
CONTINUOUS
10
84.2467
20
-83.8711
11
84.2486
21
-83.8771
0
LINE
8
BLACK
6
CONTINUOUS
10
84.2486
20
-83.8771
11
84.2506
21
-83.8832
0
LINE
8
BLACK
6
CONTINUOUS
10
84.2506
20
-83.8832
11
84.2507
21
-83.8842
0
LINE
8
BLACK
6
CONTINUOUS
10
84.2507
20
-83.8842
11
84.251
21
-83.8852
0
LINE
8
BLACK
6
CONTINUOUS
10
84.251
20
-83.8852
11
84.2516
21
-83.8915
0
LINE
8
BLACK
6
CONTINUOUS
10
84.2516
20
-83.8915
11
84.2524
21
-83.8979
0
LINE
8
BLACK
6
CONTINUOUS
10
84.2524
20
-83.8979
11
84.2521
21
-83.9026
0
LINE
8
BLACK
6
CONTINUOUS
10
84.2521
20
-83.9026
11
84.2325
21
-101.191
0
LINE
8
BLACK
6
CONTINUOUS
10
84.2325
20
-101.191
11
91.5784
21
-108.43
0
LINE
8
BLACK
6
CONTINUOUS
10
91.5784
20
-108.43
11
181.316
21
-108.395
0
LINE
8
BLACK
6
CONTINUOUS
10
181.316
20
-108.395
11
181.32
21
-108.394
0
LINE
8
BLACK
6
CONTINUOUS
10
181.32
20
-108.394
11
181.327
21
-108.395
0
LINE
8
BLACK
6
CONTINUOUS
10
181.327
20
-108.395
11
181.334
21
-108.396
0
LINE
8
BLACK
6
CONTINUOUS
10
181.334
20
-108.396
11
181.334
21
-108.396
0
LINE
8
BLACK
6
CONTINUOUS
10
181.334
20
-108.396
11
181.334
21
-108.396
0
LINE
8
BLACK
6
CONTINUOUS
10
181.334
20
-108.396
11
181.341
21
-108.398
0
LINE
8
BLACK
6
CONTINUOUS
10
181.341
20
-108.398
11
181.348
21
-108.4
0
LINE
8
BLACK
6
CONTINUOUS
10
181.348
20
-108.4
11
181.348
21
-108.4
0
LINE
8
BLACK
6
CONTINUOUS
10
181.348
20
-108.4
11
181.348
21
-108.4
0
LINE
8
BLACK
6
CONTINUOUS
10
181.348
20
-108.4
11
181.355
21
-108.404
0
LINE
8
BLACK
6
CONTINUOUS
10
181.355
20
-108.404
11
181.361
21
-108.407
0
LINE
8
BLACK
6
CONTINUOUS
10
181.361
20
-108.407
11
181.361
21
-108.407
0
LINE
8
BLACK
6
CONTINUOUS
10
181.361
20
-108.407
11
181.361
21
-108.407
0
LINE
8
BLACK
6
CONTINUOUS
10
181.361
20
-108.407
11
181.367
21
-108.412
0
LINE
8
BLACK
6
CONTINUOUS
10
181.367
20
-108.412
11
181.373
21
-108.416
0
LINE
8
BLACK
6
CONTINUOUS
10
181.373
20
-108.416
11
181.375
21
-108.419
0
LINE
8
BLACK
6
CONTINUOUS
10
181.375
20
-108.419
11
187.618
21
-114.728
0
LINE
8
BLACK
6
CONTINUOUS
10
187.618
20
-114.728
11
187.62
21
-114.73
0
LINE
8
BLACK
6
CONTINUOUS
10
187.62
20
-114.73
11
187.623
21
-114.733
0
LINE
8
BLACK
6
CONTINUOUS
10
187.623
20
-114.733
11
187.623
21
-114.733
0
LINE
8
BLACK
6
CONTINUOUS
10
187.623
20
-114.733
11
187.625
21
-114.736
0
LINE
8
BLACK
6
CONTINUOUS
10
187.625
20
-114.736
11
187.63
21
-114.742
0
LINE
8
BLACK
6
CONTINUOUS
10
187.63
20
-114.742
11
187.63
21
-114.742
0
LINE
8
BLACK
6
CONTINUOUS
10
187.63
20
-114.742
11
187.63
21
-114.742
0
LINE
8
BLACK
6
CONTINUOUS
10
187.63
20
-114.742
11
187.633
21
-114.748
0
LINE
8
BLACK
6
CONTINUOUS
10
187.633
20
-114.748
11
187.637
21
-114.755
0
LINE
8
BLACK
6
CONTINUOUS
10
187.637
20
-114.755
11
187.637
21
-114.755
0
LINE
8
BLACK
6
CONTINUOUS
10
187.637
20
-114.755
11
187.637
21
-114.755
0
LINE
8
BLACK
6
CONTINUOUS
10
187.637
20
-114.755
11
187.639
21
-114.762
0
LINE
8
BLACK
6
CONTINUOUS
10
187.639
20
-114.762
11
187.641
21
-114.769
0
LINE
8
BLACK
6
CONTINUOUS
10
187.641
20
-114.769
11
187.641
21
-114.769
0
LINE
8
BLACK
6
CONTINUOUS
10
187.641
20
-114.769
11
187.641
21
-114.769
0
LINE
8
BLACK
6
CONTINUOUS
10
187.641
20
-114.769
11
187.642
21
-114.776
0
LINE
8
BLACK
6
CONTINUOUS
10
187.642
20
-114.776
11
187.642
21
-114.78
0
LINE
8
BLACK
6
CONTINUOUS
10
187.642
20
-114.78
11
187.642
21
-114.78
0
LINE
8
BLACK
6
CONTINUOUS
10
187.642
20
-114.78
11
187.642
21
-114.784
0
LINE
8
BLACK
6
CONTINUOUS
10
187.642
20
-114.784
11
187.642
21
-114.787
0
LINE
8
BLACK
6
CONTINUOUS
10
187.642
20
-114.787
11
187.642
21
-126.365
0
LINE
8
BLACK
6
CONTINUOUS
10
187.642
20
-126.365
11
187.642
21
-126.371
0
LINE
8
BLACK
6
CONTINUOUS
10
187.642
20
-126.371
11
187.641
21
-126.376
0
LINE
8
BLACK
6
CONTINUOUS
10
187.641
20
-126.376
11
187.641
21
-126.38
0
LINE
8
BLACK
6
CONTINUOUS
10
187.641
20
-126.38
11
187.64
21
-126.383
0
LINE
8
BLACK
6
CONTINUOUS
10
187.64
20
-126.383
11
187.639
21
-126.386
0
LINE
8
BLACK
6
CONTINUOUS
10
187.639
20
-126.386
11
187.638
21
-126.39
0
LINE
8
BLACK
6
CONTINUOUS
10
187.638
20
-126.39
11
187.637
21
-126.394
0
LINE
8
BLACK
6
CONTINUOUS
10
187.637
20
-126.394
11
187.635
21
-126.397
0
LINE
8
BLACK
6
CONTINUOUS
10
187.635
20
-126.397
11
187.634
21
-126.4
0
LINE
8
BLACK
6
CONTINUOUS
10
187.634
20
-126.4
11
187.632
21
-126.403
0
LINE
8
BLACK
6
CONTINUOUS
10
187.632
20
-126.403
11
187.63
21
-126.407
0
LINE
8
BLACK
6
CONTINUOUS
10
187.63
20
-126.407
11
187.625
21
-126.412
0
LINE
8
BLACK
6
CONTINUOUS
10
187.625
20
-126.412
11
181.846
21
-133.634
0
LINE
8
BLACK
6
CONTINUOUS
10
181.846
20
-133.634
11
181.846
21
-133.635
0
LINE
8
BLACK
6
CONTINUOUS
10
181.846
20
-133.635
11
181.842
21
-133.64
0
LINE
8
BLACK
6
CONTINUOUS
10
181.842
20
-133.64
11
181.84
21
-133.643
0
LINE
8
BLACK
6
CONTINUOUS
10
181.84
20
-133.643
11
181.839
21
-133.643
0
LINE
8
BLACK
6
CONTINUOUS
10
181.839
20
-133.643
11
181.837
21
-133.646
0
LINE
8
BLACK
6
CONTINUOUS
10
181.837
20
-133.646
11
181.834
21
-133.648
0
LINE
8
BLACK
6
CONTINUOUS
10
181.834
20
-133.648
11
181.832
21
-133.651
0
LINE
8
BLACK
6
CONTINUOUS
10
181.832
20
-133.651
11
181.828
21
-133.653
0
LINE
8
BLACK
6
CONTINUOUS
10
181.828
20
-133.653
11
181.825
21
-133.656
0
LINE
8
BLACK
6
CONTINUOUS
10
181.825
20
-133.656
11
181.822
21
-133.657
0
LINE
8
BLACK
6
CONTINUOUS
10
181.822
20
-133.657
11
181.82
21
-133.659
0
LINE
8
BLACK
6
CONTINUOUS
10
181.82
20
-133.659
11
181.816
21
-133.661
0
LINE
8
BLACK
6
CONTINUOUS
10
181.816
20
-133.661
11
181.812
21
-133.662
0
LINE
8
BLACK
6
CONTINUOUS
10
181.812
20
-133.662
11
181.809
21
-133.663
0
LINE
8
BLACK
6
CONTINUOUS
10
181.809
20
-133.663
11
181.806
21
-133.665
0
LINE
8
BLACK
6
CONTINUOUS
10
181.806
20
-133.665
11
181.802
21
-133.666
0
LINE
8
BLACK
6
CONTINUOUS
10
181.802
20
-133.666
11
181.798
21
-133.667
0
LINE
8
BLACK
6
CONTINUOUS
10
181.798
20
-133.667
11
181.795
21
-133.667
0
LINE
8
BLACK
6
CONTINUOUS
10
181.795
20
-133.667
11
181.792
21
-133.668
0
LINE
8
BLACK
6
CONTINUOUS
10
181.792
20
-133.668
11
181.788
21
-133.668
0
LINE
8
BLACK
6
CONTINUOUS
10
181.788
20
-133.668
11
181.787
21
-133.668
0
LINE
8
BLACK
6
CONTINUOUS
10
181.787
20
-133.668
11
181.784
21
-133.668
0
LINE
8
BLACK
6
CONTINUOUS
10
181.784
20
-133.668
11
181.777
21
-133.668
0
LINE
8
BLACK
6
CONTINUOUS
10
181.777
20
-133.668
11
181.776
21
-133.668
0
LINE
8
BLACK
6
CONTINUOUS
10
181.776
20
-133.668
11
41.278
21
-133.668
0
LINE
8
BLACK
6
CONTINUOUS
10
41.278
20
-133.668
11
41.2737
21
-133.668
0
LINE
8
BLACK
6
CONTINUOUS
10
41.2737
20
-133.668
11
41.267
21
-133.667
0
LINE
8
BLACK
6
CONTINUOUS
10
41.267
20
-133.667
11
41.2603
21
-133.667
0
LINE
8
BLACK
6
CONTINUOUS
10
41.2603
20
-133.667
11
41.2597
21
-133.667
0
LINE
8
BLACK
6
CONTINUOUS
10
41.2597
20
-133.667
11
41.259
21
-133.666
0
LINE
8
BLACK
6
CONTINUOUS
10
41.259
20
-133.666
11
41.2526
21
-133.664
0
LINE
8
BLACK
6
CONTINUOUS
10
41.2526
20
-133.664
11
41.2462
21
-133.662
0
LINE
8
BLACK
6
CONTINUOUS
10
41.2462
20
-133.662
11
41.2456
21
-133.662
0
LINE
8
BLACK
6
CONTINUOUS
10
41.2456
20
-133.662
11
41.245
21
-133.662
0
LINE
8
BLACK
6
CONTINUOUS
10
41.245
20
-133.662
11
41.2391
21
-133.659
0
LINE
8
BLACK
6
CONTINUOUS
10
41.2391
20
-133.659
11
41.2331
21
-133.656
0
LINE
8
BLACK
6
CONTINUOUS
10
41.2331
20
-133.656
11
41.2326
21
-133.655
0
LINE
8
BLACK
6
CONTINUOUS
10
41.2326
20
-133.655
11
41.2321
21
-133.655
0
LINE
8
BLACK
6
CONTINUOUS
10
41.2321
20
-133.655
11
41.2269
21
-133.65
0
LINE
8
BLACK
6
CONTINUOUS
10
41.2269
20
-133.65
11
41.2217
21
-133.646
0
LINE
8
BLACK
6
CONTINUOUS
10
41.2217
20
-133.646
11
41.219
21
-133.643
0
LINE
8
BLACK
6
CONTINUOUS
10
41.219
20
-133.643
11
35.6006
21
-127.829
0
LINE
8
BLACK
6
CONTINUOUS
10
35.6006
20
-127.829
11
35.5983
21
-127.827
0
LINE
8
BLACK
6
CONTINUOUS
10
35.5983
20
-127.827
11
35.5955
21
-127.823
0
LINE
8
BLACK
6
CONTINUOUS
10
35.5955
20
-127.823
11
35.595
21
-127.823
0
LINE
8
BLACK
6
CONTINUOUS
10
35.595
20
-127.823
11
35.5932
21
-127.821
0
LINE
8
BLACK
6
CONTINUOUS
10
35.5932
20
-127.821
11
35.5889
21
-127.815
0
LINE
8
BLACK
6
CONTINUOUS
10
35.5889
20
-127.815
11
35.5886
21
-127.815
0
LINE
8
BLACK
6
CONTINUOUS
10
35.5886
20
-127.815
11
35.5881
21
-127.814
0
LINE
8
BLACK
6
CONTINUOUS
10
35.5881
20
-127.814
11
35.5851
21
-127.808
0
LINE
8
BLACK
6
CONTINUOUS
10
35.5851
20
-127.808
11
35.5819
21
-127.802
0
LINE
8
BLACK
6
CONTINUOUS
10
35.5819
20
-127.802
11
35.5817
21
-127.802
0
LINE
8
BLACK
6
CONTINUOUS
10
35.5817
20
-127.802
11
35.5814
21
-127.801
0
LINE
8
BLACK
6
CONTINUOUS
10
35.5814
20
-127.801
11
35.5796
21
-127.795
0
LINE
8
BLACK
6
CONTINUOUS
10
35.5796
20
-127.795
11
35.5776
21
-127.788
0
LINE
8
BLACK
6
CONTINUOUS
10
35.5776
20
-127.788
11
35.5775
21
-127.788
0
LINE
8
BLACK
6
CONTINUOUS
10
35.5775
20
-127.788
11
35.5773
21
-127.787
0
LINE
8
BLACK
6
CONTINUOUS
10
35.5773
20
-127.787
11
35.5768
21
-127.78
0
LINE
8
BLACK
6
CONTINUOUS
10
35.5768
20
-127.78
11
35.5765
21
-127.777
0
LINE
8
BLACK
6
CONTINUOUS
10
35.5765
20
-127.777
11
35.5765
21
-127.777
0
LINE
8
BLACK
6
CONTINUOUS
10
35.5765
20
-127.777
11
35.5761
21
-127.772
0
LINE
8
BLACK
6
CONTINUOUS
10
35.5761
20
-127.772
11
35.5765
21
-127.769
0
LINE
8
BLACK
6
CONTINUOUS
10
35.5765
20
-127.769
11
35.485
21
-83.1873
0
LINE
8
BLACK
6
CONTINUOUS
10
35.485
20
-83.1873
11
35.4847
21
-83.182
0
LINE
8
BLACK
6
CONTINUOUS
10
35.4847
20
-83.182
11
35.4855
21
-83.1763
0
LINE
8
BLACK
6
CONTINUOUS
10
35.4855
20
-83.1763
11
35.4861
21
-83.1705
0
LINE
8
BLACK
6
CONTINUOUS
10
35.4861
20
-83.1705
11
35.4865
21
-83.169
0
LINE
8
BLACK
6
CONTINUOUS
10
35.4865
20
-83.169
11
35.4867
21
-83.1674
0
LINE
8
BLACK
6
CONTINUOUS
10
35.4867
20
-83.1674
11
35.4886
21
-83.1619
0
LINE
8
BLACK
6
CONTINUOUS
10
35.4886
20
-83.1619
11
35.4903
21
-83.1563
0
LINE
8
BLACK
6
CONTINUOUS
10
35.4903
20
-83.1563
11
35.4911
21
-83.1549
0
LINE
8
BLACK
6
CONTINUOUS
10
35.4911
20
-83.1549
11
35.4916
21
-83.1535
0
LINE
8
BLACK
6
CONTINUOUS
10
35.4916
20
-83.1535
11
35.4945
21
-83.1484
0
LINE
8
BLACK
6
CONTINUOUS
10
35.4945
20
-83.1484
11
35.4973
21
-83.1433
0
LINE
8
BLACK
6
CONTINUOUS
10
35.4973
20
-83.1433
11
35.4982
21
-83.1421
0
LINE
8
BLACK
6
CONTINUOUS
10
35.4982
20
-83.1421
11
35.499
21
-83.1407
0
LINE
8
BLACK
6
CONTINUOUS
10
35.499
20
-83.1407
11
35.5029
21
-83.1363
0
LINE
8
BLACK
6
CONTINUOUS
10
35.5029
20
-83.1363
11
35.5066
21
-83.1318
0
LINE
8
BLACK
6
CONTINUOUS
10
35.5066
20
-83.1318
11
35.5106
21
-83.1285
0
LINE
8
BLACK
6
CONTINUOUS
10
35.5106
20
-83.1285
11
40.3132
21
-78.6884
0
LINE
8
BLACK
6
CONTINUOUS
10
40.3132
20
-78.6884
11
40.3146
21
-78.6867
0
LINE
8
BLACK
6
CONTINUOUS
10
40.3146
20
-78.6867
11
40.3186
21
-78.6834
0
LINE
8
BLACK
6
CONTINUOUS
10
40.3186
20
-78.6834
11
40.3197
21
-78.6824
0
LINE
8
BLACK
6
CONTINUOUS
10
40.3197
20
-78.6824
11
40.3214
21
-78.6811
0
LINE
8
BLACK
6
CONTINUOUS
10
40.3214
20
-78.6811
11
40.326
21
-78.6773
0
LINE
8
BLACK
6
CONTINUOUS
10
40.326
20
-78.6773
11
40.3273
21
-78.6766
0
LINE
8
BLACK
6
CONTINUOUS
10
40.3273
20
-78.6766
11
40.3285
21
-78.6757
0
LINE
8
BLACK
6
CONTINUOUS
10
40.3285
20
-78.6757
11
40.3338
21
-78.6732
0
LINE
8
BLACK
6
CONTINUOUS
10
40.3338
20
-78.6732
11
40.339
21
-78.6704
0
LINE
8
BLACK
6
CONTINUOUS
10
40.339
20
-78.6704
11
40.3405
21
-78.6699
0
LINE
8
BLACK
6
CONTINUOUS
10
40.3405
20
-78.6699
11
40.3418
21
-78.6693
0
LINE
8
BLACK
6
CONTINUOUS
10
40.3418
20
-78.6693
11
40.3475
21
-78.6678
0
LINE
8
BLACK
6
CONTINUOUS
10
40.3475
20
-78.6678
11
40.3532
21
-78.6661
0
LINE
8
BLACK
6
CONTINUOUS
10
40.3532
20
-78.6661
11
40.3547
21
-78.6659
0
LINE
8
BLACK
6
CONTINUOUS
10
40.3547
20
-78.6659
11
40.3561
21
-78.6656
0
LINE
8
BLACK
6
CONTINUOUS
10
40.3561
20
-78.6656
11
40.362
21
-78.6652
0
LINE
8
BLACK
6
CONTINUOUS
10
40.362
20
-78.6652
11
40.3642
21
-78.665
0
LINE
8
BLACK
6
CONTINUOUS
10
40.3642
20
-78.665
11
40.3657
21
-78.665
0
LINE
8
BLACK
6
CONTINUOUS
10
40.3657
20
-78.665
11
40.3708
21
-78.6647
0
LINE
8
BLACK
6
CONTINUOUS
10
40.3708
20
-78.6647
11
40.373
21
-78.665
0
LINE
8
BLACK
6
CONTINUOUS
10
40.373
20
-78.665
11
78.7353
21
-78.665
0
LINE
8
BLACK
6
CONTINUOUS
10
78.7353
20
-78.665
11
78.738
21
-78.6647
0
LINE
8
BLACK
6
CONTINUOUS
10
78.738
20
-78.6647
11
78.7427
21
-78.665
0
LINE
8
BLACK
6
CONTINUOUS
10
40.3972
20
-78.815
11
35.6351
21
-83.2177
0
LINE
8
BLACK
6
CONTINUOUS
10
35.6351
20
-83.2177
11
35.7264
21
-127.743
0
LINE
8
BLACK
6
CONTINUOUS
10
35.7264
20
-127.743
11
41.3068
21
-133.518
0
LINE
8
BLACK
6
CONTINUOUS
10
41.3068
20
-133.518
11
181.747
21
-133.518
0
LINE
8
BLACK
6
CONTINUOUS
10
181.747
20
-133.518
11
187.492
21
-126.339
0
LINE
8
BLACK
6
CONTINUOUS
10
187.492
20
-126.339
11
187.492
21
-114.814
0
LINE
8
BLACK
6
CONTINUOUS
10
187.492
20
-114.814
11
181.288
21
-108.545
0
LINE
8
BLACK
6
CONTINUOUS
10
181.288
20
-108.545
11
91.5516
21
-108.58
0
LINE
8
BLACK
6
CONTINUOUS
10
91.5516
20
-108.58
11
91.5482
21
-108.581
0
LINE
8
BLACK
6
CONTINUOUS
10
91.5482
20
-108.581
11
91.5443
21
-108.58
0
LINE
8
BLACK
6
CONTINUOUS
10
91.5443
20
-108.58
11
91.544
21
-108.58
0
LINE
8
BLACK
6
CONTINUOUS
10
91.544
20
-108.58
11
91.5407
21
-108.58
0
LINE
8
BLACK
6
CONTINUOUS
10
91.5407
20
-108.58
11
91.5335
21
-108.579
0
LINE
8
BLACK
6
CONTINUOUS
10
91.5335
20
-108.579
11
91.5332
21
-108.579
0
LINE
8
BLACK
6
CONTINUOUS
10
91.5332
20
-108.579
11
91.533
21
-108.579
0
LINE
8
BLACK
6
CONTINUOUS
10
91.533
20
-108.579
11
91.5263
21
-108.577
0
LINE
8
BLACK
6
CONTINUOUS
10
91.5263
20
-108.577
11
91.5193
21
-108.575
0
LINE
8
BLACK
6
CONTINUOUS
10
91.5193
20
-108.575
11
91.5191
21
-108.575
0
LINE
8
BLACK
6
CONTINUOUS
10
91.5191
20
-108.575
11
91.5188
21
-108.575
0
LINE
8
BLACK
6
CONTINUOUS
10
91.5188
20
-108.575
11
91.5127
21
-108.572
0
LINE
8
BLACK
6
CONTINUOUS
10
91.5127
20
-108.572
11
91.5062
21
-108.568
0
LINE
8
BLACK
6
CONTINUOUS
10
91.5062
20
-108.568
11
91.506
21
-108.568
0
LINE
8
BLACK
6
CONTINUOUS
10
91.506
20
-108.568
11
91.5058
21
-108.568
0
LINE
8
BLACK
6
CONTINUOUS
10
91.5058
20
-108.568
11
91.5004
21
-108.564
0
LINE
8
BLACK
6
CONTINUOUS
10
91.5004
20
-108.564
11
91.4976
21
-108.561
0
LINE
8
BLACK
6
CONTINUOUS
10
91.4976
20
-108.561
11
91.4974
21
-108.561
0
LINE
8
BLACK
6
CONTINUOUS
10
91.4974
20
-108.561
11
91.4944
21
-108.559
0
LINE
8
BLACK
6
CONTINUOUS
10
91.4944
20
-108.559
11
91.4922
21
-108.556
0
LINE
8
BLACK
6
CONTINUOUS
10
91.4922
20
-108.556
11
84.1072
21
-101.278
0
LINE
8
BLACK
6
CONTINUOUS
10
84.1072
20
-101.278
11
84.1041
21
-101.275
0
LINE
8
BLACK
6
CONTINUOUS
10
84.1041
20
-101.275
11
84.0996
21
-101.27
0
LINE
8
BLACK
6
CONTINUOUS
10
84.0996
20
-101.27
11
84.0951
21
-101.265
0
LINE
8
BLACK
6
CONTINUOUS
10
84.0951
20
-101.265
11
84.0949
21
-101.264
0
LINE
8
BLACK
6
CONTINUOUS
10
84.0949
20
-101.264
11
84.0947
21
-101.264
0
LINE
8
BLACK
6
CONTINUOUS
10
84.0947
20
-101.264
11
84.0914
21
-101.258
0
LINE
8
BLACK
6
CONTINUOUS
10
84.0914
20
-101.258
11
84.088
21
-101.252
0
LINE
8
BLACK
6
CONTINUOUS
10
84.088
20
-101.252
11
84.0879
21
-101.251
0
LINE
8
BLACK
6
CONTINUOUS
10
84.0879
20
-101.251
11
84.0878
21
-101.251
0
LINE
8
BLACK
6
CONTINUOUS
10
84.0878
20
-101.251
11
84.0857
21
-101.244
0
LINE
8
BLACK
6
CONTINUOUS
10
84.0857
20
-101.244
11
84.0836
21
-101.237
0
LINE
8
BLACK
6
CONTINUOUS
10
84.0836
20
-101.237
11
84.0836
21
-101.237
0
LINE
8
BLACK
6
CONTINUOUS
10
84.0836
20
-101.237
11
84.0835
21
-101.237
0
LINE
8
BLACK
6
CONTINUOUS
10
84.0835
20
-101.237
11
84.0828
21
-101.23
0
LINE
8
BLACK
6
CONTINUOUS
10
84.0828
20
-101.23
11
84.0821
21
-101.223
0
LINE
8
BLACK
6
CONTINUOUS
10
84.0821
20
-101.223
11
84.0824
21
-101.219
0
LINE
8
BLACK
6
CONTINUOUS
10
84.0824
20
-101.219
11
84.102
21
-83.932
0
LINE
8
BLACK
6
CONTINUOUS
10
84.102
20
-83.932
11
78.7101
21
-78.815
0
LINE
8
BLACK
6
CONTINUOUS
10
78.7101
20
-78.815
11
40.3972
21
-78.815
0
LINE
8
BLACK
6
CONTINUOUS
10
167.891
20
-123.182
11
167.74
21
-123.465
0
LINE
8
BLACK
6
CONTINUOUS
10
167.74
20
-123.465
11
167.537
21
-123.714
0
LINE
8
BLACK
6
CONTINUOUS
10
167.537
20
-123.714
11
167.29
21
-123.919
0
LINE
8
BLACK
6
CONTINUOUS
10
167.29
20
-123.919
11
167.007
21
-124.071
0
LINE
8
BLACK
6
CONTINUOUS
10
167.007
20
-124.071
11
166.701
21
-124.166
0
LINE
8
BLACK
6
CONTINUOUS
10
166.701
20
-124.166
11
166.381
21
-124.2
0
LINE
8
BLACK
6
CONTINUOUS
10
166.381
20
-124.2
11
166.062
21
-124.171
0
LINE
8
BLACK
6
CONTINUOUS
10
166.062
20
-124.171
11
165.754
21
-124.08
0
LINE
8
BLACK
6
CONTINUOUS
10
165.754
20
-124.08
11
165.469
21
-123.931
0
LINE
8
BLACK
6
CONTINUOUS
10
165.469
20
-123.931
11
165.219
21
-123.73
0
LINE
8
BLACK
6
CONTINUOUS
10
165.219
20
-123.73
11
165.013
21
-123.484
0
LINE
8
BLACK
6
CONTINUOUS
10
165.013
20
-123.484
11
164.858
21
-123.203
0
LINE
8
BLACK
6
CONTINUOUS
10
164.858
20
-123.203
11
164.761
21
-122.897
0
LINE
8
BLACK
6
CONTINUOUS
10
164.761
20
-122.897
11
164.725
21
-122.578
0
LINE
8
BLACK
6
CONTINUOUS
10
164.725
20
-122.578
11
164.752
21
-122.258
0
LINE
8
BLACK
6
CONTINUOUS
10
164.752
20
-122.258
11
164.841
21
-121.949
0
LINE
8
BLACK
6
CONTINUOUS
10
164.841
20
-121.949
11
164.987
21
-121.664
0
LINE
8
BLACK
6
CONTINUOUS
10
164.987
20
-121.664
11
165.187
21
-121.412
0
LINE
8
BLACK
6
CONTINUOUS
10
165.187
20
-121.412
11
165.431
21
-121.204
0
LINE
8
BLACK
6
CONTINUOUS
10
165.431
20
-121.204
11
165.711
21
-121.048
0
LINE
8
BLACK
6
CONTINUOUS
10
165.711
20
-121.048
11
166.017
21
-120.948
0
LINE
8
BLACK
6
CONTINUOUS
10
166.017
20
-120.948
11
166.336
21
-120.91
0
LINE
8
BLACK
6
CONTINUOUS
10
166.336
20
-120.91
11
166.656
21
-120.935
0
LINE
8
BLACK
6
CONTINUOUS
10
166.656
20
-120.935
11
166.965
21
-121.021
0
LINE
8
BLACK
6
CONTINUOUS
10
166.965
20
-121.021
11
167.251
21
-121.166
0
LINE
8
BLACK
6
CONTINUOUS
10
167.251
20
-121.166
11
167.504
21
-121.364
0
LINE
8
BLACK
6
CONTINUOUS
10
167.504
20
-121.364
11
167.714
21
-121.607
0
LINE
8
BLACK
6
CONTINUOUS
10
167.714
20
-121.607
11
167.873
21
-121.886
0
LINE
8
BLACK
6
CONTINUOUS
10
167.873
20
-121.886
11
167.974
21
-122.191
0
LINE
8
BLACK
6
CONTINUOUS
10
167.974
20
-122.191
11
168.014
21
-122.509
0
LINE
8
BLACK
6
CONTINUOUS
10
168.014
20
-122.509
11
168.015
21
-122.555
0
LINE
8
BLACK
6
CONTINUOUS
10
168.015
20
-122.555
11
167.984
21
-122.875
0
LINE
8
BLACK
6
CONTINUOUS
10
167.984
20
-122.875
11
167.891
21
-123.182
0
LINE
8
BLACK
6
CONTINUOUS
10
167.734
20
-121.993
11
167.599
21
-121.739
0
LINE
8
BLACK
6
CONTINUOUS
10
167.599
20
-121.739
11
167.417
21
-121.516
0
LINE
8
BLACK
6
CONTINUOUS
10
167.417
20
-121.516
11
167.195
21
-121.332
0
LINE
8
BLACK
6
CONTINUOUS
10
167.195
20
-121.332
11
166.942
21
-121.195
0
LINE
8
BLACK
6
CONTINUOUS
10
166.942
20
-121.195
11
166.667
21
-121.11
0
LINE
8
BLACK
6
CONTINUOUS
10
166.667
20
-121.11
11
166.38
21
-121.08
0
LINE
8
BLACK
6
CONTINUOUS
10
166.38
20
-121.08
11
166.094
21
-121.106
0
LINE
8
BLACK
6
CONTINUOUS
10
166.094
20
-121.106
11
165.817
21
-121.187
0
LINE
8
BLACK
6
CONTINUOUS
10
165.817
20
-121.187
11
165.562
21
-121.321
0
LINE
8
BLACK
6
CONTINUOUS
10
165.562
20
-121.321
11
165.338
21
-121.501
0
LINE
8
BLACK
6
CONTINUOUS
10
165.338
20
-121.501
11
165.153
21
-121.722
0
LINE
8
BLACK
6
CONTINUOUS
10
165.153
20
-121.722
11
165.014
21
-121.974
0
LINE
8
BLACK
6
CONTINUOUS
10
165.014
20
-121.974
11
164.927
21
-122.248
0
LINE
8
BLACK
6
CONTINUOUS
10
164.927
20
-122.248
11
164.895
21
-122.534
0
LINE
8
BLACK
6
CONTINUOUS
10
164.895
20
-122.534
11
164.919
21
-122.821
0
LINE
8
BLACK
6
CONTINUOUS
10
164.919
20
-122.821
11
164.999
21
-123.098
0
LINE
8
BLACK
6
CONTINUOUS
10
164.999
20
-123.098
11
165.13
21
-123.354
0
LINE
8
BLACK
6
CONTINUOUS
10
165.13
20
-123.354
11
165.309
21
-123.58
0
LINE
8
BLACK
6
CONTINUOUS
10
165.309
20
-123.58
11
165.528
21
-123.766
0
LINE
8
BLACK
6
CONTINUOUS
10
165.528
20
-123.766
11
165.779
21
-123.907
0
LINE
8
BLACK
6
CONTINUOUS
10
165.779
20
-123.907
11
166.053
21
-123.996
0
LINE
8
BLACK
6
CONTINUOUS
10
166.053
20
-123.996
11
166.339
21
-124.03
0
LINE
8
BLACK
6
CONTINUOUS
10
166.339
20
-124.03
11
166.626
21
-124.008
0
LINE
8
BLACK
6
CONTINUOUS
10
166.626
20
-124.008
11
166.903
21
-123.93
0
LINE
8
BLACK
6
CONTINUOUS
10
166.903
20
-123.93
11
167.16
21
-123.8
0
LINE
8
BLACK
6
CONTINUOUS
10
167.16
20
-123.8
11
167.387
21
-123.623
0
LINE
8
BLACK
6
CONTINUOUS
10
167.387
20
-123.623
11
167.575
21
-123.405
0
LINE
8
BLACK
6
CONTINUOUS
10
167.575
20
-123.405
11
167.717
21
-123.155
0
LINE
8
BLACK
6
CONTINUOUS
10
167.717
20
-123.155
11
167.808
21
-122.882
0
LINE
8
BLACK
6
CONTINUOUS
10
167.808
20
-122.882
11
167.844
21
-122.596
0
LINE
8
BLACK
6
CONTINUOUS
10
167.844
20
-122.596
11
167.845
21
-122.555
0
LINE
8
BLACK
6
CONTINUOUS
10
167.845
20
-122.555
11
167.817
21
-122.269
0
LINE
8
BLACK
6
CONTINUOUS
10
167.817
20
-122.269
11
167.734
21
-121.993
0
LINE
8
BLACK
6
CONTINUOUS
10
80.8959
20
-123.182
11
80.7452
21
-123.465
0
LINE
8
BLACK
6
CONTINUOUS
10
80.7452
20
-123.465
11
80.5422
21
-123.714
0
LINE
8
BLACK
6
CONTINUOUS
10
80.5422
20
-123.714
11
80.2949
21
-123.919
0
LINE
8
BLACK
6
CONTINUOUS
10
80.2949
20
-123.919
11
80.0125
21
-124.071
0
LINE
8
BLACK
6
CONTINUOUS
10
80.0125
20
-124.071
11
79.7058
21
-124.166
0
LINE
8
BLACK
6
CONTINUOUS
10
79.7058
20
-124.166
11
79.3865
21
-124.2
0
LINE
8
BLACK
6
CONTINUOUS
10
79.3865
20
-124.2
11
79.0668
21
-124.171
0
LINE
8
BLACK
6
CONTINUOUS
10
79.0668
20
-124.171
11
78.7588
21
-124.08
0
LINE
8
BLACK
6
CONTINUOUS
10
78.7588
20
-124.08
11
78.4743
21
-123.931
0
LINE
8
BLACK
6
CONTINUOUS
10
78.4743
20
-123.931
11
78.2241
21
-123.73
0
LINE
8
BLACK
6
CONTINUOUS
10
78.2241
20
-123.73
11
78.0177
21
-123.484
0
LINE
8
BLACK
6
CONTINUOUS
10
78.0177
20
-123.484
11
77.863
21
-123.203
0
LINE
8
BLACK
6
CONTINUOUS
10
77.863
20
-123.203
11
77.7659
21
-122.897
0
LINE
8
BLACK
6
CONTINUOUS
10
77.7659
20
-122.897
11
77.7302
21
-122.578
0
LINE
8
BLACK
6
CONTINUOUS
10
77.7302
20
-122.578
11
77.757
21
-122.258
0
LINE
8
BLACK
6
CONTINUOUS
10
77.757
20
-122.258
11
77.8455
21
-121.949
0
LINE
8
BLACK
6
CONTINUOUS
10
77.8455
20
-121.949
11
77.9923
21
-121.664
0
LINE
8
BLACK
6
CONTINUOUS
10
77.9923
20
-121.664
11
78.1917
21
-121.412
0
LINE
8
BLACK
6
CONTINUOUS
10
78.1917
20
-121.412
11
78.4362
21
-121.204
0
LINE
8
BLACK
6
CONTINUOUS
10
78.4362
20
-121.204
11
78.7164
21
-121.048
0
LINE
8
BLACK
6
CONTINUOUS
10
78.7164
20
-121.048
11
79.0218
21
-120.948
0
LINE
8
BLACK
6
CONTINUOUS
10
79.0218
20
-120.948
11
79.3405
21
-120.91
0
LINE
8
BLACK
6
CONTINUOUS
10
79.3405
20
-120.91
11
79.6607
21
-120.935
0
LINE
8
BLACK
6
CONTINUOUS
10
79.6607
20
-120.935
11
79.9699
21
-121.021
0
LINE
8
BLACK
6
CONTINUOUS
10
79.9699
20
-121.021
11
80.2564
21
-121.166
0
LINE
8
BLACK
6
CONTINUOUS
10
80.2564
20
-121.166
11
80.5094
21
-121.364
0
LINE
8
BLACK
6
CONTINUOUS
10
80.5094
20
-121.364
11
80.7192
21
-121.607
0
LINE
8
BLACK
6
CONTINUOUS
10
80.7192
20
-121.607
11
80.8778
21
-121.886
0
LINE
8
BLACK
6
CONTINUOUS
10
80.8778
20
-121.886
11
80.9791
21
-122.191
0
LINE
8
BLACK
6
CONTINUOUS
10
80.9791
20
-122.191
11
81.0194
21
-122.509
0
LINE
8
BLACK
6
CONTINUOUS
10
81.0194
20
-122.509
11
81.02
21
-122.555
0
LINE
8
BLACK
6
CONTINUOUS
10
81.02
20
-122.555
11
80.9887
21
-122.875
0
LINE
8
BLACK
6
CONTINUOUS
10
80.9887
20
-122.875
11
80.8959
21
-123.182
0
LINE
8
BLACK
6
CONTINUOUS
10
80.7387
20
-121.993
11
80.6036
21
-121.739
0
LINE
8
BLACK
6
CONTINUOUS
10
80.6036
20
-121.739
11
80.4216
21
-121.516
0
LINE
8
BLACK
6
CONTINUOUS
10
80.4216
20
-121.516
11
80.1998
21
-121.332
0
LINE
8
BLACK
6
CONTINUOUS
10
80.1998
20
-121.332
11
79.9466
21
-121.195
0
LINE
8
BLACK
6
CONTINUOUS
10
79.9466
20
-121.195
11
79.6716
21
-121.11
0
LINE
8
BLACK
6
CONTINUOUS
10
79.6716
20
-121.11
11
79.3853
21
-121.08
0
LINE
8
BLACK
6
CONTINUOUS
10
79.3853
20
-121.08
11
79.0986
21
-121.106
0
LINE
8
BLACK
6
CONTINUOUS
10
79.0986
20
-121.106
11
78.8225
21
-121.187
0
LINE
8
BLACK
6
CONTINUOUS
10
78.8225
20
-121.187
11
78.5673
21
-121.321
0
LINE
8
BLACK
6
CONTINUOUS
10
78.5673
20
-121.321
11
78.343
21
-121.501
0
LINE
8
BLACK
6
CONTINUOUS
10
78.343
20
-121.501
11
78.158
21
-121.722
0
LINE
8
BLACK
6
CONTINUOUS
10
78.158
20
-121.722
11
78.0193
21
-121.974
0
LINE
8
BLACK
6
CONTINUOUS
10
78.0193
20
-121.974
11
77.9322
21
-122.248
0
LINE
8
BLACK
6
CONTINUOUS
10
77.9322
20
-122.248
11
77.9001
21
-122.534
0
LINE
8
BLACK
6
CONTINUOUS
10
77.9001
20
-122.534
11
77.9242
21
-122.821
0
LINE
8
BLACK
6
CONTINUOUS
10
77.9242
20
-122.821
11
78.0036
21
-123.098
0
LINE
8
BLACK
6
CONTINUOUS
10
78.0036
20
-123.098
11
78.1352
21
-123.354
0
LINE
8
BLACK
6
CONTINUOUS
10
78.1352
20
-123.354
11
78.314
21
-123.58
0
LINE
8
BLACK
6
CONTINUOUS
10
78.314
20
-123.58
11
78.5332
21
-123.766
0
LINE
8
BLACK
6
CONTINUOUS
10
78.5332
20
-123.766
11
78.7845
21
-123.907
0
LINE
8
BLACK
6
CONTINUOUS
10
78.7845
20
-123.907
11
79.0583
21
-123.996
0
LINE
8
BLACK
6
CONTINUOUS
10
79.0583
20
-123.996
11
79.3441
21
-124.03
0
LINE
8
BLACK
6
CONTINUOUS
10
79.3441
20
-124.03
11
79.6311
21
-124.008
0
LINE
8
BLACK
6
CONTINUOUS
10
79.6311
20
-124.008
11
79.9084
21
-123.93
0
LINE
8
BLACK
6
CONTINUOUS
10
79.9084
20
-123.93
11
80.1653
21
-123.8
0
LINE
8
BLACK
6
CONTINUOUS
10
80.1653
20
-123.8
11
80.3922
21
-123.623
0
LINE
8
BLACK
6
CONTINUOUS
10
80.3922
20
-123.623
11
80.5803
21
-123.405
0
LINE
8
BLACK
6
CONTINUOUS
10
80.5803
20
-123.405
11
80.7225
21
-123.155
0
LINE
8
BLACK
6
CONTINUOUS
10
80.7225
20
-123.155
11
80.8133
21
-122.882
0
LINE
8
BLACK
6
CONTINUOUS
10
80.8133
20
-122.882
11
80.8494
21
-122.596
0
LINE
8
BLACK
6
CONTINUOUS
10
80.8494
20
-122.596
11
80.85
21
-122.555
0
LINE
8
BLACK
6
CONTINUOUS
10
80.85
20
-122.555
11
80.8219
21
-122.269
0
LINE
8
BLACK
6
CONTINUOUS
10
80.8219
20
-122.269
11
80.7387
21
-121.993
0
LINE
8
BLACK
6
CONTINUOUS
10
58.0359
20
-96.5119
11
57.8852
21
-96.7953
0
LINE
8
BLACK
6
CONTINUOUS
10
57.8852
20
-96.7953
11
57.6822
21
-97.0441
0
LINE
8
BLACK
6
CONTINUOUS
10
57.6822
20
-97.0441
11
57.4349
21
-97.2488
0
LINE
8
BLACK
6
CONTINUOUS
10
57.4349
20
-97.2488
11
57.1525
21
-97.4015
0
LINE
8
BLACK
6
CONTINUOUS
10
57.1525
20
-97.4015
11
56.8458
21
-97.4964
0
LINE
8
BLACK
6
CONTINUOUS
10
56.8458
20
-97.4964
11
56.5265
21
-97.53
0
LINE
8
BLACK
6
CONTINUOUS
10
56.5265
20
-97.53
11
56.2068
21
-97.5009
0
LINE
8
BLACK
6
CONTINUOUS
10
56.2068
20
-97.5009
11
55.8988
21
-97.4102
0
LINE
8
BLACK
6
CONTINUOUS
10
55.8988
20
-97.4102
11
55.6143
21
-97.2615
0
LINE
8
BLACK
6
CONTINUOUS
10
55.6143
20
-97.2615
11
55.3641
21
-97.0603
0
LINE
8
BLACK
6
CONTINUOUS
10
55.3641
20
-97.0603
11
55.1577
21
-96.8144
0
LINE
8
BLACK
6
CONTINUOUS
10
55.1577
20
-96.8144
11
55.003
21
-96.533
0
LINE
8
BLACK
6
CONTINUOUS
10
55.003
20
-96.533
11
54.9059
21
-96.227
0
LINE
8
BLACK
6
CONTINUOUS
10
54.9059
20
-96.227
11
54.8702
21
-95.908
0
LINE
8
BLACK
6
CONTINUOUS
10
54.8702
20
-95.908
11
54.897
21
-95.588
0
LINE
8
BLACK
6
CONTINUOUS
10
54.897
20
-95.588
11
54.9855
21
-95.2794
0
LINE
8
BLACK
6
CONTINUOUS
10
54.9855
20
-95.2794
11
55.1323
21
-94.9939
0
LINE
8
BLACK
6
CONTINUOUS
10
55.1323
20
-94.9939
11
55.3317
21
-94.7423
0
LINE
8
BLACK
6
CONTINUOUS
10
55.3317
20
-94.7423
11
55.5762
21
-94.5342
0
LINE
8
BLACK
6
CONTINUOUS
10
55.5762
20
-94.5342
11
55.8564
21
-94.3776
0
LINE
8
BLACK
6
CONTINUOUS
10
55.8564
20
-94.3776
11
56.1618
21
-94.2784
0
LINE
8
BLACK
6
CONTINUOUS
10
56.1618
20
-94.2784
11
56.4806
21
-94.2404
0
LINE
8
BLACK
6
CONTINUOUS
10
56.4806
20
-94.2404
11
56.8007
21
-94.265
0
LINE
8
BLACK
6
CONTINUOUS
10
56.8007
20
-94.265
11
57.1099
21
-94.3513
0
LINE
8
BLACK
6
CONTINUOUS
10
57.1099
20
-94.3513
11
57.3964
21
-94.4961
0
LINE
8
BLACK
6
CONTINUOUS
10
57.3964
20
-94.4961
11
57.6494
21
-94.6937
0
LINE
8
BLACK
6
CONTINUOUS
10
57.6494
20
-94.6937
11
57.8592
21
-94.9368
0
LINE
8
BLACK
6
CONTINUOUS
10
57.8592
20
-94.9368
11
58.0178
21
-95.2159
0
LINE
8
BLACK
6
CONTINUOUS
10
58.0178
20
-95.2159
11
58.1191
21
-95.5206
0
LINE
8
BLACK
6
CONTINUOUS
10
58.1191
20
-95.5206
11
58.1594
21
-95.8391
0
LINE
8
BLACK
6
CONTINUOUS
10
58.1594
20
-95.8391
11
58.16
21
-95.885
0
LINE
8
BLACK
6
CONTINUOUS
10
58.16
20
-95.885
11
58.1287
21
-96.2045
0
LINE
8
BLACK
6
CONTINUOUS
10
58.1287
20
-96.2045
11
58.0359
21
-96.5119
0
LINE
8
BLACK
6
CONTINUOUS
10
57.8787
20
-95.3229
11
57.7436
21
-95.0687
0
LINE
8
BLACK
6
CONTINUOUS
10
57.7436
20
-95.0687
11
57.5616
21
-94.8457
0
LINE
8
BLACK
6
CONTINUOUS
10
57.5616
20
-94.8457
11
57.3398
21
-94.6622
0
LINE
8
BLACK
6
CONTINUOUS
10
57.3398
20
-94.6622
11
57.0866
21
-94.5253
0
LINE
8
BLACK
6
CONTINUOUS
10
57.0866
20
-94.5253
11
56.8116
21
-94.4401
0
LINE
8
BLACK
6
CONTINUOUS
10
56.8116
20
-94.4401
11
56.5253
21
-94.41
0
LINE
8
BLACK
6
CONTINUOUS
10
56.5253
20
-94.41
11
56.2386
21
-94.4361
0
LINE
8
BLACK
6
CONTINUOUS
10
56.2386
20
-94.4361
11
55.9625
21
-94.5174
0
LINE
8
BLACK
6
CONTINUOUS
10
55.9625
20
-94.5174
11
55.7073
21
-94.6508
0
LINE
8
BLACK
6
CONTINUOUS
10
55.7073
20
-94.6508
11
55.483
21
-94.8312
0
LINE
8
BLACK
6
CONTINUOUS
10
55.483
20
-94.8312
11
55.298
21
-95.0517
0
LINE
8
BLACK
6
CONTINUOUS
10
55.298
20
-95.0517
11
55.1593
21
-95.3039
0
LINE
8
BLACK
6
CONTINUOUS
10
55.1593
20
-95.3039
11
55.0722
21
-95.5783
0
LINE
8
BLACK
6
CONTINUOUS
10
55.0722
20
-95.5783
11
55.0401
21
-95.8644
0
LINE
8
BLACK
6
CONTINUOUS
10
55.0401
20
-95.8644
11
55.0642
21
-96.1513
0
LINE
8
BLACK
6
CONTINUOUS
10
55.0642
20
-96.1513
11
55.1436
21
-96.428
0
LINE
8
BLACK
6
CONTINUOUS
10
55.1436
20
-96.428
11
55.2752
21
-96.684
0
LINE
8
BLACK
6
CONTINUOUS
10
55.2752
20
-96.684
11
55.454
21
-96.9096
0
LINE
8
BLACK
6
CONTINUOUS
10
55.454
20
-96.9096
11
55.6732
21
-97.0962
0
LINE
8
BLACK
6
CONTINUOUS
10
55.6732
20
-97.0962
11
55.9245
21
-97.2366
0
LINE
8
BLACK
6
CONTINUOUS
10
55.9245
20
-97.2366
11
56.1983
21
-97.3256
0
LINE
8
BLACK
6
CONTINUOUS
10
56.1983
20
-97.3256
11
56.4841
21
-97.3597
0
LINE
8
BLACK
6
CONTINUOUS
10
56.4841
20
-97.3597
11
56.7711
21
-97.3376
0
LINE
8
BLACK
6
CONTINUOUS
10
56.7711
20
-97.3376
11
57.0484
21
-97.2602
0
LINE
8
BLACK
6
CONTINUOUS
10
57.0484
20
-97.2602
11
57.3053
21
-97.1304
0
LINE
8
BLACK
6
CONTINUOUS
10
57.3053
20
-97.1304
11
57.5322
21
-96.9532
0
LINE
8
BLACK
6
CONTINUOUS
10
57.5322
20
-96.9532
11
57.7203
21
-96.7352
0
LINE
8
BLACK
6
CONTINUOUS
10
57.7203
20
-96.7352
11
57.8625
21
-96.4849
0
LINE
8
BLACK
6
CONTINUOUS
10
57.8625
20
-96.4849
11
57.9533
21
-96.2118
0
LINE
8
BLACK
6
CONTINUOUS
10
57.9533
20
-96.2118
11
57.9894
21
-95.9262
0
LINE
8
BLACK
6
CONTINUOUS
10
57.9894
20
-95.9262
11
57.99
21
-95.885
0
LINE
8
BLACK
6
CONTINUOUS
10
57.99
20
-95.885
11
57.9619
21
-95.5985
0
LINE
8
BLACK
6
CONTINUOUS
10
57.9619
20
-95.5985
11
57.8787
21
-95.3229
  0
ENDSEC
  0
EOF
